<svg width="40" height="40" viewBox="0 0 40 40" fill="none" xmlns="http://www.w3.org/2000/svg">
<g clip-path="url(#clip0_3046_3332)">
<path d="M36.0938 0H3.90625C1.75234 0 0 1.75234 0 3.90625V8.28125V31.0938C0 33.2477 1.75234 35 3.90625 35H5.65156C5.0575 35.7288 4.70055 36.658 4.70055 37.6693V39.2188C4.70055 39.6502 5.05031 40 5.4818 40H11.9698C12.4013 40 12.7511 39.6502 12.7511 39.2188C12.7511 38.7873 12.4013 38.4375 11.9698 38.4375H6.26305V37.6693C6.26305 36.1974 7.46047 35 8.93234 35H22.0388C23.5105 35 24.708 36.1974 24.708 37.6693V38.4375H19.0011C18.5696 38.4375 18.2198 38.7873 18.2198 39.2188C18.2198 39.6502 18.5696 40 19.0011 40H25.4892C25.9206 40 26.2705 39.6502 26.2705 39.2188V37.6693C26.2705 36.658 25.9134 35.7288 25.3195 35H32.9991L33.4763 35.5644C34.1424 36.3522 35.1157 36.8288 36.1466 36.8717C36.1977 36.8738 36.2487 36.8749 36.2997 36.8749C37.2768 36.8749 38.2233 36.4849 38.9166 35.7916C39.6462 35.062 40.0399 34.0523 39.9968 33.0216C39.9845 32.725 39.9351 32.4336 39.8538 32.1525C39.9504 31.8094 40 31.4545 40 31.0938V8.28125V3.90625C40 1.75234 38.2477 0 36.0938 0ZM3.90625 1.5625H36.0938C37.3861 1.5625 38.4375 2.61391 38.4375 3.90625V7.5H1.5625V3.90625C1.5625 2.61391 2.61391 1.5625 3.90625 1.5625ZM1.5625 31.0938V9.0625H38.4375V30.1384L28.3066 21.572L29.1984 20.6802C29.4098 20.7364 29.6271 20.7652 29.8445 20.7652C30.4846 20.7652 31.1249 20.5215 31.6122 20.0342C32.0845 19.562 32.3445 18.9343 32.3445 18.2665C32.3445 17.5987 32.0845 16.9709 31.6123 16.4987L27.8558 12.7422C27.3836 12.27 26.7558 12.01 26.088 12.01C25.4202 12.01 24.7924 12.27 24.3203 12.7422C23.848 13.2144 23.588 13.8421 23.588 14.5099C23.588 14.7316 23.6173 14.9487 23.6729 15.1573L17.6743 21.1559C16.8403 20.9342 15.9134 21.1491 15.2605 21.802C14.2857 22.7769 14.2857 24.3628 15.2605 25.3377L19.017 29.0941C19.2941 29.3713 19.6208 29.5694 19.9688 29.689C19.9513 29.6887 19.9339 29.6877 19.9164 29.6877H11.0547C9.59 29.6877 8.39844 30.8792 8.39844 32.3439C8.39844 32.7338 8.48352 33.1038 8.63508 33.4377H3.90625C2.61391 33.4375 1.5625 32.3861 1.5625 31.0938ZM25.8057 24.073L27.1979 22.6808L28.9509 24.163L27.2879 25.8259L25.8057 24.073ZM22.3315 25.3374L19.017 22.0229L24.5412 16.4987L27.8557 19.8132L22.3315 25.3374ZM21.4476 27.9891C21.0821 28.3548 20.4872 28.3548 20.1217 27.9891L16.3652 24.2327C15.9997 23.8671 15.9997 23.2723 16.3652 22.9068C16.548 22.724 16.788 22.6327 17.0281 22.6327C17.2682 22.6327 17.5083 22.7241 17.691 22.9068L21.4476 26.6634C21.8131 27.0288 21.8131 27.6236 21.4476 27.9891ZM25.1505 14.5099C25.1505 14.2595 25.248 14.0241 25.4252 13.847C25.6023 13.67 25.8376 13.5725 26.088 13.5725C26.3384 13.5725 26.5738 13.67 26.7509 13.8471L30.5073 17.6036C30.6845 17.7807 30.782 18.0161 30.782 18.2665C30.782 18.5169 30.6845 18.7523 30.5073 18.9293C30.142 19.2948 29.5471 19.295 29.1816 18.9293L25.4251 15.1728C25.248 14.9957 25.1505 14.7603 25.1505 14.5099ZM19.9163 33.4375H11.0547C10.4516 33.4375 9.96094 32.9469 9.96094 32.3438C9.96094 31.7406 10.4516 31.25 11.0547 31.25H19.9163C20.5195 31.25 21.0101 31.7406 21.0101 32.3438C21.0101 32.9469 20.5194 33.4375 19.9163 33.4375ZM22.3359 33.4375C22.4874 33.1037 22.5725 32.7336 22.5725 32.3438C22.5725 31.1726 21.8103 30.1768 20.7562 29.8244C20.7656 29.8245 20.7752 29.8251 20.7846 29.8251C21.4248 29.8251 22.0651 29.5814 22.5524 29.094C23.2052 28.4412 23.4201 27.5142 23.1984 26.6802L24.697 25.1817L31.6779 33.4375H22.3359ZM37.8116 34.6866C37.3841 35.1143 36.8162 35.3361 36.2117 35.3105C35.6076 35.2853 35.0598 35.0171 34.6694 34.5554L28.3005 27.0232L30.1483 25.1754L37.6805 31.5443C38.1422 31.9348 38.4104 32.4825 38.4356 33.0866C38.4609 33.6908 38.2393 34.2591 37.8116 34.6866Z" fill="#C6B075"/>
<path d="M5 5.65088C5.20547 5.65088 5.40703 5.56799 5.55234 5.42189C5.69766 5.27666 5.78125 5.0751 5.78125 4.86963C5.78125 4.66416 5.69766 4.4626 5.55234 4.31728C5.40703 4.17197 5.20547 4.08838 5 4.08838C4.79453 4.08838 4.59297 4.17189 4.44766 4.31728C4.30234 4.4626 4.21875 4.66416 4.21875 4.86963C4.21875 5.0751 4.30234 5.27666 4.44766 5.42189C4.59297 5.56807 4.79453 5.65088 5 5.65088Z" fill="#C6B075"/>
<path d="M8.46338 5.65088C8.66885 5.65088 8.87041 5.56799 9.01572 5.42189C9.16182 5.27666 9.24463 5.0751 9.24463 4.86963C9.24463 4.66416 9.16182 4.4626 9.01572 4.31728C8.87041 4.17197 8.66963 4.08838 8.46338 4.08838C8.25791 4.08838 8.05635 4.17189 7.91104 4.31728C7.76572 4.46268 7.68213 4.66416 7.68213 4.86963C7.68213 5.0751 7.76572 5.27666 7.91104 5.42189C8.05713 5.56807 8.25791 5.65088 8.46338 5.65088Z" fill="#C6B075"/>
<path d="M11.9272 5.65088C12.1327 5.65088 12.3335 5.56799 12.4796 5.42189C12.6249 5.27666 12.7085 5.0751 12.7085 4.86963C12.7085 4.66416 12.6249 4.4626 12.4796 4.31728C12.3343 4.17197 12.1327 4.08838 11.9272 4.08838C11.721 4.08838 11.5202 4.17189 11.3749 4.31728C11.2288 4.4626 11.146 4.66416 11.146 4.86963C11.146 5.0751 11.2288 5.27666 11.3749 5.42189C11.5202 5.56807 11.7218 5.65088 11.9272 5.65088Z" fill="#C6B075"/>
<path d="M11.2241 22.6323C11.6556 22.6323 12.0054 22.2825 12.0054 21.8511V19.0391C12.0054 18.6077 11.6556 18.2578 11.2241 18.2578C10.7926 18.2578 10.4429 18.6077 10.4429 19.0391V21.8511C10.4429 22.2826 10.7926 22.6323 11.2241 22.6323Z" fill="#C6B075"/>
<path d="M8.74605 23.0068L6.06957 20.3303C5.76449 20.0253 5.2698 20.0253 4.96465 20.3303C4.65957 20.6354 4.65957 21.1301 4.96465 21.4352L7.64113 24.1117C7.79371 24.2642 7.99363 24.3405 8.19355 24.3405C8.39348 24.3405 8.59348 24.2642 8.74598 24.1117C9.05105 23.8066 9.05105 23.312 8.74605 23.0068Z" fill="#C6B075"/>
<path d="M7.17547 26.1636H4.33594C3.90445 26.1636 3.55469 26.5134 3.55469 26.9448C3.55469 27.3762 3.90445 27.7261 4.33594 27.7261H7.17547C7.60695 27.7261 7.95672 27.3762 7.95672 26.9448C7.95672 26.5134 7.60695 26.1636 7.17547 26.1636Z" fill="#C6B075"/>
<path d="M15.4854 38.4375C15.2799 38.4375 15.0791 38.521 14.933 38.6664C14.7877 38.8117 14.7041 39.0133 14.7041 39.2188C14.7041 39.4242 14.7877 39.6258 14.933 39.771C15.0783 39.9163 15.2799 40 15.4854 40C15.6916 40 15.8924 39.9164 16.0385 39.771C16.1838 39.6258 16.2666 39.4242 16.2666 39.2188C16.2666 39.0133 16.1838 38.8117 16.0385 38.6664C15.8924 38.521 15.6916 38.4375 15.4854 38.4375Z" fill="#C6B075"/>
</g>
<defs>
<clipPath id="clip0_3046_3332">
<rect width="40" height="40" fill="white"/>
</clipPath>
</defs>
</svg>
