<svg width="54" height="54" viewBox="0 0 54 54" fill="none" xmlns="http://www.w3.org/2000/svg">
<path fill-rule="evenodd" clip-rule="evenodd" d="M32.4242 2.42417C34.1498 0.69853 36.586 0 39.375 0H44.375C45.4105 0 46.25 0.83947 46.25 1.875C46.25 2.91053 45.4105 3.75 44.375 3.75H39.375C37.164 3.75 35.8502 4.30148 35.0758 5.07583C34.3015 5.85018 33.75 7.164 33.75 9.375V14.375C33.75 16.586 34.3015 17.8998 35.0758 18.6742C35.8502 19.4485 37.164 20 39.375 20H44.375C46.586 20 47.8998 19.4485 48.6742 18.6742C49.4485 17.8998 50 16.586 50 14.375V9.375C50 8.3395 50.8395 7.5 51.875 7.5C52.9105 7.5 53.75 8.3395 53.75 9.375V14.375C53.75 17.164 53.0515 19.6002 51.3258 21.3258C49.6002 23.0515 47.164 23.75 44.375 23.75H39.375C36.586 23.75 34.1498 23.0515 32.4242 21.3258C30.6985 19.6002 30 17.164 30 14.375V9.375C30 6.58598 30.6985 4.14982 32.4242 2.42417Z" fill="#A9A9A9"/>
<path fill-rule="evenodd" clip-rule="evenodd" d="M2.42417 32.4242C4.14982 30.6985 6.58598 30 9.375 30H14.375C17.164 30 19.6002 30.6985 21.3258 32.4242C23.0515 34.1498 23.75 36.586 23.75 39.375V44.375C23.75 47.164 23.0515 49.6002 21.3258 51.3258C19.6002 53.0515 17.164 53.75 14.375 53.75H9.375C8.3395 53.75 7.5 52.9105 7.5 51.875C7.5 50.8395 8.3395 50 9.375 50H14.375C16.586 50 17.8998 49.4485 18.6742 48.6742C19.4485 47.8998 20 46.586 20 44.375V39.375C20 37.164 19.4485 35.8502 18.6742 35.0758C17.8998 34.3015 16.586 33.75 14.375 33.75H9.375C7.164 33.75 5.85018 34.3015 5.07583 35.0758C4.30148 35.8502 3.75 37.164 3.75 39.375V44.375C3.75 45.4105 2.91053 46.25 1.875 46.25C0.83947 46.25 0 45.4105 0 44.375V39.375C0 36.586 0.69853 34.1498 2.42417 32.4242Z" fill="#A9A9A9"/>
<path fill-rule="evenodd" clip-rule="evenodd" d="M11.875 3.75C7.3877 3.75 3.75 7.3877 3.75 11.875C3.75 16.3623 7.3877 20 11.875 20C16.3623 20 20 16.3623 20 11.875C20 7.3877 16.3623 3.75 11.875 3.75ZM0 11.875C0 5.31662 5.31662 0 11.875 0C18.4334 0 23.75 5.31662 23.75 11.875C23.75 18.4334 18.4334 23.75 11.875 23.75C5.31662 23.75 0 18.4334 0 11.875Z" fill="#A9A9A9"/>
<path fill-rule="evenodd" clip-rule="evenodd" d="M41.875 33.75C37.3877 33.75 33.75 37.3877 33.75 41.875C33.75 46.3623 37.3877 50 41.875 50C46.3623 50 50 46.3623 50 41.875C50 37.3877 46.3623 33.75 41.875 33.75ZM30 41.875C30 35.3166 35.3166 30 41.875 30C48.4334 30 53.75 35.3166 53.75 41.875C53.75 48.4334 48.4334 53.75 41.875 53.75C35.3166 53.75 30 48.4334 30 41.875Z" fill="#A9A9A9"/>
</svg>
