<svg width="40" height="40" viewBox="0 0 40 40" fill="none" xmlns="http://www.w3.org/2000/svg">
<path id="Vector" d="M6.0999 24.2531C6.23186 24.2531 6.36382 24.2008 6.46175 24.0971L8.93076 21.4888C9.1955 21.6307 9.49759 21.7112 9.81877 21.7112C10.2512 21.7112 10.6503 21.5643 10.969 21.3187L11.506 21.7245C11.4197 21.9403 11.3715 22.1759 11.3715 22.4224C11.3715 23.4614 12.2172 24.3071 13.2563 24.3071C14.2954 24.3071 15.141 23.4614 15.141 22.4224C15.141 21.883 14.9136 21.3967 14.5493 21.0531L15.7178 18.8589C15.8515 18.8888 15.99 18.9054 16.1328 18.9054C16.3892 18.9054 16.6332 18.8539 16.8557 18.761L17.5702 19.6797C17.3337 19.9942 17.1943 20.3851 17.1943 20.8083C17.1943 21.8473 18.0399 22.6929 19.079 22.6929C20.1181 22.6929 20.9638 21.8473 20.9638 20.8083C20.9638 20.3079 20.7671 19.8523 20.4475 19.5145L23.0875 15.1718C23.9432 15.6581 24.9308 15.9378 25.9831 15.9378C29.2231 15.9378 31.8598 13.3012 31.8598 10.0614C31.8598 6.82158 29.2231 4.18506 25.9831 4.18506C22.7431 4.18506 20.1064 6.82158 20.1064 10.0614C20.1064 11.8921 20.948 13.5295 22.2642 14.6075L19.5969 18.9959C19.4317 18.9485 19.2583 18.9228 19.0782 18.9228C18.8226 18.9228 18.5777 18.9743 18.3553 19.0672L17.6408 18.1485C17.8773 17.834 18.0167 17.4432 18.0167 17.0199C18.0167 15.9809 17.171 15.1353 16.132 15.1353C15.0929 15.1353 14.2472 15.9809 14.2472 17.0199C14.2472 17.5593 14.4754 18.0456 14.839 18.3892L13.6704 20.5834C13.5368 20.5535 13.3982 20.5369 13.2555 20.5369C12.8231 20.5369 12.4239 20.6838 12.1052 20.9295L11.5682 20.5237C11.6546 20.3079 11.7027 20.0722 11.7027 19.8257C11.7027 18.7867 10.857 17.9411 9.81794 17.9411C8.77888 17.9411 7.93319 18.7867 7.93319 19.8257C7.93319 20.1834 8.03362 20.5187 8.20707 20.8033L5.73806 23.4116C5.54884 23.6116 5.55797 23.9261 5.75715 24.1154C5.85425 24.2083 5.97708 24.2531 6.0999 24.2531ZM21.104 10.0622C21.104 7.37095 23.2933 5.18174 25.9848 5.18174C28.6762 5.18174 30.8655 7.37095 30.8655 10.0622C30.8655 12.7535 28.6762 14.9427 25.9848 14.9427C23.2933 14.9427 21.104 12.7535 21.104 10.0622ZM19.9687 20.8091C19.9687 21.2996 19.5695 21.6979 19.0798 21.6979C18.5902 21.6979 18.191 21.2988 18.191 20.8091C18.191 20.3195 18.5902 19.9203 19.0798 19.9203C19.5695 19.9203 19.9687 20.3187 19.9687 20.8091ZM16.1328 16.132C16.6233 16.132 17.0216 16.5311 17.0216 17.0207C17.0216 17.5104 16.6224 17.9095 16.1328 17.9095C15.6423 17.9095 15.2439 17.5104 15.2439 17.0207C15.2439 16.5311 15.6423 16.132 16.1328 16.132ZM14.1451 22.4224C14.1451 22.9129 13.7459 23.3112 13.2563 23.3112C12.7666 23.3112 12.3675 22.912 12.3675 22.4224C12.3675 21.9328 12.7666 21.5336 13.2563 21.5336C13.7459 21.5336 14.1451 21.9328 14.1451 22.4224ZM9.81877 18.9378C10.3093 18.9378 10.7076 19.3369 10.7076 19.8266C10.7076 20.3162 10.3084 20.7154 9.81877 20.7154C9.32912 20.7154 8.92993 20.3162 8.92993 19.8266C8.92993 19.3369 9.32829 18.9378 9.81877 18.9378ZM7.25598 7.13195C7.25598 6.85726 7.47923 6.63403 7.75393 6.63403H13.5493C13.824 6.63403 14.0472 6.85726 14.0472 7.13195C14.0472 7.40664 13.824 7.62988 13.5493 7.62988H7.75393C7.47923 7.62988 7.25598 7.40664 7.25598 7.13195ZM7.25598 10.0996C7.25598 9.8249 7.47923 9.60166 7.75393 9.60166H13.5493C13.824 9.60166 14.0472 9.8249 14.0472 10.0996C14.0472 10.3743 13.824 10.5975 13.5493 10.5975H7.75393C7.47923 10.5975 7.25598 10.3751 7.25598 10.0996ZM37.3472 31.1568C37.4235 30.888 37.4625 30.6108 37.4625 30.3295V28.4373C39.5822 26.7295 40.554 23.8324 39.6793 21.0863C39.2593 19.766 38.4701 18.6647 37.4625 17.8573V9.12365C37.4625 7.4473 36.099 6.08382 34.4225 6.08382H33.5802V3.15685C33.5802 1.41577 32.1643 0 30.4232 0H7.03937C5.29903 0 3.88236 1.41577 3.88236 3.15685V6.08299H3.03999C1.36356 6.08299 0 7.4473 0 9.12365V30.3295C0 32.0058 1.36356 33.3693 3.03999 33.3693H14.2124L12.6372 39.0042H10.4055C10.1308 39.0042 9.90757 39.2274 9.90757 39.5021C9.90757 39.7768 10.1308 40 10.4055 40H27.057C27.3317 40 27.555 39.7768 27.555 39.5021C27.555 39.2274 27.3317 39.0042 27.057 39.0042H24.8254L23.2502 33.3693H34.4225C34.5719 33.3693 34.7205 33.3577 34.8674 33.3353L36.6542 38.9469C36.7762 39.3303 37.0418 39.644 37.4011 39.8299C37.6194 39.9427 37.8568 40 38.0958 40C38.2493 40 38.4037 39.9759 38.5539 39.9286C38.9373 39.8066 39.251 39.5411 39.4369 39.1817C39.6228 38.8224 39.6577 38.4133 39.5357 38.029L37.3472 31.1568ZM36.4675 30.3295C36.4675 30.4407 36.4583 30.5502 36.4401 30.6589L36.1538 30.7502L35.7388 29.4456C35.9911 29.3444 36.2343 29.2307 36.4675 29.1029V30.3295ZM38.7315 21.3884C39.7008 24.4324 38.0128 27.6979 34.9678 28.6672C31.9228 29.6365 28.6579 27.9485 27.6886 24.9037C26.7192 21.8598 28.4073 18.5942 31.4523 17.6249C32.0349 17.4398 32.6249 17.351 33.2067 17.351C35.6624 17.351 37.9472 18.9261 38.7315 21.3884ZM34.4234 7.07884C35.5504 7.07884 36.4675 7.99585 36.4675 9.12282V17.1934C35.5861 16.7112 34.601 16.4232 33.581 16.3668V7.07884H34.4234ZM4.87909 3.15685C4.87909 1.96515 5.84844 0.995851 7.03937 0.995851H30.4232C31.6149 0.995851 32.5843 1.96515 32.5843 3.15685V16.3859C32.1062 16.4299 31.6257 16.5245 31.1493 16.6763C27.5815 17.8124 25.603 21.639 26.7392 25.2066C27.0147 26.0714 27.4487 26.8423 27.999 27.4988H7.03937C5.84761 27.4988 4.87826 26.5295 4.87826 25.3378V3.15685H4.87909ZM3.03999 7.07884H3.88236V25.3361C3.88236 26.1718 4.20935 26.932 4.74133 27.4971H0.995903V9.12365C0.995903 7.99585 1.91296 7.07884 3.03999 7.07884ZM23.7921 39.0042H13.6713L15.2464 33.3693H22.2169L23.7921 39.0042ZM34.4234 32.3734H3.03999C1.91296 32.3734 0.995903 31.4564 0.995903 30.3295V28.4938H29.0297C30.2124 29.4149 31.6855 29.9369 33.215 29.9369C33.7362 29.9369 34.2649 29.8755 34.7902 29.7494L35.2052 31.0523L34.713 31.2091C34.4508 31.2929 34.3064 31.5726 34.3894 31.8349L34.5595 32.3685C34.5138 32.371 34.469 32.3734 34.4234 32.3734ZM38.5522 38.7245C38.4883 38.8473 38.3821 38.9386 38.251 38.9801C38.1207 39.0216 37.9812 39.0091 37.8576 38.9461C37.7348 38.8822 37.6435 38.7759 37.602 38.6456L35.4882 32.0075L36.4716 31.6946L38.5854 38.3328C38.6286 38.4622 38.6161 38.6017 38.5522 38.7245ZM37.3381 20.4017C38.0709 21.5046 38.3306 22.8266 38.07 24.1245C38.0227 24.361 37.8144 24.5245 37.582 24.5245C37.5497 24.5245 37.5165 24.5212 37.4833 24.5145C37.2136 24.4606 37.0393 24.1975 37.0932 23.9278C37.3024 22.8905 37.0941 21.834 36.509 20.9527C35.923 20.0714 35.0292 19.4714 33.9918 19.2622C33.7221 19.2083 33.5478 18.9452 33.6018 18.6755C33.6557 18.4058 33.918 18.2315 34.1885 18.2855C35.4865 18.5477 36.6052 19.2988 37.3381 20.4017ZM26.7823 11.1983C26.7823 10.9942 26.5707 10.8647 25.9756 10.6033C25.9109 10.5751 25.8453 10.5461 25.7798 10.5162C25.7175 10.488 25.6545 10.4606 25.5922 10.4332C24.9681 10.1585 24.1913 9.8166 24.1913 8.92697C24.1913 8.1834 24.7391 7.55519 25.4868 7.35768V6.63237C25.4868 6.35768 25.7101 6.13444 25.9848 6.13444C26.2595 6.13444 26.4827 6.35768 26.4827 6.63237V7.35768C27.2296 7.55519 27.7782 8.1834 27.7782 8.92697C27.7782 9.20166 27.555 9.4249 27.2803 9.4249C27.0056 9.4249 26.7823 9.20166 26.7823 8.92697C26.7823 8.5751 26.4246 8.2888 25.9848 8.2888C25.5449 8.2888 25.1872 8.5751 25.1872 8.92697C25.1872 9.13112 25.3988 9.26058 25.9931 9.52199C26.0578 9.55021 26.1234 9.57925 26.1889 9.60913C26.2512 9.63734 26.3142 9.66473 26.3765 9.69212C27.0006 9.9668 27.7774 10.3087 27.7774 11.1983C27.7774 11.9419 27.2296 12.5701 26.4819 12.7676V13.4929C26.4819 13.7676 26.2586 13.9909 25.9839 13.9909C25.7092 13.9909 25.486 13.7676 25.486 13.4929V12.7676C24.7391 12.5701 24.1905 11.9419 24.1905 11.1983C24.1905 10.9237 24.4137 10.7004 24.6884 10.7004C24.9631 10.7004 25.1864 10.9237 25.1864 11.1983C25.1864 11.5502 25.5441 11.8365 25.9839 11.8365C26.4238 11.8365 26.7823 11.5502 26.7823 11.1983Z" fill="#C6B075"/>
</svg>
