<svg width="40" height="41" viewBox="0 0 40 41" fill="none" xmlns="http://www.w3.org/2000/svg">
<g id="Group">
<path id="Vector" d="M35.8116 0H4.18845C1.87758 0 0 1.87758 0 4.18845V7.04264V36.4374C0 38.7483 1.87758 40.6259 4.18845 40.6259H35.8116C38.1224 40.6259 40 38.7483 40 36.4374V7.03576V4.18845C40 1.87758 38.1224 0 35.8116 0ZM0.928473 4.18845C0.928473 2.3934 2.38652 0.935351 4.18157 0.935351H35.8047C37.5997 0.935351 39.0578 2.3934 39.0578 4.18845V6.57497H0.928473V4.18845ZM39.0715 36.4305C39.0715 38.2256 37.6135 39.6836 35.8184 39.6836H4.18845C2.3934 39.6836 0.935351 38.2256 0.935351 36.4305V7.50344H39.0715V36.4305Z" fill="#C6B075"/>
<path id="Vector_2" d="M5.82601 4.37419C6.16787 4.37419 6.445 4.09707 6.445 3.75521C6.445 3.41336 6.16787 3.13623 5.82601 3.13623C5.48416 3.13623 5.20703 3.41336 5.20703 3.75521C5.20703 4.09707 5.48416 4.37419 5.82601 4.37419Z" fill="#C6B075"/>
<path id="Vector_3" d="M9.05844 4.37419C9.40029 4.37419 9.67742 4.09707 9.67742 3.75521C9.67742 3.41336 9.40029 3.13623 9.05844 3.13623C8.71658 3.13623 8.43945 3.41336 8.43945 3.75521C8.43945 4.09707 8.71658 4.37419 9.05844 4.37419Z" fill="#C6B075"/>
<path id="Vector_4" d="M12.283 4.37419C12.6249 4.37419 12.902 4.09707 12.902 3.75521C12.902 3.41336 12.6249 3.13623 12.283 3.13623C11.9412 3.13623 11.6641 3.41336 11.6641 3.75521C11.6641 4.09707 11.9412 4.37419 12.283 4.37419Z" fill="#C6B075"/>
<path id="Vector_5" d="M34.6149 3.28735H21.9188C21.6644 3.28735 21.4512 3.49368 21.4512 3.75503C21.4512 4.0095 21.6575 4.2227 21.9188 4.2227H34.6149C34.8693 4.2227 35.0825 4.01638 35.0825 3.75503C35.0825 3.49368 34.8762 3.28735 34.6149 3.28735Z" fill="#C6B075"/>
<path id="Vector_6" d="M7.04907 27.9302H17.4961H22.5099C22.6199 27.9302 22.7231 27.9233 22.8331 27.9095C23.4727 27.8408 24.0711 27.5657 24.5388 27.1255C24.6144 27.0498 24.6901 26.9742 24.7588 26.8917C25.2059 26.3552 25.4604 25.6812 25.4604 24.9866V14.1819C25.4604 12.5588 24.1399 11.2383 22.5167 11.2383H7.04907C5.42596 11.2383 4.10547 12.5588 4.10547 14.1819V24.9866C4.10547 25.578 4.28429 26.1489 4.62129 26.6509C5.17149 27.4487 6.07933 27.9302 7.04907 27.9302ZM6.60203 26.9467C6.55389 26.9329 6.51262 26.9192 6.46448 26.9054C6.36819 26.8779 6.27191 26.8435 6.1825 26.7954C6.13435 26.7679 6.08621 26.7403 6.03807 26.7128C5.95554 26.6647 5.87988 26.6097 5.80423 26.5547C5.75609 26.5203 5.71482 26.479 5.67356 26.4446C5.65292 26.424 5.63229 26.3965 5.60478 26.369L10.2403 20.0485C10.3847 19.849 10.6185 19.7321 10.8661 19.7321C11.1137 19.7321 11.3407 19.849 11.492 20.0485L16.5814 26.9948L16.5952 27.0086H7.04907C6.89777 27.0017 6.74646 26.9811 6.60203 26.9467ZM17.7368 27.0017L16.0037 24.6289L18.3489 22.2837C18.6447 21.9879 19.1536 21.9879 19.4425 22.2837L23.741 26.5822C23.741 26.5822 23.741 26.5822 23.7341 26.589C23.7272 26.5959 23.7134 26.6028 23.7066 26.6097C23.6103 26.6784 23.5071 26.7403 23.404 26.7954C23.3696 26.816 23.3283 26.8298 23.2939 26.8435C23.2045 26.8779 23.1151 26.9123 23.0257 26.9329C22.9913 26.9398 22.95 26.9536 22.9088 26.9604C22.7781 26.9879 22.6474 27.0017 22.5167 27.0017H17.7368ZM5.03394 14.1819C5.03394 13.0677 5.9349 12.1668 7.04907 12.1668H22.5167C23.6309 12.1668 24.5319 13.0677 24.5319 14.1819V24.9866C24.5319 25.2961 24.4562 25.5849 24.3256 25.8531L20.0958 21.6234C19.4493 20.9769 18.3283 20.9769 17.6818 21.6234L15.4397 23.8655L12.2279 19.4845C11.9046 19.0443 11.4026 18.7899 10.8524 18.7899C10.3022 18.7899 9.8001 19.0443 9.47686 19.4845L5.09584 25.4611C5.05457 25.3029 5.03394 25.1447 5.03394 24.9797V14.1819Z" fill="#C6B075"/>
<path id="Vector_7" d="M17.2412 18.3222C18.4792 18.3222 19.4902 17.3112 19.4902 16.0732C19.4902 14.8352 18.4792 13.8242 17.2412 13.8242C15.9963 13.8242 14.9922 14.8352 14.9922 16.0732C14.9853 17.318 15.9963 18.3222 17.2412 18.3222ZM17.2412 14.7527C17.9702 14.7527 18.5617 15.3442 18.5617 16.0732C18.5617 16.8022 17.9702 17.3937 17.2412 17.3937C16.5122 17.3937 15.9207 16.8022 15.9207 16.0732C15.9207 15.3442 16.5122 14.7527 17.2412 14.7527Z" fill="#C6B075"/>
<path id="Vector_8" d="M28.2665 14.7522H36.9598C37.2142 14.7522 37.4274 14.5459 37.4274 14.2846C37.4274 14.0301 37.2211 13.8169 36.9598 13.8169H28.2665C28.012 13.8169 27.7988 14.0232 27.7988 14.2846C27.7988 14.5459 28.012 14.7522 28.2665 14.7522Z" fill="#C6B075"/>
<path id="Vector_9" d="M28.2665 19.0164H36.9598C37.2142 19.0164 37.4274 18.8101 37.4274 18.5487C37.4274 18.2943 37.2211 18.0811 36.9598 18.0811H28.2665C28.012 18.0811 27.7988 18.2874 27.7988 18.5487C27.7988 18.8032 28.012 19.0164 28.2665 19.0164Z" fill="#C6B075"/>
<path id="Vector_10" d="M28.2665 23.2737H36.9598C37.2142 23.2737 37.4274 23.0674 37.4274 22.8061C37.4274 22.5447 37.2211 22.3384 36.9598 22.3384H28.2665C28.012 22.3384 27.7988 22.5447 27.7988 22.8061C27.7988 23.0674 28.012 23.2737 28.2665 23.2737Z" fill="#C6B075"/>
<path id="Vector_11" d="M28.2665 27.5311H36.9598C37.2142 27.5311 37.4274 27.3247 37.4274 27.0634C37.4274 26.8089 37.2211 26.5957 36.9598 26.5957H28.2665C28.012 26.5957 27.7988 26.802 27.7988 27.0634C27.7988 27.3247 28.012 27.5311 28.2665 27.5311Z" fill="#C6B075"/>
<path id="Vector_12" d="M3.80361 31.7952H36.1901C36.4446 31.7952 36.6578 31.5889 36.6578 31.3275C36.6578 31.0731 36.4515 30.8599 36.1901 30.8599H3.80361C3.54914 30.8599 3.33594 31.0662 3.33594 31.3275C3.34282 31.5889 3.54914 31.7952 3.80361 31.7952Z" fill="#C6B075"/>
<path id="Vector_13" d="M36.1975 35.124H23.5634C23.3089 35.124 23.0957 35.3304 23.0957 35.5917C23.0957 35.8462 23.302 36.0594 23.5634 36.0594H36.1906C36.4451 36.0594 36.6583 35.853 36.6583 35.5917C36.6583 35.3304 36.452 35.124 36.1975 35.124Z" fill="#C6B075"/>
<path id="Vector_14" d="M19.9035 35.124H11.788C11.5335 35.124 11.3203 35.3304 11.3203 35.5917C11.3203 35.8462 11.5266 36.0594 11.788 36.0594H19.8967C20.1511 36.0594 20.3643 35.853 20.3643 35.5917C20.3643 35.3304 20.158 35.124 19.9035 35.124Z" fill="#C6B075"/>
<path id="Vector_15" d="M3.80361 36.0525H9.16812C9.4226 36.0525 9.6358 35.8462 9.6358 35.5849C9.6358 35.3304 9.42947 35.1172 9.16812 35.1172H3.80361C3.54914 35.1172 3.33594 35.3235 3.33594 35.5849C3.34282 35.8462 3.54914 36.0525 3.80361 36.0525Z" fill="#C6B075"/>
</g>
</svg>
