<svg width="40" height="40" viewBox="0 0 40 40" fill="none" xmlns="http://www.w3.org/2000/svg">
<g id="ads 1">
<path id="Vector" d="M37.0703 3.0437H2.92969C1.31406 3.0437 0 4.35854 0 5.97339V34.0265C0 35.6421 1.31406 36.9562 2.92969 36.9562H37.0703C38.6859 36.9562 40 35.6421 40 34.0265V5.97339C40 4.35776 38.6859 3.0437 37.0703 3.0437ZM1.17188 5.97339C1.17188 5.00386 1.96016 4.21558 2.92969 4.21558H37.0703C38.0398 4.21558 38.8281 5.00386 38.8281 5.97339V8.70073H1.17188V5.97339ZM37.0703 35.7843H2.92969C1.96016 35.7843 1.17188 34.996 1.17188 34.0265V9.87261H38.8281V34.0265C38.8281 34.996 38.0398 35.7843 37.0703 35.7843Z" fill="#C6B075"/>
<path id="Vector_2" d="M4.5 5.87256H4.05859C3.73516 5.87256 3.47266 6.13506 3.47266 6.4585C3.47266 6.78193 3.73516 7.04443 4.05859 7.04443H4.5C4.82344 7.04443 5.08594 6.78193 5.08594 6.4585C5.08594 6.13506 4.82344 5.87256 4.5 5.87256Z" fill="#C6B075"/>
<path id="Vector_3" d="M7.61328 5.87256H7.17188C6.84844 5.87256 6.58594 6.13506 6.58594 6.4585C6.58594 6.78193 6.84844 7.04443 7.17188 7.04443H7.61328C7.93672 7.04443 8.19922 6.78193 8.19922 6.4585C8.19922 6.13506 7.93672 5.87256 7.61328 5.87256Z" fill="#C6B075"/>
<path id="Vector_4" d="M10.7266 5.87256H10.2852C9.96172 5.87256 9.69922 6.13506 9.69922 6.4585C9.69922 6.78193 9.96172 7.04443 10.2852 7.04443H10.7266C11.05 7.04443 11.3125 6.78193 11.3125 6.4585C11.3125 6.13506 11.05 5.87256 10.7266 5.87256Z" fill="#C6B075"/>
<path id="Vector_5" d="M6.44531 27.6791H18.5977C19.782 27.6791 20.7461 26.715 20.7461 25.5307V14.0049C20.7461 12.8205 19.782 11.8564 18.5977 11.8564H6.44531C5.26094 11.8564 4.29688 12.8205 4.29688 14.0049V25.5307C4.29688 26.715 5.26094 27.6791 6.44531 27.6791ZM5.46875 14.0049C5.46875 13.4666 5.90703 13.0283 6.44531 13.0283H18.5977C19.1359 13.0283 19.5742 13.4666 19.5742 14.0049V25.5307C19.5742 26.0689 19.1359 26.5072 18.5977 26.5072H6.44531C5.90703 26.5072 5.46875 26.0689 5.46875 25.5307V14.0049Z" fill="#C6B075"/>
<path id="Vector_6" d="M7.09541 22.9693C7.39775 23.0842 7.73603 22.9326 7.85166 22.6303L8.204 21.7045H10.5978L10.947 22.6287C11.0353 22.8631 11.2587 23.0076 11.4954 23.0076C11.5642 23.0076 11.6345 22.9951 11.7024 22.9701C12.0056 22.8561 12.1579 22.5178 12.0438 22.2146L10.0688 16.9803C10.0665 16.9748 10.0649 16.9693 10.0626 16.9639C9.95322 16.6982 9.69697 16.5264 9.40947 16.5264H9.40869C9.12119 16.5264 8.86494 16.699 8.75557 16.9654C8.754 16.9701 8.75166 16.974 8.7501 16.9787L6.75713 22.2123C6.64228 22.5146 6.79385 22.8529 7.09619 22.9686L7.09541 22.9693ZM9.40635 18.5475L10.1556 20.5326H8.6501L9.40635 18.5475Z" fill="#C6B075"/>
<path id="Vector_7" d="M13.6234 22.3455C13.6234 22.501 13.6859 22.6494 13.7969 22.7596C13.9063 22.8689 14.0547 22.9299 14.2094 22.9299H14.2117C14.2555 22.9299 15.2961 22.926 15.7109 22.9182C17.225 22.8916 18.3242 21.5666 18.3242 19.7682C18.3242 17.8768 17.2524 16.6064 15.6578 16.6064H14.1992C14.0438 16.6064 13.8945 16.6682 13.7844 16.7783C13.6742 16.8885 13.6125 17.0377 13.6133 17.1932L13.6234 22.3455ZM15.6578 17.7775C16.7594 17.7775 17.1524 18.8057 17.1524 19.7674C17.1524 21.1166 16.418 21.733 15.6906 21.7463C15.4859 21.7502 15.1141 21.7525 14.7938 21.7549C14.7914 21.1455 14.7875 18.4119 14.7867 17.7783H15.6586L15.6578 17.7775Z" fill="#C6B075"/>
<path id="Vector_8" d="M35.6516 11.8564H25.0469C24.7234 11.8564 24.4609 12.1189 24.4609 12.4424C24.4609 12.7658 24.7234 13.0283 25.0469 13.0283H35.6516C35.975 13.0283 36.2375 12.7658 36.2375 12.4424C36.2375 12.1189 35.975 11.8564 35.6516 11.8564Z" fill="#C6B075"/>
<path id="Vector_9" d="M35.6516 14.8701H25.0469C24.7234 14.8701 24.4609 15.1326 24.4609 15.4561C24.4609 15.7795 24.7234 16.042 25.0469 16.042H35.6516C35.975 16.042 36.2375 15.7795 36.2375 15.4561C36.2375 15.1326 35.975 14.8701 35.6516 14.8701Z" fill="#C6B075"/>
<path id="Vector_10" d="M35.6516 17.8843H25.0469C24.7234 17.8843 24.4609 18.1468 24.4609 18.4702C24.4609 18.7937 24.7234 19.0562 25.0469 19.0562H35.6516C35.975 19.0562 36.2375 18.7937 36.2375 18.4702C36.2375 18.1468 35.975 17.8843 35.6516 17.8843Z" fill="#C6B075"/>
<path id="Vector_11" d="M34.2023 20.8071H26.4961C25.3742 20.8071 24.4609 21.7204 24.4609 22.8423V25.6438C24.4609 26.7657 25.3742 27.679 26.4961 27.679H34.2023C35.3242 27.679 36.2375 26.7657 36.2375 25.6438V22.8423C36.2375 21.7204 35.3242 20.8071 34.2023 20.8071ZM35.0656 25.6438C35.0656 26.1196 34.6781 26.5071 34.2023 26.5071H26.4961C26.0203 26.5071 25.6328 26.1196 25.6328 25.6438V22.8423C25.6328 22.3665 26.0203 21.979 26.4961 21.979H34.2023C34.6781 21.979 35.0656 22.3665 35.0656 22.8423V25.6438Z" fill="#C6B075"/>
<path id="Vector_12" d="M34.7039 29.4351H5.83047C4.98516 29.4351 4.29688 30.1233 4.29688 30.9687V32.5101C4.29688 33.3554 4.98516 34.0437 5.83047 34.0437H34.7039C35.5492 34.0437 36.2375 33.3554 36.2375 32.5101V30.9687C36.2375 30.1233 35.5492 29.4351 34.7039 29.4351ZM35.0656 32.5101C35.0656 32.7093 34.9031 32.8718 34.7039 32.8718H5.83047C5.63125 32.8718 5.46875 32.7093 5.46875 32.5101V30.9687C5.46875 30.7694 5.63125 30.6069 5.83047 30.6069H34.7039C34.9031 30.6069 35.0656 30.7694 35.0656 30.9687V32.5101Z" fill="#C6B075"/>
</g>
</svg>
