<svg width="40" height="40" viewBox="0 0 40 40" fill="none" xmlns="http://www.w3.org/2000/svg">
<g id="planning 1" clip-path="url(#clip0_33_568)">
<path id="Vector" d="M26.969 37.7845C26.759 37.7845 26.5735 37.8889 26.46 38.0488C26.1041 38.4949 25.5737 38.7501 25 38.7501H3.75C2.71606 38.7501 1.875 37.909 1.875 36.8751V6.87506C1.875 6.01813 2.45239 5.27228 3.27942 5.06171C3.61389 4.97687 3.81592 4.63629 3.73047 4.30182C3.64502 3.96735 3.30444 3.76349 2.97058 3.85077C1.58936 4.20233 0.625 5.44562 0.625 6.87506V36.8751C0.625 38.5981 2.02698 40.0001 3.75 40.0001H25C25.9705 40.0001 26.8683 39.5612 27.4628 38.7958C27.5476 38.686 27.594 38.545 27.594 38.4064C27.594 38.061 27.3145 37.7845 26.969 37.7845Z" fill="#C6B075"/>
<path id="Vector_2" d="M7.5 36.25H22.3749C22.7203 36.25 22.9999 35.9705 22.9999 35.625C22.9999 35.2795 22.7203 35 22.3749 35H7.5C6.46606 35 5.625 34.1589 5.625 33.125V3.125C5.625 2.09106 6.46606 1.25 7.5 1.25H23.125V8.125C23.125 8.47046 23.4045 8.75 23.75 8.75H30.625V20C30.625 20.3455 30.9045 20.625 31.25 20.625C31.5955 20.625 31.875 20.3455 31.875 20V8.125C31.875 8.04146 31.858 7.95994 31.8265 7.88445C31.7947 7.80827 31.7487 7.73964 31.6911 7.6823L24.1927 0.183907C24.1354 0.126343 24.0667 0.0802994 23.9906 0.0484848C23.9151 0.0169754 23.8335 0 23.75 0H7.5C5.77698 0 4.375 1.40198 4.375 3.125V33.125C4.375 34.848 5.77698 36.25 7.5 36.25ZM24.375 2.13379L29.7412 7.5H24.375V2.13379Z" fill="#C6B075"/>
<path id="Vector_3" d="M14.1919 8.30811C13.9478 8.06396 13.5522 8.06396 13.3081 8.30811L10.625 10.9912L9.19189 9.55811C8.94775 9.31396 8.55225 9.31396 8.30811 9.55811C8.06396 9.80225 8.06396 10.1978 8.30811 10.4419L10.1831 12.3169C10.3052 12.439 10.4651 12.5 10.625 12.5C10.7849 12.5 10.9448 12.439 11.0669 12.3169L14.1919 9.19189C14.436 8.94775 14.436 8.55225 14.1919 8.30811Z" fill="#C6B075"/>
<path id="Vector_4" d="M37.6959 27.5C37.4371 27.5 37.3328 27.3145 37.2998 27.2351C37.2668 27.1558 37.2095 26.9507 37.3926 26.7682C37.71 26.4508 37.8845 26.0291 37.8845 25.5804C37.8845 25.1324 37.71 24.7107 37.3926 24.3933L36.2317 23.2324C35.5963 22.597 34.4904 22.5977 33.8574 23.2324C33.6743 23.4155 33.4686 23.3582 33.3899 23.3252C33.3105 23.2922 33.125 23.1879 33.125 22.9291C33.125 22.0032 32.3718 21.25 31.4459 21.25H29.8041C28.8782 21.25 28.125 22.0032 28.125 22.9291C28.125 23.1879 27.9395 23.2922 27.8601 23.3252C27.7795 23.3582 27.5751 23.4155 27.3932 23.2324C26.7596 22.5983 25.6543 22.5977 25.0183 23.2324L23.8574 24.3933C23.54 24.7107 23.3655 25.1324 23.3655 25.5804C23.3655 26.0291 23.54 26.4508 23.8574 26.7676C24.0405 26.9507 23.9832 27.1558 23.9502 27.2351C23.9172 27.3145 23.8129 27.5 23.5541 27.5C22.6282 27.5 21.875 28.2532 21.875 29.1791V30.8209C21.875 31.7468 22.6282 32.5 23.5541 32.5C23.8129 32.5 23.9172 32.6855 23.9502 32.7649C23.9832 32.8442 24.0405 33.0493 23.8574 33.2318C23.54 33.5492 23.3655 33.9709 23.3655 34.4196C23.3655 34.8676 23.54 35.2893 23.8574 35.6067L25.0183 36.7676C25.6537 37.4023 26.7596 37.4011 27.3926 36.7676C27.5757 36.5839 27.7814 36.6412 27.8601 36.6748C27.9395 36.7078 28.125 36.8121 28.125 37.0709C28.125 37.9968 28.8782 38.75 29.8041 38.75H31.4459C32.3718 38.75 33.125 37.9968 33.125 37.0709C33.125 36.8121 33.3105 36.7078 33.3899 36.6748C33.4705 36.6412 33.6749 36.5839 33.8568 36.7676C34.4916 37.4017 35.5969 37.403 36.2317 36.7676L37.3926 35.6067C37.71 35.2893 37.8845 34.8676 37.8845 34.4196C37.8845 33.9709 37.71 33.5492 37.3926 33.2324C37.2095 33.0493 37.2668 32.8442 37.2998 32.7649C37.3328 32.6855 37.4371 32.5 37.6959 32.5C38.6218 32.5 39.375 31.7468 39.375 30.8209V29.1791C39.375 28.2532 38.6218 27.5 37.6959 27.5ZM38.125 30.8209C38.125 31.0577 37.9327 31.25 37.6959 31.25C37.0038 31.25 36.4099 31.6473 36.145 32.2864C35.8801 32.926 36.0193 33.6267 36.5088 34.1168C36.59 34.1974 36.6345 34.3048 36.6345 34.4196C36.6345 34.5337 36.59 34.6417 36.5088 34.7229L35.3479 35.8838C35.1843 36.0461 34.903 36.0455 34.7412 35.8838C34.2529 35.3955 33.5522 35.2533 32.9114 35.52C32.2723 35.7849 31.875 36.3788 31.875 37.0709C31.875 37.3077 31.6827 37.5 31.4459 37.5H29.8041C29.5673 37.5 29.375 37.3077 29.375 37.0709C29.375 36.3788 28.9777 35.7849 28.3386 35.52C28.1244 35.4309 27.9034 35.3876 27.6855 35.3876C27.2534 35.3876 26.8341 35.5585 26.5082 35.8838C26.3477 36.0455 26.0651 36.0461 25.9021 35.8838L24.7412 34.7229C24.66 34.6417 24.6155 34.5337 24.6155 34.4196C24.6155 34.3048 24.66 34.1974 24.7412 34.1162C25.2307 33.6267 25.3699 32.926 25.105 32.2864C24.8401 31.6473 24.2462 31.25 23.5541 31.25C23.3173 31.25 23.125 31.0577 23.125 30.8209V29.1791C23.125 28.9423 23.3173 28.75 23.5541 28.75C24.2462 28.75 24.8401 28.3527 25.105 27.7136C25.3699 27.074 25.2307 26.3733 24.7412 25.8832C24.66 25.8026 24.6155 25.6952 24.6155 25.5804C24.6155 25.4663 24.66 25.3583 24.7412 25.2771L25.9021 24.1162C26.0651 23.9532 26.347 23.9539 26.5088 24.1162C26.9977 24.6051 27.6984 24.7473 28.3386 24.48C28.9777 24.2151 29.375 23.6212 29.375 22.9291C29.375 22.6923 29.5673 22.5 29.8041 22.5H31.4459C31.6827 22.5 31.875 22.6923 31.875 22.9291C31.875 23.6212 32.2723 24.2151 32.9114 24.48C33.551 24.7461 34.2511 24.6051 34.7418 24.1162C34.9023 23.9539 35.1843 23.9532 35.3479 24.1162L36.5088 25.2771C36.59 25.3583 36.6345 25.4663 36.6345 25.5804C36.6345 25.6952 36.59 25.8026 36.5088 25.8838C36.0193 26.3733 35.8801 27.074 36.145 27.7136C36.4099 28.3527 37.0038 28.75 37.6959 28.75C37.9327 28.75 38.125 28.9423 38.125 29.1791V30.8209Z" fill="#C6B075"/>
<path id="Vector_5" d="M30.625 26.25C28.5571 26.25 26.875 27.9321 26.875 30C26.875 32.0679 28.5571 33.75 30.625 33.75C32.6929 33.75 34.375 32.0679 34.375 30C34.375 27.9321 32.6929 26.25 30.625 26.25ZM30.625 32.5C29.2462 32.5 28.125 31.3788 28.125 30C28.125 28.6212 29.2462 27.5 30.625 27.5C32.0038 27.5 33.125 28.6212 33.125 30C33.125 31.3788 32.0038 32.5 30.625 32.5Z" fill="#C6B075"/>
<path id="Vector_6" d="M27.5 10.625H16.25C15.9045 10.625 15.625 10.9045 15.625 11.25C15.625 11.5955 15.9045 11.875 16.25 11.875H27.5C27.8455 11.875 28.125 11.5955 28.125 11.25C28.125 10.9045 27.8455 10.625 27.5 10.625Z" fill="#C6B075"/>
<path id="Vector_7" d="M14.1919 14.5581C13.9478 14.314 13.5522 14.314 13.3081 14.5581L10.625 17.2412L9.19189 15.8081C8.94775 15.564 8.55225 15.564 8.30811 15.8081C8.06396 16.0522 8.06396 16.4478 8.30811 16.6919L10.1831 18.5669C10.3052 18.689 10.4651 18.75 10.625 18.75C10.7849 18.75 10.9448 18.689 11.0669 18.5669L14.1919 15.4419C14.436 15.1978 14.436 14.8022 14.1919 14.5581Z" fill="#C6B075"/>
<path id="Vector_8" d="M28.125 17.5C28.125 17.1545 27.8455 16.875 27.5 16.875H16.25C15.9045 16.875 15.625 17.1545 15.625 17.5C15.625 17.8455 15.9045 18.125 16.25 18.125H27.5C27.8455 18.125 28.125 17.8455 28.125 17.5Z" fill="#C6B075"/>
<path id="Vector_9" d="M14.1919 20.8081C13.9478 20.564 13.5522 20.564 13.3081 20.8081L10.625 23.4912L9.19189 22.0581C8.94775 21.814 8.55225 21.814 8.30811 22.0581C8.06396 22.3022 8.06396 22.6978 8.30811 22.9419L10.1831 24.8169C10.3052 24.939 10.4651 25 10.625 25C10.7849 25 10.9448 24.939 11.0669 24.8169L14.1919 21.6919C14.436 21.4478 14.436 21.0522 14.1919 20.8081Z" fill="#C6B075"/>
<path id="Vector_10" d="M21.875 23.75C21.875 23.4045 21.5955 23.125 21.25 23.125H16.25C15.9045 23.125 15.625 23.4045 15.625 23.75C15.625 24.0955 15.9045 24.375 16.25 24.375H21.25C21.5955 24.375 21.875 24.0955 21.875 23.75Z" fill="#C6B075"/>
<path id="Vector_11" d="M13.3081 27.0581L10.625 29.7412L9.19189 28.3081C8.94775 28.064 8.55225 28.064 8.30811 28.3081C8.06396 28.5522 8.06396 28.9478 8.30811 29.1919L10.1831 31.0669C10.3052 31.189 10.4651 31.25 10.625 31.25C10.7849 31.25 10.9448 31.189 11.0669 31.0669L14.1919 27.9419C14.436 27.6978 14.436 27.3022 14.1919 27.0581C13.9478 26.814 13.5522 26.814 13.3081 27.0581Z" fill="#C6B075"/>
<path id="Vector_12" d="M16.25 29.375C15.9045 29.375 15.625 29.6545 15.625 30C15.625 30.3455 15.9045 30.625 16.25 30.625H19.375C19.7205 30.625 20 30.3455 20 30C20 29.6545 19.7205 29.375 19.375 29.375H16.25Z" fill="#C6B075"/>
</g>
<defs>
<clipPath id="clip0_33_568">
<rect width="40" height="40" fill="white"/>
</clipPath>
</defs>
</svg>
