<svg width="40" height="40" viewBox="0 0 40 40" fill="none" xmlns="http://www.w3.org/2000/svg">
<path d="M16.5466 36.9473H14.0417C13.7173 36.9473 13.4546 37.2103 13.4546 37.5344C13.4546 37.8588 13.7173 38.1216 14.0417 38.1216H16.5466C16.8707 38.1216 17.1338 37.8588 17.1338 37.5344C17.1338 37.2103 16.8707 36.9473 16.5466 36.9473Z" fill="#C6B075"/>
<path d="M14.6682 3.05273H15.9207C16.2448 3.05273 16.5078 2.78967 16.5078 2.46558C16.5078 2.14117 16.2448 1.87842 15.9207 1.87842H14.6682C14.3438 1.87842 14.0811 2.14117 14.0811 2.46558C14.0811 2.78967 14.3438 3.05273 14.6682 3.05273Z" fill="#C6B075"/>
<path d="M33.4546 8.76709H25.9009V1.8396C25.9009 0.825195 25.0757 0 24.0613 0H6.5271C5.5127 0 4.6875 0.825195 4.6875 1.8396V38.1604C4.6875 39.1748 5.5127 40 6.5271 40H24.0613C25.0757 40 25.9009 39.1748 25.9009 38.1604V27.4756H33.4546C34.469 27.4756 35.2942 26.6504 35.2942 25.636V10.6067C35.2942 9.59229 34.469 8.76709 33.4546 8.76709ZM6.5271 1.17432H24.0613C24.4281 1.17432 24.7266 1.47278 24.7266 1.8396V3.75732H5.86182V1.8396C5.86182 1.47278 6.16028 1.17432 6.5271 1.17432ZM24.0613 38.8257H6.5271C6.16028 38.8257 5.86182 38.5272 5.86182 38.1604V36.2427H24.7266V38.1604C24.7266 38.5272 24.4281 38.8257 24.0613 38.8257ZM34.1199 25.636C34.1199 26.0028 33.8214 26.3013 33.4546 26.3013H18.4253C18.2983 26.3013 18.1747 26.3425 18.0731 26.4188L14.0027 29.4717V15.3033C14.0027 14.9792 13.7396 14.7162 13.4155 14.7162C13.0911 14.7162 12.8284 14.9792 12.8284 15.3033V30.6458C12.8284 31.1191 13.3875 31.4008 13.7677 31.1154L18.6209 27.4756H24.7266V35.0684H5.86182V4.93164H24.7266V8.76709H14.668C13.6536 8.76709 12.8284 9.59229 12.8284 10.6067V12.4854C12.8284 12.8094 13.0911 13.0725 13.4155 13.0725C13.7396 13.0725 14.0027 12.8094 14.0027 12.4854V10.6067C14.0027 10.2399 14.3011 9.94141 14.668 9.94141H33.4546C33.8214 9.94141 34.1199 10.2399 34.1199 10.6067V25.636Z" fill="#C6B075"/>
<path d="M29.071 21.918H28.4863C28.4055 21.8859 27.7795 21.563 27.7795 19.374C27.7795 15.0491 25.4498 14.4033 24.0613 14.4033C22.6727 14.4033 20.343 15.0491 20.343 19.374C20.343 21.563 19.7171 21.8859 19.6362 21.918H19.0515C18.7274 21.918 18.4644 22.181 18.4644 22.5051C18.4644 22.8292 18.7274 23.0923 19.0515 23.0923H22.2229C22.2226 23.1054 22.2217 23.1182 22.2217 23.1313C22.2217 24.1458 23.0469 24.9709 24.0613 24.9709C25.0757 24.9709 25.9009 24.1458 25.9009 23.1313C25.9009 23.1182 25.8997 23.1054 25.8994 23.0923H29.071C29.3951 23.0923 29.6582 22.8292 29.6582 22.5051C29.6582 22.181 29.3951 21.918 29.071 21.918ZM24.7266 23.1313C24.7266 23.4982 24.4281 23.7966 24.0613 23.7966C23.6945 23.7966 23.396 23.4982 23.396 23.1313C23.396 23.1182 23.3975 23.1054 23.3984 23.0923H24.7238C24.7247 23.1054 24.7266 23.1182 24.7266 23.1313ZM21.0941 21.918C21.3394 21.3677 21.5173 20.5596 21.5173 19.374C21.5173 15.5776 23.432 15.5776 24.0613 15.5776C24.6906 15.5776 26.6052 15.5776 26.6052 19.374C26.6052 20.5596 26.7831 21.3677 27.0285 21.918H21.0941Z" fill="#C6B075"/>
<path d="M27.8186 14.4033C27.4945 14.4033 27.2314 14.6664 27.2314 14.9905C27.2314 15.3146 27.4945 15.5776 27.8186 15.5776C28.5309 15.5776 29.1101 16.1569 29.1101 16.8691C29.1101 17.1932 29.3732 17.4563 29.6973 17.4563C30.0214 17.4563 30.2844 17.1932 30.2844 16.8691C30.2844 15.5096 29.1782 14.4033 27.8186 14.4033Z" fill="#C6B075"/>
<path d="M27.8186 11.8984C27.4945 11.8984 27.2314 12.1612 27.2314 12.4856C27.2314 12.8097 27.4945 13.0728 27.8186 13.0728C29.9121 13.0728 31.615 14.7756 31.615 16.8691C31.615 17.1932 31.8781 17.4563 32.2021 17.4563C32.5266 17.4563 32.7893 17.1932 32.7893 16.8691C32.7893 14.1284 30.5594 11.8984 27.8186 11.8984Z" fill="#C6B075"/>
<path d="M19.0122 16.8691C19.0122 16.1569 19.5914 15.5776 20.3037 15.5776C20.6278 15.5776 20.8909 15.3146 20.8909 14.9905C20.8909 14.6664 20.6278 14.4033 20.3037 14.4033C18.9442 14.4033 17.8379 15.5096 17.8379 16.8691C17.8379 17.1932 18.1006 17.4563 18.425 17.4563C18.7491 17.4563 19.0122 17.1932 19.0122 16.8691Z" fill="#C6B075"/>
<path d="M20.8909 12.4856C20.8909 12.1612 20.6278 11.8984 20.3037 11.8984C17.5629 11.8984 15.333 14.1284 15.333 16.8691C15.333 17.1932 15.5958 17.4563 15.9202 17.4563C16.2443 17.4563 16.5073 17.1932 16.5073 16.8691C16.5073 14.7756 18.2102 13.0728 20.3037 13.0728C20.6278 13.0728 20.8909 12.8097 20.8909 12.4856Z" fill="#C6B075"/>
</svg>
