<svg width="28" height="28" viewBox="0 0 28 28" fill="none" xmlns="http://www.w3.org/2000/svg">
<path d="M17.5071 22.1645C17.7774 22.165 18.0394 22.0703 18.2475 21.8967C18.3646 21.799 18.4615 21.679 18.5325 21.5436C18.6034 21.4081 18.6472 21.2599 18.6611 21.1075C18.6751 20.955 18.659 20.8012 18.6139 20.655C18.5687 20.5088 18.4953 20.373 18.3979 20.2554L13.2151 14.0159L18.2128 7.76475C18.3089 7.64567 18.3807 7.50867 18.424 7.3616C18.4673 7.21453 18.4813 7.0603 18.4651 6.90777C18.449 6.75524 18.4031 6.60742 18.33 6.47281C18.2569 6.3382 18.1581 6.21945 18.0393 6.12339C17.9196 6.01741 17.7794 5.93748 17.6275 5.8886C17.4757 5.83972 17.3154 5.82295 17.1568 5.83935C16.9982 5.85574 16.8447 5.90495 16.7059 5.98388C16.5671 6.0628 16.446 6.16975 16.3502 6.298L10.7625 13.2825C10.5924 13.4908 10.4993 13.7521 10.4993 14.0217C10.4993 14.2913 10.5924 14.5526 10.7625 14.7609L16.5469 21.7454C16.663 21.8863 16.8104 21.9976 16.9772 22.0705C17.144 22.1433 17.3256 22.1755 17.5071 22.1645Z" fill="#3C4563"/>
</svg>
