<svg width="70" height="70" viewBox="0 0 70 70" fill="none" xmlns="http://www.w3.org/2000/svg">
<g clip-path="url(#clip0_705_2748)">
<path d="M32.5086 70C29.0703 70 26.2726 67.0894 26.2726 63.512V60.9094C26.2726 57.3318 29.0699 54.4214 32.5083 54.4214C35.9467 54.4214 38.7443 57.332 38.7443 60.9094V63.512C38.7445 67.0894 35.947 70 32.5086 70ZM32.5086 56.6967C30.3248 56.6967 28.5481 58.5865 28.5481 60.9092V63.5118C28.5481 65.8345 30.3248 67.7243 32.5085 67.7243C34.6923 67.7243 36.469 65.8345 36.469 63.5118V60.9092C36.4692 58.5865 34.6925 56.6967 32.5086 56.6967ZM35.3587 50.0352C35.3564 50.0352 35.354 50.0352 35.352 50.0352L30.6602 50.007C29.6217 50.1344 28.5691 49.8181 27.7577 49.1315C26.8871 48.3948 26.3756 47.3089 26.3541 46.1517C26.2489 40.4691 28.303 35.8479 32.4598 32.4168C32.975 31.9913 33.5096 31.566 34.0755 31.116C38.1922 27.8412 42.8581 24.1294 42.1379 18.8006C41.8274 16.5034 40.5264 15.0926 39.4895 14.3136C37.8468 13.0793 35.7298 12.5469 33.6829 12.8511C30.7459 13.2885 28.029 15.3928 26.2294 18.6235L26.2121 18.6546C25.0398 20.7566 22.4841 21.5453 20.3935 20.4506L17.1679 18.7614C15.0628 17.6593 14.1783 15.0405 15.1541 12.7997C17.1258 8.2715 20.5154 4.68871 24.9559 2.43888C29.0363 0.371404 33.7845 -0.419329 38.3245 0.21163C47.4089 1.47481 53.8212 7.94708 55.0589 17.1024C55.9895 23.9862 53.38 30.1977 47.3036 35.5638C46.5886 36.1953 45.8472 36.797 45.1305 37.3786C41.9627 39.9498 39.2269 42.1702 38.8168 46.4099C38.6361 48.2757 37.2832 49.7612 35.5264 50.0227C35.4708 50.031 35.4147 50.0352 35.3587 50.0352ZM34.8163 10.4922C36.9819 10.4922 39.1219 11.1917 40.8561 12.4945C42.8124 13.9642 44.0683 16.0955 44.3924 18.4957C45.2854 25.105 39.855 29.425 35.4917 32.8963C34.9342 33.3398 34.4073 33.7588 33.9079 34.1712C30.2624 37.1805 28.5358 41.0856 28.6289 46.1094C28.6381 46.6122 28.8565 47.0805 29.227 47.3942C29.5684 47.6831 29.9915 47.8063 30.4198 47.7434C30.4775 47.7346 30.5371 47.7283 30.5941 47.731L35.2649 47.7592C35.9501 47.6198 36.4744 46.986 36.5514 46.1907C37.0533 41.0031 40.4303 38.2624 43.6962 35.6119C44.3949 35.0447 45.1175 34.4586 45.7971 33.8583C51.3458 28.958 53.6377 23.5768 52.804 17.4069C51.6925 9.18423 46.1624 3.5985 38.0111 2.4649C30.8023 1.46307 21.2262 4.55298 17.2398 13.7081C16.7466 14.8408 17.1876 16.2036 18.223 16.7456L21.4489 18.4348C22.4549 18.9613 23.6483 18.5798 24.2248 17.5467L24.2418 17.5161C26.3877 13.6637 29.707 11.1429 33.3478 10.6005C33.8354 10.5278 34.3267 10.4922 34.8163 10.4922Z" fill="#C6B075"/>
</g>
<defs>
<clipPath id="clip0_705_2748">
<rect width="70" height="70" fill="white"/>
</clipPath>
</defs>
</svg>
