<svg width="683" height="683" viewBox="0 0 683 683" fill="none" xmlns="http://www.w3.org/2000/svg">
<g clip-path="url(#clip0_1260_2488)">
<path d="M219.948 441.339H219.979C220.005 441.339 220.031 441.333 220.057 441.333H582.666C591.593 441.333 599.442 435.411 601.896 426.828L681.895 146.828C683.619 140.792 682.411 134.302 678.635 129.292C674.854 124.281 668.942 121.333 662.666 121.333H173.823L159.526 56.9949C157.49 47.8439 149.375 41.3335 140 41.3335H20C8.95312 41.3335 0 50.2866 0 61.3335C0 72.3804 8.95312 81.3335 20 81.3335H123.958C126.49 92.7345 192.375 389.224 196.167 406.281C174.911 415.521 160 436.714 160 461.333C160 494.417 186.917 521.333 220 521.333H582.666C593.713 521.333 602.666 512.38 602.666 501.333C602.666 490.286 593.713 481.333 582.666 481.333H220C208.974 481.333 200 472.359 200 461.333C200 450.323 208.943 441.365 219.948 441.339ZM636.151 161.333L567.578 401.333H236.042L182.708 161.333H636.151Z" fill="#A19061"/>
<path d="M200 581.333C200 614.417 226.917 641.333 260 641.333C293.083 641.333 320 614.417 320 581.333C320 548.25 293.083 521.333 260 521.333C226.917 521.333 200 548.25 200 581.333ZM260 561.333C271.026 561.333 280 570.307 280 581.333C280 592.359 271.026 601.333 260 601.333C248.974 601.333 240 592.359 240 581.333C240 570.307 248.974 561.333 260 561.333Z" fill="#A19061"/>
<path d="M482.667 581.333C482.667 614.417 509.583 641.333 542.666 641.333C575.75 641.333 602.666 614.417 602.666 581.333C602.666 548.25 575.75 521.333 542.666 521.333C509.583 521.333 482.667 548.25 482.667 581.333ZM542.666 561.333C553.693 561.333 562.666 570.307 562.666 581.333C562.666 592.359 553.693 601.333 542.666 601.333C531.64 601.333 522.666 592.359 522.666 581.333C522.666 570.307 531.64 561.333 542.666 561.333Z" fill="#A19061"/>
</g>
<defs>
<clipPath id="clip0_1260_2488">
<rect width="682.667" height="682.667" fill="white"/>
</clipPath>
</defs>
</svg>
