<svg width="35" height="35" viewBox="0 0 35 35" fill="none" xmlns="http://www.w3.org/2000/svg">
<g clip-path="url(#clip0_1433_3124)">
<path d="M34.7387 16.8161C34.4263 16.4676 26.9119 8.27148 17.5 8.27148C8.08818 8.27148 0.573843 16.4676 0.261372 16.8161C-0.087124 17.2056 -0.087124 17.7944 0.261372 18.1839C0.573843 18.5324 8.08832 26.7285 17.5 26.7285C26.9118 26.7285 34.4262 18.5324 34.7387 18.1839C35.0871 17.7944 35.0871 17.2056 34.7387 16.8161ZM17.5 24.6777C13.5426 24.6777 10.3223 21.4574 10.3223 17.5C10.3223 13.5426 13.5426 10.3223 17.5 10.3223C21.4574 10.3223 24.6778 13.5426 24.6778 17.5C24.6778 21.4574 21.4574 24.6777 17.5 24.6777Z" fill="black"/>
<path d="M18.5254 15.4492C18.5254 14.4177 19.0375 13.5102 19.8165 12.9521C19.1175 12.5942 18.3377 12.373 17.5 12.373C14.6731 12.373 12.373 14.6731 12.373 17.5C12.373 20.3269 14.6731 22.627 17.5 22.627C20.0309 22.627 22.1257 20.7789 22.5396 18.3642C20.4747 19.029 18.5254 17.4673 18.5254 15.4492Z" fill="black"/>
</g>
<defs>
<clipPath id="clip0_1433_3124">
<rect width="35" height="35" fill="white"/>
</clipPath>
</defs>
</svg>
