<svg width="18" height="13" viewBox="0 0 18 13" fill="none" xmlns="http://www.w3.org/2000/svg">
<path d="M16.446 1.08716C16.3205 0.960673 16.1638 0.89743 15.9756 0.89743C15.7875 0.89743 15.6238 0.960673 15.4844 1.08716L6.43298 10.2151L2.52395 6.273C2.38459 6.13247 2.22084 6.0622 2.03271 6.0622C1.84457 6.0622 1.68779 6.13247 1.56237 6.273C1.43694 6.41354 1.37075 6.57516 1.36378 6.75786C1.35681 6.94056 1.42301 7.10218 1.56237 7.24272L5.91039 11.6275C5.95219 11.6697 6.01491 11.7083 6.09852 11.7434C6.18214 11.7786 6.26575 11.7961 6.34937 11.7961C6.43298 11.7961 6.5166 11.7786 6.60022 11.7434C6.68383 11.7083 6.74654 11.6697 6.78835 11.6275L16.3624 1.97255C16.5296 1.83201 16.6202 1.68444 16.6341 1.52985C16.648 1.37526 16.5853 1.2277 16.446 1.08716Z" fill="white" stroke="white"/>
</svg>
