<svg width="216" height="216" viewBox="0 0 216 216" fill="none" xmlns="http://www.w3.org/2000/svg">
<path d="M93.3414 7.54386C92.8246 4.00256 95.2763 0.692412 98.8422 0.388905C119.204 -1.34412 139.689 2.73348 157.891 12.2144C178.014 22.6955 194.324 39.2475 204.508 59.5218C214.693 79.7962 218.233 102.763 214.628 125.163C211.022 147.563 200.453 168.259 184.422 184.313C168.39 200.368 147.709 210.966 125.314 214.603C102.919 218.24 79.9474 214.732 59.6587 204.577C39.37 194.422 22.7948 178.134 12.2852 158.027C2.77851 139.838 -1.32813 119.359 0.37603 98.9948C0.674482 95.4284 3.98115 92.9721 7.52318 93.4838C11.0652 93.9955 13.4985 97.2821 13.2292 100.851C11.8965 118.515 15.5257 136.248 23.771 152.024C33.0194 169.718 47.6056 184.051 65.4597 192.988C83.3137 201.925 103.529 205.012 123.236 201.811C142.944 198.61 161.143 189.284 175.251 175.156C189.359 161.028 198.659 142.816 201.832 123.103C205.005 103.391 201.889 83.1806 192.927 65.3392C183.965 47.4978 169.612 32.932 151.904 23.7087C136.117 15.4858 118.379 11.8817 100.716 13.2394C97.1482 13.5138 93.8581 11.0852 93.3414 7.54386Z" fill="#E6EDFF"/>
<path d="M34.3246 142.172C31.7273 143.377 28.6296 142.253 27.5828 139.588C21.6058 124.372 20.0557 107.734 23.1697 91.6134C26.6122 73.7921 35.5797 57.5076 48.7998 45.0706C62.0199 32.6336 78.8211 24.6759 96.8191 22.3267C114.817 19.9775 133.098 23.3562 149.067 31.9832C165.037 40.6103 177.884 54.0475 185.785 70.3882C193.687 86.7288 196.241 105.143 193.086 123.017C189.932 140.892 181.228 157.319 168.21 169.967C156.434 181.409 141.669 189.233 125.667 192.575C122.864 193.16 120.226 191.186 119.809 188.353C119.393 185.52 121.358 182.904 124.155 182.296C138.003 179.286 150.771 172.454 160.985 162.531C172.441 151.401 180.1 136.945 182.876 121.215C185.652 105.486 183.404 89.2814 176.451 74.9016C169.498 60.5218 158.193 48.697 144.14 41.1052C130.086 33.5134 113.999 30.5402 98.161 32.6075C82.3227 34.6748 67.5377 41.6776 55.904 52.6221C44.2703 63.5667 36.3789 77.8971 33.3495 93.5798C30.6488 107.562 31.9348 121.985 37.008 135.217C38.0329 137.891 36.9219 140.968 34.3246 142.172Z" fill="#E6EDFF"/>
<path d="M51.4819 88.171C49.4895 87.472 48.4302 85.2847 49.2474 83.3377C53.9137 72.2207 61.651 62.6291 71.5879 55.7094C82.573 48.0597 95.6883 44.0639 109.073 44.289C122.457 44.5141 135.43 48.9486 146.152 56.9632C156.874 64.9779 164.799 76.1656 168.803 88.9388C172.808 101.712 172.688 115.422 168.46 128.123C164.233 140.824 156.113 151.871 145.252 159.697C134.392 167.523 121.343 171.729 107.957 171.72C95.8477 171.712 84.0194 168.254 73.8418 161.79C72.0593 160.658 71.6803 158.258 72.9171 156.546C74.1539 154.835 76.5377 154.462 78.3293 155.58C87.1975 161.11 97.4598 164.066 107.962 164.074C119.742 164.082 131.225 160.38 140.782 153.493C150.339 146.607 157.485 136.885 161.205 125.708C164.925 114.531 165.031 102.467 161.507 91.2262C157.983 79.9857 151.009 70.1405 141.574 63.0876C132.139 56.0347 120.722 52.1324 108.944 51.9343C97.1659 51.7363 85.6244 55.2526 75.9575 61.9843C67.3391 67.9858 60.601 76.2713 56.4772 85.8748C55.6441 87.815 53.4743 88.87 51.4819 88.171Z" fill="#E6EDFF"/>
<path d="M209.52 108C213.099 108 216.02 110.904 215.806 114.476C214.593 134.666 207.73 154.158 195.938 170.697C182.889 188.999 164.455 202.774 143.205 210.101C121.955 217.428 98.9488 217.942 77.3928 211.572C55.8368 205.202 36.8054 192.265 22.9517 174.564C9.09803 156.863 1.11235 135.281 0.10789 112.826C-0.896572 90.3711 5.13024 68.1622 17.3482 49.2952C29.5662 30.4283 47.3664 15.8436 68.2675 7.57425C87.1556 0.101358 107.725 -1.87756 127.615 1.79612C131.134 2.44615 133.251 5.97974 132.391 9.45372C131.532 12.9277 128.02 15.0236 124.496 14.4024C107.231 11.3595 89.4148 13.145 73.0354 19.6253C54.6424 26.9024 38.9782 39.7369 28.2264 56.3398C17.4746 72.9427 12.171 92.4866 13.0549 112.247C13.9389 132.008 20.9663 151 33.1575 166.576C45.3488 182.153 62.0963 193.538 81.0656 199.144C100.035 204.749 120.281 204.297 138.98 197.849C157.68 191.401 173.902 179.279 185.385 163.173C195.611 148.831 201.625 131.965 202.819 114.475C203.063 110.905 205.941 108 209.52 108Z" fill="url(#paint0_linear_246_916)"/>
<path d="M189.218 108C192.081 108 194.418 110.323 194.246 113.181C193.363 127.888 188.73 142.157 180.751 154.611C171.837 168.523 159.122 179.587 144.111 186.492C129.101 193.398 112.425 195.854 96.0614 193.571C79.6974 191.288 64.3313 184.36 51.7846 173.61C39.2379 162.859 30.0368 148.736 25.2721 132.916C20.5074 117.095 20.3789 100.24 24.9017 84.3488C29.4246 68.4574 38.4092 54.1961 50.7905 43.2555C61.8742 33.4614 75.2638 26.6962 89.6616 23.5689C92.4594 22.9612 95.1135 24.9146 95.5523 27.7438C95.9912 30.573 94.0478 33.2046 91.2551 33.8351C78.8159 36.6438 67.2535 42.5439 57.6558 51.0248C46.7603 60.6526 38.8538 73.2025 34.8737 87.187C30.8936 101.171 31.0067 116.004 35.1996 129.926C39.3926 143.848 47.4896 156.276 58.5306 165.736C69.5717 175.197 83.0939 181.293 97.4942 183.302C111.895 185.312 126.569 183.15 139.778 177.073C152.987 170.997 164.177 161.26 172.021 149.017C178.93 138.233 182.988 125.903 183.857 113.18C184.052 110.324 186.355 108 189.218 108Z" fill="url(#paint1_linear_246_916)"/>
<path d="M167.898 108C170.01 108 171.733 109.713 171.607 111.821C171.04 121.245 168.386 130.443 163.816 138.741C158.629 148.157 151.145 156.108 142.06 161.854C132.975 167.6 122.583 170.954 111.853 171.603C101.123 172.253 90.4029 170.178 80.6905 165.571C70.9782 160.963 62.5893 153.973 56.3048 145.252C50.0202 136.531 46.0443 126.361 44.747 115.69C43.4497 105.019 44.8732 94.1926 48.8851 84.2194C52.4205 75.4307 57.8647 67.5562 64.8055 61.1559C66.3578 59.7246 68.7751 59.9757 70.1108 61.611C71.4465 63.2463 71.1935 65.6456 69.653 67.0896C63.7052 72.6649 59.0329 79.4814 55.979 87.0731C52.4486 95.8494 51.1959 105.376 52.3375 114.767C53.4791 124.158 56.9779 133.107 62.5083 140.782C68.0387 148.457 75.4209 154.608 83.9678 158.662C92.5147 162.717 101.948 164.543 111.391 163.971C120.833 163.399 129.978 160.448 137.973 155.391C145.968 150.335 152.554 143.338 157.118 135.052C161.066 127.884 163.389 119.954 163.945 111.82C164.088 109.714 165.787 108 167.898 108Z" fill="url(#paint2_linear_246_916)"/>
<defs>
<linearGradient id="paint0_linear_246_916" x1="118.8" y1="11.34" x2="211.14" y2="105.3" gradientUnits="userSpaceOnUse">
<stop stop-color="#347AE2"/>
<stop offset="1" stop-color="#E6EEFF"/>
</linearGradient>
<linearGradient id="paint1_linear_246_916" x1="43.2016" y1="57.78" x2="185.222" y2="79.38" gradientUnits="userSpaceOnUse">
<stop stop-color="#FF9500"/>
<stop offset="0.980922" stop-color="#E6EEFF"/>
</linearGradient>
<linearGradient id="paint2_linear_246_916" x1="52.3813" y1="80.46" x2="169.561" y2="108" gradientUnits="userSpaceOnUse">
<stop offset="0.0240774" stop-color="#34C759"/>
<stop offset="1" stop-color="#E6EEFF"/>
</linearGradient>
</defs>
</svg>
