<svg width="35" height="35" viewBox="0 0 35 35" fill="none" xmlns="http://www.w3.org/2000/svg">
<path d="M28.6918 28.6917L6.30688 6.30747L6.3021 6.302C6.18091 6.1818 6.03723 6.08664 5.87926 6.02197C5.7213 5.95729 5.55214 5.92436 5.38145 5.92506C5.21076 5.92576 5.04188 5.96007 4.88444 6.02604C4.72701 6.092 4.58412 6.18833 4.46391 6.30952C4.34371 6.43071 4.24856 6.57439 4.18388 6.73236C4.1192 6.89032 4.08628 7.05948 4.08697 7.23017C4.08838 7.5749 4.22668 7.90494 4.47143 8.1477L6.4313 10.1076C4.05452 11.7354 2.00869 13.8 0.402684 16.1916C0.140423 16.5788 0.000244141 17.0357 0.000244141 17.5034C0.000244141 17.971 0.140423 18.428 0.402684 18.8152C4.5022 24.8828 11.0011 28.4374 17.5 28.393C19.6052 28.4006 21.6962 28.0502 23.6838 27.3567L26.8564 30.5292C27.1008 30.7658 27.4283 30.897 27.7685 30.8947C28.1086 30.8924 28.4343 30.7567 28.6755 30.5169C28.9167 30.277 29.0541 29.9521 29.0583 29.612C29.0626 29.2719 28.9332 28.9437 28.698 28.6979L28.6918 28.6917ZM17.5 24.865C16.2688 24.8645 15.0572 24.5555 13.9761 23.9661C12.8951 23.3768 11.9789 22.5259 11.3115 21.4912C10.644 20.4565 10.2465 19.271 10.1552 18.0431C10.064 16.8152 10.282 15.584 10.7892 14.4621L12.8366 16.5094C12.6717 17.2865 12.7035 18.0925 12.9293 18.8542C13.155 19.6158 13.5675 20.309 14.1292 20.8708C14.691 21.4325 15.3842 21.845 16.1458 22.0707C16.9075 22.2965 17.7135 22.3283 18.4906 22.1634L20.5379 24.2108C19.5837 24.6435 18.5478 24.8665 17.5 24.865Z" fill="black"/>
<path d="M34.5974 16.1881C30.4979 10.1171 23.999 6.56242 17.5001 6.60686C15.395 6.59923 13.3039 6.94967 11.3163 7.64318L14.4608 10.7877C15.8253 10.1702 17.3456 9.98323 18.8191 10.2517C20.2926 10.5201 21.6492 11.2313 22.7083 12.2903C23.7673 13.3494 24.4785 14.7061 24.7469 16.1795C25.0154 17.653 24.8284 19.1733 24.2109 20.5378L28.5681 24.895C30.9453 23.2675 32.9914 21.2028 34.5974 18.8111C34.8596 18.4239 34.9996 17.9671 34.9996 17.4996C34.9996 17.0321 34.8596 16.5752 34.5974 16.1881Z" fill="black"/>
<path d="M17.5 12.7325C17.1672 12.7326 16.8352 12.7674 16.5095 12.8365L22.1635 18.4898C22.311 17.7952 22.3014 17.0764 22.1355 16.386C21.9695 15.6956 21.6515 15.0509 21.2046 14.4992C20.7576 13.9474 20.1931 13.5025 19.5521 13.1968C18.9112 12.8912 18.2101 12.7325 17.5 12.7325Z" fill="black"/>
</svg>
