<svg width="1033" height="250" viewBox="0 0 1033 250" fill="none" xmlns="http://www.w3.org/2000/svg">
<path d="M6.31738 16H4.7041V9.56738C4.7041 9.35319 4.70638 9.139 4.71094 8.9248C4.71549 8.71061 4.72005 8.50098 4.72461 8.2959C4.73372 8.09082 4.74512 7.89486 4.75879 7.70801C4.66309 7.81283 4.5446 7.92676 4.40332 8.0498C4.2666 8.17285 4.12077 8.30046 3.96582 8.43262L2.81738 9.34863L2.01074 8.33008L4.97754 6.00586H6.31738V16ZM16.373 10.9961C16.373 11.8027 16.3092 12.5251 16.1816 13.1631C16.0586 13.7965 15.8626 14.3343 15.5938 14.7764C15.3249 15.2184 14.974 15.5557 14.541 15.7881C14.1081 16.0205 13.584 16.1367 12.9688 16.1367C12.1986 16.1367 11.5628 15.9339 11.0615 15.5283C10.5602 15.1182 10.1888 14.5303 9.94727 13.7646C9.70573 12.9945 9.58496 12.0716 9.58496 10.9961C9.58496 9.92057 9.69434 9 9.91309 8.23438C10.1364 7.46419 10.4964 6.87402 10.9932 6.46387C11.4899 6.05371 12.1484 5.84863 12.9688 5.84863C13.7435 5.84863 14.3815 6.05371 14.8828 6.46387C15.3887 6.86947 15.7624 7.45736 16.0039 8.22754C16.25 8.99316 16.373 9.91602 16.373 10.9961ZM11.2051 10.9961C11.2051 11.8392 11.2598 12.5433 11.3691 13.1084C11.4831 13.6735 11.6699 14.0973 11.9297 14.3799C12.1895 14.6579 12.5358 14.7969 12.9688 14.7969C13.4017 14.7969 13.748 14.6579 14.0078 14.3799C14.2676 14.1019 14.4544 13.6803 14.5684 13.1152C14.6868 12.5501 14.7461 11.8438 14.7461 10.9961C14.7461 10.1576 14.6891 9.45573 14.5752 8.89062C14.4613 8.32552 14.2744 7.90169 14.0146 7.61914C13.7549 7.33203 13.4062 7.18848 12.9688 7.18848C12.5312 7.18848 12.1826 7.33203 11.9229 7.61914C11.6676 7.90169 11.4831 8.32552 11.3691 8.89062C11.2598 9.45573 11.2051 10.1576 11.2051 10.9961ZM24.3848 10.9961C24.3848 11.8027 24.321 12.5251 24.1934 13.1631C24.0703 13.7965 23.8743 14.3343 23.6055 14.7764C23.3366 15.2184 22.9857 15.5557 22.5527 15.7881C22.1198 16.0205 21.5957 16.1367 20.9805 16.1367C20.2103 16.1367 19.5745 15.9339 19.0732 15.5283C18.5719 15.1182 18.2005 14.5303 17.959 13.7646C17.7174 12.9945 17.5967 12.0716 17.5967 10.9961C17.5967 9.92057 17.7061 9 17.9248 8.23438C18.1481 7.46419 18.5081 6.87402 19.0049 6.46387C19.5016 6.05371 20.1602 5.84863 20.9805 5.84863C21.7552 5.84863 22.3932 6.05371 22.8945 6.46387C23.4004 6.86947 23.7741 7.45736 24.0156 8.22754C24.2617 8.99316 24.3848 9.91602 24.3848 10.9961ZM19.2168 10.9961C19.2168 11.8392 19.2715 12.5433 19.3809 13.1084C19.4948 13.6735 19.6816 14.0973 19.9414 14.3799C20.2012 14.6579 20.5475 14.7969 20.9805 14.7969C21.4134 14.7969 21.7598 14.6579 22.0195 14.3799C22.2793 14.1019 22.4661 13.6803 22.5801 13.1152C22.6986 12.5501 22.7578 11.8438 22.7578 10.9961C22.7578 10.1576 22.7008 9.45573 22.5869 8.89062C22.473 8.32552 22.2861 7.90169 22.0264 7.61914C21.7666 7.33203 21.418 7.18848 20.9805 7.18848C20.543 7.18848 20.1943 7.33203 19.9346 7.61914C19.6794 7.90169 19.4948 8.32552 19.3809 8.89062C19.2715 9.45573 19.2168 10.1576 19.2168 10.9961Z" fill="#7C8DB5"/>
<line x1="44" y1="9.99997" x2="1032" y2="10.0001" stroke="#E6EDFF"/>
<path d="M9.97557 45.8691C10.5543 45.8691 11.0762 45.9603 11.541 46.1426C12.0058 46.3203 12.375 46.5869 12.6484 46.9424C12.9219 47.2979 13.0586 47.7376 13.0586 48.2617C13.0586 48.6673 12.9743 49.0205 12.8056 49.3213C12.6416 49.6221 12.4183 49.8864 12.1357 50.1143C11.8532 50.3376 11.5364 50.5358 11.1855 50.709C11.5775 50.9004 11.9375 51.1214 12.2656 51.3721C12.5983 51.6182 12.8649 51.9076 13.0654 52.2402C13.2705 52.5729 13.373 52.9626 13.373 53.4092C13.373 53.9697 13.2295 54.4551 12.9424 54.8652C12.6598 55.2708 12.2656 55.5853 11.7597 55.8086C11.2539 56.0273 10.6637 56.1367 9.98924 56.1367C9.26463 56.1367 8.64712 56.0296 8.1367 55.8154C7.62628 55.6012 7.23891 55.2959 6.97459 54.8994C6.71027 54.4984 6.57811 54.0199 6.57811 53.4639C6.57811 53.0036 6.66925 52.6048 6.85154 52.2676C7.03384 51.9303 7.27765 51.6387 7.58299 51.3926C7.89288 51.1465 8.2324 50.9391 8.60154 50.7705C8.28709 50.5837 7.99998 50.374 7.74022 50.1416C7.48045 49.9046 7.27309 49.6335 7.11814 49.3281C6.96775 49.0182 6.89256 48.6605 6.89256 48.2549C6.89256 47.7354 7.03156 47.3001 7.30955 46.9492C7.58755 46.5938 7.95897 46.3249 8.42381 46.1426C8.89321 45.9603 9.41046 45.8691 9.97557 45.8691ZM8.10936 53.4023C8.10936 53.8398 8.2643 54.1999 8.5742 54.4824C8.8841 54.765 9.34666 54.9062 9.96189 54.9062C10.5726 54.9062 11.0374 54.7673 11.3564 54.4893C11.6754 54.2113 11.8349 53.8444 11.8349 53.3887C11.8349 53.097 11.7529 52.8395 11.5888 52.6162C11.4293 52.3929 11.2129 52.1947 10.9394 52.0215C10.6706 51.8438 10.3721 51.6797 10.0439 51.5293L9.82518 51.4404C9.46971 51.5908 9.16437 51.7617 8.90916 51.9531C8.65395 52.14 8.45571 52.3519 8.31443 52.5889C8.17772 52.8258 8.10936 53.097 8.10936 53.4023ZM9.96189 47.1064C9.51984 47.1064 9.15525 47.2158 8.86814 47.4346C8.58559 47.6488 8.44432 47.9587 8.44432 48.3643C8.44432 48.6514 8.51268 48.8975 8.64939 49.1025C8.79067 49.3076 8.9798 49.4854 9.21678 49.6357C9.45376 49.7816 9.7158 49.9183 10.0029 50.0459C10.2809 49.9229 10.5316 49.7884 10.7549 49.6426C10.9827 49.4922 11.1627 49.3145 11.2949 49.1094C11.4316 48.8997 11.5 48.6491 11.5 48.3574C11.5 47.9564 11.3564 47.6488 11.0693 47.4346C10.7868 47.2158 10.4176 47.1064 9.96189 47.1064ZM21.3847 50.9961C21.3847 51.8027 21.3209 52.5251 21.1933 53.1631C21.0703 53.7965 20.8743 54.3343 20.6054 54.7764C20.3366 55.2184 19.9857 55.5557 19.5527 55.7881C19.1198 56.0205 18.5957 56.1367 17.9804 56.1367C17.2103 56.1367 16.5745 55.9339 16.0732 55.5283C15.5719 55.1182 15.2005 54.5303 14.959 53.7646C14.7174 52.9945 14.5967 52.0716 14.5967 50.9961C14.5967 49.9206 14.706 49 14.9248 48.2344C15.1481 47.4642 15.5081 46.874 16.0049 46.4639C16.5016 46.0537 17.1601 45.8486 17.9804 45.8486C18.7552 45.8486 19.3932 46.0537 19.8945 46.4639C20.4004 46.8695 20.7741 47.4574 21.0156 48.2275C21.2617 48.9932 21.3847 49.916 21.3847 50.9961ZM16.2168 50.9961C16.2168 51.8392 16.2715 52.5433 16.3808 53.1084C16.4948 53.6735 16.6816 54.0973 16.9414 54.3799C17.2012 54.6579 17.5475 54.7969 17.9804 54.7969C18.4134 54.7969 18.7597 54.6579 19.0195 54.3799C19.2793 54.1019 19.4661 53.6803 19.5801 53.1152C19.6985 52.5501 19.7578 51.8438 19.7578 50.9961C19.7578 50.1576 19.7008 49.4557 19.5869 48.8906C19.473 48.3255 19.2861 47.9017 19.0263 47.6191C18.7666 47.332 18.4179 47.1885 17.9804 47.1885C17.5429 47.1885 17.1943 47.332 16.9346 47.6191C16.6793 47.9017 16.4948 48.3255 16.3808 48.8906C16.2715 49.4557 16.2168 50.1576 16.2168 50.9961Z" fill="#7C8DB5"/>
<line x1="45" y1="50" x2="1032" y2="50.0001" stroke="#E6EDFF"/>
<path d="M6.61914 91.7412C6.61914 91.1533 6.66016 90.5745 6.74219 90.0049C6.82878 89.4352 6.97461 88.902 7.17969 88.4053C7.38477 87.9085 7.66732 87.471 8.02734 87.0928C8.39193 86.7145 8.84993 86.4183 9.40137 86.2041C9.9528 85.9854 10.6159 85.876 11.3906 85.876C11.5911 85.876 11.8167 85.8851 12.0674 85.9033C12.318 85.9215 12.5254 85.9512 12.6895 85.9922V87.3252C12.5117 87.2751 12.3158 87.2363 12.1016 87.209C11.8919 87.1816 11.6823 87.168 11.4727 87.168C10.6341 87.168 9.98014 87.3275 9.51074 87.6465C9.04134 87.9609 8.70638 88.3939 8.50586 88.9453C8.30534 89.4922 8.18913 90.1188 8.15723 90.8252H8.23926C8.37598 90.5973 8.54688 90.3945 8.75195 90.2168C8.95703 90.0391 9.20768 89.8978 9.50391 89.793C9.80013 89.6836 10.1442 89.6289 10.5361 89.6289C11.1195 89.6289 11.6276 89.752 12.0605 89.998C12.4935 90.2396 12.8262 90.5905 13.0586 91.0508C13.2956 91.5111 13.4141 92.0693 13.4141 92.7256C13.4141 93.432 13.2796 94.0404 13.0107 94.5508C12.7464 95.0612 12.3682 95.4531 11.876 95.7266C11.3883 96 10.8073 96.1367 10.1328 96.1367C9.63607 96.1367 9.1735 96.0456 8.74512 95.8633C8.32129 95.681 7.94987 95.4076 7.63086 95.043C7.31185 94.6784 7.06348 94.2227 6.88574 93.6758C6.70801 93.1243 6.61914 92.4795 6.61914 91.7412ZM10.1055 94.8105C10.625 94.8105 11.042 94.6419 11.3564 94.3047C11.6755 93.9629 11.835 93.4411 11.835 92.7393C11.835 92.1696 11.6937 91.7184 11.4111 91.3857C11.1331 91.0531 10.7139 90.8867 10.1533 90.8867C9.77051 90.8867 9.43555 90.9688 9.14844 91.1328C8.86133 91.2969 8.63802 91.5042 8.47852 91.7549C8.32357 92.0055 8.24609 92.2607 8.24609 92.5205C8.24609 92.7848 8.28483 93.0514 8.3623 93.3203C8.43978 93.5892 8.55599 93.8376 8.71094 94.0654C8.86589 94.2887 9.05957 94.4688 9.29199 94.6055C9.52441 94.7422 9.79557 94.8105 10.1055 94.8105ZM21.3848 90.9961C21.3848 91.8027 21.321 92.5251 21.1934 93.1631C21.0703 93.7965 20.8743 94.3343 20.6055 94.7764C20.3366 95.2184 19.9857 95.5557 19.5527 95.7881C19.1198 96.0205 18.5957 96.1367 17.9805 96.1367C17.2103 96.1367 16.5745 95.9339 16.0732 95.5283C15.5719 95.1182 15.2005 94.5303 14.959 93.7646C14.7174 92.9945 14.5967 92.0716 14.5967 90.9961C14.5967 89.9206 14.7061 89 14.9248 88.2344C15.1481 87.4642 15.5081 86.874 16.0049 86.4639C16.5016 86.0537 17.1602 85.8486 17.9805 85.8486C18.7552 85.8486 19.3932 86.0537 19.8945 86.4639C20.4004 86.8695 20.7741 87.4574 21.0156 88.2275C21.2617 88.9932 21.3848 89.916 21.3848 90.9961ZM16.2168 90.9961C16.2168 91.8392 16.2715 92.5433 16.3809 93.1084C16.4948 93.6735 16.6816 94.0973 16.9414 94.3799C17.2012 94.6579 17.5475 94.7969 17.9805 94.7969C18.4134 94.7969 18.7598 94.6579 19.0195 94.3799C19.2793 94.1019 19.4661 93.6803 19.5801 93.1152C19.6986 92.5501 19.7578 91.8438 19.7578 90.9961C19.7578 90.1576 19.7008 89.4557 19.5869 88.8906C19.473 88.3255 19.2861 87.9017 19.0264 87.6191C18.7666 87.332 18.418 87.1885 17.9805 87.1885C17.543 87.1885 17.1943 87.332 16.9346 87.6191C16.6794 87.9017 16.4948 88.3255 16.3809 88.8906C16.2715 89.4557 16.2168 90.1576 16.2168 90.9961Z" fill="#7C8DB5"/>
<line x1="44" y1="89.9999" x2="1032" y2="90" stroke="#E6EDFF"/>
<path d="M13.7354 133.806H12.3818V136H10.7959V133.806H6.25V132.589L10.8164 125.979H12.3818V132.473H13.7354V133.806ZM10.7959 132.473V129.991C10.7959 129.786 10.7982 129.579 10.8027 129.369C10.8118 129.155 10.821 128.95 10.8301 128.754C10.8392 128.558 10.8483 128.378 10.8574 128.214C10.8665 128.045 10.8734 127.906 10.8779 127.797H10.8232C10.7367 127.979 10.641 128.166 10.5361 128.357C10.4313 128.544 10.3197 128.727 10.2012 128.904L7.74023 132.473H10.7959ZM21.3848 130.996C21.3848 131.803 21.321 132.525 21.1934 133.163C21.0703 133.797 20.8743 134.334 20.6055 134.776C20.3366 135.218 19.9857 135.556 19.5527 135.788C19.1198 136.021 18.5957 136.137 17.9805 136.137C17.2103 136.137 16.5745 135.934 16.0732 135.528C15.5719 135.118 15.2005 134.53 14.959 133.765C14.7174 132.994 14.5967 132.072 14.5967 130.996C14.5967 129.921 14.7061 129 14.9248 128.234C15.1481 127.464 15.5081 126.874 16.0049 126.464C16.5016 126.054 17.1602 125.849 17.9805 125.849C18.7552 125.849 19.3932 126.054 19.8945 126.464C20.4004 126.869 20.7741 127.457 21.0156 128.228C21.2617 128.993 21.3848 129.916 21.3848 130.996ZM16.2168 130.996C16.2168 131.839 16.2715 132.543 16.3809 133.108C16.4948 133.674 16.6816 134.097 16.9414 134.38C17.2012 134.658 17.5475 134.797 17.9805 134.797C18.4134 134.797 18.7598 134.658 19.0195 134.38C19.2793 134.102 19.4661 133.68 19.5801 133.115C19.6986 132.55 19.7578 131.844 19.7578 130.996C19.7578 130.158 19.7008 129.456 19.5869 128.891C19.473 128.326 19.2861 127.902 19.0264 127.619C18.7666 127.332 18.418 127.188 17.9805 127.188C17.543 127.188 17.1943 127.332 16.9346 127.619C16.6794 127.902 16.4948 128.326 16.3809 128.891C16.2715 129.456 16.2168 130.158 16.2168 130.996Z" fill="#7C8DB5"/>
<line x1="45" y1="130" x2="1032" y2="130" stroke="#E6EDFF"/>
<path d="M13.373 176H6.60547V174.79L9.19629 172.165C9.69759 171.655 10.11 171.215 10.4336 170.846C10.7572 170.472 10.9964 170.119 11.1514 169.786C11.3109 169.453 11.3906 169.091 11.3906 168.699C11.3906 168.216 11.2516 167.852 10.9736 167.605C10.6956 167.355 10.3288 167.229 9.87305 167.229C9.4401 167.229 9.03906 167.316 8.66992 167.489C8.30534 167.658 7.92708 167.899 7.53516 168.214L6.65332 167.154C6.93132 166.917 7.22754 166.701 7.54199 166.505C7.861 166.309 8.21647 166.154 8.6084 166.04C9.00033 165.922 9.44694 165.862 9.94824 165.862C10.5817 165.862 11.1286 165.976 11.5889 166.204C12.0492 166.427 12.4023 166.74 12.6484 167.141C12.8991 167.542 13.0244 168.009 13.0244 168.542C13.0244 169.08 12.9173 169.576 12.7031 170.032C12.4889 170.488 12.1836 170.939 11.7871 171.386C11.3906 171.828 10.9189 172.309 10.3721 172.828L8.64258 174.517V174.592H13.373V176ZM21.3848 170.996C21.3848 171.803 21.321 172.525 21.1934 173.163C21.0703 173.797 20.8743 174.334 20.6055 174.776C20.3366 175.218 19.9857 175.556 19.5527 175.788C19.1198 176.021 18.5957 176.137 17.9805 176.137C17.2103 176.137 16.5745 175.934 16.0732 175.528C15.5719 175.118 15.2005 174.53 14.959 173.765C14.7174 172.994 14.5967 172.072 14.5967 170.996C14.5967 169.921 14.7061 169 14.9248 168.234C15.1481 167.464 15.5081 166.874 16.0049 166.464C16.5016 166.054 17.1602 165.849 17.9805 165.849C18.7552 165.849 19.3932 166.054 19.8945 166.464C20.4004 166.869 20.7741 167.457 21.0156 168.228C21.2617 168.993 21.3848 169.916 21.3848 170.996ZM16.2168 170.996C16.2168 171.839 16.2715 172.543 16.3809 173.108C16.4948 173.674 16.6816 174.097 16.9414 174.38C17.2012 174.658 17.5475 174.797 17.9805 174.797C18.4134 174.797 18.7598 174.658 19.0195 174.38C19.2793 174.102 19.4661 173.68 19.5801 173.115C19.6986 172.55 19.7578 171.844 19.7578 170.996C19.7578 170.158 19.7008 169.456 19.5869 168.891C19.473 168.326 19.2861 167.902 19.0264 167.619C18.7666 167.332 18.418 167.188 17.9805 167.188C17.543 167.188 17.1943 167.332 16.9346 167.619C16.6794 167.902 16.4948 168.326 16.3809 168.891C16.2715 169.456 16.2168 170.158 16.2168 170.996Z" fill="#7C8DB5"/>
<line x1="46" y1="170" x2="1032" y2="170" stroke="#E6EDFF"/>
<path d="M21.3848 210.996C21.3848 211.803 21.321 212.525 21.1934 213.163C21.0703 213.797 20.8743 214.334 20.6055 214.776C20.3366 215.218 19.9857 215.556 19.5527 215.788C19.1198 216.021 18.5957 216.137 17.9805 216.137C17.2103 216.137 16.5745 215.934 16.0732 215.528C15.5719 215.118 15.2005 214.53 14.959 213.765C14.7174 212.994 14.5967 212.072 14.5967 210.996C14.5967 209.921 14.7061 209 14.9248 208.234C15.1481 207.464 15.5081 206.874 16.0049 206.464C16.5016 206.054 17.1602 205.849 17.9805 205.849C18.7552 205.849 19.3932 206.054 19.8945 206.464C20.4004 206.869 20.7741 207.457 21.0156 208.228C21.2617 208.993 21.3848 209.916 21.3848 210.996ZM16.2168 210.996C16.2168 211.839 16.2715 212.543 16.3809 213.108C16.4948 213.674 16.6816 214.097 16.9414 214.38C17.2012 214.658 17.5475 214.797 17.9805 214.797C18.4134 214.797 18.7598 214.658 19.0195 214.38C19.2793 214.102 19.4661 213.68 19.5801 213.115C19.6986 212.55 19.7578 211.844 19.7578 210.996C19.7578 210.158 19.7008 209.456 19.5869 208.891C19.473 208.326 19.2861 207.902 19.0264 207.619C18.7666 207.332 18.418 207.188 17.9805 207.188C17.543 207.188 17.1943 207.332 16.9346 207.619C16.6794 207.902 16.4948 208.326 16.3809 208.891C16.2715 209.456 16.2168 210.158 16.2168 210.996Z" fill="#7C8DB5"/>
<line x1="42" y1="210" x2="1032" y2="210" stroke="#E6EDFF"/>
<path d="M40.0684 247.782C39.8177 247.782 39.599 247.766 39.4121 247.734C39.2207 247.707 39.0566 247.668 38.9199 247.618V246.244C39.0658 246.281 39.223 246.312 39.3916 246.34C39.5602 246.367 39.7402 246.381 39.9316 246.381C40.1823 246.381 40.4102 246.333 40.6152 246.237C40.8203 246.142 40.9821 245.968 41.1006 245.718C41.2236 245.467 41.2852 245.114 41.2852 244.658V235.006H42.9258V244.604C42.9258 245.346 42.8073 245.95 42.5703 246.415C42.3333 246.884 42.0007 247.229 41.5723 247.447C41.1439 247.671 40.6426 247.782 40.0684 247.782ZM48.3125 237.289C49.2695 237.289 49.9919 237.501 50.4795 237.925C50.9717 238.349 51.2178 239.009 51.2178 239.907V245H50.0762L49.7686 243.927H49.7139C49.4997 244.2 49.2786 244.426 49.0508 244.604C48.8229 244.781 48.5586 244.913 48.2578 245C47.9616 245.091 47.5993 245.137 47.1709 245.137C46.7197 245.137 46.3164 245.055 45.9609 244.891C45.6055 244.722 45.3252 244.467 45.1201 244.125C44.915 243.783 44.8125 243.35 44.8125 242.826C44.8125 242.047 45.1019 241.461 45.6807 241.069C46.264 240.677 47.1436 240.461 48.3193 240.42L49.6318 240.372V239.976C49.6318 239.451 49.5088 239.078 49.2627 238.854C49.0212 238.631 48.6794 238.52 48.2373 238.52C47.859 238.52 47.4922 238.574 47.1367 238.684C46.7812 238.793 46.4349 238.927 46.0977 239.087L45.5781 237.952C45.9473 237.756 46.3665 237.597 46.8359 237.474C47.3099 237.351 47.8021 237.289 48.3125 237.289ZM49.625 241.384L48.6475 241.418C47.8454 241.445 47.2826 241.582 46.959 241.828C46.6354 242.074 46.4736 242.411 46.4736 242.84C46.4736 243.214 46.5853 243.487 46.8086 243.66C47.0319 243.829 47.3258 243.913 47.6904 243.913C48.2464 243.913 48.7067 243.756 49.0713 243.441C49.4404 243.122 49.625 242.655 49.625 242.04V241.384ZM57.4111 237.289C58.2633 237.289 58.9264 237.51 59.4004 237.952C59.8789 238.39 60.1182 239.094 60.1182 240.064V245H58.5117V240.365C58.5117 239.777 58.391 239.338 58.1494 239.046C57.9079 238.75 57.5342 238.602 57.0283 238.602C56.2946 238.602 55.7842 238.827 55.4971 239.278C55.2145 239.729 55.0732 240.383 55.0732 241.24V245H53.4668V237.433H54.7178L54.9434 238.458H55.0322C55.1963 238.194 55.3991 237.977 55.6406 237.809C55.8867 237.635 56.1602 237.506 56.4609 237.419C56.7663 237.332 57.083 237.289 57.4111 237.289Z" fill="#7C8DB5"/>
<path d="M130.939 245H129.312V235.006H134.959V236.387H130.939V239.504H134.699V240.878H130.939V245ZM139.628 237.289C140.302 237.289 140.881 237.428 141.364 237.706C141.847 237.984 142.219 238.378 142.479 238.889C142.738 239.399 142.868 240.01 142.868 240.721V241.582H137.816C137.835 242.316 138.031 242.881 138.404 243.277C138.783 243.674 139.311 243.872 139.99 243.872C140.473 243.872 140.906 243.826 141.289 243.735C141.676 243.64 142.075 243.501 142.485 243.318V244.624C142.107 244.802 141.722 244.932 141.33 245.014C140.938 245.096 140.469 245.137 139.922 245.137C139.179 245.137 138.525 244.993 137.96 244.706C137.399 244.414 136.96 243.981 136.641 243.407C136.326 242.833 136.169 242.12 136.169 241.268C136.169 240.42 136.312 239.7 136.6 239.107C136.887 238.515 137.29 238.064 137.81 237.754C138.329 237.444 138.935 237.289 139.628 237.289ZM139.628 238.499C139.122 238.499 138.712 238.663 138.397 238.991C138.088 239.319 137.905 239.8 137.851 240.434H141.296C141.291 240.055 141.228 239.72 141.104 239.429C140.986 239.137 140.804 238.909 140.558 238.745C140.316 238.581 140.006 238.499 139.628 238.499ZM146.286 234.363V236.927C146.286 237.223 146.277 237.515 146.259 237.802C146.245 238.084 146.231 238.305 146.218 238.465H146.286C146.491 238.137 146.776 237.861 147.141 237.638C147.51 237.41 147.981 237.296 148.556 237.296C149.453 237.296 150.176 237.626 150.723 238.287C151.27 238.943 151.543 239.916 151.543 241.206C151.543 242.063 151.418 242.783 151.167 243.366C150.916 243.95 150.563 244.392 150.107 244.692C149.656 244.989 149.125 245.137 148.515 245.137C147.94 245.137 147.476 245.032 147.12 244.822C146.769 244.608 146.493 244.36 146.293 244.077H146.177L145.883 245H144.68V234.363H146.286ZM148.132 238.602C147.676 238.602 147.314 238.693 147.045 238.875C146.781 239.057 146.589 239.331 146.471 239.695C146.352 240.055 146.291 240.513 146.286 241.069V241.213C146.286 242.056 146.418 242.701 146.683 243.147C146.951 243.594 147.439 243.817 148.146 243.817C148.706 243.817 149.137 243.592 149.438 243.141C149.738 242.685 149.889 242.033 149.889 241.186C149.889 240.329 149.738 239.684 149.438 239.251C149.141 238.818 148.706 238.602 148.132 238.602Z" fill="#7C8DB5"/>
<path d="M221.626 245L218.748 236.653H218.687C218.7 236.84 218.716 237.095 218.734 237.419C218.753 237.743 218.769 238.089 218.782 238.458C218.796 238.827 218.803 239.18 218.803 239.518V245H217.312V235.006H219.616L222.385 242.983H222.426L225.29 235.006H227.587V245H226.021V239.436C226.021 239.13 226.026 238.8 226.035 238.444C226.049 238.089 226.062 237.752 226.076 237.433C226.094 237.114 226.108 236.858 226.117 236.667H226.062L223.075 245H221.626ZM233.021 237.289C233.979 237.289 234.701 237.501 235.188 237.925C235.681 238.349 235.927 239.009 235.927 239.907V245H234.785L234.478 243.927H234.423C234.209 244.2 233.988 244.426 233.76 244.604C233.532 244.781 233.268 244.913 232.967 245C232.671 245.091 232.308 245.137 231.88 245.137C231.429 245.137 231.025 245.055 230.67 244.891C230.314 244.722 230.034 244.467 229.829 244.125C229.624 243.783 229.521 243.35 229.521 242.826C229.521 242.047 229.811 241.461 230.39 241.069C230.973 240.677 231.853 240.461 233.028 240.42L234.341 240.372V239.976C234.341 239.451 234.218 239.078 233.972 238.854C233.73 238.631 233.388 238.52 232.946 238.52C232.568 238.52 232.201 238.574 231.846 238.684C231.49 238.793 231.144 238.927 230.807 239.087L230.287 237.952C230.656 237.756 231.076 237.597 231.545 237.474C232.019 237.351 232.511 237.289 233.021 237.289ZM234.334 241.384L233.356 241.418C232.554 241.445 231.992 241.582 231.668 241.828C231.344 242.074 231.183 242.411 231.183 242.84C231.183 243.214 231.294 243.487 231.518 243.66C231.741 243.829 232.035 243.913 232.399 243.913C232.955 243.913 233.416 243.756 233.78 243.441C234.149 243.122 234.334 242.655 234.334 242.04V241.384ZM242.011 237.289C242.138 237.289 242.277 237.296 242.428 237.31C242.578 237.323 242.708 237.341 242.817 237.364L242.667 238.868C242.571 238.841 242.453 238.82 242.312 238.807C242.175 238.793 242.052 238.786 241.942 238.786C241.655 238.786 241.382 238.834 241.122 238.93C240.862 239.021 240.632 239.162 240.432 239.354C240.231 239.54 240.074 239.775 239.96 240.058C239.846 240.34 239.789 240.668 239.789 241.042V245H238.176V237.433H239.434L239.652 238.766H239.728C239.878 238.497 240.065 238.251 240.288 238.027C240.511 237.804 240.767 237.626 241.054 237.494C241.345 237.357 241.664 237.289 242.011 237.289Z" fill="#7C8DB5"/>
<path d="M312.506 245L311.528 242.225H307.707L306.729 245H305L308.719 234.965H310.537L314.249 245H312.506ZM311.104 240.816L310.154 238.082C310.118 237.964 310.065 237.797 309.997 237.583C309.929 237.364 309.86 237.143 309.792 236.92C309.724 236.692 309.667 236.501 309.621 236.346C309.576 236.533 309.519 236.742 309.45 236.975C309.386 237.202 309.323 237.417 309.259 237.617C309.2 237.818 309.154 237.973 309.122 238.082L308.165 240.816H311.104ZM319.287 237.289C320.185 237.289 320.905 237.617 321.447 238.273C321.994 238.93 322.268 239.905 322.268 241.199C322.268 242.056 322.14 242.778 321.885 243.366C321.634 243.95 321.281 244.392 320.825 244.692C320.374 244.989 319.848 245.137 319.246 245.137C318.863 245.137 318.531 245.087 318.248 244.986C317.965 244.886 317.724 244.756 317.523 244.597C317.323 244.433 317.154 244.255 317.018 244.063H316.922C316.945 244.246 316.965 244.449 316.983 244.672C317.006 244.891 317.018 245.091 317.018 245.273V248.356H315.404V237.433H316.717L316.942 238.479H317.018C317.159 238.264 317.33 238.066 317.53 237.884C317.735 237.701 317.981 237.558 318.269 237.453C318.56 237.344 318.9 237.289 319.287 237.289ZM318.856 238.602C318.414 238.602 318.059 238.69 317.79 238.868C317.526 239.041 317.332 239.303 317.209 239.654C317.09 240.005 317.027 240.445 317.018 240.974V241.199C317.018 241.76 317.075 242.236 317.188 242.628C317.307 243.015 317.501 243.312 317.77 243.517C318.043 243.717 318.412 243.817 318.877 243.817C319.269 243.817 319.592 243.71 319.848 243.496C320.107 243.282 320.301 242.977 320.429 242.58C320.556 242.184 320.62 241.716 320.62 241.179C320.62 240.363 320.474 239.729 320.183 239.278C319.896 238.827 319.453 238.602 318.856 238.602ZM327.962 237.289C328.09 237.289 328.229 237.296 328.379 237.31C328.529 237.323 328.659 237.341 328.769 237.364L328.618 238.868C328.522 238.841 328.404 238.82 328.263 238.807C328.126 238.793 328.003 238.786 327.894 238.786C327.606 238.786 327.333 238.834 327.073 238.93C326.813 239.021 326.583 239.162 326.383 239.354C326.182 239.54 326.025 239.775 325.911 240.058C325.797 240.34 325.74 240.668 325.74 241.042V245H324.127V237.433H325.385L325.604 238.766H325.679C325.829 238.497 326.016 238.251 326.239 238.027C326.463 237.804 326.718 237.626 327.005 237.494C327.297 237.357 327.616 237.289 327.962 237.289Z" fill="#7C8DB5"/>
<path d="M397.626 245L394.748 236.653H394.687C394.7 236.84 394.716 237.095 394.734 237.419C394.753 237.743 394.769 238.089 394.782 238.458C394.796 238.827 394.803 239.18 394.803 239.518V245H393.312V235.006H395.616L398.385 242.983H398.426L401.29 235.006H403.587V245H402.021V239.436C402.021 239.13 402.026 238.8 402.035 238.444C402.049 238.089 402.062 237.752 402.076 237.433C402.094 237.114 402.108 236.858 402.117 236.667H402.062L399.075 245H397.626ZM409.021 237.289C409.979 237.289 410.701 237.501 411.188 237.925C411.681 238.349 411.927 239.009 411.927 239.907V245H410.785L410.478 243.927H410.423C410.209 244.2 409.988 244.426 409.76 244.604C409.532 244.781 409.268 244.913 408.967 245C408.671 245.091 408.308 245.137 407.88 245.137C407.429 245.137 407.025 245.055 406.67 244.891C406.314 244.722 406.034 244.467 405.829 244.125C405.624 243.783 405.521 243.35 405.521 242.826C405.521 242.047 405.811 241.461 406.39 241.069C406.973 240.677 407.853 240.461 409.028 240.42L410.341 240.372V239.976C410.341 239.451 410.218 239.078 409.972 238.854C409.73 238.631 409.388 238.52 408.946 238.52C408.568 238.52 408.201 238.574 407.846 238.684C407.49 238.793 407.144 238.927 406.807 239.087L406.287 237.952C406.656 237.756 407.076 237.597 407.545 237.474C408.019 237.351 408.511 237.289 409.021 237.289ZM410.334 241.384L409.356 241.418C408.554 241.445 407.992 241.582 407.668 241.828C407.344 242.074 407.183 242.411 407.183 242.84C407.183 243.214 407.294 243.487 407.518 243.66C407.741 243.829 408.035 243.913 408.399 243.913C408.955 243.913 409.416 243.756 409.78 243.441C410.149 243.122 410.334 242.655 410.334 242.04V241.384ZM413.034 237.433H414.784L416.336 241.753C416.404 241.949 416.466 242.143 416.521 242.334C416.58 242.521 416.63 242.705 416.671 242.888C416.716 243.07 416.753 243.252 416.78 243.435H416.821C416.867 243.198 416.931 242.933 417.013 242.642C417.099 242.345 417.195 242.049 417.3 241.753L418.79 237.433H420.52L417.272 246.039C417.086 246.531 416.855 246.951 416.582 247.297C416.313 247.648 415.994 247.912 415.625 248.09C415.256 248.272 414.834 248.363 414.36 248.363C414.132 248.363 413.934 248.35 413.766 248.322C413.597 248.299 413.453 248.274 413.335 248.247V246.962C413.431 246.985 413.551 247.005 413.697 247.023C413.843 247.042 413.993 247.051 414.148 247.051C414.436 247.051 414.684 246.994 414.894 246.88C415.103 246.766 415.281 246.604 415.427 246.395C415.573 246.189 415.693 245.955 415.789 245.69L416.056 244.979L413.034 237.433Z" fill="#7C8DB5"/>
<path d="M484.068 247.782C483.818 247.782 483.599 247.766 483.412 247.734C483.221 247.707 483.057 247.668 482.92 247.618V246.244C483.066 246.281 483.223 246.312 483.392 246.34C483.56 246.367 483.74 246.381 483.932 246.381C484.182 246.381 484.41 246.333 484.615 246.237C484.82 246.142 484.982 245.968 485.101 245.718C485.224 245.467 485.285 245.114 485.285 244.658V235.006H486.926V244.604C486.926 245.346 486.807 245.95 486.57 246.415C486.333 246.884 486.001 247.229 485.572 247.447C485.144 247.671 484.643 247.782 484.068 247.782ZM495.942 237.433V245H494.678L494.459 243.981H494.37C494.211 244.241 494.008 244.458 493.762 244.631C493.516 244.799 493.242 244.925 492.941 245.007C492.641 245.093 492.324 245.137 491.991 245.137C491.422 245.137 490.934 245.041 490.528 244.85C490.127 244.654 489.82 244.353 489.605 243.947C489.391 243.542 489.284 243.018 489.284 242.375V237.433H490.897V242.074C490.897 242.662 491.016 243.102 491.253 243.394C491.494 243.685 491.868 243.831 492.374 243.831C492.862 243.831 493.249 243.731 493.536 243.53C493.823 243.33 494.026 243.034 494.145 242.642C494.268 242.25 494.329 241.769 494.329 241.199V237.433H495.942ZM502.19 237.289C503.043 237.289 503.706 237.51 504.18 237.952C504.658 238.39 504.897 239.094 504.897 240.064V245H503.291V240.365C503.291 239.777 503.17 239.338 502.929 239.046C502.687 238.75 502.313 238.602 501.808 238.602C501.074 238.602 500.563 238.827 500.276 239.278C499.994 239.729 499.853 240.383 499.853 241.24V245H498.246V237.433H499.497L499.723 238.458H499.812C499.976 238.194 500.178 237.977 500.42 237.809C500.666 237.635 500.939 237.506 501.24 237.419C501.546 237.332 501.862 237.289 502.19 237.289Z" fill="#7C8DB5"/>
<path d="M572.068 247.782C571.818 247.782 571.599 247.766 571.412 247.734C571.221 247.707 571.057 247.668 570.92 247.618V246.244C571.066 246.281 571.223 246.312 571.392 246.34C571.56 246.367 571.74 246.381 571.932 246.381C572.182 246.381 572.41 246.333 572.615 246.237C572.82 246.142 572.982 245.968 573.101 245.718C573.224 245.467 573.285 245.114 573.285 244.658V235.006H574.926V244.604C574.926 245.346 574.807 245.95 574.57 246.415C574.333 246.884 574.001 247.229 573.572 247.447C573.144 247.671 572.643 247.782 572.068 247.782ZM583.942 237.433V245H582.678L582.459 243.981H582.37C582.211 244.241 582.008 244.458 581.762 244.631C581.516 244.799 581.242 244.925 580.941 245.007C580.641 245.093 580.324 245.137 579.991 245.137C579.422 245.137 578.934 245.041 578.528 244.85C578.127 244.654 577.82 244.353 577.605 243.947C577.391 243.542 577.284 243.018 577.284 242.375V237.433H578.897V242.074C578.897 242.662 579.016 243.102 579.253 243.394C579.494 243.685 579.868 243.831 580.374 243.831C580.862 243.831 581.249 243.731 581.536 243.53C581.823 243.33 582.026 243.034 582.145 242.642C582.268 242.25 582.329 241.769 582.329 241.199V237.433H583.942ZM587.859 245H586.246V234.363H587.859V245Z" fill="#7C8DB5"/>
<path d="M661.506 245L660.528 242.225H656.707L655.729 245H654L657.719 234.965H659.537L663.249 245H661.506ZM660.104 240.816L659.154 238.082C659.118 237.964 659.065 237.797 658.997 237.583C658.929 237.364 658.86 237.143 658.792 236.92C658.724 236.692 658.667 236.501 658.621 236.346C658.576 236.533 658.519 236.742 658.45 236.975C658.386 237.202 658.323 237.417 658.259 237.617C658.2 237.818 658.154 237.973 658.122 238.082L657.165 240.816H660.104ZM671.001 237.433V245H669.736L669.518 243.981H669.429C669.269 244.241 669.066 244.458 668.82 244.631C668.574 244.799 668.301 244.925 668 245.007C667.699 245.093 667.382 245.137 667.05 245.137C666.48 245.137 665.993 245.041 665.587 244.85C665.186 244.654 664.878 244.353 664.664 243.947C664.45 243.542 664.343 243.018 664.343 242.375V237.433H665.956V242.074C665.956 242.662 666.075 243.102 666.312 243.394C666.553 243.685 666.927 243.831 667.433 243.831C667.92 243.831 668.308 243.731 668.595 243.53C668.882 243.33 669.085 243.034 669.203 242.642C669.326 242.25 669.388 241.769 669.388 241.199V237.433H671.001ZM675.465 248.363C674.439 248.363 673.653 248.179 673.106 247.81C672.56 247.44 672.286 246.923 672.286 246.258C672.286 245.793 672.432 245.399 672.724 245.075C673.015 244.756 673.432 244.535 673.975 244.412C673.77 244.321 673.592 244.18 673.441 243.988C673.296 243.792 673.223 243.576 673.223 243.339C673.223 243.056 673.302 242.815 673.462 242.614C673.621 242.414 673.861 242.22 674.18 242.033C673.783 241.865 673.464 241.591 673.223 241.213C672.986 240.83 672.867 240.381 672.867 239.866C672.867 239.319 672.983 238.854 673.216 238.472C673.448 238.084 673.788 237.79 674.234 237.59C674.681 237.385 675.221 237.282 675.854 237.282C675.991 237.282 676.139 237.291 676.299 237.31C676.463 237.323 676.613 237.341 676.75 237.364C676.891 237.382 676.998 237.403 677.071 237.426H679.689V238.321L678.404 238.561C678.527 238.734 678.625 238.932 678.698 239.155C678.771 239.374 678.808 239.613 678.808 239.873C678.808 240.657 678.536 241.274 677.994 241.726C677.456 242.172 676.714 242.396 675.766 242.396C675.538 242.386 675.317 242.368 675.103 242.341C674.938 242.441 674.813 242.553 674.727 242.676C674.64 242.794 674.597 242.929 674.597 243.079C674.597 243.202 674.64 243.302 674.727 243.38C674.813 243.453 674.941 243.507 675.109 243.544C675.283 243.58 675.492 243.599 675.738 243.599H677.044C677.873 243.599 678.507 243.774 678.944 244.125C679.382 244.476 679.601 244.991 679.601 245.67C679.601 246.531 679.245 247.194 678.534 247.659C677.823 248.129 676.8 248.363 675.465 248.363ZM675.526 247.235C676.087 247.235 676.559 247.181 676.941 247.071C677.324 246.962 677.614 246.805 677.81 246.6C678.006 246.399 678.104 246.16 678.104 245.882C678.104 245.636 678.042 245.447 677.919 245.314C677.796 245.182 677.611 245.091 677.365 245.041C677.119 244.991 676.814 244.966 676.449 244.966H675.26C674.964 244.966 674.701 245.011 674.474 245.103C674.246 245.198 674.068 245.335 673.94 245.513C673.817 245.69 673.756 245.905 673.756 246.155C673.756 246.502 673.909 246.768 674.214 246.955C674.524 247.142 674.961 247.235 675.526 247.235ZM675.841 241.343C676.31 241.343 676.659 241.215 676.887 240.96C677.115 240.7 677.229 240.336 677.229 239.866C677.229 239.356 677.11 238.973 676.873 238.718C676.641 238.463 676.294 238.335 675.834 238.335C675.383 238.335 675.039 238.465 674.802 238.725C674.569 238.984 674.453 239.369 674.453 239.88C674.453 240.34 674.569 240.7 674.802 240.96C675.039 241.215 675.385 241.343 675.841 241.343Z" fill="#7C8DB5"/>
<path d="M751.082 242.279C751.082 242.872 750.936 243.382 750.645 243.811C750.357 244.239 749.943 244.567 749.4 244.795C748.863 245.023 748.22 245.137 747.473 245.137C747.108 245.137 746.759 245.116 746.427 245.075C746.094 245.034 745.78 244.975 745.483 244.897C745.192 244.815 744.925 244.717 744.684 244.604V243.059C745.089 243.236 745.543 243.398 746.044 243.544C746.545 243.685 747.056 243.756 747.575 243.756C747.999 243.756 748.35 243.701 748.628 243.592C748.91 243.478 749.12 243.318 749.257 243.113C749.394 242.904 749.462 242.66 749.462 242.382C749.462 242.086 749.382 241.835 749.223 241.63C749.063 241.425 748.822 241.238 748.498 241.069C748.179 240.896 747.778 240.712 747.295 240.516C746.967 240.383 746.652 240.233 746.352 240.064C746.055 239.896 745.791 239.698 745.559 239.47C745.326 239.242 745.142 238.973 745.005 238.663C744.873 238.349 744.807 237.979 744.807 237.556C744.807 236.991 744.941 236.507 745.21 236.106C745.483 235.705 745.866 235.398 746.358 235.184C746.855 234.969 747.434 234.862 748.095 234.862C748.619 234.862 749.111 234.917 749.571 235.026C750.036 235.136 750.492 235.291 750.938 235.491L750.419 236.811C750.009 236.642 749.61 236.507 749.223 236.407C748.84 236.307 748.448 236.257 748.047 236.257C747.701 236.257 747.407 236.309 747.165 236.414C746.924 236.519 746.739 236.667 746.611 236.858C746.488 237.045 746.427 237.269 746.427 237.528C746.427 237.82 746.497 238.066 746.639 238.267C746.785 238.463 747.008 238.643 747.309 238.807C747.614 238.971 748.006 239.153 748.484 239.354C749.036 239.581 749.503 239.821 749.886 240.071C750.273 240.322 750.569 240.623 750.774 240.974C750.979 241.32 751.082 241.755 751.082 242.279ZM755.86 237.289C756.535 237.289 757.114 237.428 757.597 237.706C758.08 237.984 758.451 238.378 758.711 238.889C758.971 239.399 759.101 240.01 759.101 240.721V241.582H754.049C754.067 242.316 754.263 242.881 754.637 243.277C755.015 243.674 755.544 243.872 756.223 243.872C756.706 243.872 757.139 243.826 757.521 243.735C757.909 243.64 758.308 243.501 758.718 243.318V244.624C758.34 244.802 757.954 244.932 757.562 245.014C757.171 245.096 756.701 245.137 756.154 245.137C755.411 245.137 754.757 244.993 754.192 244.706C753.632 244.414 753.192 243.981 752.873 243.407C752.559 242.833 752.401 242.12 752.401 241.268C752.401 240.42 752.545 239.7 752.832 239.107C753.119 238.515 753.522 238.064 754.042 237.754C754.562 237.444 755.168 237.289 755.86 237.289ZM755.86 238.499C755.354 238.499 754.944 238.663 754.63 238.991C754.32 239.319 754.138 239.8 754.083 240.434H757.528C757.524 240.055 757.46 239.72 757.337 239.429C757.218 239.137 757.036 238.909 756.79 238.745C756.549 238.581 756.239 238.499 755.86 238.499ZM764.795 237.289C765.693 237.289 766.413 237.617 766.955 238.273C767.502 238.93 767.775 239.905 767.775 241.199C767.775 242.056 767.648 242.778 767.393 243.366C767.142 243.95 766.789 244.392 766.333 244.692C765.882 244.989 765.355 245.137 764.754 245.137C764.371 245.137 764.038 245.087 763.756 244.986C763.473 244.886 763.232 244.756 763.031 244.597C762.831 244.433 762.662 244.255 762.525 244.063H762.43C762.452 244.246 762.473 244.449 762.491 244.672C762.514 244.891 762.525 245.091 762.525 245.273V248.356H760.912V237.433H762.225L762.45 238.479H762.525C762.667 238.264 762.838 238.066 763.038 237.884C763.243 237.701 763.489 237.558 763.776 237.453C764.068 237.344 764.408 237.289 764.795 237.289ZM764.364 238.602C763.922 238.602 763.567 238.69 763.298 238.868C763.034 239.041 762.84 239.303 762.717 239.654C762.598 240.005 762.535 240.445 762.525 240.974V241.199C762.525 241.76 762.582 242.236 762.696 242.628C762.815 243.015 763.008 243.312 763.277 243.517C763.551 243.717 763.92 243.817 764.385 243.817C764.777 243.817 765.1 243.71 765.355 243.496C765.615 243.282 765.809 242.977 765.937 242.58C766.064 242.184 766.128 241.716 766.128 241.179C766.128 240.363 765.982 239.729 765.69 239.278C765.403 238.827 764.961 238.602 764.364 238.602Z" fill="#7C8DB5"/>
<path d="M843.186 239.989C843.186 240.759 843.088 241.461 842.892 242.095C842.7 242.724 842.411 243.266 842.023 243.722C841.636 244.173 841.151 244.521 840.567 244.768C839.984 245.014 839.3 245.137 838.517 245.137C837.719 245.137 837.026 245.014 836.438 244.768C835.855 244.521 835.37 244.171 834.982 243.715C834.6 243.259 834.312 242.715 834.121 242.081C833.93 241.448 833.834 240.746 833.834 239.976C833.834 238.946 834.003 238.048 834.34 237.282C834.682 236.512 835.199 235.915 835.892 235.491C836.589 235.063 837.468 234.849 838.53 234.849C839.569 234.849 840.433 235.061 841.121 235.484C841.809 235.908 842.324 236.505 842.666 237.275C843.012 238.041 843.186 238.946 843.186 239.989ZM835.557 239.989C835.557 240.759 835.661 241.427 835.871 241.992C836.081 242.553 836.402 242.986 836.835 243.291C837.272 243.592 837.833 243.742 838.517 243.742C839.205 243.742 839.765 243.592 840.198 243.291C840.631 242.986 840.95 242.553 841.155 241.992C841.36 241.427 841.463 240.759 841.463 239.989C841.463 238.818 841.228 237.902 840.759 237.241C840.294 236.576 839.551 236.243 838.53 236.243C837.847 236.243 837.284 236.394 836.842 236.694C836.404 236.995 836.081 237.426 835.871 237.986C835.661 238.542 835.557 239.21 835.557 239.989ZM848.217 245.137C847.501 245.137 846.882 244.998 846.357 244.72C845.833 244.442 845.43 244.016 845.147 243.441C844.865 242.867 844.724 242.138 844.724 241.254C844.724 240.333 844.879 239.581 845.188 238.998C845.498 238.415 845.927 237.984 846.474 237.706C847.025 237.428 847.656 237.289 848.367 237.289C848.818 237.289 849.226 237.335 849.591 237.426C849.96 237.512 850.272 237.619 850.527 237.747L850.049 239.032C849.771 238.918 849.486 238.823 849.194 238.745C848.903 238.668 848.622 238.629 848.354 238.629C847.911 238.629 847.542 238.727 847.246 238.923C846.954 239.119 846.736 239.41 846.59 239.798C846.449 240.185 846.378 240.666 846.378 241.24C846.378 241.796 846.451 242.266 846.597 242.648C846.743 243.027 846.959 243.314 847.246 243.51C847.533 243.701 847.886 243.797 848.306 243.797C848.72 243.797 849.092 243.747 849.42 243.646C849.748 243.546 850.058 243.416 850.35 243.257V244.651C850.062 244.815 849.755 244.936 849.427 245.014C849.099 245.096 848.695 245.137 848.217 245.137ZM854.943 243.838C855.153 243.838 855.36 243.82 855.565 243.783C855.771 243.742 855.957 243.694 856.126 243.64V244.856C855.948 244.934 855.718 245 855.436 245.055C855.153 245.109 854.859 245.137 854.554 245.137C854.125 245.137 853.74 245.066 853.398 244.925C853.057 244.779 852.785 244.531 852.585 244.18C852.384 243.829 852.284 243.343 852.284 242.724V238.656H851.252V237.938L852.359 237.371L852.886 235.751H853.897V237.433H856.064V238.656H853.897V242.703C853.897 243.086 853.993 243.371 854.185 243.558C854.376 243.744 854.629 243.838 854.943 243.838Z" fill="#7C8DB5"/>
<path d="M929.652 245H927.636L922.741 237.022H922.68C922.698 237.291 922.714 237.576 922.728 237.877C922.746 238.178 922.759 238.488 922.769 238.807C922.782 239.126 922.794 239.449 922.803 239.777V245H921.312V235.006H923.315L928.203 242.929H928.251C928.242 242.696 928.23 242.43 928.217 242.129C928.203 241.828 928.189 241.518 928.176 241.199C928.167 240.876 928.16 240.563 928.155 240.263V235.006H929.652V245ZM938.812 241.199C938.812 241.828 938.73 242.386 938.566 242.874C938.402 243.362 938.163 243.774 937.849 244.111C937.534 244.444 937.156 244.699 936.714 244.877C936.272 245.05 935.773 245.137 935.217 245.137C934.697 245.137 934.221 245.05 933.788 244.877C933.355 244.699 932.979 244.444 932.66 244.111C932.346 243.774 932.102 243.362 931.929 242.874C931.756 242.386 931.669 241.828 931.669 241.199C931.669 240.365 931.812 239.659 932.1 239.08C932.391 238.497 932.806 238.052 933.344 237.747C933.882 237.442 934.522 237.289 935.265 237.289C935.962 237.289 936.577 237.442 937.11 237.747C937.644 238.052 938.061 238.497 938.361 239.08C938.662 239.663 938.812 240.37 938.812 241.199ZM933.323 241.199C933.323 241.751 933.389 242.222 933.521 242.614C933.658 243.006 933.868 243.307 934.15 243.517C934.433 243.722 934.798 243.824 935.244 243.824C935.691 243.824 936.055 243.722 936.338 243.517C936.62 243.307 936.828 243.006 936.96 242.614C937.092 242.222 937.158 241.751 937.158 241.199C937.158 240.648 937.092 240.181 936.96 239.798C936.828 239.41 936.62 239.117 936.338 238.916C936.055 238.711 935.688 238.608 935.237 238.608C934.572 238.608 934.087 238.832 933.781 239.278C933.476 239.725 933.323 240.365 933.323 241.199ZM942.388 245L939.51 237.433H941.212L942.771 241.876C942.871 242.159 942.962 242.464 943.044 242.792C943.126 243.12 943.183 243.396 943.215 243.619H943.27C943.301 243.387 943.363 243.109 943.454 242.785C943.545 242.457 943.639 242.154 943.734 241.876L945.293 237.433H946.988L944.11 245H942.388Z" fill="#7C8DB5"/>
<path d="M1016.43 239.907C1016.43 241.033 1016.22 241.974 1015.8 242.73C1015.38 243.482 1014.77 244.05 1013.97 244.433C1013.18 244.811 1012.21 245 1011.09 245H1008.31V235.006H1011.39C1012.42 235.006 1013.32 235.193 1014.07 235.566C1014.82 235.936 1015.4 236.485 1015.81 237.214C1016.22 237.938 1016.43 238.836 1016.43 239.907ZM1014.72 239.955C1014.72 239.135 1014.59 238.46 1014.33 237.932C1014.07 237.403 1013.69 237.011 1013.19 236.756C1012.7 236.496 1012.08 236.366 1011.35 236.366H1009.95V243.626H1011.12C1012.32 243.626 1013.23 243.318 1013.82 242.703C1014.42 242.088 1014.72 241.172 1014.72 239.955ZM1021.43 237.289C1022.11 237.289 1022.68 237.428 1023.17 237.706C1023.65 237.984 1024.02 238.378 1024.28 238.889C1024.54 239.399 1024.67 240.01 1024.67 240.721V241.582H1019.62C1019.64 242.316 1019.83 242.881 1020.21 243.277C1020.59 243.674 1021.11 243.872 1021.79 243.872C1022.28 243.872 1022.71 243.826 1023.09 243.735C1023.48 243.64 1023.88 243.501 1024.29 243.318V244.624C1023.91 244.802 1023.52 244.932 1023.13 245.014C1022.74 245.096 1022.27 245.137 1021.72 245.137C1020.98 245.137 1020.33 244.993 1019.76 244.706C1019.2 244.414 1018.76 243.981 1018.44 243.407C1018.13 242.833 1017.97 242.12 1017.97 241.268C1017.97 240.42 1018.12 239.7 1018.4 239.107C1018.69 238.515 1019.09 238.064 1019.61 237.754C1020.13 237.444 1020.74 237.289 1021.43 237.289ZM1021.43 238.499C1020.92 238.499 1020.51 238.663 1020.2 238.991C1019.89 239.319 1019.71 239.8 1019.65 240.434H1023.1C1023.09 240.055 1023.03 239.72 1022.91 239.429C1022.79 239.137 1022.61 238.909 1022.36 238.745C1022.12 238.581 1021.81 238.499 1021.43 238.499ZM1029.53 245.137C1028.82 245.137 1028.2 244.998 1027.67 244.72C1027.15 244.442 1026.74 244.016 1026.46 243.441C1026.18 242.867 1026.04 242.138 1026.04 241.254C1026.04 240.333 1026.19 239.581 1026.5 238.998C1026.81 238.415 1027.24 237.984 1027.79 237.706C1028.34 237.428 1028.97 237.289 1029.68 237.289C1030.13 237.289 1030.54 237.335 1030.91 237.426C1031.27 237.512 1031.59 237.619 1031.84 237.747L1031.36 239.032C1031.09 238.918 1030.8 238.823 1030.51 238.745C1030.22 238.668 1029.94 238.629 1029.67 238.629C1029.23 238.629 1028.86 238.727 1028.56 238.923C1028.27 239.119 1028.05 239.41 1027.9 239.798C1027.76 240.185 1027.69 240.666 1027.69 241.24C1027.69 241.796 1027.77 242.266 1027.91 242.648C1028.06 243.027 1028.27 243.314 1028.56 243.51C1028.85 243.701 1029.2 243.797 1029.62 243.797C1030.03 243.797 1030.41 243.747 1030.73 243.646C1031.06 243.546 1031.37 243.416 1031.66 243.257V244.651C1031.38 244.815 1031.07 244.936 1030.74 245.014C1030.41 245.096 1030.01 245.137 1029.53 245.137Z" fill="#7C8DB5"/>
<path d="M217 29H244V202C244 206.418 240.418 210 236 210H225C220.582 210 217 206.418 217 202V29Z" fill="url(#paint0_linear_197_826)"/>
<path d="M40 143.512C46.3077 143.859 61.2519 146.006 70.5679 151.824C82.2128 159.096 111.325 172.602 113.508 162.213C115.255 153.902 123.455 155.633 127.337 157.538C130.491 159.269 137.526 162.213 140.437 160.135C144.076 157.538 149.899 137.279 160.088 136.24C170.277 135.201 164.455 143.512 171.005 144.551C177.555 145.59 180.467 139.357 186.289 139.357C192.112 139.357 200.117 150.785 210.307 149.746C220.496 148.707 228.502 149.746 235.78 147.149C243.058 144.551 240.147 139.357 244.514 136.24C248.88 133.123 256.158 131.046 256.886 126.89C257.614 122.734 260.525 111.826 267.803 111.306C275.081 110.787 274.354 114.423 287.454 113.904C300.555 113.384 302.01 112.345 306.377 115.981C310.744 119.618 312.927 126.89 320.205 126.89C327.484 126.89 323.117 131.046 329.667 133.123C336.217 135.201 338.401 134.162 345.679 130.526C352.957 126.89 366.057 100.917 382.797 100.917C399.536 100.917 396.625 96.7616 411.909 98.8394C427.193 100.917 427.193 99.3588 430.832 94.6838C434.471 90.0087 441.021 85.3336 449.755 85.3336C458.489 85.3336 470.861 88.4503 478.867 86.8919C486.873 85.3336 494.879 75.4639 503.613 75.9834C512.346 76.5028 508.707 79.1001 525.447 79.1001C542.186 79.1001 536.364 65.0748 555.287 64.0359C574.21 62.997 590.222 84.8141 604.778 86.8919C619.334 88.9698 630.251 79.1001 642.624 79.1001C654.996 79.1001 666.641 91.0476 682.653 90.5281C698.665 90.0087 695.754 82.7363 708.854 82.7363C721.955 82.7363 723.41 90.5281 737.238 90.5281C751.067 90.5281 752.522 82.7363 759.8 82.7363C767.079 82.7363 777.268 82.2168 782.362 79.1001C787.457 75.9834 794.735 69.2305 799.83 75.9834C804.924 82.7363 810.019 94.1643 818.753 90.5281C827.486 86.8919 835.492 88.9697 840.587 94.6837C845.682 100.398 851.504 112.345 860.966 109.748C870.427 107.151 879.161 112.345 890.078 107.151C900.995 101.956 911.184 93.6448 920.646 100.398C930.107 107.151 933.746 109.748 953.397 109.748C973.048 109.748 978.142 111.306 989.787 107.151C1001.43 102.995 1016.72 100.398 1021.08 105.073C1024.58 108.813 1029.82 111.133 1032 111.826" stroke="#C6B075" stroke-width="2" stroke-linecap="round" stroke-linejoin="round"/>
<g filter="url(#filter0_d_197_826)">
<circle cx="231" cy="91" r="4" fill="#347AE2"/>
<circle cx="231" cy="91" r="3.5" stroke="white"/>
</g>
<defs>
<filter id="filter0_d_197_826" x="217" y="79" width="28" height="28" filterUnits="userSpaceOnUse" color-interpolation-filters="sRGB">
<feFlood flood-opacity="0" result="BackgroundImageFix"/>
<feColorMatrix in="SourceAlpha" type="matrix" values="0 0 0 0 0 0 0 0 0 0 0 0 0 0 0 0 0 0 127 0" result="hardAlpha"/>
<feOffset dy="2"/>
<feGaussianBlur stdDeviation="5"/>
<feComposite in2="hardAlpha" operator="out"/>
<feColorMatrix type="matrix" values="0 0 0 0 0.486275 0 0 0 0 0.552941 0 0 0 0 0.709804 0 0 0 0.12 0"/>
<feBlend mode="normal" in2="BackgroundImageFix" result="effect1_dropShadow_197_826"/>
<feBlend mode="normal" in="SourceGraphic" in2="effect1_dropShadow_197_826" result="shape"/>
</filter>
<linearGradient id="paint0_linear_197_826" x1="231" y1="210" x2="231" y2="29" gradientUnits="userSpaceOnUse">
<stop stop-color="#E6EDFF"/>
<stop offset="1" stop-color="#E6EDFF" stop-opacity="0"/>
</linearGradient>
</defs>
</svg>
