<svg width="165" height="55" viewBox="0 0 165 55" fill="none" xmlns="http://www.w3.org/2000/svg">
<path d="M151.435 5.66791e-05H13.1101C12.6059 5.66791e-05 12.1078 5.66792e-05 11.6049 0.00280667C11.1839 0.00555666 10.7663 0.0135454 10.3413 0.0202691C9.41805 0.0311341 8.49693 0.112361 7.58599 0.263245C6.67632 0.417413 5.79516 0.708064 4.97229 1.12537C4.15042 1.5462 3.39946 2.09303 2.74665 2.74602C2.09041 3.39717 1.54338 4.14982 1.1266 4.97501C0.708673 5.79856 0.418879 6.68108 0.26723 7.59207C0.11414 8.50191 0.0317602 9.42224 0.0208312 10.3448C0.00807122 10.7664 0.00672373 11.1894 0 11.611V43.393C0.00672373 43.8199 0.00807122 44.2335 0.0208312 44.6606C0.0317635 45.5831 0.114143 46.5034 0.26723 47.4132C0.418461 48.3247 0.708271 49.2077 1.1266 50.0316C1.54319 50.8541 2.0903 51.6037 2.74665 52.2513C3.39699 52.9072 4.14843 53.4544 4.97229 53.872C5.79515 54.2904 6.67622 54.5828 7.58599 54.7393C8.49709 54.889 9.41811 54.9703 10.3413 54.9824C10.7663 54.9918 11.1839 54.9971 11.6049 54.9971C12.1078 54.9999 12.606 54.9999 13.1101 54.9999H151.435C151.929 54.9999 152.431 54.9999 152.925 54.9971C153.344 54.9971 153.774 54.9918 154.193 54.9824C155.114 54.9709 156.034 54.8896 156.943 54.7393C157.856 54.5817 158.74 54.2894 159.567 53.872C160.39 53.4541 161.141 52.9069 161.79 52.2513C162.445 51.6012 162.993 50.8521 163.415 50.0316C163.83 49.2071 164.117 48.3242 164.266 47.4132C164.42 46.5033 164.505 45.5832 164.521 44.6606C164.527 44.2335 164.527 43.8199 164.527 43.393C164.538 42.8935 164.538 42.3967 164.538 41.889V13.1122C164.538 12.6087 164.538 12.1091 164.527 11.611C164.527 11.1894 164.527 10.7664 164.521 10.3448C164.505 9.42211 164.42 8.50198 164.266 7.59201C164.117 6.68155 163.83 5.79911 163.415 4.97496C162.566 3.32094 161.22 1.97459 159.567 1.12524C158.74 0.70896 157.856 0.418386 156.943 0.263121C156.034 0.111573 155.114 0.0303173 154.193 0.0200766C153.774 0.0133666 153.344 0.00530916 152.925 0.00262792C152.431 -0.00012207 151.929 -0.00012207 151.435 -0.00012207V5.66791e-05Z" fill="#A6A6A6"/>
<path d="M11.6114 53.7967C11.1925 53.7967 10.7837 53.7913 10.368 53.782C9.50697 53.7708 8.64794 53.6958 7.79796 53.5577C7.0054 53.4212 6.23762 53.1673 5.51995 52.8044C4.80886 52.4444 4.16029 51.9725 3.59908 51.4066C3.02975 50.8473 2.55576 50.1987 2.19588 49.4864C1.83205 48.7694 1.58025 48.001 1.44926 47.2077C1.30781 46.3554 1.23128 45.4935 1.22033 44.6296C1.21161 44.3396 1.2002 43.3741 1.2002 43.3741V11.6109C1.2002 11.6109 1.21235 10.6602 1.22039 10.3809C1.23088 9.51839 1.30697 8.65787 1.448 7.80686C1.57922 7.01145 1.83122 6.24076 2.19525 5.52148C2.5538 4.80966 3.02516 4.16055 3.59106 3.5993C4.15633 3.03272 4.80698 2.55833 5.51928 2.19341C6.2353 1.83163 7.00162 1.57951 7.79258 1.4455C8.64535 1.30602 9.50737 1.23062 10.3714 1.21991L11.6121 1.20312H152.918L154.174 1.22059C155.03 1.23076 155.884 1.30549 156.729 1.44415C157.528 1.57984 158.302 1.83372 159.027 2.19744C160.454 2.93285 161.615 4.09634 162.347 5.52483C162.706 6.23915 162.954 7.00355 163.083 7.79209C163.226 8.65009 163.306 9.51736 163.322 10.387C163.326 10.7764 163.326 11.1947 163.326 11.6109C163.337 12.1266 163.337 12.6173 163.337 13.1121V41.889C163.337 42.3885 163.337 42.8759 163.326 43.3674C163.326 43.8145 163.326 44.2241 163.321 44.6457C163.305 45.4998 163.226 46.3516 163.086 47.1943C162.957 47.9932 162.707 48.7677 162.343 49.4905C161.981 50.1951 161.51 50.8381 160.947 51.3958C160.385 51.9648 159.735 52.4395 159.023 52.8018C158.3 53.1675 157.527 53.4223 156.729 53.5577C155.879 53.6966 155.02 53.7715 154.159 53.782C153.756 53.7913 153.335 53.7967 152.925 53.7967L151.435 53.7995L11.6114 53.7967Z" fill="black"/>
<path d="M34.0572 27.9139C34.072 26.7662 34.3768 25.641 34.9433 24.6428C35.5099 23.6446 36.3197 22.8059 37.2974 22.2048C36.6763 21.3177 35.8569 20.5877 34.9042 20.0727C33.9516 19.5577 32.892 19.2719 31.8096 19.238C29.5007 18.9957 27.2622 20.6197 26.0856 20.6197C24.8863 20.6197 23.0747 19.2621 21.124 19.3022C19.8622 19.343 18.6324 19.7099 17.5546 20.3673C16.4768 21.0246 15.5876 21.9499 14.9737 23.053C12.3145 27.6571 14.298 34.4235 16.8454 38.1451C18.1198 39.9675 19.6094 42.0031 21.5583 41.9309C23.4655 41.8518 24.1778 40.7147 26.48 40.7147C28.7608 40.7147 29.4291 41.9309 31.4176 41.885C33.4641 41.8518 34.7535 40.0545 35.9833 38.2149C36.899 36.9164 37.6036 35.4813 38.0711 33.9627C36.8821 33.4599 35.8675 32.6181 35.1537 31.5425C34.4399 30.4668 34.0586 29.2048 34.0572 27.9139Z" fill="white"/>
<path d="M30.3014 16.7905C31.4172 15.451 31.967 13.7292 31.8339 11.9909C30.1291 12.17 28.5544 12.9847 27.4235 14.2729C26.8705 14.9021 26.447 15.6342 26.1772 16.4273C25.9073 17.2204 25.7965 18.0588 25.8509 18.8948C26.7035 18.9035 27.5471 18.7187 28.318 18.3542C29.0889 17.9897 29.7671 17.4551 30.3014 16.7905Z" fill="white"/>
<path d="M58.1655 37.317H51.6571L50.0941 41.9321H47.3374L53.5021 24.8574H56.3662L62.5308 41.9321H59.7271L58.1655 37.317ZM52.3312 35.1873H57.4901L54.9469 27.6973H54.8758L52.3312 35.1873Z" fill="white"/>
<path d="M75.8446 35.7079C75.8446 39.5764 73.7741 42.0619 70.6494 42.0619C69.8579 42.1033 69.0707 41.921 68.378 41.5358C67.6853 41.1506 67.1151 40.5781 66.7326 39.8839H66.6735V46.0499H64.1182V29.4828H66.5916V31.5534H66.6386C67.0386 30.8625 67.6185 30.293 68.3165 29.9054C69.0145 29.5179 69.8045 29.3268 70.6024 29.3526C73.7619 29.3526 75.8446 31.8501 75.8446 35.7079ZM73.2181 35.7079C73.2181 33.1875 71.9157 31.5306 69.9284 31.5306C67.976 31.5306 66.6627 33.2224 66.6627 35.7079C66.6627 38.2162 67.976 39.896 69.9284 39.896C71.9157 39.896 73.2181 38.2511 73.2181 35.7079Z" fill="white"/>
<path d="M89.5463 35.7079C89.5463 39.5764 87.4757 42.0619 84.3511 42.0619C83.5596 42.1033 82.7724 41.921 82.0797 41.5358C81.387 41.1506 80.8167 40.5781 80.4342 39.8839H80.3751V46.0499H77.8198V29.4828H80.2932V31.5534H80.3402C80.7403 30.8625 81.3201 30.293 82.0181 29.9054C82.7161 29.5179 83.5061 29.3268 84.3041 29.3526C87.4636 29.3526 89.5463 31.8501 89.5463 35.7079ZM86.9198 35.7079C86.9198 33.1875 85.6173 31.5305 83.63 31.5305C81.6776 31.5305 80.3644 33.2224 80.3644 35.7079C80.3644 38.2162 81.6776 39.896 83.63 39.896C85.6173 39.896 86.9198 38.2511 86.9198 35.7079H86.9198Z" fill="white"/>
<path d="M98.6016 37.1747C98.7909 38.8679 100.436 39.9796 102.684 39.9796C104.837 39.9796 106.387 38.8678 106.387 37.3411C106.387 36.0158 105.452 35.2222 103.24 34.6784L101.027 34.1453C97.8913 33.388 96.4357 31.9217 96.4357 29.5423C96.4357 26.5962 99.0031 24.5727 102.649 24.5727C106.257 24.5727 108.73 26.5962 108.813 29.5423H106.234C106.079 27.8383 104.671 26.8098 102.612 26.8098C100.554 26.8098 99.1454 27.8504 99.1454 29.365C99.1454 30.5722 100.045 31.2825 102.246 31.8263L104.127 32.2882C107.63 33.1167 109.086 34.5239 109.086 37.0215C109.086 40.2159 106.541 42.2166 102.494 42.2166C98.7076 42.2166 96.151 40.2629 95.9858 37.1745L98.6016 37.1747Z" fill="white"/>
<path d="M114.601 26.5372V29.4833H116.968V31.5068H114.601V38.3697C114.601 39.4359 115.075 39.9327 116.115 39.9327C116.396 39.9278 116.677 39.9081 116.956 39.8736V41.885C116.488 41.9725 116.012 42.0121 115.536 42.0032C113.016 42.0032 112.033 41.0566 112.033 38.6423V31.5068H110.223V29.4833H112.033V26.5372H114.601Z" fill="white"/>
<path d="M118.339 35.7084C118.339 31.7915 120.646 29.3302 124.243 29.3302C127.852 29.3302 130.149 31.7914 130.149 35.7084C130.149 39.636 127.864 42.0865 124.243 42.0865C120.623 42.0865 118.339 39.6359 118.339 35.7084ZM127.545 35.7084C127.545 33.0215 126.314 31.4357 124.243 31.4357C122.172 31.4357 120.942 33.0336 120.942 35.7084C120.942 38.406 122.172 39.9797 124.243 39.9797C126.314 39.9797 127.545 38.406 127.545 35.7084H127.545Z" fill="white"/>
<path d="M132.255 29.4827H134.693V31.6016H134.752C134.917 30.9398 135.304 30.355 135.85 29.9454C136.395 29.5358 137.065 29.3264 137.746 29.3524C138.04 29.3514 138.334 29.3834 138.621 29.4478V31.8379C138.25 31.7243 137.862 31.6722 137.473 31.6835C137.102 31.6684 136.732 31.7339 136.389 31.8754C136.045 32.0168 135.736 32.231 135.483 32.5031C135.23 32.7752 135.039 33.0988 134.923 33.4517C134.807 33.8046 134.769 34.1785 134.811 34.5476V41.9315H132.255L132.255 29.4827Z" fill="white"/>
<path d="M150.403 38.2757C150.059 40.5356 147.858 42.0865 145.043 42.0865C141.421 42.0865 139.173 39.6601 139.173 35.7674C139.173 31.8627 141.433 29.3302 144.935 29.3302C148.379 29.3302 150.545 31.6962 150.545 35.4707V36.3462H141.753V36.5006C141.712 36.9587 141.77 37.4203 141.921 37.8545C142.073 38.2888 142.315 38.6859 142.631 39.0194C142.948 39.3529 143.332 39.6152 143.758 39.7889C144.184 39.9625 144.642 40.0436 145.102 40.0267C145.706 40.0833 146.311 39.9434 146.829 39.6279C147.347 39.3125 147.75 38.8382 147.977 38.2757L150.403 38.2757ZM141.765 34.5603H147.989C148.012 34.1483 147.949 33.7361 147.805 33.3494C147.661 32.9628 147.439 32.61 147.152 32.3134C146.866 32.0167 146.521 31.7825 146.139 31.6254C145.758 31.4684 145.348 31.3919 144.935 31.4007C144.519 31.3983 144.107 31.4782 143.721 31.636C143.336 31.7938 142.986 32.0262 142.692 32.32C142.397 32.6137 142.163 32.9629 142.004 33.3474C141.845 33.732 141.764 34.1442 141.765 34.5603V34.5603Z" fill="white"/>
<path d="M52.0108 12.0044C52.5466 11.966 53.0841 12.0469 53.5848 12.2414C54.0854 12.4359 54.5367 12.739 54.906 13.129C55.2753 13.519 55.5535 13.9861 55.7204 14.4966C55.8873 15.0071 55.9389 15.5482 55.8713 16.0811C55.8713 18.7022 54.4547 20.2088 52.0108 20.2088H49.0474V12.0044H52.0108ZM50.3216 19.0485H51.8685C52.2513 19.0714 52.6344 19.0086 52.9899 18.8648C53.3454 18.721 53.6643 18.4997 53.9235 18.217C54.1827 17.9344 54.3756 17.5975 54.4881 17.2309C54.6007 16.8643 54.6301 16.4772 54.5742 16.0978C54.626 15.7199 54.5937 15.3352 54.4794 14.9713C54.3651 14.6074 54.1717 14.2733 53.9131 13.9929C53.6545 13.7125 53.3371 13.4927 52.9836 13.3494C52.6302 13.2061 52.2494 13.1427 51.8685 13.1638H50.3216V19.0485Z" fill="white"/>
<path d="M57.3107 17.1103C57.2718 16.7034 57.3183 16.2929 57.4473 15.905C57.5764 15.5172 57.785 15.1606 58.06 14.8581C58.3349 14.5556 58.67 14.314 59.0438 14.1486C59.4176 13.9832 59.8218 13.8978 60.2305 13.8978C60.6393 13.8978 61.0435 13.9832 61.4173 14.1486C61.7911 14.314 62.1262 14.5556 62.4011 14.8581C62.676 15.1606 62.8847 15.5172 63.0137 15.905C63.1428 16.2929 63.1893 16.7034 63.1504 17.1103C63.1901 17.5176 63.1441 17.9287 63.0154 18.3171C62.8867 18.7056 62.6781 19.0629 62.4032 19.3659C62.1282 19.669 61.7928 19.9112 61.4186 20.0769C61.0445 20.2427 60.6398 20.3283 60.2305 20.3283C59.8213 20.3283 59.4166 20.2427 59.0424 20.0769C58.6683 19.9112 58.3329 19.669 58.0579 19.3659C57.7829 19.0629 57.5744 18.7056 57.4457 18.3171C57.317 17.9287 57.271 17.5176 57.3107 17.1103ZM61.8935 17.1103C61.8935 15.7682 61.2906 14.9833 60.2326 14.9833C59.1704 14.9833 58.5729 15.7682 58.5729 17.1103C58.5729 18.4631 59.1705 19.2419 60.2326 19.2419C61.2907 19.2419 61.8936 18.4577 61.8936 17.1103H61.8935Z" fill="white"/>
<path d="M70.9131 20.2087H69.6455L68.3658 15.6486H68.2692L66.9949 20.2087H65.7394L64.0327 14.0172H65.2721L66.3812 18.7416H66.4725L67.7455 14.0172H68.9177L70.1907 18.7416H70.2873L71.3911 14.0172H72.613L70.9131 20.2087Z" fill="white"/>
<path d="M74.0484 14.0165H75.2246V15.0001H75.3159C75.4708 14.6469 75.7321 14.3507 76.0633 14.153C76.3945 13.9552 76.7791 13.8658 77.1636 13.897C77.4648 13.8744 77.7673 13.9198 78.0486 14.0299C78.33 14.1401 78.5829 14.3121 78.7887 14.5332C78.9945 14.7544 79.148 15.019 79.2376 15.3075C79.3273 15.596 79.3508 15.901 79.3066 16.1999V20.208H78.0847V16.5067C78.0847 15.5117 77.6523 15.0169 76.7487 15.0169C76.5441 15.0074 76.3399 15.0422 76.1501 15.119C75.9603 15.1957 75.7893 15.3126 75.6489 15.4617C75.5084 15.6107 75.4019 15.7883 75.3366 15.9824C75.2712 16.1764 75.2486 16.3823 75.2703 16.5859V20.208H74.0483L74.0484 14.0165Z" fill="white"/>
<path d="M81.2539 11.6002H82.4758V20.2086H81.2539V11.6002Z" fill="white"/>
<path d="M84.1744 17.1103C84.1355 16.7034 84.1821 16.2928 84.3112 15.9049C84.4402 15.5171 84.6489 15.1605 84.9239 14.858C85.1988 14.5555 85.5339 14.3138 85.9078 14.1485C86.2816 13.9831 86.6858 13.8976 87.0946 13.8976C87.5034 13.8976 87.9076 13.9831 88.2815 14.1485C88.6553 14.3138 88.9904 14.5555 89.2654 14.858C89.5403 15.1605 89.749 15.5171 89.8781 15.9049C90.0071 16.2928 90.0537 16.7034 90.0148 17.1103C90.0544 17.5176 90.0084 17.9287 89.8796 18.3172C89.7509 18.7056 89.5423 19.0629 89.2673 19.3659C88.9923 19.669 88.6569 19.9112 88.2828 20.0769C87.9086 20.2426 87.5039 20.3282 87.0946 20.3282C86.6854 20.3282 86.2807 20.2426 85.9065 20.0769C85.5323 19.9112 85.1969 19.669 84.9219 19.3659C84.6469 19.0629 84.4383 18.7056 84.3096 18.3172C84.1808 17.9287 84.1348 17.5176 84.1744 17.1103ZM88.7573 17.1103C88.7573 15.7682 88.1544 14.9833 87.0963 14.9833C86.0342 14.9833 85.4367 15.7682 85.4367 17.1103C85.4367 18.4631 86.0342 19.2419 87.0963 19.2419C88.1544 19.2419 88.7573 18.4577 88.7573 17.1103H88.7573Z" fill="white"/>
<path d="M91.3008 18.4577C91.3008 17.3432 92.1306 16.7007 93.6036 16.6094L95.2807 16.5127V15.9783C95.2807 15.3243 94.8484 14.9551 94.0132 14.9551C93.3311 14.9551 92.8584 15.2055 92.7228 15.6432H91.5398C91.6647 14.5798 92.665 13.8976 94.0696 13.8976C95.6218 13.8976 96.4973 14.6704 96.4973 15.9783V20.2087H95.321V19.3385H95.2244C95.0281 19.6507 94.7526 19.9051 94.4258 20.0759C94.0991 20.2467 93.7329 20.3277 93.3646 20.3107C93.1047 20.3377 92.842 20.31 92.5934 20.2293C92.3449 20.1486 92.116 20.0167 91.9216 19.8421C91.7271 19.6675 91.5714 19.4541 91.4645 19.2157C91.3576 18.9772 91.3018 18.719 91.3008 18.4577ZM95.2807 17.9286V17.411L93.7688 17.5077C92.9161 17.5647 92.5294 17.8548 92.5294 18.4006C92.5294 18.9578 93.0128 19.2821 93.6775 19.2821C93.8723 19.3018 94.069 19.2822 94.256 19.2243C94.443 19.1664 94.6165 19.0715 94.7661 18.9452C94.9156 18.819 95.0383 18.6639 95.1267 18.4892C95.2151 18.3146 95.2675 18.1239 95.2807 17.9286Z" fill="white"/>
<path d="M98.103 17.1102C98.103 15.1538 99.1088 13.9144 100.673 13.9144C101.06 13.8966 101.444 13.9893 101.78 14.1816C102.117 14.374 102.391 14.6581 102.572 15.0007H102.663V11.6002H103.885V20.2086H102.714V19.2304H102.617C102.423 19.5707 102.139 19.8513 101.796 20.0417C101.453 20.2321 101.065 20.3251 100.673 20.3107C99.098 20.3108 98.103 19.0713 98.103 17.1102ZM99.3653 17.1102C99.3653 18.4235 99.9843 19.2137 101.02 19.2137C102.049 19.2137 102.686 18.4121 102.686 17.1156C102.686 15.8252 102.043 15.0122 101.02 15.0122C99.991 15.0122 99.3652 15.8077 99.3652 17.1102H99.3653Z" fill="white"/>
<path d="M108.941 17.1103C108.902 16.7034 108.949 16.2929 109.078 15.905C109.207 15.5172 109.415 15.1606 109.69 14.8581C109.965 14.5556 110.3 14.314 110.674 14.1486C111.048 13.9832 111.452 13.8978 111.861 13.8978C112.27 13.8978 112.674 13.9832 113.048 14.1486C113.421 14.314 113.757 14.5556 114.031 14.8581C114.306 15.1606 114.515 15.5172 114.644 15.905C114.773 16.2929 114.82 16.7034 114.781 17.1103C114.82 17.5176 114.774 17.9287 114.646 18.3171C114.517 18.7056 114.309 19.0629 114.034 19.3659C113.759 19.669 113.423 19.9112 113.049 20.0769C112.675 20.2427 112.27 20.3283 111.861 20.3283C111.452 20.3283 111.047 20.2427 110.673 20.0769C110.299 19.9112 109.963 19.669 109.688 19.3659C109.413 19.0629 109.205 18.7056 109.076 18.3171C108.947 17.9287 108.901 17.5176 108.941 17.1103ZM113.524 17.1103C113.524 15.7682 112.921 14.9833 111.863 14.9833C110.801 14.9833 110.203 15.7682 110.203 17.1103C110.203 18.4631 110.801 19.2419 111.863 19.2419C112.921 19.2419 113.524 18.4577 113.524 17.1103Z" fill="white"/>
<path d="M116.42 14.0165H117.596V15.0001H117.688C117.842 14.6469 118.104 14.3507 118.435 14.153C118.766 13.9552 119.151 13.8658 119.535 13.897C119.836 13.8744 120.139 13.9198 120.42 14.0299C120.702 14.1401 120.954 14.3121 121.16 14.5332C121.366 14.7544 121.52 15.019 121.609 15.3075C121.699 15.596 121.722 15.901 121.678 16.1999V20.208H120.456V16.5067C120.456 15.5117 120.024 15.0169 119.12 15.0169C118.916 15.0074 118.712 15.0422 118.522 15.119C118.332 15.1957 118.161 15.3126 118.02 15.4617C117.88 15.6107 117.773 15.7883 117.708 15.9824C117.643 16.1764 117.62 16.3823 117.642 16.5859V20.208H116.42V14.0165Z" fill="white"/>
<path d="M128.583 12.4756V14.0453H129.924V15.0746H128.583V18.2583C128.583 18.9068 128.85 19.1908 129.458 19.1908C129.614 19.1903 129.769 19.1809 129.924 19.1626V20.1804C129.705 20.2197 129.482 20.2406 129.259 20.2429C127.901 20.2429 127.359 19.7649 127.359 18.5711V15.0745H126.376V14.0453H127.359V12.4756H128.583Z" fill="white"/>
<path d="M131.593 11.6002H132.804V15.0121H132.901C133.064 14.6556 133.332 14.3578 133.67 14.1593C134.008 13.9608 134.398 13.8713 134.789 13.903C135.089 13.8867 135.388 13.9367 135.666 14.0495C135.945 14.1624 136.194 14.3352 136.398 14.5556C136.602 14.7761 136.754 15.0388 136.845 15.325C136.935 15.6111 136.961 15.9138 136.921 16.2112V20.2087H135.698V16.5127C135.698 15.5237 135.238 15.0229 134.374 15.0229C134.164 15.0056 133.953 15.0345 133.755 15.1075C133.558 15.1804 133.378 15.2957 133.23 15.4452C133.081 15.5947 132.967 15.7749 132.896 15.973C132.824 16.1712 132.797 16.3827 132.815 16.5926V20.2086H131.593L131.593 11.6002Z" fill="white"/>
<path d="M144.046 18.5369C143.88 19.1028 143.52 19.5923 143.03 19.9197C142.539 20.2472 141.949 20.3918 141.363 20.3282C140.955 20.339 140.55 20.2608 140.175 20.0992C139.8 19.9376 139.465 19.6964 139.193 19.3924C138.921 19.0883 138.718 18.7287 138.599 18.3384C138.48 17.9482 138.447 17.5366 138.503 17.1324C138.449 16.727 138.482 16.3145 138.601 15.9231C138.72 15.5317 138.922 15.1704 139.192 14.8637C139.463 14.5569 139.796 14.312 140.17 14.1453C140.544 13.9786 140.949 13.8942 141.358 13.8977C143.08 13.8977 144.12 15.0747 144.12 17.0189V17.4453H139.748V17.5138C139.729 17.741 139.757 17.9697 139.832 18.1852C139.906 18.4007 140.025 18.5984 140.18 18.7654C140.335 18.9324 140.524 19.0651 140.733 19.155C140.943 19.2449 141.169 19.2901 141.397 19.2875C141.689 19.3226 141.985 19.27 142.247 19.1363C142.51 19.0027 142.726 18.794 142.87 18.5369L144.046 18.5369ZM139.748 16.5416H142.875C142.89 16.3338 142.862 16.1251 142.792 15.9288C142.722 15.7326 142.612 15.5532 142.468 15.4021C142.325 15.2511 142.151 15.1317 141.959 15.0517C141.766 14.9717 141.559 14.9329 141.351 14.9377C141.14 14.935 140.93 14.9747 140.734 15.0544C140.538 15.134 140.361 15.2521 140.211 15.4016C140.062 15.5511 139.944 15.7289 139.864 15.9247C139.785 16.1205 139.745 16.3303 139.748 16.5416H139.748Z" fill="white"/>
</svg>
