<svg width="75" height="76" viewBox="0 0 75 76" fill="none" xmlns="http://www.w3.org/2000/svg">
<g id="dna 1" clip-path="url(#clip0_634_1534)">
<g id="Group">
<path id="Vector" d="M45.2224 32.9346C44.5017 32.9346 43.9392 32.2724 44.0681 31.5635C44.1384 31.1474 45.697 21.2744 37.0896 17.9404C26.6834 13.915 28.5584 1.86229 28.5818 1.7451C28.6873 1.10643 29.2849 0.672835 29.9295 0.784163C30.5681 0.889631 30.9959 1.49315 30.8963 2.13182C30.8259 2.54783 29.3259 12.4267 37.9392 15.7607C48.3513 19.792 46.4002 31.8447 46.3826 31.9678C46.283 32.5361 45.7908 32.9404 45.2283 32.9404L45.2224 32.9346Z" fill="black"/>
<path id="Vector_2" d="M29.7712 32.9345C29.2087 32.9345 28.7165 32.5303 28.6169 31.956C28.5934 31.833 26.6774 19.7803 37.0895 15.7549C45.7028 12.4209 44.1735 2.54783 44.1091 2.13182C44.0036 1.49315 44.4372 0.889631 45.07 0.784163C45.7087 0.672835 46.3122 1.10643 46.4177 1.7451C46.4411 1.86815 48.3454 13.915 37.9333 17.9463C29.2907 21.292 30.9138 31.4697 30.9255 31.5693C31.0544 32.2783 30.486 32.9463 29.7712 32.9404V32.9345Z" fill="black"/>
<path id="Vector_3" d="M43.7813 9.09277H31.2539C30.6094 9.09277 30.082 8.56543 30.082 7.9209C30.082 7.27637 30.6094 6.74902 31.2539 6.74902H43.7813C44.4258 6.74902 44.9531 7.27637 44.9531 7.9209C44.9531 8.56543 44.4258 9.09277 43.7813 9.09277Z" fill="black"/>
<path id="Vector_4" d="M43.7813 27.4619H31.2539C30.6094 27.4619 30.082 26.9346 30.082 26.29C30.082 25.6455 30.6094 25.1182 31.2539 25.1182H43.7813C44.4258 25.1182 44.9531 25.6455 44.9531 26.29C44.9531 26.9346 44.4258 27.4619 43.7813 27.4619Z" fill="black"/>
</g>
<g id="Group_2">
<path id="Vector_5" d="M14.2617 58.8096C15.5566 58.8096 16.6055 59.8584 16.6055 61.1533V70.7275C16.6055 72.0225 15.5566 73.0713 14.2617 73.0713H4.6875C3.39258 73.0713 2.34375 72.0225 2.34375 70.7275V61.1533C2.34375 59.8584 3.39258 58.8096 4.6875 58.8096H14.2617ZM14.2617 56.4658H4.6875C2.09766 56.4658 0 58.5635 0 61.1533V70.7275C0 73.3174 2.09766 75.415 4.6875 75.415H14.2617C16.8516 75.415 18.9492 73.3174 18.9492 70.7275V61.1533C18.9492 58.5635 16.8516 56.4658 14.2617 56.4658Z" fill="black"/>
<path id="Vector_6" d="M42.1699 58.8096C43.4648 58.8096 44.5137 59.8584 44.5137 61.1533V70.7275C44.5137 72.0225 43.4648 73.0713 42.1699 73.0713H32.5957C31.3008 73.0713 30.252 72.0225 30.252 70.7275V61.1533C30.252 59.8584 31.3008 58.8096 32.5957 58.8096H42.1699ZM42.1699 56.4658H32.5957C30.0059 56.4658 27.9082 58.5635 27.9082 61.1533V70.7275C27.9082 73.3174 30.0059 75.415 32.5957 75.415H42.1699C44.7598 75.415 46.8574 73.3174 46.8574 70.7275V61.1533C46.8574 58.5635 44.7598 56.4658 42.1699 56.4658Z" fill="black"/>
<path id="Vector_7" d="M70.3125 58.8096C71.6074 58.8096 72.6562 59.8584 72.6562 61.1533V70.7275C72.6562 72.0225 71.6074 73.0713 70.3125 73.0713H60.7383C59.4434 73.0713 58.3945 72.0225 58.3945 70.7275V61.1533C58.3945 59.8584 59.4434 58.8096 60.7383 58.8096H70.3125ZM70.3125 56.4658H60.7383C58.1484 56.4658 56.0508 58.5635 56.0508 61.1533V70.7275C56.0508 73.3174 58.1484 75.415 60.7383 75.415H70.3125C72.9023 75.415 75 73.3174 75 70.7275V61.1533C75 58.5635 72.9023 56.4658 70.3125 56.4658Z" fill="black"/>
</g>
<path id="Vector_8" d="M65.5254 58.2998C64.8809 58.2998 64.3535 57.7725 64.3535 57.1279V46.6162C64.3535 44.6768 62.7773 43.1006 60.8379 43.1006H14.1621C12.2227 43.1006 10.6465 44.6768 10.6465 46.6162V57.0459C10.6465 57.6904 10.1191 58.2178 9.47461 58.2178C8.83008 58.2178 8.30273 57.6904 8.30273 57.0459V46.6162C8.30273 43.3877 10.9336 40.7568 14.1621 40.7568H60.8379C64.0664 40.7568 66.6973 43.3877 66.6973 46.6162V57.1279C66.6973 57.7725 66.1699 58.2998 65.5254 58.2998Z" fill="black"/>
<path id="Vector_9" d="M37.3828 57.6377C36.7383 57.6377 36.2109 57.1104 36.2109 56.4658V35.6357C36.2109 34.9912 36.7383 34.4639 37.3828 34.4639C38.0273 34.4639 38.5547 34.9912 38.5547 35.6357V56.4658C38.5547 57.1104 38.0273 57.6377 37.3828 57.6377Z" fill="black"/>
</g>
<defs>
<clipPath id="clip0_634_1534">
<rect width="75" height="75" fill="white" transform="translate(0 0.415039)"/>
</clipPath>
</defs>
</svg>
