<svg width="81" height="76" viewBox="0 0 81 76" fill="none" xmlns="http://www.w3.org/2000/svg">
<path id="Vector" fill-rule="evenodd" clip-rule="evenodd" d="M70.3326 74.1971C70.3326 74.8694 69.7845 75.415 69.1089 75.415H1.22371C0.548077 75.415 0 74.8694 0 74.1971C0 73.5232 0.548077 72.9793 1.22371 72.9793H4.66419V67.5656C4.66419 66.8932 5.21226 66.3476 5.88789 66.3476C6.56353 66.3476 7.1116 66.8932 7.1116 67.5656V72.9793H19.3029V47.7528C19.3029 47.0804 19.8509 46.5348 20.5266 46.5348C21.2032 46.5348 21.7503 47.0804 21.7503 47.7528V72.9793H33.9425V56.2692C33.9425 55.5968 34.4906 55.0512 35.1662 55.0512C35.8419 55.0512 36.3899 55.5968 36.3899 56.2692V72.9793H48.5822V43.6866C48.5822 43.0143 49.1302 42.4686 49.8059 42.4686C50.4815 42.4686 51.0296 43.0143 51.0296 43.6866V72.9791H63.2218V40.1288C63.2218 39.4564 63.7699 38.911 64.4455 38.911C65.1211 38.911 65.6692 39.4566 65.6692 40.1288V72.9791H69.1085C69.7846 72.9793 70.3326 73.5234 70.3326 74.1971ZM66.1192 29.8959L62.0237 18.4712L76.3255 6.04266L66.1192 29.8959ZM56.0475 23.3668L56.569 17.3976L59.6008 18.9599L60.913 22.6182L56.0475 23.3668ZM35.677 47.0056C36.7112 47.0056 37.5538 46.1677 37.5538 45.1383C37.5538 44.1105 36.7112 43.2726 35.677 43.2726C34.6428 43.2726 33.8021 44.1105 33.8021 45.1383C33.8021 46.1675 34.6428 47.0056 35.677 47.0056ZM20.5268 38.1902C19.4935 38.1902 18.6519 37.3536 18.6519 36.3244C18.6519 35.2948 19.4935 34.4571 20.5268 34.4571C21.561 34.4571 22.4026 35.2948 22.4026 36.3244C22.4026 37.3536 21.5608 38.1902 20.5268 38.1902ZM5.88789 58.0036C6.92211 58.0036 7.76374 57.1672 7.76374 56.1378C7.76374 55.1082 6.92211 54.272 5.88789 54.272C4.85367 54.272 4.01205 55.108 4.01205 56.1378C4.01205 57.167 4.85367 58.0036 5.88789 58.0036ZM74.7169 4.20935L49.5909 11.0586L60.415 16.6364L74.7169 4.20935ZM80.265 0.643594C79.9565 0.42141 79.5736 0.364415 79.224 0.458698L79.222 0.45522L45.9237 9.53211C44.8545 9.82269 44.7019 11.2812 45.6861 11.7878L54.2198 16.1862L53.5117 24.2583L37.6022 41.2884C35.9762 40.4802 34.0326 40.7768 32.719 42.0061L24.7234 37.3557C25.3995 34.6717 23.3444 32.0214 20.5268 32.0214C16.9614 32.0214 14.9316 36.1007 17.0873 38.9259L7.35817 52.0929C4.59449 51.0853 1.56463 53.1257 1.56463 56.1378C1.56463 58.5101 3.50435 60.4389 5.88789 60.4389C9.4633 60.4389 11.4803 56.3495 9.32837 53.5363L19.0563 40.3691C20.6044 40.9259 22.3071 40.559 23.4867 39.4566L31.4803 44.107C30.8129 46.819 32.8739 49.4412 35.677 49.4412C39.0391 49.4412 41.0914 45.7805 39.3953 42.9474L55.2725 25.9501L61.7496 24.953L64.8658 33.6485C65.2402 34.6909 66.7102 34.7336 67.1463 33.7165L80.6711 2.10692C80.8946 1.58391 80.7267 0.978222 80.265 0.643594Z" fill="black"/>
</svg>
