<svg width="186" height="55" viewBox="0 0 186 55" fill="none" xmlns="http://www.w3.org/2000/svg">
<path d="M178.75 0H6.875C3.07804 0 0 3.07804 0 6.875V48.125C0 51.922 3.07804 55 6.875 55H178.75C182.547 55 185.625 51.922 185.625 48.125V6.875C185.625 3.07804 182.547 0 178.75 0Z" fill="black"/>
<path d="M178.75 1.1C180.282 1.1 181.751 1.70844 182.834 2.79146C183.917 3.87448 184.525 5.34337 184.525 6.875V48.125C184.525 49.6566 183.917 51.1255 182.834 52.2085C181.751 53.2916 180.282 53.9 178.75 53.9H6.875C5.34337 53.9 3.87448 53.2916 2.79146 52.2085C1.70844 51.1255 1.1 49.6566 1.1 48.125V6.875C1.1 5.34337 1.70844 3.87448 2.79146 2.79146C3.87448 1.70844 5.34337 1.1 6.875 1.1H178.75ZM178.75 0H6.875C5.05164 0 3.30295 0.724328 2.01364 2.01364C0.724328 3.30295 0 5.05164 0 6.875V48.125C0 49.9484 0.724328 51.697 2.01364 52.9864C3.30295 54.2757 5.05164 55 6.875 55H178.75C180.573 55 182.322 54.2757 183.611 52.9864C184.901 51.697 185.625 49.9484 185.625 48.125V6.875C185.625 5.05164 184.901 3.30295 183.611 2.01364C182.322 0.724328 180.573 0 178.75 0Z" fill="#A6A6A6"/>
<path d="M59.7507 12.2183H61.8416V15.1194C61.5279 15.2258 61.2047 15.3049 60.8719 15.3568C60.5418 15.4086 60.1722 15.4345 59.763 15.4345C59.1411 15.4345 58.6159 15.3104 58.1877 15.0621C57.7621 14.8139 57.4389 14.4606 57.2179 14.0024C56.997 13.5414 56.8865 12.9944 56.8865 12.3616C56.8865 11.7423 57.0079 11.2022 57.2506 10.7412C57.4962 10.2802 57.8494 9.92285 58.3104 9.66916C58.7742 9.41274 59.3306 9.28453 59.9799 9.28453C60.3127 9.28453 60.6277 9.3159 60.9251 9.37864C61.2251 9.43865 61.5034 9.52458 61.7598 9.63642L61.4938 10.242C61.2729 10.1465 61.0287 10.0647 60.7614 9.9965C60.4968 9.9283 60.2227 9.8942 59.939 9.8942C59.4507 9.8942 59.0319 9.99514 58.6828 10.197C58.3363 10.3989 58.0704 10.6839 57.8849 11.0522C57.7021 11.4204 57.6107 11.8569 57.6107 12.3616C57.6107 12.8608 57.6912 13.2959 57.8521 13.6668C58.0131 14.0351 58.264 14.3215 58.605 14.5261C58.946 14.7307 59.3852 14.833 59.9226 14.833C60.1926 14.833 60.4245 14.818 60.6182 14.788C60.8119 14.7553 60.9878 14.7171 61.146 14.6734V12.8403H59.7507V12.2183ZM66.6209 15.3527H63.2901V9.37045H66.6209V9.98422H63.9857V11.9196H66.4695V12.5252H63.9857V14.7389H66.6209V15.3527ZM69.7838 15.3527H69.0841V9.98422H67.2019V9.37045H71.6579V9.98422H69.7838V15.3527ZM74.739 15.3527V9.37045H75.4346V15.3527H74.739ZM78.9167 15.3527H78.217V9.98422H76.3348V9.37045H80.7908V9.98422H78.9167V15.3527ZM89.0603 12.3534C89.0603 12.8144 89.0016 13.2345 88.8843 13.6136C88.767 13.9901 88.5924 14.3147 88.3606 14.5875C88.1314 14.8576 87.8464 15.0662 87.5054 15.2135C87.1644 15.3608 86.7689 15.4345 86.3188 15.4345C85.855 15.4345 85.4499 15.3608 85.1035 15.2135C84.7598 15.0662 84.4734 14.8562 84.2442 14.5834C84.0178 14.3106 83.8473 13.9846 83.7328 13.6055C83.6209 13.2263 83.565 12.8062 83.565 12.3452C83.565 11.7341 83.6659 11.1981 83.8678 10.7371C84.0696 10.2761 84.3752 9.91739 84.7843 9.66097C85.1963 9.40455 85.7118 9.27634 86.331 9.27634C86.923 9.27634 87.4208 9.40319 87.8246 9.65688C88.231 9.91057 88.5379 10.2679 88.7452 10.7289C88.9553 11.1872 89.0603 11.7287 89.0603 12.3534ZM84.2974 12.3534C84.2974 12.8608 84.3697 13.2999 84.5143 13.6709C84.6589 14.0419 84.8798 14.3283 85.1772 14.5302C85.4772 14.7321 85.8578 14.833 86.3188 14.833C86.7825 14.833 87.1617 14.7321 87.4563 14.5302C87.7536 14.3283 87.9732 14.0419 88.1151 13.6709C88.2569 13.2999 88.3278 12.8608 88.3278 12.3534C88.3278 11.5814 88.1655 10.9785 87.8409 10.5448C87.519 10.1083 87.0157 9.89011 86.331 9.89011C85.8673 9.89011 85.4854 9.98968 85.1853 10.1888C84.8853 10.3879 84.6616 10.6716 84.5143 11.0399C84.3697 11.4054 84.2974 11.8433 84.2974 12.3534ZM95.0711 15.3527H94.2691L91.008 10.3279H90.9752C90.9834 10.4616 90.993 10.6144 91.0039 10.7862C91.0148 10.9553 91.023 11.1367 91.0284 11.3304C91.0366 11.5214 91.0407 11.7164 91.0407 11.9156V15.3527H90.3942V9.37045H91.1921L94.441 14.3788H94.4696C94.4642 14.2833 94.4574 14.1483 94.4492 13.9737C94.441 13.7964 94.4328 13.6068 94.4246 13.405C94.4192 13.2004 94.4164 13.0108 94.4164 12.8362V9.37045H95.0711V15.3527Z" fill="white"/>
<path d="M59.7507 12.2183V12.1183H59.6507V12.2183H59.7507ZM61.8416 12.2183H61.9416V12.1183H61.8416V12.2183ZM61.8416 15.1194L61.8738 15.2141L61.9416 15.1911V15.1194H61.8416ZM60.8719 15.3568L60.8565 15.2579L60.8564 15.258L60.8719 15.3568ZM58.1877 15.0621L58.1373 15.1485L58.1375 15.1487L58.1877 15.0621ZM57.2179 14.0024L57.1277 14.0456L57.1278 14.0458L57.2179 14.0024ZM57.2506 10.7412L57.1624 10.6942L57.1622 10.6946L57.2506 10.7412ZM58.3104 9.66916L58.3586 9.75677L58.3588 9.75667L58.3104 9.66916ZM60.9251 9.37864L60.9044 9.47649L60.9055 9.4767L60.9251 9.37864ZM61.7598 9.63642L61.8514 9.67663L61.8917 9.58484L61.7998 9.54476L61.7598 9.63642ZM61.4938 10.242L61.4542 10.3338L61.5454 10.3732L61.5854 10.2822L61.4938 10.242ZM60.7614 9.9965L60.7364 10.0933L60.7367 10.0934L60.7614 9.9965ZM58.6828 10.197L58.6327 10.1104L58.6324 10.1106L58.6828 10.197ZM57.8849 11.0522L57.7956 11.0072L57.7953 11.0077L57.8849 11.0522ZM57.8521 13.6668L57.7604 13.7066L57.7605 13.7069L57.8521 13.6668ZM58.605 14.5261L58.5536 14.6119L58.605 14.5261ZM60.6182 14.788L60.6335 14.8868L60.6349 14.8866L60.6182 14.788ZM61.146 14.6734L61.1726 14.7698L61.246 14.7496V14.6734H61.146ZM61.146 12.8403H61.246V12.7403H61.146V12.8403ZM59.7507 12.8403H59.6507V12.9403H59.7507V12.8403ZM59.7507 12.3183H61.8416V12.1183H59.7507V12.3183ZM61.7416 12.2183V15.1194H61.9416V12.2183H61.7416ZM61.8095 15.0247C61.5014 15.1292 61.1837 15.207 60.8565 15.2579L60.8873 15.4556C61.2257 15.4029 61.5545 15.3224 61.8738 15.2141L61.8095 15.0247ZM60.8564 15.258C60.5324 15.3088 60.1681 15.3345 59.763 15.3345V15.5345C60.1763 15.5345 60.5512 15.5083 60.8874 15.4555L60.8564 15.258ZM59.763 15.3345C59.1542 15.3345 58.6474 15.213 58.2378 14.9756L58.1375 15.1487C58.5845 15.4077 59.1279 15.5345 59.763 15.5345V15.3345ZM58.2381 14.9758C57.8303 14.7379 57.5206 14.3999 57.308 13.9589L57.1278 14.0458C57.3571 14.5214 57.6939 14.8899 58.1373 15.1485L58.2381 14.9758ZM57.3081 13.9591C57.0949 13.5144 56.9865 12.9829 56.9865 12.3616H56.7865C56.7865 13.0059 56.899 13.5683 57.1277 14.0456L57.3081 13.9591ZM56.9865 12.3616C56.9865 11.7555 57.1052 11.232 57.3391 10.7878L57.1622 10.6946C56.9105 11.1725 56.7865 11.7291 56.7865 12.3616H56.9865ZM57.3389 10.7882C57.5752 10.3445 57.9145 10.0012 58.3586 9.75677L58.2622 9.58154C57.7843 9.84452 57.4171 10.2159 57.1624 10.6942L57.3389 10.7882ZM58.3588 9.75667C58.8047 9.51009 59.3438 9.38453 59.9799 9.38453V9.18453C59.3175 9.18453 58.7436 9.31538 58.262 9.58164L58.3588 9.75667ZM59.9799 9.38453C60.3064 9.38453 60.6145 9.4153 60.9044 9.47648L60.9457 9.28079C60.641 9.21649 60.319 9.18453 59.9799 9.18453V9.38453ZM60.9055 9.4767C61.1992 9.53544 61.4705 9.61934 61.7198 9.72808L61.7998 9.54476C61.5362 9.42981 61.2511 9.34186 60.9447 9.28058L60.9055 9.4767ZM61.6682 9.59621L61.4023 10.2018L61.5854 10.2822L61.8514 9.67663L61.6682 9.59621ZM61.5335 10.1502C61.3071 10.0524 61.0578 9.96892 60.7861 9.8996L60.7367 10.0934C60.9996 10.1605 61.2387 10.2407 61.4542 10.3338L61.5335 10.1502ZM60.7864 9.89966C60.5133 9.82929 60.2307 9.7942 59.939 9.7942V9.9942C60.2146 9.9942 60.4803 10.0273 60.7364 10.0933L60.7864 9.89966ZM59.939 9.7942C59.4368 9.7942 59 9.89808 58.6327 10.1104L58.7328 10.2836C59.0639 10.0922 59.4645 9.9942 59.939 9.9942V9.7942ZM58.6324 10.1106C58.2688 10.3225 57.9895 10.6222 57.7956 11.0072L57.9742 11.0972C58.1512 10.7457 58.4039 10.4752 58.7331 10.2834L58.6324 10.1106ZM57.7953 11.0077C57.6043 11.3926 57.5107 11.8449 57.5107 12.3616H57.7107C57.7107 11.8689 57.7999 11.4483 57.9744 11.0966L57.7953 11.0077ZM57.5107 12.3616C57.5107 12.8713 57.5929 13.3205 57.7604 13.7066L57.9439 13.627C57.7895 13.2712 57.7107 12.8502 57.7107 12.3616H57.5107ZM57.7605 13.7069C57.9297 14.094 58.1946 14.3965 58.5536 14.6119L58.6565 14.4404C58.3335 14.2466 58.0965 13.9762 57.9438 13.6268L57.7605 13.7069ZM58.5536 14.6119C58.9146 14.8285 59.3732 14.933 59.9226 14.933V14.733C59.3972 14.733 58.9774 14.6329 58.6565 14.4404L58.5536 14.6119ZM59.9226 14.933C60.196 14.933 60.4333 14.9178 60.6335 14.8868L60.6029 14.6892C60.4158 14.7182 60.1893 14.733 59.9226 14.733V14.933ZM60.6349 14.8866C60.8313 14.8534 61.0106 14.8145 61.1726 14.7698L61.1194 14.577C60.9651 14.6196 60.7925 14.6571 60.6015 14.6894L60.6349 14.8866ZM61.246 14.6734V12.8403H61.046V14.6734H61.246ZM61.146 12.7403H59.7507V12.9403H61.146V12.7403ZM59.8507 12.8403V12.2183H59.6507V12.8403H59.8507ZM66.6209 15.3527V15.4527H66.7209V15.3527H66.6209ZM63.2901 15.3527H63.1901V15.4527H63.2901V15.3527ZM63.2901 9.37045V9.27045H63.1901V9.37045H63.2901ZM66.6209 9.37045H66.7209V9.27045H66.6209V9.37045ZM66.6209 9.98422V10.0842H66.7209V9.98422H66.6209ZM63.9857 9.98422V9.88422H63.8857V9.98422H63.9857ZM63.9857 11.9196H63.8857V12.0196H63.9857V11.9196ZM66.4695 11.9196H66.5695V11.8196H66.4695V11.9196ZM66.4695 12.5252V12.6252H66.5695V12.5252H66.4695ZM63.9857 12.5252V12.4252H63.8857V12.5252H63.9857ZM63.9857 14.7389H63.8857V14.8389H63.9857V14.7389ZM66.6209 14.7389H66.7209V14.6389H66.6209V14.7389ZM66.6209 15.2527H63.2901V15.4527H66.6209V15.2527ZM63.3901 15.3527V9.37045H63.1901V15.3527H63.3901ZM63.2901 9.47045H66.6209V9.27045H63.2901V9.47045ZM66.5209 9.37045V9.98422H66.7209V9.37045H66.5209ZM66.6209 9.88422H63.9857V10.0842H66.6209V9.88422ZM63.8857 9.98422V11.9196H64.0857V9.98422H63.8857ZM63.9857 12.0196H66.4695V11.8196H63.9857V12.0196ZM66.3695 11.9196V12.5252H66.5695V11.9196H66.3695ZM66.4695 12.4252H63.9857V12.6252H66.4695V12.4252ZM63.8857 12.5252V14.7389H64.0857V12.5252H63.8857ZM63.9857 14.8389H66.6209V14.6389H63.9857V14.8389ZM66.5209 14.7389V15.3527H66.7209V14.7389H66.5209ZM69.7838 15.3527V15.4527H69.8838V15.3527H69.7838ZM69.0841 15.3527H68.9841V15.4527H69.0841V15.3527ZM69.0841 9.98422H69.1841V9.88422H69.0841V9.98422ZM67.2019 9.98422H67.1019V10.0842H67.2019V9.98422ZM67.2019 9.37045V9.27045H67.1019V9.37045H67.2019ZM71.6579 9.37045H71.7579V9.27045H71.6579V9.37045ZM71.6579 9.98422V10.0842H71.7579V9.98422H71.6579ZM69.7838 9.98422V9.88422H69.6838V9.98422H69.7838ZM69.7838 15.2527H69.0841V15.4527H69.7838V15.2527ZM69.1841 15.3527V9.98422H68.9841V15.3527H69.1841ZM69.0841 9.88422H67.2019V10.0842H69.0841V9.88422ZM67.3019 9.98422V9.37045H67.1019V9.98422H67.3019ZM67.2019 9.47045H71.6579V9.27045H67.2019V9.47045ZM71.5579 9.37045V9.98422H71.7579V9.37045H71.5579ZM71.6579 9.88422H69.7838V10.0842H71.6579V9.88422ZM69.6838 9.98422V15.3527H69.8838V9.98422H69.6838ZM74.739 15.3527H74.639V15.4527H74.739V15.3527ZM74.739 9.37045V9.27045H74.639V9.37045H74.739ZM75.4346 9.37045H75.5346V9.27045H75.4346V9.37045ZM75.4346 15.3527V15.4527H75.5346V15.3527H75.4346ZM74.839 15.3527V9.37045H74.639V15.3527H74.839ZM74.739 9.47045H75.4346V9.27045H74.739V9.47045ZM75.3346 9.37045V15.3527H75.5346V9.37045H75.3346ZM75.4346 15.2527H74.739V15.4527H75.4346V15.2527ZM78.9167 15.3527V15.4527H79.0167V15.3527H78.9167ZM78.217 15.3527H78.117V15.4527H78.217V15.3527ZM78.217 9.98422H78.317V9.88422H78.217V9.98422ZM76.3348 9.98422H76.2348V10.0842H76.3348V9.98422ZM76.3348 9.37045V9.27045H76.2348V9.37045H76.3348ZM80.7908 9.37045H80.8908V9.27045H80.7908V9.37045ZM80.7908 9.98422V10.0842H80.8908V9.98422H80.7908ZM78.9167 9.98422V9.88422H78.8167V9.98422H78.9167ZM78.9167 15.2527H78.217V15.4527H78.9167V15.2527ZM78.317 15.3527V9.98422H78.117V15.3527H78.317ZM78.217 9.88422H76.3348V10.0842H78.217V9.88422ZM76.4348 9.98422V9.37045H76.2348V9.98422H76.4348ZM76.3348 9.47045H80.7908V9.27045H76.3348V9.47045ZM80.6908 9.37045V9.98422H80.8908V9.37045H80.6908ZM80.7908 9.88422H78.9167V10.0842H80.7908V9.88422ZM78.8167 9.98422V15.3527H79.0167V9.98422H78.8167ZM88.8843 13.6136L88.9798 13.6434L88.9799 13.6432L88.8843 13.6136ZM88.3606 14.5875L88.2844 14.5227L88.2843 14.5228L88.3606 14.5875ZM87.5054 15.2135L87.545 15.3053L87.5054 15.2135ZM85.1035 15.2135L85.0641 15.3055L85.0644 15.3056L85.1035 15.2135ZM84.2442 14.5834L84.1673 14.6473L84.1677 14.6477L84.2442 14.5834ZM83.7328 13.6055L83.6368 13.6338L83.637 13.6344L83.7328 13.6055ZM84.7843 9.66097L84.7315 9.57608L84.7312 9.57624L84.7843 9.66097ZM87.8246 9.65688L87.7713 9.74155L87.7716 9.74171L87.8246 9.65688ZM88.7452 10.7289L88.654 10.7699L88.6543 10.7706L88.7452 10.7289ZM85.1772 14.5302L85.121 14.6129L85.1213 14.6132L85.1772 14.5302ZM87.4563 14.5302L87.4001 14.4475L87.3998 14.4477L87.4563 14.5302ZM87.8409 10.5448L87.7604 10.6042L87.7609 10.6047L87.8409 10.5448ZM85.1853 10.1888L85.13 10.1055L85.1853 10.1888ZM84.5143 11.0399L84.4214 11.0028L84.4213 11.0031L84.5143 11.0399ZM88.9603 12.3534C88.9603 12.8059 88.9027 13.2159 88.7888 13.5841L88.9799 13.6432C89.1006 13.2531 89.1603 12.8228 89.1603 12.3534H88.9603ZM88.7889 13.5839C88.6752 13.9488 88.5067 14.2612 88.2844 14.5227L88.4368 14.6523C88.6782 14.3682 88.8589 14.0314 88.9798 13.6434L88.7889 13.5839ZM88.2843 14.5228C88.0656 14.7806 87.7933 14.9802 87.4657 15.1217L87.545 15.3053C87.8994 15.1522 88.1972 14.9346 88.4368 14.6522L88.2843 14.5228ZM87.4657 15.1217C87.1396 15.2626 86.7581 15.3345 86.3188 15.3345V15.5345C86.7797 15.5345 87.1892 15.4591 87.545 15.3053L87.4657 15.1217ZM86.3188 15.3345C85.8654 15.3345 85.4742 15.2625 85.1426 15.1215L85.0644 15.3056C85.4257 15.4592 85.8446 15.5345 86.3188 15.5345V15.3345ZM85.1429 15.1216C84.8128 14.9802 84.5394 14.7793 84.3208 14.5191L84.1677 14.6477C84.4074 14.9331 84.7068 15.1523 85.0641 15.3055L85.1429 15.1216ZM84.3212 14.5195C84.1042 14.2582 83.9396 13.9444 83.8285 13.5765L83.637 13.6344C83.755 14.0248 83.9314 14.3631 84.1673 14.6473L84.3212 14.5195ZM83.8287 13.5772C83.7199 13.2086 83.665 12.7982 83.665 12.3452H83.465C83.465 12.8142 83.5219 13.244 83.6368 13.6338L83.8287 13.5772ZM83.665 12.3452C83.665 11.7451 83.7641 11.2232 83.9594 10.7772L83.7762 10.697C83.5677 11.1731 83.465 11.7232 83.465 12.3452H83.665ZM83.9594 10.7772C84.1536 10.3338 84.446 9.99099 84.8374 9.74571L84.7312 9.57624C84.3043 9.84379 83.9857 10.2184 83.7762 10.697L83.9594 10.7772ZM84.8372 9.74587C85.2294 9.50171 85.7254 9.37634 86.331 9.37634V9.17634C85.6982 9.17634 85.1631 9.3074 84.7315 9.57608L84.8372 9.74587ZM86.331 9.37634C86.9087 9.37634 87.387 9.50004 87.7713 9.74155L87.8778 9.57221C87.4546 9.30633 86.9373 9.17634 86.331 9.17634V9.37634ZM87.7716 9.74171C88.1603 9.98432 88.4543 10.326 88.654 10.7699L88.8364 10.6879C88.6214 10.2099 88.3017 9.83682 87.8775 9.57205L87.7716 9.74171ZM88.6543 10.7706C88.8571 11.2131 88.9603 11.7397 88.9603 12.3534H89.1603C89.1603 11.7177 89.0534 11.1614 88.8361 10.6873L88.6543 10.7706ZM84.1974 12.3534C84.1974 12.8699 84.271 13.322 84.4211 13.7072L84.6075 13.6346C84.4684 13.2779 84.3974 12.8516 84.3974 12.3534H84.1974ZM84.4211 13.7072C84.5722 14.095 84.8051 14.3985 85.121 14.6129L85.2333 14.4475C84.9545 14.2582 84.7455 13.9889 84.6075 13.6346L84.4211 13.7072ZM85.1213 14.6132C85.4419 14.8288 85.8433 14.933 86.3188 14.933V14.733C85.8722 14.733 85.5125 14.6353 85.233 14.4472L85.1213 14.6132ZM86.3188 14.933C86.7967 14.933 87.1972 14.8289 87.5128 14.6127L87.3998 14.4477C87.1261 14.6352 86.7683 14.733 86.3188 14.733V14.933ZM87.5125 14.6129C87.8285 14.3984 88.0601 14.0946 88.2085 13.7066L88.0217 13.6352C87.8863 13.9892 87.6788 14.2583 87.4001 14.4475L87.5125 14.6129ZM88.2085 13.7066C88.3557 13.3216 88.4278 12.8697 88.4278 12.3534H88.2278C88.2278 12.8518 88.1581 13.2783 88.0217 13.6352L88.2085 13.7066ZM88.4278 12.3534C88.4278 11.5687 88.263 10.9419 87.921 10.4849L87.7609 10.6047C88.0681 11.0152 88.2278 11.5941 88.2278 12.3534H88.4278ZM87.9214 10.4854C87.5758 10.0168 87.0383 9.79011 86.331 9.79011V9.99011C86.9932 9.99011 87.4623 10.1999 87.7604 10.6042L87.9214 10.4854ZM86.331 9.79011C85.8532 9.79011 85.4506 9.89275 85.13 10.1055L85.2406 10.2721C85.5202 10.0866 85.8814 9.99011 86.331 9.99011V9.79011ZM85.13 10.1055C84.8114 10.317 84.5755 10.6177 84.4214 11.0028L84.6071 11.077C84.7477 10.7256 84.9592 10.4589 85.2406 10.2721L85.13 10.1055ZM84.4213 11.0031C84.2709 11.3833 84.1974 11.8342 84.1974 12.3534H84.3974C84.3974 11.8523 84.4685 11.4276 84.6073 11.0767L84.4213 11.0031ZM95.0711 15.3527V15.4527H95.1711V15.3527H95.0711ZM94.2691 15.3527L94.1852 15.4071L94.2148 15.4527H94.2691V15.3527ZM91.008 10.3279L91.0919 10.2735L91.0623 10.2279H91.008V10.3279ZM90.9752 10.3279V10.2279H90.8689L90.8754 10.334L90.9752 10.3279ZM91.0039 10.7862L90.9041 10.7926L90.9041 10.7927L91.0039 10.7862ZM91.0284 11.3304L90.9285 11.3332L90.9285 11.3347L91.0284 11.3304ZM91.0407 15.3527V15.4527H91.1407V15.3527H91.0407ZM90.3942 15.3527H90.2942V15.4527H90.3942V15.3527ZM90.3942 9.37045V9.27045H90.2942V9.37045H90.3942ZM91.1921 9.37045L91.276 9.31603L91.2464 9.27045H91.1921V9.37045ZM94.441 14.3788L94.3571 14.4332L94.3867 14.4788H94.441V14.3788ZM94.4696 14.3788V14.4788H94.5755L94.5695 14.3731L94.4696 14.3788ZM94.4492 13.9737L94.3493 13.9783L94.3493 13.9784L94.4492 13.9737ZM94.4246 13.405L94.3246 13.4076L94.3247 13.409L94.4246 13.405ZM94.4164 9.37045V9.27045H94.3164V9.37045H94.4164ZM95.0711 9.37045H95.1711V9.27045H95.0711V9.37045ZM95.0711 15.2527H94.2691V15.4527H95.0711V15.2527ZM94.353 15.2982L91.0919 10.2735L90.9241 10.3824L94.1852 15.4071L94.353 15.2982ZM91.008 10.2279H90.9752V10.4279H91.008V10.2279ZM90.8754 10.334C90.8836 10.4678 90.8932 10.6206 90.9041 10.7926L91.1037 10.7799C91.0928 10.6081 91.0832 10.4554 91.075 10.3218L90.8754 10.334ZM90.9041 10.7927C90.9149 10.9604 90.923 11.1406 90.9285 11.3332L91.1284 11.3276C91.1229 11.1329 91.1147 10.9503 91.1037 10.7798L90.9041 10.7927ZM90.9285 11.3347C90.9366 11.5242 90.9407 11.7178 90.9407 11.9156H91.1407C91.1407 11.715 91.1366 11.5186 91.1283 11.3261L90.9285 11.3347ZM90.9407 11.9156V15.3527H91.1407V11.9156H90.9407ZM91.0407 15.2527H90.3942V15.4527H91.0407V15.2527ZM90.4942 15.3527V9.37045H90.2942V15.3527H90.4942ZM90.3942 9.47045H91.1921V9.27045H90.3942V9.47045ZM91.1082 9.42488L94.3571 14.4332L94.5249 14.3244L91.276 9.31603L91.1082 9.42488ZM94.441 14.4788H94.4696V14.2788H94.441V14.4788ZM94.5695 14.3731C94.564 14.2781 94.5572 14.1435 94.5491 13.969L94.3493 13.9784C94.3575 14.1531 94.3643 14.2885 94.3698 14.3845L94.5695 14.3731ZM94.5491 13.9691C94.5409 13.792 94.5327 13.6026 94.5245 13.4009L94.3247 13.409C94.3329 13.611 94.3411 13.8008 94.3493 13.9783L94.5491 13.9691ZM94.5246 13.4023C94.5191 13.1985 94.5164 13.0098 94.5164 12.8362H94.3164C94.3164 13.0118 94.3192 13.2023 94.3247 13.4076L94.5246 13.4023ZM94.5164 12.8362V9.37045H94.3164V12.8362H94.5164ZM94.4164 9.47045H95.0711V9.27045H94.4164V9.47045ZM94.9711 9.37045V15.3527H95.1711V9.37045H94.9711Z" fill="white"/>
<path d="M93.6924 29.9061C92.5339 29.9089 91.4022 30.2551 90.4405 30.901C89.4787 31.5468 88.7301 32.4634 88.2893 33.5348C87.8485 34.6061 87.7352 35.7841 87.9639 36.9199C88.1926 38.0556 88.7529 39.098 89.574 39.9152C90.3951 40.7325 91.4401 41.2879 92.5769 41.5112C93.7137 41.7346 94.8911 41.6158 95.9604 41.17C97.0297 40.7241 97.9427 39.9712 98.5841 39.0064C99.2255 38.0417 99.5664 36.9084 99.5636 35.7499C99.5749 34.9771 99.4304 34.2099 99.139 33.494C98.8476 32.7781 98.4151 32.1282 97.8672 31.583C97.3194 31.0377 96.6675 30.6083 95.9503 30.3202C95.233 30.0321 94.4652 29.8913 93.6924 29.9061ZM93.6924 39.2974C92.9823 39.3471 92.2737 39.1819 91.6587 38.8235C91.0437 38.4651 90.5508 37.93 90.2439 37.2877C89.9371 36.6455 89.8306 35.9257 89.9382 35.2221C90.0458 34.5185 90.3627 33.8635 90.8475 33.3423C91.3323 32.8211 91.9627 32.4579 92.6567 32.2997C93.3507 32.1416 94.0763 32.1958 94.739 32.4555C95.4018 32.7152 95.9711 33.1682 96.373 33.7557C96.7748 34.3433 96.9907 35.0381 96.9924 35.7499C97.0145 36.2009 96.9462 36.6518 96.7913 37.076C96.6364 37.5001 96.3981 37.889 96.0906 38.2196C95.783 38.5503 95.4124 38.816 95.0005 39.0011C94.5886 39.1862 94.1438 39.2869 93.6924 39.2974ZM80.8774 29.9061C79.7189 29.9089 78.5872 30.2551 77.6255 30.901C76.6637 31.5468 75.9151 32.4634 75.4743 33.5348C75.0335 34.6061 74.9202 35.7841 75.1489 36.9199C75.3776 38.0556 75.9379 39.098 76.759 39.9152C77.5801 40.7325 78.6251 41.2879 79.7619 41.5112C80.8987 41.7346 82.0761 41.6158 83.1454 41.17C84.2147 40.7241 85.1277 39.9712 85.7691 39.0064C86.4105 38.0417 86.7514 36.9084 86.7486 35.7499C86.7598 34.9771 86.6154 34.2099 86.324 33.494C86.0326 32.7781 85.6001 32.1282 85.0522 31.583C84.5044 31.0377 83.8525 30.6083 83.1353 30.3202C82.418 30.0321 81.6502 29.8913 80.8774 29.9061ZM80.8774 39.2974C80.1673 39.3471 79.4587 39.1819 78.8437 38.8235C78.2287 38.4651 77.7358 37.93 77.4289 37.2877C77.1221 36.6455 77.0156 35.9257 77.1232 35.2221C77.2308 34.5185 77.5477 33.8635 78.0325 33.3423C78.5173 32.8211 79.1477 32.4579 79.8417 32.2997C80.5357 32.1416 81.2613 32.1958 81.924 32.4555C82.5868 32.7152 83.1561 33.1682 83.558 33.7557C83.9598 34.3433 84.1757 35.0381 84.1774 35.7499C84.1995 36.2009 84.1312 36.6518 83.9763 37.076C83.8214 37.5001 83.5831 37.889 83.2756 38.2196C82.968 38.5503 82.5974 38.816 82.1855 39.0011C81.7736 39.1862 81.3288 39.2869 80.8774 39.2974ZM65.6424 31.7074V34.1824H71.5824C71.4893 35.3481 71.0047 36.4481 70.2074 37.3036C69.6115 37.9107 68.8949 38.386 68.1038 38.6986C67.3127 39.0113 66.4648 39.1544 65.6149 39.1186C63.8645 39.1186 62.1857 38.4233 60.948 37.1855C59.7102 35.9478 59.0149 34.2691 59.0149 32.5186C59.0149 30.7682 59.7102 29.0895 60.948 27.8517C62.1857 26.614 63.8645 25.9186 65.6149 25.9186C67.293 25.8937 68.9134 26.531 70.1249 27.6924L71.8711 25.9461C71.0516 25.1356 70.0786 24.4967 69.009 24.067C67.9395 23.6373 66.7949 23.4254 65.6424 23.4436C64.42 23.3961 63.2006 23.5958 62.0572 24.0307C60.9139 24.4657 59.8701 25.127 58.9884 25.975C58.1068 26.8231 57.4054 27.8403 56.9263 28.9659C56.4472 30.0915 56.2002 31.3022 56.2002 32.5255C56.2002 33.7488 56.4472 34.9595 56.9263 36.0851C57.4054 37.2107 58.1068 38.228 58.9884 39.076C59.8701 39.924 60.9139 40.5853 62.0572 41.0203C63.2006 41.4553 64.42 41.655 65.6424 41.6074C66.8186 41.6544 67.9914 41.452 69.0839 41.0136C70.1763 40.5752 71.1637 39.9107 71.9811 39.0636C73.4251 37.4775 74.1944 35.3913 74.1261 33.2474C74.1311 32.7314 74.0896 32.216 74.0024 31.7074H65.6424ZM127.944 33.6324C127.585 32.5774 126.914 31.6562 126.021 30.9908C125.127 30.3254 124.052 29.9471 122.939 29.9061C122.187 29.9047 121.442 30.0575 120.751 30.3551C120.061 30.6528 119.438 31.0889 118.923 31.6366C118.407 32.1843 118.01 32.8319 117.754 33.5394C117.499 34.2469 117.392 34.9992 117.439 35.7499C117.427 37.0051 117.821 38.2304 118.564 39.2428C119.306 40.2552 120.355 41.0003 121.556 41.367C122.756 41.7336 124.043 41.702 125.224 41.277C126.405 40.8519 127.417 40.0562 128.109 39.0086L126.115 37.6336C125.818 38.129 125.396 38.5381 124.892 38.8203C124.388 39.1025 123.819 39.248 123.241 39.2424C122.645 39.267 122.056 39.1108 121.55 38.7942C121.045 38.4776 120.647 38.0155 120.409 37.4686L128.232 34.2374L127.944 33.6324ZM119.969 35.5849C119.941 35.1578 119.998 34.7294 120.138 34.3249C120.278 33.9203 120.497 33.5477 120.783 33.2289C121.068 32.91 121.414 32.6514 121.801 32.468C122.188 32.2847 122.607 32.1804 123.035 32.1611C123.478 32.1341 123.919 32.2384 124.303 32.461C124.687 32.6836 124.997 33.0145 125.194 33.4124L119.969 35.5849ZM113.616 41.2499H116.187V24.0624H113.616V41.2499ZM109.409 31.2124H109.312C108.928 30.7749 108.454 30.4256 107.923 30.1883C107.391 29.951 106.815 29.8313 106.232 29.8374C104.73 29.9103 103.313 30.5585 102.275 31.6477C101.237 32.7369 100.659 34.1836 100.659 35.688C100.659 37.1924 101.237 38.6391 102.275 39.7283C103.313 40.8176 104.73 41.4658 106.232 41.5386C106.815 41.5503 107.394 41.4332 107.926 41.1955C108.459 40.9578 108.932 40.6054 109.312 40.1636H109.409V41.0024C109.409 43.2436 108.212 44.4399 106.287 44.4399C105.644 44.4258 105.02 44.2209 104.494 43.8512C103.967 43.4815 103.563 42.9637 103.331 42.3636L101.104 43.2849C101.515 44.3192 102.231 45.2042 103.157 45.8229C104.083 46.4416 105.174 46.7648 106.287 46.7499C109.299 46.7499 111.787 44.9761 111.787 40.6586V30.2499H109.409V31.2124ZM106.452 39.2974C105.551 39.2412 104.706 38.8438 104.088 38.1859C103.47 37.5281 103.126 36.6594 103.126 35.7568C103.126 34.8541 103.47 33.9854 104.088 33.3276C104.706 32.6698 105.551 32.2723 106.452 32.2161C106.893 32.2351 107.325 32.3425 107.723 32.5319C108.121 32.7213 108.476 32.9888 108.769 33.3184C109.061 33.6481 109.285 34.0333 109.425 34.451C109.566 34.8687 109.621 35.3104 109.587 35.7499C109.625 36.1908 109.573 36.6348 109.434 37.055C109.295 37.4751 109.072 37.8627 108.779 38.1943C108.486 38.526 108.129 38.7947 107.729 38.9843C107.329 39.1739 106.895 39.2804 106.452 39.2974ZM139.989 24.0624H133.829V41.2499H136.4V34.7324H139.989C140.721 34.785 141.457 34.6862 142.15 34.4419C142.843 34.1976 143.478 33.8132 144.016 33.3127C144.554 32.8121 144.983 32.2062 145.276 31.5325C145.569 30.8589 145.721 30.1321 145.721 29.3974C145.721 28.6627 145.569 27.9359 145.276 27.2622C144.983 26.5886 144.554 25.9826 144.016 25.4821C143.478 24.9815 142.843 24.5972 142.15 24.3529C141.457 24.1086 140.721 24.0097 139.989 24.0624ZM139.989 32.3124H136.4V26.4549H140.044C140.43 26.4549 140.813 26.531 141.17 26.6789C141.527 26.8268 141.851 27.0435 142.124 27.3167C142.398 27.59 142.614 27.9143 142.762 28.2713C142.91 28.6283 142.986 29.011 142.986 29.3974C142.986 29.7838 142.91 30.1664 142.762 30.5234C142.614 30.8804 142.398 31.2048 142.124 31.4781C141.851 31.7513 141.527 31.968 141.17 32.1159C140.813 32.2638 140.43 32.3399 140.044 32.3399L139.989 32.3124ZM155.856 29.8511C154.92 29.7934 153.987 30.0114 153.173 30.4782C152.359 30.9449 151.7 31.64 151.277 32.4774L153.546 33.4261C153.775 33.0128 154.119 32.6747 154.537 32.4527C154.954 32.2306 155.426 32.1342 155.897 32.1749C156.224 32.1368 156.555 32.164 156.87 32.2551C157.186 32.3461 157.48 32.4992 157.736 32.7052C157.992 32.9113 158.205 33.1663 158.361 33.4553C158.518 33.7443 158.615 34.0616 158.647 34.3886V34.5536C157.821 34.119 156.9 33.8925 155.966 33.8936C153.519 33.8936 151.016 35.2686 151.016 37.7711C151.04 38.3031 151.171 38.8247 151.401 39.305C151.631 39.7854 151.955 40.2146 152.354 40.5674C152.752 40.9201 153.218 41.189 153.723 41.3582C154.228 41.5275 154.762 41.5935 155.292 41.5524C155.938 41.5881 156.581 41.4515 157.156 41.1568C157.731 40.862 158.217 40.4196 158.565 39.8749H158.647V41.2499H161.122V34.6361C161.122 31.6249 158.84 29.8786 155.911 29.8786L155.856 29.8511ZM155.54 39.2699C154.701 39.2699 153.532 38.8436 153.532 37.8124C153.532 36.4374 154.99 35.9699 156.282 35.9699C157.099 35.9497 157.906 36.1492 158.62 36.5474C158.534 37.2941 158.179 37.9842 157.623 38.4899C157.067 38.9955 156.346 39.2824 155.595 39.2974L155.54 39.2699ZM170.142 30.2499L167.2 37.7024H167.117L164.065 30.2499H161.315L165.894 40.6724L163.281 46.4611H165.962L173.002 30.2499H170.142ZM147.042 41.2499H149.6V24.0624H147.042V41.2499Z" fill="white"/>
<path d="M28.4899 26.7024L13.8462 42.2399C14.0062 42.8276 14.2991 43.3706 14.7023 43.8271C15.1056 44.2835 15.6083 44.6412 16.1718 44.8724C16.7352 45.1036 17.3443 45.2023 17.9519 45.1606C18.5596 45.119 19.1495 44.9383 19.6762 44.6324L36.1762 35.1174L28.4899 26.7024Z" fill="#EA4335"/>
<path d="M43.2988 24.0625L36.1763 19.9375L28.1738 27.0738L36.2038 35.1175L43.2851 30.9925C43.9146 30.6554 44.4408 30.1538 44.8076 29.5411C45.1745 28.9285 45.3682 28.2278 45.3682 27.5138C45.3682 26.7997 45.1745 26.099 44.8076 25.4864C44.4408 24.8737 43.9146 24.3721 43.2851 24.035L43.2988 24.0625Z" fill="#FBBC04"/>
<path d="M13.8462 12.7604C13.7735 13.0852 13.7412 13.4177 13.7499 13.7504V41.2504C13.7523 41.594 13.7986 41.9359 13.8874 42.2679L29.0124 27.1429L13.8462 12.7604Z" fill="#4285F4"/>
<path d="M28.6002 27.4995L36.1764 19.9233L19.6764 10.3808C19.0565 10.0123 18.3488 9.81753 17.6277 9.81702C16.7578 9.81951 15.9128 10.1074 15.2223 10.6364C14.5318 11.1655 14.0339 11.9065 13.8052 12.7458L28.6002 27.4995Z" fill="#34A853"/>
</svg>
