<svg width="24" height="20" viewBox="0 0 24 20" fill="none" xmlns="http://www.w3.org/2000/svg">
<path fill-rule="evenodd" clip-rule="evenodd" d="M8.64728 5.13515C9.99106 5.13515 11.0797 6.2238 11.0797 7.56758V10.8108C11.0797 11.2584 10.7165 11.6216 10.2689 11.6216C9.82133 11.6216 9.45809 11.2584 9.45809 10.8108V7.56758C9.45809 7.12001 9.09484 6.75677 8.64728 6.75677C8.19971 6.75677 7.83647 7.12001 7.83647 7.56758V10.8108C7.83647 11.2584 7.47322 11.6216 7.02565 11.6216C6.57809 11.6216 6.21484 11.2584 6.21484 10.8108V7.56758C6.21484 6.2238 7.30349 5.13515 8.64728 5.13515Z" fill="#A19061"/>
<path fill-rule="evenodd" clip-rule="evenodd" d="M12.1641 10.8108V5.94596C12.1641 5.49839 12.5273 5.13515 12.9749 5.13515H14.5965C15.9403 5.13515 17.0289 6.2238 17.0289 7.56758V9.1892C17.0289 10.533 15.9403 11.6216 14.5965 11.6216H12.9749C12.5273 11.6216 12.1641 11.2584 12.1641 10.8108ZM13.7857 10H14.5965C15.0441 10 15.4073 9.63677 15.4073 9.1892V7.56758C15.4073 7.12001 15.0441 6.75677 14.5965 6.75677H13.7857V10Z" fill="#A19061"/>
<path fill-rule="evenodd" clip-rule="evenodd" d="M10.2689 7.83783C10.7165 7.83783 11.0797 8.20107 11.0797 8.64864C11.0797 9.09621 10.7165 9.45945 10.2689 9.45945H7.02565C6.57809 9.45945 6.21484 9.09621 6.21484 8.64864C6.21484 8.20107 6.57809 7.83783 7.02565 7.83783H10.2689Z" fill="#A19061"/>
<path fill-rule="evenodd" clip-rule="evenodd" d="M22.4324 18.3784C22.88 18.3784 23.2432 18.7416 23.2432 19.1892C23.2432 19.6368 22.88 20 22.4324 20H0.810811C0.363243 20 0 19.6368 0 19.1892C0 18.7416 0.363243 18.3784 0.810811 18.3784H22.4324Z" fill="#A19061"/>
<path fill-rule="evenodd" clip-rule="evenodd" d="M19.0626 0C19.8799 0 20.6615 0.309189 21.2388 0.855135C21.8334 1.41622 22.1631 2.17946 22.1631 2.97297V13.7838C22.1631 14.5773 21.8334 15.3405 21.2388 15.9016C20.6615 16.4476 19.8799 16.7568 19.0626 16.7568H4.18257C3.36527 16.7568 2.58365 16.4476 2.00636 15.9016C1.41176 15.3405 1.08203 14.5773 1.08203 13.7838V2.97297C1.08203 2.17946 1.41176 1.41622 2.00636 0.855135C2.58365 0.309189 3.36527 0 4.18257 0H19.0626ZM4.18257 1.62162C3.78473 1.62162 3.40095 1.76757 3.11987 2.03351C2.85609 2.28324 2.70365 2.62054 2.70365 2.97297V13.7838C2.70365 14.1362 2.85609 14.4735 3.11987 14.7232C3.40095 14.9892 3.78473 15.1351 4.18257 15.1351H19.0626C19.4604 15.1351 19.8442 14.9892 20.1253 14.7232C20.3891 14.4735 20.5415 14.1362 20.5415 13.7838V2.97297C20.5415 2.62054 20.3891 2.28324 20.1253 2.03351C19.8442 1.76757 19.4604 1.62162 19.0626 1.62162H4.18257Z" fill="#A19061"/>
</svg>
