<svg xmlns="http://www.w3.org/2000/svg" width="21.879" height="20" viewBox="0 0 21.879 20">
  <g id="attachment" transform="translate(-14.743 -16.771)">
    <path id="Path_79556" data-name="Path 79556" d="M21.759,36.771A7.019,7.019,0,0,1,16.8,24.789l8.018-8.018L26.34,18.3l-8.018,8.018A4.86,4.86,0,1,0,25.2,33.189l8.394-8.394a2.977,2.977,0,0,0-4.205-4.215h0L21.367,28.6a1.094,1.094,0,0,0,1.547,1.547l8.018-8.019,1.527,1.527-8.018,8.018a3.253,3.253,0,0,1-4.6-4.6l8.012-8.013h0a5.137,5.137,0,1,1,7.264,7.265l-8.4,8.394A6.973,6.973,0,0,1,21.759,36.771Z" fill="#05133a"/>
  </g>
</svg>
