<svg width="20" height="20" viewBox="0 0 20 20" fill="none" xmlns="http://www.w3.org/2000/svg">
<path id="Vector" d="M10.0001 3.70648e-05C8.02226 2.68045e-05 6.08885 0.58651 4.44434 1.68532C2.79983 2.78413 1.5181 4.34592 0.761215 6.17318C0.00433148 8.00045 -0.193703 10.0111 0.192155 11.9509C0.578013 13.8907 1.53043 15.6726 2.92897 17.0711C4.37746 18.5185 6.23507 19.4868 8.25117 19.8454C10.2673 20.2039 12.3448 19.9354 14.2035 19.0761C14.3539 19.0064 14.4704 18.8798 14.5274 18.7241C14.5845 18.5685 14.5773 18.3965 14.5075 18.2462C14.4378 18.0958 14.3112 17.9793 14.1555 17.9223C13.9999 17.8652 13.8279 17.8724 13.6776 17.9421C12.5257 18.4774 11.2703 18.7532 10.0001 18.75C5.17531 18.75 1.25006 14.8248 1.25006 10C1.25006 5.17526 5.17531 1.25003 10.0001 1.25003C14.8249 1.25003 18.7501 5.17526 18.7501 10C18.7575 11.9706 18.0925 13.8847 16.8649 15.4263C16.8341 15.4651 16.7954 15.4971 16.7514 15.52C16.7074 15.5429 16.6591 15.5562 16.6095 15.559C16.56 15.5619 16.5105 15.5543 16.4641 15.5366C16.4177 15.5189 16.3756 15.4917 16.3406 15.4566L15.4957 14.6118L15.801 14.3065C16.0103 14.0968 16.1279 13.8126 16.1279 13.5163C16.1279 13.22 16.0103 12.9358 15.801 12.7261L13.6387 10.5638C13.429 10.3546 13.1448 10.237 12.8485 10.237C12.5522 10.237 12.268 10.3546 12.0583 10.5638L11.1086 11.5134C10.1879 10.8171 9.18286 9.81217 8.48661 8.89146L9.4363 7.94182C9.64557 7.73208 9.7631 7.44789 9.7631 7.1516C9.7631 6.85532 9.64557 6.57113 9.4363 6.36139L7.27403 4.19925C7.06428 3.98998 6.7801 3.87245 6.48381 3.87245C6.18752 3.87245 5.90333 3.98998 5.69359 4.19925L4.49003 5.40284C4.24719 5.6393 4.06677 5.93228 3.9649 6.25556C3.86304 6.57884 3.84291 6.92233 3.90632 7.2553C4.55113 10.9058 9.09435 15.4489 12.7448 16.0938C12.8728 16.1165 13.0025 16.1281 13.1324 16.1283C13.4055 16.1284 13.6759 16.0737 13.9275 15.9675C14.1791 15.8613 14.4068 15.7057 14.5973 15.5099L14.6117 15.4955L15.4565 16.3404C15.6163 16.5001 15.808 16.6243 16.0192 16.7047C16.2304 16.7851 16.4561 16.8199 16.6817 16.8068C16.9073 16.7937 17.1275 16.7331 17.328 16.6288C17.5284 16.5246 17.7046 16.3791 17.8448 16.202C19.3647 14.2791 20.1257 11.8651 19.983 9.41828C19.8404 6.97143 18.8042 4.66215 17.0712 2.92894C16.1448 1.99745 15.0428 1.25896 13.829 0.756212C12.6153 0.253466 11.3138 -0.00355144 10.0001 3.70648e-05ZM12.9623 14.8629C11.4875 14.6024 9.66235 13.5022 8.08012 11.92C6.49789 10.3377 5.39769 8.51264 5.13714 7.0378C5.10951 6.90278 5.11675 6.76295 5.15817 6.63151C5.1996 6.50007 5.27385 6.38136 5.3739 6.28659L6.48383 5.17663L8.45876 7.15158L7.40278 8.20756C7.24848 8.36115 7.15379 8.56457 7.13562 8.78152C7.11744 8.99847 7.17696 9.21481 7.30356 9.39193C8.1379 10.5651 9.43505 11.8622 10.6083 12.6966C10.7854 12.8232 11.0017 12.8827 11.2187 12.8645C11.4356 12.8463 11.6391 12.7516 11.7926 12.5973L12.8486 11.5414L14.8235 13.5163L13.7135 14.6262C13.6188 14.7262 13.5 14.8005 13.3686 14.8419C13.2372 14.8833 13.0973 14.8906 12.9623 14.8629Z" fill="#A19061"/>
</svg>
