<svg width="512" height="512" viewBox="0 0 512 512" fill="none" xmlns="http://www.w3.org/2000/svg">
<path d="M255.999 15.0586C180.705 15.0586 120.469 75.2939 120.469 150.588V210.823C94.8694 210.823 75.293 230.4 75.293 256V451.764C75.293 477.364 94.8694 496.941 120.469 496.941H391.528C417.128 496.941 436.705 477.364 436.705 451.764V256C436.705 230.4 417.128 210.823 391.528 210.823V150.588C391.528 75.2939 331.293 15.0586 255.999 15.0586ZM406.587 256V451.764C406.587 460.8 400.564 466.823 391.528 466.823H120.469C111.434 466.823 105.411 460.8 105.411 451.764V256C105.411 246.964 111.434 240.941 120.469 240.941H135.528H376.469H391.528C400.564 240.941 406.587 246.964 406.587 256ZM150.587 210.823V150.588C150.587 91.8586 197.269 45.1762 255.999 45.1762C314.728 45.1762 361.411 91.8586 361.411 150.588V210.823H150.587Z" fill="#949EB7"/>
<path d="M256.001 286.117C230.401 286.117 210.824 305.694 210.824 331.294C210.824 350.87 222.871 367.435 240.942 373.458V406.588C240.942 415.623 246.965 421.647 256.001 421.647C265.036 421.647 271.06 415.623 271.06 406.588V373.458C289.13 367.435 301.177 350.87 301.177 331.294C301.177 305.694 281.601 286.117 256.001 286.117ZM256.001 346.352C246.965 346.352 240.942 340.329 240.942 331.294C240.942 322.258 246.965 316.235 256.001 316.235C265.036 316.235 271.06 322.258 271.06 331.294C271.06 340.329 265.036 346.352 256.001 346.352Z" fill="#949EB7"/>
</svg>
