<svg width="18" height="18" viewBox="0 0 18 18" fill="none" xmlns="http://www.w3.org/2000/svg">
<path d="M10.9688 13.3594C11.2794 13.3594 11.5312 13.1075 11.5312 12.7969V7.17188C11.5312 6.86126 11.2794 6.60938 10.9688 6.60938C10.6581 6.60938 10.4062 6.86126 10.4062 7.17188V12.7969C10.4062 13.1075 10.6581 13.3594 10.9688 13.3594Z" fill="#A19061"/>
<path d="M7.03125 13.3594C7.34186 13.3594 7.59375 13.1075 7.59375 12.7969V7.17188C7.59375 6.86126 7.34186 6.60938 7.03125 6.60938C6.72064 6.60938 6.46875 6.86126 6.46875 7.17188V12.7969C6.46875 13.1075 6.72064 13.3594 7.03125 13.3594Z" fill="#A19061"/>
<path d="M11.25 2.39062C11.5606 2.39062 11.8125 2.13874 11.8125 1.82812C11.8125 1.51751 11.5606 1.26562 11.25 1.26562H6.75C6.43939 1.26562 6.1875 1.51751 6.1875 1.82812C6.1875 2.13874 6.43939 2.39062 6.75 2.39062H11.25Z" fill="#A19061"/>
<path d="M2.8125 2.95312C2.50189 2.95312 2.25 3.20501 2.25 3.51562C2.25 3.82624 2.50189 4.07812 2.8125 4.07812H3.375V14.4281C3.375 15.6993 4.41 16.7344 5.68125 16.7344H12.3187C13.5899 16.7344 14.625 15.6994 14.625 14.4281V4.07812H15.1875C15.4981 4.07812 15.75 3.82624 15.75 3.51562C15.75 3.20501 15.4981 2.95312 15.1875 2.95312H14.0625H3.9375H2.8125ZM13.5 4.07812V14.4281C13.5 15.0806 12.9712 15.6094 12.3187 15.6094H5.68125C5.02875 15.6094 4.5 15.0806 4.5 14.4281V4.07812H13.5Z" fill="#A19061"/>
</svg>
