<svg width="48" height="48" viewBox="0 0 48 48" fill="none" xmlns="http://www.w3.org/2000/svg">
<g filter="url(#filter0_d_1429_24168)">
<circle cx="24" cy="20" r="20" fill="white"/>
</g>
<path d="M17.3659 26.2426C17.3659 26.2426 17.4393 26.2426 17.4668 26.2426L20.1526 25.9951C20.5284 25.9585 20.8768 25.7935 21.1426 25.5276L31.2809 15.3893C31.7576 14.9126 32.0234 14.2801 32.0234 13.611C32.0234 12.9418 31.7576 12.3093 31.2809 11.8326L30.6301 11.1818C29.6768 10.2285 28.0176 10.2285 27.0643 11.1818L25.7718 12.4743L16.9351 21.311C16.6693 21.5768 16.5043 21.9251 16.4768 22.301L16.2293 24.9868C16.2018 25.326 16.3209 25.656 16.5593 25.9035C16.7793 26.1235 17.0634 26.2426 17.3659 26.2426ZM28.8518 11.8143C29.1451 11.8143 29.4384 11.9243 29.6584 12.1535L30.3093 12.8043C30.5293 13.0243 30.6484 13.3085 30.6484 13.611C30.6484 13.9135 30.5293 14.2068 30.3093 14.4176L29.5026 15.2243L27.2384 12.9601L28.0451 12.1535C28.2651 11.9335 28.5584 11.8143 28.8518 11.8143ZM17.8426 22.4293C17.8426 22.3743 17.8701 22.3285 17.9068 22.2918L26.2576 13.9318L28.5218 16.196L20.1709 24.5468C20.1709 24.5468 20.0793 24.611 20.0334 24.611L17.6226 24.831L17.8426 22.4201V22.4293ZM33.8568 29.1668C33.8568 29.5426 33.5451 29.8543 33.1693 29.8543H14.8359C14.4601 29.8543 14.1484 29.5426 14.1484 29.1668C14.1484 28.791 14.4601 28.4793 14.8359 28.4793H33.1693C33.5451 28.4793 33.8568 28.791 33.8568 29.1668Z" fill="#A19061"/>
<defs>
<filter id="filter0_d_1429_24168" x="0" y="0" width="48" height="48" filterUnits="userSpaceOnUse" color-interpolation-filters="sRGB">
<feFlood flood-opacity="0" result="BackgroundImageFix"/>
<feColorMatrix in="SourceAlpha" type="matrix" values="0 0 0 0 0 0 0 0 0 0 0 0 0 0 0 0 0 0 127 0" result="hardAlpha"/>
<feOffset dy="4"/>
<feGaussianBlur stdDeviation="2"/>
<feComposite in2="hardAlpha" operator="out"/>
<feColorMatrix type="matrix" values="0 0 0 0 0 0 0 0 0 0 0 0 0 0 0 0 0 0 0.25 0"/>
<feBlend mode="normal" in2="BackgroundImageFix" result="effect1_dropShadow_1429_24168"/>
<feBlend mode="normal" in="SourceGraphic" in2="effect1_dropShadow_1429_24168" result="shape"/>
</filter>
</defs>
</svg>
