<svg width="24" height="25" viewBox="0 0 24 25" fill="none" xmlns="http://www.w3.org/2000/svg">
<path d="M12 2C9.9233 2 7.89323 2.61581 6.16652 3.76957C4.4398 4.92332 3.09399 6.5632 2.29927 8.48182C1.50455 10.4004 1.29661 12.5116 1.70176 14.5484C2.1069 16.5852 3.10693 18.4562 4.57538 19.9246C6.04383 21.3931 7.91476 22.3931 9.95156 22.7982C11.9884 23.2034 14.0996 22.9955 16.0182 22.2007C17.9368 21.406 19.5767 20.0602 20.7304 18.3335C21.8842 16.6068 22.5 14.5767 22.5 12.5C22.497 9.71614 21.3898 7.04715 19.4213 5.07867C17.4528 3.11018 14.7839 2.00298 12 2ZM12 21.5C10.22 21.5 8.47992 20.9722 6.99987 19.9832C5.51983 18.9943 4.36628 17.5887 3.68509 15.9442C3.0039 14.2996 2.82567 12.49 3.17294 10.7442C3.5202 8.99836 4.37737 7.39471 5.63604 6.13604C6.89472 4.87737 8.49836 4.0202 10.2442 3.67293C11.99 3.32567 13.7996 3.5039 15.4442 4.18508C17.0887 4.86627 18.4943 6.01983 19.4832 7.49987C20.4722 8.97991 21 10.72 21 12.5C20.9974 14.8862 20.0484 17.1738 18.3611 18.8611C16.6738 20.5484 14.3862 21.4974 12 21.5ZM18.6878 10.43C18.6225 10.2324 18.5062 10.0555 18.3507 9.91721C18.1952 9.77893 18.0059 9.68417 17.802 9.6425L14.604 9.0095L13.0343 6.0095C12.9368 5.81905 12.7887 5.65921 12.6062 5.54758C12.4237 5.43596 12.2139 5.37689 12 5.37689C11.7861 5.37689 11.5763 5.43596 11.3938 5.54758C11.2113 5.65921 11.0632 5.81905 10.9658 6.0095L9.396 9.0095L6.198 9.6425C5.99411 9.68417 5.80482 9.77893 5.64929 9.91721C5.49376 10.0555 5.3775 10.2324 5.31225 10.43C5.24476 10.6319 5.2319 10.8481 5.27497 11.0567C5.31804 11.2652 5.41552 11.4586 5.5575 11.6173L7.8075 14.1185L7.3905 17.5347C7.36368 17.7493 7.39531 17.967 7.48205 18.1651C7.56878 18.3631 7.7074 18.534 7.88326 18.6597C8.05344 18.7807 8.25325 18.8532 8.4614 18.8696C8.66955 18.886 8.87825 18.8456 9.06526 18.7528L12 17.3L14.9348 18.7528C15.1217 18.8458 15.3304 18.8864 15.5386 18.87C15.7468 18.8536 15.9467 18.7809 16.1168 18.6597C16.2926 18.534 16.4312 18.3631 16.518 18.1651C16.6047 17.967 16.6363 17.7493 16.6095 17.5347L16.1925 14.1178L18.4425 11.6158C18.5844 11.4574 18.6819 11.2642 18.725 11.0559C18.768 10.8477 18.7552 10.6317 18.6878 10.43ZM14.985 13.2185C14.8701 13.3463 14.7838 13.4972 14.7321 13.6611C14.6803 13.825 14.6643 13.9981 14.685 14.1688L15.048 17.1373L12.51 15.881C12.3516 15.8019 12.177 15.7606 12 15.7603C11.822 15.7607 11.6465 15.802 11.487 15.881L8.94975 17.1373L9.31275 14.1695C9.33352 13.9986 9.31749 13.8253 9.26574 13.6612C9.214 13.497 9.12774 13.3458 9.01276 13.2178L7.02675 11.0075L9.84375 10.4503C10.0162 10.4159 10.1786 10.3432 10.3191 10.2375C10.4596 10.1318 10.5745 9.99588 10.6553 9.83975L12 7.2665L13.3448 9.83975C13.4255 9.99579 13.5402 10.1317 13.6806 10.2374C13.8209 10.343 13.9832 10.4158 14.1555 10.4503L16.9733 11.0075L14.985 13.2185Z" fill="#A19061"/>
</svg>
