<svg width="340" height="61" viewBox="0 0 340 61" fill="none" xmlns="http://www.w3.org/2000/svg">
<rect x="0.5" y="1.28809" width="339" height="58.9429" rx="29.4715" fill="white" stroke="#A19061" stroke-dasharray="5 5"/>
<path d="M304 29.75C302.48 29.75 301.25 28.52 301.25 27C301.25 25.48 302.48 24.25 304 24.25C305.52 24.25 306.75 25.48 306.75 27C306.75 28.52 305.52 29.75 304 29.75ZM304 25.75C303.31 25.75 302.75 26.31 302.75 27C302.75 27.69 303.31 28.25 304 28.25C304.69 28.25 305.25 27.69 305.25 27C305.25 26.31 304.69 25.75 304 25.75Z" fill="#8F8F8F"/>
<path d="M310 41.75H304C298.57 41.75 296.25 39.43 296.25 34V28C296.25 22.57 298.57 20.25 304 20.25H308C308.41 20.25 308.75 20.59 308.75 21C308.75 21.41 308.41 21.75 308 21.75H304C299.39 21.75 297.75 23.39 297.75 28V34C297.75 38.61 299.39 40.25 304 40.25H310C314.61 40.25 316.25 38.61 316.25 34V29C316.25 28.59 316.59 28.25 317 28.25C317.41 28.25 317.75 28.59 317.75 29V34C317.75 39.43 315.43 41.75 310 41.75Z" fill="#8F8F8F"/>
<path d="M313 27.7499C312.59 27.7499 312.25 27.4099 312.25 26.9999V20.9999C312.25 20.6999 312.43 20.4199 312.71 20.3099C312.99 20.1999 313.31 20.2599 313.53 20.4699L315.53 22.4699C315.82 22.7599 315.82 23.2399 315.53 23.5299C315.24 23.8199 314.76 23.8199 314.47 23.5299L313.75 22.8099V26.9999C313.75 27.4099 313.41 27.7499 313 27.7499Z" fill="#8F8F8F"/>
<path d="M310.997 23.7499C310.807 23.7499 310.618 23.6799 310.468 23.5299C310.178 23.2399 310.178 22.7599 310.468 22.4699L312.468 20.4699C312.758 20.1799 313.237 20.1799 313.527 20.4699C313.817 20.7599 313.817 21.2399 313.527 21.5299L311.527 23.5299C311.377 23.6799 311.187 23.7499 310.997 23.7499Z" fill="#8F8F8F"/>
<path d="M297.669 38.7001C297.429 38.7001 297.189 38.5801 297.049 38.3701C296.819 38.0301 296.909 37.5601 297.249 37.3301L302.179 34.0201C303.259 33.3001 304.749 33.3801 305.729 34.2101L306.059 34.5001C306.559 34.9301 307.409 34.9301 307.899 34.5001L312.059 30.9301C313.119 30.0201 314.789 30.0201 315.859 30.9301L317.489 32.3301C317.799 32.6001 317.839 33.0701 317.569 33.3901C317.299 33.7001 316.819 33.7401 316.509 33.4701L314.879 32.0701C314.379 31.6401 313.539 31.6401 313.039 32.0701L308.879 35.6401C307.819 36.5501 306.149 36.5501 305.079 35.6401L304.749 35.3501C304.289 34.9601 303.529 34.9201 303.019 35.2701L298.099 38.5801C297.959 38.6601 297.809 38.7001 297.669 38.7001Z" fill="#8F8F8F"/>
<path d="M32.9148 23.8182H34.1477V30.5597C34.1477 31.2557 33.9837 31.8771 33.6555 32.424C33.3307 32.9676 32.8717 33.3968 32.2784 33.7116C31.6851 34.0232 30.9891 34.179 30.1903 34.179C29.3916 34.179 28.6955 34.0232 28.1023 33.7116C27.509 33.3968 27.0483 32.9676 26.7202 32.424C26.3954 31.8771 26.233 31.2557 26.233 30.5597V23.8182H27.4659V30.4602C27.4659 30.9574 27.5753 31.3999 27.794 31.7876C28.0128 32.1721 28.3243 32.4754 28.7287 32.6974C29.1364 32.9162 29.6236 33.0256 30.1903 33.0256C30.7571 33.0256 31.2443 32.9162 31.652 32.6974C32.0597 32.4754 32.3712 32.1721 32.5866 31.7876C32.8054 31.3999 32.9148 30.9574 32.9148 30.4602V23.8182ZM36.4508 36.8636V26.3636H37.5843V27.5767H37.7235C37.8097 27.4441 37.929 27.2751 38.0815 27.0696C38.2373 26.8608 38.4593 26.6752 38.7477 26.5128C39.0394 26.3471 39.4338 26.2642 39.9309 26.2642C40.5739 26.2642 41.1407 26.425 41.6312 26.7464C42.1217 27.0679 42.5046 27.5237 42.7797 28.1136C43.0547 28.7036 43.1923 29.3996 43.1923 30.2017C43.1923 31.0104 43.0547 31.7114 42.7797 32.3047C42.5046 32.8946 42.1234 33.352 41.6362 33.6768C41.149 33.9983 40.5872 34.1591 39.9508 34.1591C39.4603 34.1591 39.0675 34.0779 38.7725 33.9155C38.4776 33.7498 38.2505 33.5625 38.0914 33.3537C37.9324 33.1416 37.8097 32.9659 37.7235 32.8267H37.6241V36.8636H36.4508ZM37.6042 30.1818C37.6042 30.7585 37.6887 31.2673 37.8578 31.7081C38.0268 32.1456 38.2737 32.4886 38.5985 32.7372C38.9234 32.9825 39.3211 33.1051 39.7917 33.1051C40.2823 33.1051 40.6916 32.9759 41.0197 32.7173C41.3511 32.4555 41.5997 32.1042 41.7654 31.6634C41.9345 31.2192 42.019 30.7254 42.019 30.1818C42.019 29.6449 41.9361 29.161 41.7704 28.7301C41.608 28.2959 41.3611 27.9529 41.0297 27.701C40.7015 27.4458 40.2889 27.3182 39.7917 27.3182C39.3145 27.3182 38.9134 27.4392 38.5886 27.6811C38.2638 27.9197 38.0185 28.2545 37.8528 28.6854C37.6871 29.1129 37.6042 29.6117 37.6042 30.1818ZM46.1554 23.8182V34H44.9821V23.8182H46.1554ZM51.4066 34.1591C50.7172 34.1591 50.1123 33.995 49.592 33.6669C49.0749 33.3388 48.6706 32.8797 48.3789 32.2898C48.0906 31.6998 47.9464 31.0104 47.9464 30.2216C47.9464 29.4261 48.0906 28.7318 48.3789 28.1385C48.6706 27.5452 49.0749 27.0845 49.592 26.7564C50.1123 26.4283 50.7172 26.2642 51.4066 26.2642C52.096 26.2642 52.6992 26.4283 53.2163 26.7564C53.7366 27.0845 54.141 27.5452 54.4293 28.1385C54.721 28.7318 54.8668 29.4261 54.8668 30.2216C54.8668 31.0104 54.721 31.6998 54.4293 32.2898C54.141 32.8797 53.7366 33.3388 53.2163 33.6669C52.6992 33.995 52.096 34.1591 51.4066 34.1591ZM51.4066 33.1051C51.9303 33.1051 52.3612 32.9709 52.6992 32.7024C53.0373 32.4339 53.2875 32.081 53.4499 31.6435C53.6123 31.206 53.6935 30.732 53.6935 30.2216C53.6935 29.7112 53.6123 29.2356 53.4499 28.7947C53.2875 28.3539 53.0373 27.9976 52.6992 27.7259C52.3612 27.4541 51.9303 27.3182 51.4066 27.3182C50.8829 27.3182 50.4521 27.4541 50.114 27.7259C49.7759 27.9976 49.5257 28.3539 49.3633 28.7947C49.2009 29.2356 49.1197 29.7112 49.1197 30.2216C49.1197 30.732 49.2009 31.206 49.3633 31.6435C49.5257 32.081 49.7759 32.4339 50.114 32.7024C50.4521 32.9709 50.8829 33.1051 51.4066 33.1051ZM58.905 34.179C58.4211 34.179 57.9819 34.0878 57.5875 33.9055C57.1931 33.7199 56.8799 33.4531 56.6479 33.1051C56.4159 32.7538 56.2999 32.3295 56.2999 31.8324C56.2999 31.3949 56.3861 31.0402 56.5584 30.7685C56.7308 30.4934 56.9611 30.2779 57.2495 30.1222C57.5378 29.9664 57.856 29.8504 58.204 29.7741C58.5553 29.6946 58.9083 29.6316 59.263 29.5852C59.727 29.5256 60.1032 29.4808 60.3915 29.451C60.6832 29.4179 60.8953 29.3632 61.0279 29.2869C61.1638 29.2107 61.2317 29.0781 61.2317 28.8892V28.8494C61.2317 28.3589 61.0975 27.9777 60.829 27.706C60.5639 27.4342 60.1612 27.2983 59.6209 27.2983C59.0608 27.2983 58.6216 27.4209 58.3034 27.6662C57.9853 27.9115 57.7615 28.1733 57.6323 28.4517L56.5186 28.054C56.7175 27.59 56.9827 27.2287 57.3141 26.9702C57.6489 26.7083 58.0134 26.526 58.4078 26.4233C58.8056 26.3172 59.1967 26.2642 59.5811 26.2642C59.8264 26.2642 60.1081 26.294 60.4263 26.3537C60.7478 26.41 61.0577 26.5277 61.356 26.7067C61.6576 26.8857 61.9078 27.1558 62.1067 27.517C62.3056 27.8783 62.405 28.3622 62.405 28.9688V34H61.2317V32.9659H61.1721C61.0925 33.1316 60.9599 33.3089 60.7743 33.4979C60.5887 33.6868 60.3418 33.8475 60.0336 33.9801C59.7253 34.1127 59.3491 34.179 58.905 34.179ZM59.084 33.125C59.548 33.125 59.9391 33.0339 60.2573 32.8516C60.5788 32.6693 60.8207 32.4339 60.9831 32.1456C61.1489 31.8572 61.2317 31.554 61.2317 31.2358V30.1619C61.182 30.2216 61.0726 30.2763 60.9036 30.326C60.7379 30.3724 60.5456 30.4138 60.3269 30.4503C60.1114 30.4834 59.901 30.5133 59.6955 30.5398C59.4933 30.563 59.3292 30.5829 59.2033 30.5994C58.8984 30.6392 58.6133 30.7038 58.3482 30.7933C58.0864 30.8795 57.8742 31.0104 57.7118 31.1861C57.5527 31.3584 57.4732 31.5937 57.4732 31.892C57.4732 32.2997 57.624 32.608 57.9256 32.8168C58.2305 33.0223 58.6167 33.125 59.084 33.125ZM67.43 34.1591C66.7937 34.1591 66.2319 33.9983 65.7447 33.6768C65.2575 33.352 64.8763 32.8946 64.6012 32.3047C64.3261 31.7114 64.1886 31.0104 64.1886 30.2017C64.1886 29.3996 64.3261 28.7036 64.6012 28.1136C64.8763 27.5237 65.2591 27.0679 65.7496 26.7464C66.2402 26.425 66.8069 26.2642 67.4499 26.2642C67.9471 26.2642 68.3398 26.3471 68.6282 26.5128C68.9199 26.6752 69.1419 26.8608 69.2944 27.0696C69.4502 27.2751 69.5711 27.4441 69.6573 27.5767H69.7567V23.8182H70.93V34H69.7965V32.8267H69.6573C69.5711 32.9659 69.4485 33.1416 69.2894 33.3537C69.1303 33.5625 68.9033 33.7498 68.6083 33.9155C68.3133 34.0779 67.9206 34.1591 67.43 34.1591ZM67.5891 33.1051C68.0598 33.1051 68.4575 32.9825 68.7823 32.7372C69.1071 32.4886 69.354 32.1456 69.5231 31.7081C69.6921 31.2673 69.7766 30.7585 69.7766 30.1818C69.7766 29.6117 69.6938 29.1129 69.5281 28.6854C69.3623 28.2545 69.1171 27.9197 68.7923 27.6811C68.4674 27.4392 68.0664 27.3182 67.5891 27.3182C67.092 27.3182 66.6777 27.4458 66.3462 27.701C66.0181 27.9529 65.7712 28.2959 65.6055 28.7301C65.4431 29.161 65.3619 29.6449 65.3619 30.1818C65.3619 30.7254 65.4447 31.2192 65.6104 31.6634C65.7795 32.1042 66.0281 32.4555 66.3562 32.7173C66.6876 32.9759 67.0986 33.1051 67.5891 33.1051ZM78.5714 23.8182V34H77.3384V23.8182H78.5714ZM80.8844 34V26.3636H82.0179V27.5568H82.1174C82.2765 27.1491 82.5333 26.8326 82.888 26.6072C83.2426 26.3786 83.6685 26.2642 84.1657 26.2642C84.6694 26.2642 85.0887 26.3786 85.4235 26.6072C85.7615 26.8326 86.025 27.1491 86.214 27.5568H86.2935C86.4891 27.1624 86.7824 26.8492 87.1735 26.6172C87.5646 26.3819 88.0336 26.2642 88.5804 26.2642C89.2632 26.2642 89.8217 26.478 90.2559 26.9055C90.69 27.3298 90.9071 27.991 90.9071 28.8892V34H89.7338V28.8892C89.7338 28.3258 89.5797 27.9231 89.2715 27.6811C88.9632 27.4392 88.6003 27.3182 88.1827 27.3182C87.6458 27.3182 87.2298 27.4806 86.9348 27.8054C86.6399 28.1269 86.4924 28.5346 86.4924 29.0284V34H85.2992V28.7699C85.2992 28.3357 85.1583 27.986 84.8766 27.7209C84.5949 27.4524 84.2319 27.3182 83.7878 27.3182C83.4829 27.3182 83.1979 27.3994 82.9327 27.5618C82.6709 27.7242 82.4587 27.9496 82.2963 28.2379C82.1373 28.523 82.0577 28.8527 82.0577 29.2273V34H80.8844ZM95.2995 34.179C94.8156 34.179 94.3765 34.0878 93.9821 33.9055C93.5877 33.7199 93.2744 33.4531 93.0424 33.1051C92.8104 32.7538 92.6944 32.3295 92.6944 31.8324C92.6944 31.3949 92.7806 31.0402 92.9529 30.7685C93.1253 30.4934 93.3556 30.2779 93.644 30.1222C93.9324 29.9664 94.2505 29.8504 94.5985 29.7741C94.9499 29.6946 95.3029 29.6316 95.6575 29.5852C96.1215 29.5256 96.4977 29.4808 96.786 29.451C97.0777 29.4179 97.2898 29.3632 97.4224 29.2869C97.5583 29.2107 97.6262 29.0781 97.6262 28.8892V28.8494C97.6262 28.3589 97.492 27.9777 97.2235 27.706C96.9584 27.4342 96.5557 27.2983 96.0154 27.2983C95.4553 27.2983 95.0162 27.4209 94.698 27.6662C94.3798 27.9115 94.1561 28.1733 94.0268 28.4517L92.9132 28.054C93.112 27.59 93.3772 27.2287 93.7086 26.9702C94.0434 26.7083 94.408 26.526 94.8024 26.4233C95.2001 26.3172 95.5912 26.2642 95.9757 26.2642C96.2209 26.2642 96.5027 26.294 96.8208 26.3537C97.1423 26.41 97.4522 26.5277 97.7505 26.7067C98.0521 26.8857 98.3024 27.1558 98.5012 27.517C98.7001 27.8783 98.7995 28.3622 98.7995 28.9688V34H97.6262V32.9659H97.5666C97.487 33.1316 97.3545 33.3089 97.1689 33.4979C96.9833 33.6868 96.7363 33.8475 96.4281 33.9801C96.1199 34.1127 95.7437 34.179 95.2995 34.179ZM95.4785 33.125C95.9425 33.125 96.3336 33.0339 96.6518 32.8516C96.9733 32.6693 97.2153 32.4339 97.3777 32.1456C97.5434 31.8572 97.6262 31.554 97.6262 31.2358V30.1619C97.5765 30.2216 97.4672 30.2763 97.2981 30.326C97.1324 30.3724 96.9402 30.4138 96.7214 30.4503C96.506 30.4834 96.2955 30.5133 96.09 30.5398C95.8878 30.563 95.7238 30.5829 95.5978 30.5994C95.2929 30.6392 95.0079 30.7038 94.7427 30.7933C94.4809 30.8795 94.2688 31.0104 94.1064 31.1861C93.9473 31.3584 93.8677 31.5937 93.8677 31.892C93.8677 32.2997 94.0185 32.608 94.3201 32.8168C94.6251 33.0223 95.0112 33.125 95.4785 33.125ZM104.023 37.0227C103.457 37.0227 102.969 36.9498 102.562 36.804C102.154 36.6615 101.814 36.4725 101.543 36.2372C101.274 36.0052 101.06 35.7566 100.901 35.4915L101.836 34.8352C101.942 34.9744 102.076 35.1335 102.239 35.3125C102.401 35.4948 102.623 35.6522 102.905 35.7848C103.19 35.9207 103.563 35.9886 104.023 35.9886C104.64 35.9886 105.149 35.8395 105.55 35.5412C105.951 35.2429 106.151 34.7756 106.151 34.1392V32.5881H106.052C105.966 32.7273 105.843 32.8996 105.684 33.1051C105.528 33.3073 105.303 33.4879 105.008 33.647C104.716 33.8028 104.322 33.8807 103.825 33.8807C103.208 33.8807 102.655 33.7348 102.164 33.4432C101.677 33.1515 101.291 32.7273 101.006 32.1705C100.724 31.6136 100.583 30.9375 100.583 30.142C100.583 29.3598 100.721 28.6787 100.996 28.0987C101.271 27.5154 101.654 27.0646 102.144 26.7464C102.635 26.425 103.201 26.2642 103.844 26.2642C104.342 26.2642 104.736 26.3471 105.028 26.5128C105.323 26.6752 105.548 26.8608 105.704 27.0696C105.863 27.2751 105.986 27.4441 106.072 27.5767H106.191V26.3636H107.325V34.2188C107.325 34.875 107.175 35.4086 106.877 35.8196C106.582 36.2339 106.184 36.5372 105.684 36.7294C105.187 36.925 104.633 37.0227 104.023 37.0227ZM103.984 32.8267C104.454 32.8267 104.852 32.719 105.177 32.5036C105.502 32.2881 105.749 31.9782 105.918 31.5739C106.087 31.1695 106.171 30.6856 106.171 30.1222C106.171 29.572 106.088 29.0864 105.923 28.6655C105.757 28.2446 105.512 27.9148 105.187 27.6761C104.862 27.4375 104.461 27.3182 103.984 27.3182C103.487 27.3182 103.072 27.4441 102.741 27.696C102.413 27.9479 102.166 28.286 102 28.7102C101.838 29.1345 101.756 29.6051 101.756 30.1222C101.756 30.6525 101.839 31.1214 102.005 31.5291C102.174 31.9335 102.423 32.2517 102.751 32.4837C103.082 32.7124 103.493 32.8267 103.984 32.8267ZM112.674 34.1591C111.938 34.1591 111.304 33.9967 110.77 33.6719C110.24 33.3438 109.83 32.8864 109.542 32.2997C109.257 31.7098 109.114 31.0237 109.114 30.2415C109.114 29.4593 109.257 28.7699 109.542 28.1733C109.83 27.5734 110.231 27.1061 110.745 26.7713C111.262 26.4332 111.865 26.2642 112.555 26.2642C112.952 26.2642 113.345 26.3305 113.733 26.4631C114.121 26.5956 114.474 26.8111 114.792 27.1094C115.11 27.4044 115.364 27.7955 115.553 28.2827C115.741 28.7699 115.836 29.3698 115.836 30.0824V30.5795H109.95V29.5653H114.643C114.643 29.1345 114.557 28.75 114.384 28.4119C114.215 28.0739 113.973 27.8071 113.658 27.6115C113.347 27.416 112.979 27.3182 112.555 27.3182C112.087 27.3182 111.683 27.4342 111.342 27.6662C111.004 27.8949 110.743 28.1932 110.561 28.5611C110.379 28.929 110.288 29.3234 110.288 29.7443V30.4205C110.288 30.9972 110.387 31.486 110.586 31.8871C110.788 32.2848 111.068 32.5881 111.426 32.7969C111.784 33.0024 112.2 33.1051 112.674 33.1051C112.982 33.1051 113.261 33.062 113.509 32.9759C113.761 32.8864 113.978 32.7538 114.161 32.5781C114.343 32.3991 114.484 32.1771 114.583 31.9119L115.717 32.2301C115.597 32.6146 115.397 32.9527 115.115 33.2443C114.833 33.5327 114.485 33.758 114.071 33.9205C113.657 34.0795 113.191 34.1591 112.674 34.1591Z" fill="#787878"/>
</svg>
