<svg width="40" height="40" viewBox="0 0 40 40" fill="none" xmlns="http://www.w3.org/2000/svg">
<path d="M15.0052 17.9167C12.4719 17.9167 10.4219 15.8667 10.4219 13.3333C10.4219 10.8 12.4719 8.75 15.0052 8.75C17.5385 8.75 19.5885 10.8 19.5885 13.3333C19.5885 15.8667 17.5385 17.9167 15.0052 17.9167ZM15.0052 11.25C13.8552 11.25 12.9219 12.1833 12.9219 13.3333C12.9219 14.4833 13.8552 15.4167 15.0052 15.4167C16.1552 15.4167 17.0885 14.4833 17.0885 13.3333C17.0885 12.1833 16.1552 11.25 15.0052 11.25Z" fill="#8F8F8F"/>
<path d="M25.0026 37.9168H15.0026C5.9526 37.9168 2.08594 34.0502 2.08594 25.0002V15.0002C2.08594 5.95016 5.9526 2.0835 15.0026 2.0835H21.6693C22.3526 2.0835 22.9193 2.65016 22.9193 3.3335C22.9193 4.01683 22.3526 4.5835 21.6693 4.5835H15.0026C7.31927 4.5835 4.58594 7.31683 4.58594 15.0002V25.0002C4.58594 32.6835 7.31927 35.4168 15.0026 35.4168H25.0026C32.6859 35.4168 35.4193 32.6835 35.4193 25.0002V16.6668C35.4193 15.9835 35.9859 15.4168 36.6693 15.4168C37.3526 15.4168 37.9193 15.9835 37.9193 16.6668V25.0002C37.9193 34.0502 34.0526 37.9168 25.0026 37.9168Z" fill="#8F8F8F"/>
<path d="M30 14.5834C29.3167 14.5834 28.75 14.0167 28.75 13.3334V3.33339C28.75 2.83339 29.05 2.36673 29.5167 2.18339C29.9833 2.00006 30.5167 2.10006 30.8833 2.45006L34.2167 5.78339C34.7 6.26673 34.7 7.06673 34.2167 7.55006C33.7333 8.03339 32.9333 8.03339 32.45 7.55006L31.25 6.35006V13.3334C31.25 14.0167 30.6833 14.5834 30 14.5834Z" fill="#8F8F8F"/>
<path d="M26.6677 7.91657C26.351 7.91657 26.0344 7.7999 25.7844 7.5499C25.301 7.06657 25.301 6.26657 25.7844 5.78324L29.1177 2.4499C29.601 1.96657 30.401 1.96657 30.8844 2.4499C31.3677 2.93324 31.3677 3.73324 30.8844 4.21657L27.551 7.5499C27.301 7.7999 26.9844 7.91657 26.6677 7.91657Z" fill="#8F8F8F"/>
<path d="M4.45277 32.8336C4.05277 32.8336 3.65277 32.6336 3.41943 32.2836C3.0361 31.7169 3.1861 30.9336 3.75277 30.5503L11.9694 25.0336C13.7694 23.8336 16.2528 23.9669 17.8861 25.3503L18.4361 25.8336C19.2694 26.5503 20.6861 26.5503 21.5028 25.8336L28.4361 19.8836C30.2028 18.3669 32.9861 18.3669 34.7694 19.8836L37.4861 22.2169C38.0028 22.6669 38.0694 23.4503 37.6194 23.9836C37.1694 24.5003 36.3694 24.5669 35.8528 24.1169L33.1361 21.7836C32.3028 21.0669 30.9028 21.0669 30.0694 21.7836L23.1361 27.7336C21.3694 29.2503 18.5861 29.2503 16.8028 27.7336L16.2528 27.2503C15.4861 26.6003 14.2194 26.5336 13.3694 27.1169L5.16943 32.6336C4.9361 32.7669 4.6861 32.8336 4.45277 32.8336Z" fill="#8F8F8F"/>
</svg>
