<svg width="16" height="16" viewBox="0 0 16 16" fill="none" xmlns="http://www.w3.org/2000/svg">
<g clip-path="url(#clip0_554_1405)">
<path d="M7.99764 15.5995C3.69769 15.5824 0.280987 12.0613 0.40565 7.77178C0.524731 3.67352 3.88022 0.371066 8.05829 0.400092C12.2661 0.42949 15.6376 3.8674 15.596 8.0613C15.5543 12.2423 12.1275 15.6419 7.99764 15.5995ZM8.15877 6.91812C7.38865 6.94342 6.70002 7.21005 6.06424 7.63037C6.01047 7.66591 5.95893 7.70982 5.91818 7.7595C5.77305 7.93663 5.82273 8.0866 6.04154 8.14372C6.12564 8.16568 6.21198 8.18075 6.29459 8.20717C6.64402 8.31862 6.73817 8.48999 6.6496 8.85225C6.43414 9.7329 6.2144 10.6126 6.00265 11.4942C5.84561 12.1484 6.177 12.6833 6.80496 12.7319C7.73435 12.8035 8.56383 12.4969 9.30995 11.9584C9.38903 11.9015 9.45024 11.7597 9.44187 11.6641C9.43684 11.606 9.28371 11.5582 9.19403 11.5117C9.15626 11.4921 9.11049 11.4884 9.06844 11.4771C8.65277 11.366 8.54467 11.1922 8.64533 10.7775C8.85372 9.91747 9.07532 9.06065 9.26995 8.19749C9.31609 7.9932 9.31925 7.75838 9.26753 7.55687C9.15161 7.10809 8.75883 6.90062 8.15877 6.91812ZM10.0924 4.284C10.0935 3.49025 9.48001 2.86396 8.69612 2.85875C7.89902 2.85335 7.25896 3.48709 7.26566 4.2747C7.27236 5.0597 7.89623 5.67595 8.68719 5.67855C9.45843 5.68116 10.091 5.05319 10.0924 4.284Z" fill="#929292"/>
</g>
<defs>
<clipPath id="clip0_554_1405">
<rect width="16" height="16" fill="white"/>
</clipPath>
</defs>
</svg>
