<svg width="21" height="20" viewBox="0 0 21 20" fill="none" xmlns="http://www.w3.org/2000/svg">
<g id="heart 2" clip-path="url(#clip0_663_2664)">
<path id="Vector" d="M10.334 18.8873C10.0492 18.8873 9.77473 18.7842 9.5608 18.5968C8.75285 17.8903 7.97389 17.2264 7.28664 16.6408L7.28313 16.6377C5.26821 14.9207 3.52825 13.4378 2.31762 11.9771C0.964324 10.3441 0.333984 8.79578 0.333984 7.10434C0.333984 5.46097 0.89749 3.94485 1.92059 2.83508C2.9559 1.71219 4.37649 1.09375 5.92113 1.09375C7.07561 1.09375 8.13289 1.45874 9.06352 2.1785C9.53319 2.54181 9.95891 2.98645 10.334 3.5051C10.7092 2.98645 11.1347 2.54181 11.6046 2.1785C12.5352 1.45874 13.5925 1.09375 14.747 1.09375C16.2914 1.09375 17.7122 1.71219 18.7475 2.83508C19.7706 3.94485 20.3339 5.46097 20.3339 7.10434C20.3339 8.79578 19.7038 10.3441 18.3505 11.9769C17.1398 13.4378 15.4 14.9205 13.3854 16.6374C12.6969 17.224 11.9168 17.8889 11.107 18.5971C10.8932 18.7842 10.6185 18.8873 10.334 18.8873ZM5.92113 2.26532C4.7076 2.26532 3.5928 2.74963 2.78179 3.62915C1.95874 4.52194 1.5054 5.75607 1.5054 7.10434C1.5054 8.52692 2.03412 9.79919 3.21957 11.2296C4.36535 12.6122 6.0696 14.0645 8.04286 15.7462L8.04652 15.7492C8.73637 16.3371 9.51838 17.0036 10.3323 17.7153C11.1511 17.0023 11.9343 16.3347 12.6255 15.7458C14.5986 14.0642 16.3027 12.6122 17.4485 11.2296C18.6338 9.79919 19.1625 8.52692 19.1625 7.10434C19.1625 5.75607 18.7092 4.52194 17.8861 3.62915C17.0753 2.74963 15.9603 2.26532 14.747 2.26532C13.858 2.26532 13.0418 2.54791 12.3211 3.10516C11.6789 3.60199 11.2315 4.23004 10.9692 4.66949C10.8343 4.89548 10.5969 5.03036 10.334 5.03036C10.0711 5.03036 9.83363 4.89548 9.69874 4.66949C9.4366 4.23004 8.98921 3.60199 8.34682 3.10516C7.62615 2.54791 6.80995 2.26532 5.92113 2.26532Z" fill="black"/>
</g>
<defs>
<clipPath id="clip0_663_2664">
<rect width="20" height="20" fill="white" transform="translate(0.333984)"/>
</clipPath>
</defs>
</svg>
