<svg width="22" height="22" viewBox="0 0 22 22" fill="none" xmlns="http://www.w3.org/2000/svg">
<path fill-rule="evenodd" clip-rule="evenodd" d="M4.83261 8.1675C4.83261 4.75364 7.60625 1.98 11.0201 1.98C14.4248 1.98 17.2076 4.7628 17.2076 8.1675V10.8167C17.2076 11.0136 17.2522 11.3019 17.3367 11.6099C17.4201 11.9142 17.5279 12.1847 17.6261 12.3564L18.6771 14.1021C19.5072 15.4856 18.8437 17.2878 17.3144 17.7941C13.2225 19.161 8.80747 19.1609 4.71558 17.7937L4.71303 17.7929C3.94082 17.5315 3.36171 16.9911 3.10278 16.2919C2.84355 15.5918 2.93174 14.8038 3.35436 14.1014L4.40708 12.353C4.40732 12.3526 4.40755 12.3522 4.40778 12.3518C4.50816 12.183 4.61812 11.9136 4.70297 11.6079C4.78808 11.3013 4.83261 11.0134 4.83261 10.8167V8.1675ZM11.0201 3.355C8.36564 3.355 6.20761 5.51303 6.20761 8.1675V10.8167C6.20761 11.1791 6.13297 11.5971 6.02787 11.9757C5.92271 12.3545 5.77173 12.7491 5.58813 13.057L5.5866 13.0596L4.53253 14.8103C4.53249 14.8103 4.53256 14.8102 4.53253 14.8103C4.30441 15.1895 4.29168 15.5429 4.39223 15.8144C4.49299 16.0865 4.73392 16.348 5.15263 16.49C8.96169 17.7624 13.0708 17.7622 16.8797 16.4896L16.8818 16.4889C17.57 16.2614 17.8776 15.4429 17.4984 14.81C17.4983 14.8099 17.4985 14.8102 17.4984 14.81L16.4378 13.0486C16.2617 12.7434 16.1143 12.3515 16.0106 11.9736C15.9072 11.5964 15.8326 11.1789 15.8326 10.8167V8.1675C15.8326 5.5222 13.6654 3.355 11.0201 3.355Z" fill="#D6D6D6"/>
<path fill-rule="evenodd" clip-rule="evenodd" d="M8.68413 2.68248C9.05029 1.74814 9.95935 1.09083 11.0201 1.09083C12.0808 1.09083 12.9898 1.74814 13.356 2.68248C13.4516 2.92638 13.4003 3.20341 13.2236 3.39687C13.047 3.59033 12.7758 3.66661 12.5242 3.59357C12.2699 3.51974 12.0133 3.46403 11.7532 3.4325L11.7506 3.43219C10.9582 3.33314 10.2095 3.39193 9.51614 3.5935C9.26455 3.66664 8.99327 3.59042 8.81658 3.39696C8.6399 3.20349 8.58853 2.92642 8.68413 2.68248Z" fill="#D6D6D6"/>
<path fill-rule="evenodd" clip-rule="evenodd" d="M8.95703 17.4717C8.95703 18.0331 9.1906 18.5571 9.56233 18.9289C9.93406 19.3006 10.4581 19.5342 11.0195 19.5342C12.1523 19.5342 13.082 18.6045 13.082 17.4717H14.457C14.457 19.3639 12.9117 20.9092 11.0195 20.9092C10.0777 20.9092 9.20833 20.5194 8.59006 19.9011C7.97179 19.2829 7.58203 18.4135 7.58203 17.4717H8.95703Z" fill="#D6D6D6"/>
</svg>
