<svg width="23" height="32" viewBox="0 0 23 32" fill="none" xmlns="http://www.w3.org/2000/svg">
<path d="M21.5327 2.93548C18.9162 5.03925 14.6556 5.03925 12.0392 2.93548C9.24596 0.690285 4.96772 0.389747 1.76787 2.01619V1.85708C1.76787 1.36208 1.37894 0.973145 0.883935 0.973145C0.388932 0.973145 0 1.36208 0 1.85708V30.143C0 30.638 0.388932 31.027 0.883935 31.027C1.37894 31.027 1.76787 30.638 1.76787 30.143V18.2452C4.402 16.3713 8.41506 16.442 10.9431 18.4574C14.1783 21.0562 19.4289 21.0562 22.6641 18.4574C22.8762 18.2983 23 18.0331 23 17.7679V3.62495C23 2.88245 22.1337 2.47584 21.568 2.93548H21.5327Z" fill="#A19061"/>
</svg>
