<svg width="26" height="27" viewBox="0 0 26 27" fill="none" xmlns="http://www.w3.org/2000/svg">
<g filter="url(#filter0_d_698_2185)">
<rect x="2" y="1.01221" width="22" height="22" rx="5.33" fill="#B19C67"/>
</g>
<path d="M17.1953 11.313H13.6992V7.81689C13.6992 7.43093 13.386 7.11768 13 7.11768C12.614 7.11768 12.3008 7.43093 12.3008 7.81689V11.313H8.80469C8.41872 11.313 8.10547 11.6262 8.10547 12.0122C8.10547 12.3982 8.41872 12.7114 8.80469 12.7114H12.3008V16.2075C12.3008 16.5935 12.614 16.9067 13 16.9067C13.386 16.9067 13.6992 16.5935 13.6992 16.2075V12.7114H17.1953C17.5813 12.7114 17.8945 12.3982 17.8945 12.0122C17.8945 11.6262 17.5813 11.313 17.1953 11.313Z" fill="black"/>
<defs>
<filter id="filter0_d_698_2185" x="0" y="0.012207" width="26" height="26" filterUnits="userSpaceOnUse" color-interpolation-filters="sRGB">
<feFlood flood-opacity="0" result="BackgroundImageFix"/>
<feColorMatrix in="SourceAlpha" type="matrix" values="0 0 0 0 0 0 0 0 0 0 0 0 0 0 0 0 0 0 127 0" result="hardAlpha"/>
<feOffset dy="1"/>
<feGaussianBlur stdDeviation="1"/>
<feComposite in2="hardAlpha" operator="out"/>
<feColorMatrix type="matrix" values="0 0 0 0 0 0 0 0 0 0 0 0 0 0 0 0 0 0 0.047 0"/>
<feBlend mode="normal" in2="BackgroundImageFix" result="effect1_dropShadow_698_2185"/>
<feBlend mode="normal" in="SourceGraphic" in2="effect1_dropShadow_698_2185" result="shape"/>
</filter>
</defs>
</svg>
