<svg width="22" height="23" viewBox="0 0 22 23" fill="none" xmlns="http://www.w3.org/2000/svg">
<g clip-path="url(#clip0_196_959)">
<path d="M19.6295 0.5H2.37046C1.06339 0.5 0 1.56335 0 2.87041V17.3681C0 18.6751 1.06339 19.7385 2.37046 19.7385H7.97156L10.5442 22.3112C10.6651 22.4321 10.829 22.5 11 22.5C11.1709 22.5 11.3348 22.4321 11.4557 22.3112L14.0284 19.7385H19.6295C20.9367 19.7385 22 18.6751 22 17.3681V2.87041C22 1.56335 20.9366 0.5 19.6295 0.5ZM20.7109 17.3681C20.7109 17.9643 20.2258 18.4495 19.6295 18.4495H13.7614C13.5905 18.4495 13.4265 18.5174 13.3057 18.6383L11 20.944L8.6943 18.6383C8.57343 18.5174 8.4095 18.4495 8.23853 18.4495H2.37046C1.77418 18.4495 1.28906 17.9643 1.28906 17.3681V2.87041C1.28906 2.27414 1.77418 1.78906 2.37046 1.78906H19.6295C20.2258 1.78906 20.7109 2.27414 20.7109 2.87041V17.3681Z" fill="#A19061"/>
<path d="M16.5397 7.91405L13.1135 7.41604L11.5808 4.31103C11.4723 4.09107 11.2482 3.95181 11.0029 3.95181C10.7576 3.95181 10.5335 4.09107 10.4249 4.31107L8.89238 7.41604L5.46592 7.91405C5.22315 7.94932 5.02145 8.11935 4.94561 8.35272C4.86982 8.58604 4.93307 8.84217 5.10872 9.0134L7.58828 11.4303L7.00304 14.8429C6.96158 15.0847 7.06096 15.329 7.25944 15.4733C7.45795 15.6174 7.72109 15.6365 7.93821 15.5224L11.0029 13.9112L14.0678 15.5224C14.1621 15.5719 14.2651 15.5964 14.3677 15.5964H14.3703C14.7255 15.5955 15.0131 15.3073 15.0131 14.9519C15.0131 14.9024 15.0076 14.8541 14.997 14.8078L14.4174 11.4303L16.8969 9.01345C17.0726 8.84222 17.1359 8.58608 17.0601 8.35276C16.9843 8.11935 16.7826 7.94932 16.5397 7.91405ZM13.275 10.7437C13.123 10.8917 13.0537 11.1051 13.0896 11.3142L13.5116 13.7736L11.3028 12.6125C11.115 12.5138 10.8907 12.5138 10.703 12.6125L8.49432 13.7736L8.9161 11.3142C8.95193 11.1051 8.88262 10.8917 8.73073 10.7437L6.94375 9.00189L9.41312 8.64297C9.62302 8.61246 9.80448 8.48063 9.89836 8.29041L11.0029 6.05256L12.1076 8.29045C12.2015 8.48063 12.3829 8.61246 12.5928 8.64297L15.062 9.00189L13.275 10.7437Z" fill="#A19061"/>
</g>
<defs>
<clipPath id="clip0_196_959">
<rect width="22" height="22" fill="white" transform="translate(0 0.5)"/>
</clipPath>
</defs>
</svg>
