<svg width="18" height="20" viewBox="0 0 18 20" fill="none" xmlns="http://www.w3.org/2000/svg">
<path d="M14.8215 6L12.9107 7.91074C12.5853 8.23618 12.5853 8.76383 12.9107 9.08925C13.2362 9.41467 13.7638 9.41467 14.0892 9.08925L17.4226 5.75593C17.748 5.43048 17.748 4.90285 17.4226 4.57741L14.0892 1.24408C13.7638 0.918641 13.2362 0.918641 12.9107 1.24408C12.5853 1.56952 12.5853 2.09715 12.9107 2.42259L14.8215 4.33333H5.16667C4.0616 4.33333 3.00179 4.77232 2.22039 5.55373C1.43898 6.33513 1 7.39493 1 8.5V9.33333C1 9.79358 1.3731 10.1667 1.83333 10.1667C2.29357 10.1667 2.66667 9.79358 2.66667 9.33333V8.5C2.66667 7.83696 2.93006 7.20108 3.3989 6.73223C3.86774 6.26339 4.50362 6 5.16667 6H14.8215Z" fill="#1E1E1E" stroke="white" stroke-width="0.5"/>
<path d="M5.75593 12.4225C6.08136 12.0971 6.08136 11.5695 5.75593 11.244C5.43048 10.9186 4.90285 10.9186 4.57741 11.244L1.24408 14.5774C0.918642 14.9028 0.918642 15.4305 1.24408 15.7559L4.57741 19.0892C4.90285 19.4146 5.43048 19.4146 5.75593 19.0892C6.08136 18.7638 6.08136 18.2361 5.75593 17.9107L3.84518 16H13.5C14.6051 16 15.6649 15.561 16.4462 14.7795C17.2277 13.9982 17.6667 12.9384 17.6667 11.8333V11C17.6667 10.5397 17.2936 10.1666 16.8333 10.1666C16.3731 10.1666 16 10.5397 16 11V11.8333C16 12.4963 15.7366 13.1322 15.2678 13.601C14.7989 14.0699 14.163 14.3333 13.5 14.3333H3.84518L5.75593 12.4225Z" fill="#1E1E1E" stroke="white" stroke-width="0.5"/>
</svg>
