<svg width="30" height="30" viewBox="0 0 30 30" fill="none" xmlns="http://www.w3.org/2000/svg">
<path d="M23.2323 8.75L20.3661 11.6161C19.878 12.1043 19.878 12.8958 20.3661 13.3839C20.8542 13.872 21.6458 13.872 22.1339 13.3839L27.1339 8.38389C27.622 7.89573 27.622 7.10428 27.1339 6.61611L22.1339 1.61611C21.6458 1.12796 20.8542 1.12796 20.3661 1.61611C19.878 2.10428 19.878 2.89573 20.3661 3.38389L23.2323 6.25H8.75C7.0924 6.25 5.50269 6.90848 4.33059 8.08059C3.15847 9.25269 2.5 10.8424 2.5 12.5V13.75C2.5 14.4404 3.05965 15 3.75 15C4.44035 15 5 14.4404 5 13.75V12.5C5 11.5054 5.39509 10.5516 6.09835 9.84835C6.80161 9.14509 7.75544 8.75 8.75 8.75H23.2323Z" fill="#A19061"/>
<path d="M9.63389 18.3839C10.122 17.8957 10.122 17.1043 9.63389 16.6161C9.14573 16.128 8.35428 16.128 7.86611 16.6161L2.86611 21.6161C2.37796 22.1042 2.37796 22.8958 2.86611 23.3839L7.86611 28.3839C8.35428 28.872 9.14573 28.872 9.63389 28.3839C10.122 27.8958 10.122 27.1042 9.63389 26.6161L6.76776 23.75H21.25C22.9076 23.75 24.4974 23.0915 25.6694 21.9194C26.8415 20.7474 27.5 19.1576 27.5 17.5V16.25C27.5 15.5596 26.9404 15 26.25 15C25.5596 15 25 15.5596 25 16.25V17.5C25 18.4945 24.6049 19.4484 23.9016 20.1516C23.1984 20.8549 22.2445 21.25 21.25 21.25H6.76776L9.63389 18.3839Z" fill="#A19061"/>
</svg>
