<svg width="22" height="22" viewBox="0 0 22 22" fill="none" xmlns="http://www.w3.org/2000/svg">
<path fill-rule="evenodd" clip-rule="evenodd" d="M10.5404 2.52083C6.11058 2.52083 2.51953 6.11188 2.51953 10.5417C2.51953 14.9714 6.11058 18.5625 10.5404 18.5625C14.9701 18.5625 18.5612 14.9714 18.5612 10.5417C18.5612 6.11188 14.9701 2.52083 10.5404 2.52083ZM1.14453 10.5417C1.14453 5.35249 5.35119 1.14583 10.5404 1.14583C15.7295 1.14583 19.9362 5.35249 19.9362 10.5417C19.9362 15.7308 15.7295 19.9375 10.5404 19.9375C5.35119 19.9375 1.14453 15.7308 1.14453 10.5417Z" fill="#040202"/>
<path fill-rule="evenodd" clip-rule="evenodd" d="M17.8459 17.8472C18.1144 17.5787 18.5497 17.5787 18.8182 17.8472L20.6515 19.6805C20.92 19.949 20.92 20.3843 20.6515 20.6528C20.383 20.9213 19.9477 20.9213 19.6792 20.6528L17.8459 18.8195C17.5774 18.551 17.5774 18.1157 17.8459 17.8472Z" fill="#040202"/>
</svg>
