<svg width="683" height="683" viewBox="0 0 683 683" fill="none" xmlns="http://www.w3.org/2000/svg">
<g clip-path="url(#clip0_1443_1859)">
<path d="M482.669 522.667V576C482.669 634.818 434.82 682.667 376.003 682.667H108.003C49.1849 682.667 1.33594 634.818 1.33594 576V106.667C1.33594 47.849 49.1849 0 108.003 0H376.003C434.82 0 482.669 47.849 482.669 106.667V160C482.669 174.729 470.732 186.667 456.003 186.667C441.273 186.667 429.336 174.729 429.336 160V106.667C429.336 77.2604 405.409 53.3333 376.003 53.3333H108.003C78.5964 53.3333 54.6693 77.2604 54.6693 106.667V576C54.6693 605.406 78.5964 629.333 108.003 629.333H376.003C405.409 629.333 429.336 605.406 429.336 576V522.667C429.336 507.938 441.273 496 456.003 496C470.732 496 482.669 507.938 482.669 522.667ZM664.477 295.526L604.763 235.813C594.346 225.396 577.461 225.396 567.049 235.813C556.633 246.224 556.633 263.109 567.049 273.521L609.523 316H289.336C274.607 316 262.669 327.938 262.669 342.667C262.669 357.396 274.607 369.333 289.336 369.333H609.523L567.049 411.813C556.633 422.224 556.633 439.109 567.049 449.521C572.258 454.729 579.081 457.333 585.904 457.333C592.732 457.333 599.555 454.729 604.763 449.521L664.477 389.807C690.471 363.813 690.471 321.521 664.477 295.526Z" fill="#949EB7"/>
</g>
<defs>
<clipPath id="clip0_1443_1859">
<rect width="682.667" height="682.667" fill="white"/>
</clipPath>
</defs>
</svg>
