<svg width="18" height="18" viewBox="0 0 18 18" fill="none" xmlns="http://www.w3.org/2000/svg">
<g clip-path="url(#clip0_1432_30998)">
<path d="M17.4972 8.54051C17.9533 8.0961 18.1143 7.44385 17.9174 6.8386C17.7209 6.2331 17.2073 5.80008 16.5771 5.7085L12.6857 5.14308C12.4882 5.11426 12.3175 4.99026 12.2292 4.81138L10.4889 1.28493C10.2071 0.71417 9.63658 0.359619 8.99997 0.359619C8.36336 0.359619 7.79284 0.71417 7.51103 1.28493C7.51103 1.28497 5.77076 4.81135 5.77076 4.81135C5.68245 4.99029 5.51177 5.11429 5.31454 5.14305L1.42295 5.70847C0.792673 5.80008 0.279075 6.2331 0.0826573 6.83828C-0.114323 7.44385 0.0466573 8.09614 0.502669 8.54041L3.31861 11.2855C3.46145 11.4247 3.52663 11.6252 3.49299 11.8216L2.82811 15.6978C2.72068 16.3253 2.97377 16.9475 3.48863 17.3215C4.0036 17.6957 4.67368 17.7441 5.23744 17.448L8.71798 15.6181C8.89454 15.5253 9.10537 15.5253 9.28175 15.618L12.7626 17.448C13.3263 17.7442 13.9964 17.6957 14.5114 17.3215C15.0262 16.9475 15.2793 16.3253 15.1719 15.6978L14.507 11.8218C14.4733 11.6252 14.5385 11.4247 14.6814 11.2854L17.4972 8.54051ZM13.4674 11.9998L14.1324 15.8761C14.1722 16.1082 14.0821 16.3297 13.8915 16.4682C13.7857 16.5451 13.6631 16.5857 13.5369 16.5857C13.4816 16.5857 13.3757 16.5787 13.2531 16.5143L9.77256 14.6844C9.53498 14.5597 9.26797 14.4938 9.00004 14.4938C8.73197 14.4938 8.46479 14.5597 8.22748 14.6844L4.74663 16.5145C4.50753 16.6401 4.26825 16.5843 4.10861 16.4683C3.91792 16.3298 3.82789 16.1083 3.86768 15.8758L4.53252 12C4.62477 11.4609 4.44611 10.9116 4.05472 10.5302L1.23891 7.78522C1.06995 7.62058 1.01272 7.38865 1.08563 7.16457C1.15851 6.94006 1.34125 6.78615 1.57469 6.75222L5.46613 6.1868C6.00747 6.10784 6.47466 5.76823 6.71654 5.27819L8.45677 1.75188C8.56111 1.54052 8.76421 1.41434 9 1.41434C9.2358 1.41434 9.4389 1.54052 9.54324 1.75188L11.2834 5.27815C11.5254 5.76827 11.9927 6.10788 12.5335 6.18677C13.3962 6.31203 15.0485 6.55194 16.4252 6.75222C16.6588 6.78615 16.8415 6.94017 16.9143 7.16422C16.9873 7.38876 16.93 7.62062 16.7612 7.78511L13.9452 10.5303C13.5538 10.9116 13.3752 11.461 13.4674 11.9998Z" fill="white"/>
</g>
<defs>
<clipPath id="clip0_1432_30998">
<rect width="18" height="18" fill="white"/>
</clipPath>
</defs>
</svg>
