<svg width="26" height="27" viewBox="0 0 26 27" fill="none" xmlns="http://www.w3.org/2000/svg">
<path d="M19.2383 24.42H6.75828C6.47111 24.42 6.23828 24.1872 6.23828 23.9V3.1C6.23828 2.81278 6.47111 2.58 6.75828 2.58H19.2383C19.5254 2.58 19.7583 2.81278 19.7583 3.1V23.9C19.7583 24.1872 19.5254 24.42 19.2383 24.42ZM7.27828 23.38H18.7183V3.62H7.27828V23.38Z" fill="#A19061"/>
<path d="M25.4788 22.34H19.2387C18.9516 22.34 18.7188 22.1072 18.7188 21.82V5.18C18.7188 4.89279 18.9516 4.66 19.2387 4.66H25.4788C25.7659 4.66 25.9987 4.89284 25.9987 5.18V21.82C25.9987 22.1072 25.7659 22.34 25.4788 22.34ZM19.7587 21.3H24.9587V5.7H19.7587V21.3Z" fill="#A19061"/>
<path d="M15.0784 9.86001C14.7913 9.86001 14.5584 9.62718 14.5584 9.34001V6.3106L13.3368 7.35766C13.1421 7.52458 12.8548 7.52458 12.66 7.35766L11.4384 6.3106V9.34001C11.4384 9.62723 11.2056 9.86001 10.9184 9.86001C10.6313 9.86001 10.3984 9.62718 10.3984 9.34001V5.18001C10.3984 4.97693 10.5167 4.79245 10.7011 4.70759C10.8857 4.62268 11.1026 4.65305 11.2568 4.78518L12.9984 6.278L14.74 4.78523C14.8942 4.6531 15.1111 4.62273 15.2957 4.70764C15.4802 4.7925 15.5984 4.97698 15.5984 5.18006V9.34006C15.5984 9.62723 15.3656 9.86001 15.0784 9.86001Z" fill="#A19061"/>
<path d="M16.1194 9.86001H9.87937C9.59216 9.86001 9.35938 9.62718 9.35938 9.34001C9.35938 9.05284 9.59216 8.82001 9.87937 8.82001H16.1194C16.4065 8.82001 16.6394 9.05284 16.6394 9.34001C16.6394 9.62718 16.4065 9.86001 16.1194 9.86001Z" fill="#A19061"/>
<path d="M16.1203 14.02H9.88031C9.02013 14.02 8.32031 13.3202 8.32031 12.46C8.32031 11.5998 9.02013 10.9 9.88031 10.9H16.1203C16.9805 10.9 17.6803 11.5998 17.6803 12.46C17.6803 13.3202 16.9805 14.02 16.1203 14.02ZM9.88031 11.94C9.5936 11.94 9.36031 12.1733 9.36031 12.46C9.36031 12.7467 9.59355 12.98 9.88031 12.98H16.1203C16.407 12.98 16.6403 12.7468 16.6403 12.46C16.6403 12.1732 16.407 11.94 16.1203 11.94H9.88031Z" fill="#A19061"/>
<path d="M10.9203 16.1H8.84031C8.55309 16.1 8.32031 15.8672 8.32031 15.58C8.32031 15.2928 8.55314 15.06 8.84031 15.06H10.9203C11.2075 15.06 11.4403 15.2928 11.4403 15.58C11.4403 15.8672 11.2075 16.1 10.9203 16.1Z" fill="#A19061"/>
<path d="M17.1605 16.1H13.0005C12.7133 16.1 12.4805 15.8672 12.4805 15.58C12.4805 15.2928 12.7133 15.06 13.0005 15.06H17.1605C17.4476 15.06 17.6805 15.2928 17.6805 15.58C17.6805 15.8672 17.4476 16.1 17.1605 16.1Z" fill="#A19061"/>
<path d="M10.9203 18.18H8.84031C8.55309 18.18 8.32031 17.9472 8.32031 17.66C8.32031 17.3728 8.55314 17.14 8.84031 17.14H10.9203C11.2075 17.14 11.4403 17.3728 11.4403 17.66C11.4403 17.9472 11.2075 18.18 10.9203 18.18Z" fill="#A19061"/>
<path d="M17.1605 18.18H13.0005C12.7133 18.18 12.4805 17.9472 12.4805 17.66C12.4805 17.3728 12.7133 17.14 13.0005 17.14H17.1605C17.4476 17.14 17.6805 17.3728 17.6805 17.66C17.6805 17.9472 17.4476 18.18 17.1605 18.18Z" fill="#A19061"/>
<path d="M10.9203 20.26H8.84031C8.55309 20.26 8.32031 20.0272 8.32031 19.74C8.32031 19.4528 8.55314 19.22 8.84031 19.22H10.9203C11.2075 19.22 11.4403 19.4528 11.4403 19.74C11.4403 20.0272 11.2075 20.26 10.9203 20.26Z" fill="#A19061"/>
<path d="M17.1605 20.26H13.0005C12.7133 20.26 12.4805 20.0272 12.4805 19.74C12.4805 19.4528 12.7133 19.22 13.0005 19.22H17.1605C17.4476 19.22 17.6805 19.4528 17.6805 19.74C17.6805 20.0272 17.4476 20.26 17.1605 20.26Z" fill="#A19061"/>
<path d="M10.9203 22.34H8.84031C8.55309 22.34 8.32031 22.1072 8.32031 21.82C8.32031 21.5328 8.55314 21.3 8.84031 21.3H10.9203C11.2075 21.3 11.4403 21.5328 11.4403 21.82C11.4403 22.1072 11.2075 22.34 10.9203 22.34Z" fill="#A19061"/>
<path d="M17.1605 22.34H13.0005C12.7133 22.34 12.4805 22.1072 12.4805 21.82C12.4805 21.5328 12.7133 21.3 13.0005 21.3H17.1605C17.4476 21.3 17.6805 21.5328 17.6805 21.82C17.6805 22.1072 17.4476 22.34 17.1605 22.34Z" fill="#A19061"/>
<path d="M23.4008 7.78001H21.3208C21.0336 7.78001 20.8008 7.54717 20.8008 7.26001C20.8008 6.97284 21.0336 6.74001 21.3208 6.74001H23.4008C23.6879 6.74001 23.9208 6.97284 23.9208 7.26001C23.9208 7.54717 23.6879 7.78001 23.4008 7.78001Z" fill="#A19061"/>
<path d="M23.4008 9.86001H21.3208C21.0336 9.86001 20.8008 9.62718 20.8008 9.34001C20.8008 9.05284 21.0336 8.82001 21.3208 8.82001H23.4008C23.6879 8.82001 23.9208 9.05284 23.9208 9.34001C23.9208 9.62718 23.6879 9.86001 23.4008 9.86001Z" fill="#A19061"/>
<path d="M23.4008 11.94H21.3208C21.0336 11.94 20.8008 11.7072 20.8008 11.42C20.8008 11.1328 21.0336 10.9 21.3208 10.9H23.4008C23.6879 10.9 23.9208 11.1328 23.9208 11.42C23.9208 11.7072 23.6879 11.94 23.4008 11.94Z" fill="#A19061"/>
<path d="M23.4008 14.02H21.3208C21.0336 14.02 20.8008 13.7872 20.8008 13.5C20.8008 13.2128 21.0336 12.98 21.3208 12.98H23.4008C23.6879 12.98 23.9208 13.2128 23.9208 13.5C23.9208 13.7872 23.6879 14.02 23.4008 14.02Z" fill="#A19061"/>
<path d="M23.4008 14.02H21.3208C21.0336 14.02 20.8008 13.7872 20.8008 13.5C20.8008 13.2128 21.0336 12.98 21.3208 12.98H23.4008C23.6879 12.98 23.9208 13.2128 23.9208 13.5C23.9208 13.7872 23.6879 14.02 23.4008 14.02Z" fill="#A19061"/>
<path d="M23.4008 16.1H21.3208C21.0336 16.1 20.8008 15.8672 20.8008 15.58C20.8008 15.2928 21.0336 15.06 21.3208 15.06H23.4008C23.6879 15.06 23.9208 15.2928 23.9208 15.58C23.9208 15.8672 23.6879 16.1 23.4008 16.1Z" fill="#A19061"/>
<path d="M21.3206 18.18C20.5735 18.1658 20.6866 17.0175 21.4221 17.1504C22.0244 17.255 21.9314 18.1942 21.3206 18.18Z" fill="#A19061"/>
<path d="M23.3994 18.18C22.7884 18.194 22.6952 17.255 23.298 17.1504C24.0332 17.0177 24.1461 18.1659 23.3994 18.18Z" fill="#A19061"/>
<path d="M21.3212 20.26C20.71 20.2737 20.6174 19.3356 21.2199 19.2299C21.9554 19.099 22.068 20.2454 21.3212 20.26Z" fill="#A19061"/>
<path d="M23.3993 20.26C22.7883 20.274 22.6953 19.3349 23.298 19.2304C24.0331 19.0977 24.1463 20.2458 23.3993 20.26Z" fill="#A19061"/>
<path d="M6.76 22.34H0.52C0.232781 22.34 0 22.1072 0 21.82V5.18C0 4.89279 0.232781 4.66 0.52 4.66H6.76C7.04722 4.66 7.28 4.89284 7.28 5.18V21.82C7.28 22.1072 7.04717 22.34 6.76 22.34ZM1.04 21.3H6.24V5.7H1.04V21.3Z" fill="#A19061"/>
<path d="M4.67813 7.78001H2.59813C2.31091 7.78001 2.07812 7.54717 2.07812 7.26001C2.07812 6.97284 2.31091 6.74001 2.59813 6.74001H4.67813C4.96529 6.74001 5.19813 6.97284 5.19813 7.26001C5.19813 7.54717 4.96529 7.78001 4.67813 7.78001Z" fill="#A19061"/>
<path d="M4.67813 9.86001H2.59813C2.31091 9.86001 2.07812 9.62718 2.07812 9.34001C2.07812 9.05284 2.31091 8.82001 2.59813 8.82001H4.67813C4.96529 8.82001 5.19813 9.05284 5.19813 9.34001C5.19813 9.62718 4.96529 9.86001 4.67813 9.86001Z" fill="#A19061"/>
<path d="M4.67813 11.94H2.59813C2.31091 11.94 2.07812 11.7072 2.07812 11.42C2.07812 11.1328 2.31091 10.9 2.59813 10.9H4.67813C4.96529 10.9 5.19813 11.1328 5.19813 11.42C5.19813 11.7072 4.96529 11.94 4.67813 11.94Z" fill="#A19061"/>
<path d="M4.67813 14.02H2.59813C2.31091 14.02 2.07812 13.7872 2.07812 13.5C2.07812 13.2128 2.31091 12.98 2.59813 12.98H4.67813C4.96529 12.98 5.19813 13.2128 5.19813 13.5C5.19813 13.7872 4.96529 14.02 4.67813 14.02Z" fill="#A19061"/>
<path d="M4.67813 14.02H2.59813C2.31091 14.02 2.07812 13.7872 2.07812 13.5C2.07812 13.2128 2.31091 12.98 2.59813 12.98H4.67813C4.96529 12.98 5.19813 13.2128 5.19813 13.5C5.19813 13.7872 4.96529 14.02 4.67813 14.02Z" fill="#A19061"/>
<path d="M4.67813 16.1H2.59813C2.31091 16.1 2.07812 15.8672 2.07812 15.58C2.07812 15.2928 2.31091 15.06 2.59813 15.06H4.67813C4.96529 15.06 5.19813 15.2928 5.19813 15.58C5.19813 15.8672 4.96529 16.1 4.67813 16.1Z" fill="#A19061"/>
<path d="M2.60231 18.18C1.99152 18.1942 1.89848 17.2548 2.50095 17.1504C3.23611 17.0177 3.3491 18.1659 2.60231 18.18Z" fill="#A19061"/>
<path d="M6.76224 18.18C6.72842 18.18 6.69414 18.1763 6.66083 18.1696C6.62752 18.1633 6.59476 18.1529 6.56358 18.1399C6.53189 18.1269 6.50173 18.1108 6.47365 18.0921C6.44506 18.0734 6.4185 18.0516 6.39458 18.0276C6.37066 18.0037 6.34883 17.9772 6.33009 17.9486C6.31135 17.9205 6.29525 17.8903 6.28225 17.8586C6.26925 17.8274 6.25935 17.7947 6.2526 17.7614C6.24584 17.7281 6.24219 17.6938 6.24219 17.66C6.24219 17.6262 6.24584 17.5919 6.2526 17.5586C6.25884 17.5253 6.26925 17.4926 6.28225 17.4613C6.29525 17.4296 6.31135 17.3995 6.33009 17.3714C6.34878 17.3428 6.37066 17.3163 6.39458 17.2923C6.4185 17.2684 6.44501 17.2466 6.47365 17.2279C6.50173 17.2092 6.53189 17.193 6.56358 17.18C6.59481 17.167 6.62757 17.1566 6.66083 17.1504C6.72791 17.1369 6.79657 17.1369 6.8636 17.1504C6.89691 17.1566 6.92966 17.167 6.96135 17.18C6.99258 17.193 7.0227 17.2092 7.05078 17.2279C7.07937 17.2466 7.10593 17.2684 7.12984 17.2923C7.15376 17.3163 7.1756 17.3428 7.19434 17.3714C7.21353 17.3995 7.22917 17.4296 7.24217 17.4613C7.25517 17.4926 7.26553 17.5253 7.27234 17.5586C7.27909 17.5919 7.28224 17.6262 7.28224 17.66C7.28224 17.6938 7.27909 17.7281 7.27234 17.7614C7.26558 17.7947 7.25517 17.8274 7.24217 17.8586C7.22917 17.8903 7.21302 17.9205 7.19434 17.9486C7.1756 17.9772 7.15376 18.0037 7.12984 18.0276C7.10593 18.0516 7.07942 18.0734 7.05078 18.0921C7.0227 18.1108 6.99253 18.1269 6.96135 18.1399C6.92966 18.1529 6.89686 18.1633 6.8636 18.1696C6.83039 18.1763 6.79606 18.18 6.76224 18.18Z" fill="#A19061"/>
<path d="M2.60175 20.26C1.85511 20.2455 1.96744 19.0988 2.70372 19.2299C3.30512 19.3363 3.21265 20.2741 2.60175 20.26Z" fill="#A19061"/>
<path d="M4.68044 18.18C4.06964 18.1942 3.97661 17.2548 4.57908 17.1504C5.31424 17.0175 5.42718 18.166 4.68044 18.18Z" fill="#A19061"/>
<path d="M4.68044 20.26C4.06928 20.2736 3.97691 19.3358 4.57908 19.2299C5.31429 19.0981 5.42738 20.2459 4.68044 20.26Z" fill="#A19061"/>
<path d="M6.76224 20.26C6.72842 20.26 6.69414 20.2563 6.66083 20.2496C6.62752 20.2433 6.59476 20.2329 6.56358 20.2199C6.53189 20.2069 6.50173 20.1908 6.47365 20.1721C6.44506 20.1534 6.4185 20.1316 6.39458 20.1076C6.37066 20.0837 6.34883 20.0572 6.33009 20.0286C6.31135 20.0005 6.29525 19.9703 6.28225 19.9386C6.26925 19.9074 6.25884 19.8747 6.2526 19.8414C6.24584 19.8081 6.24219 19.7738 6.24219 19.74C6.24219 19.7062 6.24584 19.6719 6.2526 19.6386C6.25884 19.6053 6.26925 19.5726 6.28225 19.5413C6.29525 19.5096 6.31084 19.4795 6.33009 19.4514C6.34878 19.4228 6.37066 19.3963 6.39458 19.3723C6.4185 19.3484 6.44501 19.3266 6.47365 19.3079C6.50173 19.2892 6.53189 19.273 6.56358 19.26C6.59481 19.247 6.62757 19.2366 6.66083 19.2299C6.72791 19.2163 6.79657 19.2169 6.8636 19.2299C6.89691 19.2366 6.92966 19.247 6.96135 19.26C6.99258 19.273 7.0227 19.2892 7.05078 19.3079C7.07937 19.3266 7.10593 19.3484 7.12984 19.3723C7.15376 19.3963 7.1756 19.4228 7.19434 19.4514C7.21302 19.4795 7.22917 19.5096 7.24217 19.5413C7.25517 19.5726 7.26553 19.6053 7.27178 19.6386C7.27853 19.6719 7.28219 19.7062 7.28219 19.74C7.28219 19.7738 7.27853 19.8081 7.27178 19.8414C7.26553 19.8747 7.25517 19.9074 7.24217 19.9386C7.22917 19.9703 7.21302 20.0005 7.19434 20.0286C7.1756 20.0572 7.15376 20.0837 7.12984 20.1076C7.10593 20.1316 7.07942 20.1534 7.05078 20.1721C7.0227 20.1908 6.99253 20.2069 6.96135 20.2199C6.92966 20.2329 6.89686 20.2433 6.8636 20.2496C6.83039 20.2563 6.79606 20.26 6.76224 20.26Z" fill="#A19061"/>
</svg>
