<svg width="40" height="40" viewBox="0 0 40 40" fill="none" xmlns="http://www.w3.org/2000/svg">
<path d="M10.1294 17.9891C9.62719 17.5155 9.60406 16.7244 10.0777 16.2221L14.3356 11.708C14.5718 11.4576 14.9007 11.3157 15.2449 11.3157C15.5891 11.3157 15.918 11.4576 16.1542 11.708L20.4121 16.2221C20.8858 16.7243 20.8627 17.5155 20.3605 17.9891C19.8583 18.4628 19.0672 18.4398 18.5934 17.9375L16.4948 15.7127V24.4429C16.4948 25.1332 15.9352 25.6929 15.2448 25.6929C14.5545 25.6929 13.9948 25.1332 13.9948 24.4429V15.7126L11.8962 17.9375C11.6504 18.1982 11.3188 18.3298 10.9867 18.3298C10.6791 18.3298 10.3709 18.217 10.1294 17.9891ZM20.4692 26.1845H10.0208C9.33047 26.1845 8.77078 26.7441 8.77078 27.4345C8.77078 28.1248 9.33047 28.6845 10.0208 28.6845H20.4693C21.1596 28.6845 21.7193 28.1248 21.7193 27.4345C21.7193 26.7441 21.1596 26.1845 20.4692 26.1845ZM40 7.44398V32.5562C40 33.0028 39.7617 33.4155 39.375 33.6388C39.1816 33.7504 38.9658 33.8062 38.75 33.8062C38.5342 33.8062 38.3184 33.7505 38.125 33.6388L30.49 29.2307V30.3069C30.49 33.2082 28.1296 35.5686 25.2283 35.5686H5.26172C2.36039 35.5686 0 33.2082 0 30.3069V9.69336C0 6.79203 2.36039 4.43164 5.26172 4.43164H25.2283C28.1296 4.43164 30.49 6.79203 30.49 9.69336V10.7695L38.125 6.36141C38.5117 6.13813 38.9883 6.13813 39.375 6.36141C39.7617 6.58469 40 6.99734 40 7.44398ZM27.99 9.69336C27.99 8.17055 26.7511 6.93164 25.2283 6.93164H5.26172C3.73891 6.93164 2.5 8.17055 2.5 9.69336V30.3069C2.5 31.8297 3.73891 33.0686 5.26172 33.0686H25.2283C26.7511 33.0686 27.99 31.8297 27.99 30.3069V9.69336ZM37.5 9.60906L30.49 13.6562V26.3439L37.5 30.3911V9.60906Z" fill="#8F8F8F"/>
</svg>
