<svg width="77" height="90" viewBox="0 0 77 90" fill="none" xmlns="http://www.w3.org/2000/svg">
<g filter="url(#filter0_d_1801_2455)">
<path d="M38.305 11C25.5386 11 15.1523 21.3862 15.1523 34.1525C15.1523 38.5609 16.3536 43.2412 18.7227 48.0631C20.6012 51.8866 23.2159 55.8105 26.4942 59.7257C32.0596 66.3727 37.5366 70.6377 37.767 70.8161C37.9253 70.9386 38.1153 70.9999 38.305 70.9999C38.4947 70.9999 38.6847 70.9386 38.843 70.8161C39.0735 70.6378 44.5504 66.3727 50.1158 59.7257C53.394 55.8104 56.0088 51.8864 57.8873 48.0631C60.2564 43.2412 61.4577 38.5609 61.4577 34.1525C61.4577 21.3862 51.0714 11 38.305 11Z" fill="#FF0000"/>
</g>
<path d="M37.793 25.7383C39.4336 25.7383 40.7643 25.9115 41.7852 26.2578C42.806 26.6042 43.6536 27.3242 44.3281 28.418C44.5651 28.819 44.7383 29.3021 44.8477 29.8672C44.9753 30.4141 45.0026 31.0247 44.9297 31.6992C44.875 32.3737 44.6107 33.0755 44.1367 33.8047C43.6628 34.5156 42.9883 35.1445 42.1133 35.6914C41.2747 36.2201 40.181 36.8672 38.832 37.6328C37.5013 38.3984 36.4896 38.9909 35.7969 39.4102C35.1224 39.8294 34.4388 40.349 33.7461 40.9688C33.0534 41.5885 32.5794 42.2174 32.3242 42.8555C32.9805 42.5456 33.9193 42.3815 35.1406 42.3633C36.3802 42.3268 37.5378 42.3633 38.6133 42.4727C39.6888 42.5638 40.7643 42.5091 41.8398 42.3086C42.9154 42.0898 43.6992 41.6615 44.1914 41.0234C44.3919 41.8073 44.3008 42.7643 43.918 43.8945C43.5534 45.0247 42.8607 45.7174 41.8398 45.9727C41.4206 46.082 40.6732 46.0547 39.5977 45.8906C38.5221 45.7083 37.4557 45.5169 36.3984 45.3164C35.3411 45.1159 34.2474 45.043 33.1172 45.0977C32.0052 45.1523 31.1576 45.4258 30.5742 45.918C30.5013 45.2617 30.5195 44.5326 30.6289 43.7305C30.6836 42.7279 30.9115 41.7891 31.3125 40.9141C31.7135 40.0208 32.2148 39.2552 32.8164 38.6172C33.418 37.9609 34.0742 37.3411 34.7852 36.7578C35.5143 36.1745 36.2253 35.6185 36.918 35.0898C37.6289 34.5612 38.276 34.0417 38.8594 33.5312C39.4427 33.0208 39.9076 32.4557 40.2539 31.8359C40.6185 31.1979 40.7917 30.5417 40.7734 29.8672C40.7552 29.0651 40.5638 28.4089 40.1992 27.8984C39.8346 27.3698 39.3789 27.0234 38.832 26.8594C38.3034 26.6953 37.7383 26.6406 37.1367 26.6953C36.5534 26.75 36.0156 26.9049 35.5234 27.1602C34.9401 27.4518 34.5391 27.9531 34.3203 28.6641C34.1016 29.375 34.1198 30.0495 34.375 30.6875C34.6484 31.3073 35.1042 31.6445 35.7422 31.6992C35.6328 32.3555 35.2409 32.8385 34.5664 33.1484C33.8919 33.4583 33.181 33.5495 32.4336 33.4219C31.8138 33.3307 31.3034 32.9297 30.9023 32.2188C30.5195 31.5078 30.474 30.6693 30.7656 29.7031C31.112 28.5547 31.8958 27.6159 33.1172 26.8867C34.3568 26.1393 35.7331 25.7565 37.2461 25.7383H37.793Z" fill="white"/>
<defs>
<filter id="filter0_d_1801_2455" x="0.152344" y="0" width="76.3057" height="90" filterUnits="userSpaceOnUse" color-interpolation-filters="sRGB">
<feFlood flood-opacity="0" result="BackgroundImageFix"/>
<feColorMatrix in="SourceAlpha" type="matrix" values="0 0 0 0 0 0 0 0 0 0 0 0 0 0 0 0 0 0 127 0" result="hardAlpha"/>
<feOffset dy="4"/>
<feGaussianBlur stdDeviation="7.5"/>
<feComposite in2="hardAlpha" operator="out"/>
<feColorMatrix type="matrix" values="0 0 0 0 0 0 0 0 0 0 0 0 0 0 0 0 0 0 0.25 0"/>
<feBlend mode="normal" in2="BackgroundImageFix" result="effect1_dropShadow_1801_2455"/>
<feBlend mode="normal" in="SourceGraphic" in2="effect1_dropShadow_1801_2455" result="shape"/>
</filter>
</defs>
</svg>
