<svg width="264" height="260" viewBox="0 0 264 260" fill="none" xmlns="http://www.w3.org/2000/svg">
<g clip-path="url(#clip0_2493_1981)">
<mask id="mask0_2493_1981" style="mask-type:luminance" maskUnits="userSpaceOnUse" x="-19" y="-21" width="300" height="300">
<path d="M281 -21H-19V279H281V-21Z" fill="white"/>
</mask>
<g mask="url(#mask0_2493_1981)">
<path opacity="0.2" d="M143.5 241C208.39 241 261 188.39 261 123.5C261 58.61 208.39 6 143.5 6C78.61 6 26 58.61 26 123.5C26 188.39 78.61 241 143.5 241Z" fill="#D7BA6B"/>
<path d="M207.07 12H79.85C75.12 12 70.58 14.01 67.23 17.59C63.88 21.17 62 26.02 62 31.08V186.08H62.22V240.51C62.22 242.61 62.72 244.68 63.68 246.51C64.64 248.34 66.02 249.89 67.7 250.99C69.37 252.09 71.29 252.71 73.25 252.8C75.21 252.89 77.17 252.43 78.92 251.48L137.6 219.67C139.2 218.81 140.96 218.37 142.75 218.37C144.54 218.37 146.3 218.82 147.9 219.67L208.39 251.71C210.14 252.64 212.09 253.07 214.05 252.97C216.01 252.87 217.91 252.24 219.57 251.13C221.23 250.02 222.61 248.48 223.56 246.65C224.51 244.82 225.01 242.76 225.01 240.66L224.85 186.06V31.03C224.84 25.99 222.96 21.17 219.63 17.6C216.3 14.03 211.79 12.02 207.08 12H207.07Z" fill="#D7BA6B"/>
<path fill-rule="evenodd" clip-rule="evenodd" d="M182.45 195.76L81.9496 249.76L80.0596 246.24L180.56 192.24L182.45 195.76Z" fill="black"/>
<path d="M143.5 151C175.256 151 201 125.256 201 93.5C201 61.7436 175.256 36 143.5 36C111.744 36 86 61.7436 86 93.5C86 125.256 111.744 151 143.5 151Z" fill="black"/>
<path fill-rule="evenodd" clip-rule="evenodd" d="M143 47C125.37 47 110.21 57.61 103.58 72.8C103.14 73.81 101.96 74.27 100.95 73.83C99.9401 73.39 99.4701 72.21 99.9201 71.2C107.17 54.6 123.73 43 143.01 43C144.11 43 145.01 43.89 145.01 45C145.01 46.11 144.11 47 143.01 47H143Z" fill="#D7BA6B"/>
<path d="M146.48 60.92L154.57 78.06C154.81 78.57 155.16 79.01 155.6 79.34C156.04 79.67 156.55 79.89 157.08 79.97L175.16 82.7C175.77 82.8 176.35 83.07 176.82 83.49C177.29 83.91 177.64 84.46 177.83 85.07C178.02 85.68 178.05 86.34 177.9 86.97C177.75 87.6 177.44 88.18 177.01 88.63L163.95 101.97C163.56 102.37 163.27 102.85 163.1 103.39C162.93 103.93 162.89 104.5 162.99 105.06L166.08 123.89C166.19 124.53 166.12 125.2 165.88 125.8C165.64 126.4 165.25 126.93 164.75 127.31C164.24 127.69 163.65 127.92 163.02 127.97C162.4 128.02 161.77 127.88 161.22 127.58L145.05 118.67C144.57 118.41 144.04 118.27 143.49 118.27C142.94 118.27 142.41 118.41 141.93 118.67L125.76 127.58C125.21 127.88 124.59 128.02 123.96 127.97C123.34 127.92 122.74 127.69 122.24 127.31C121.74 126.93 121.34 126.4 121.11 125.8C120.88 125.2 120.81 124.53 120.91 123.89L123.99 105.06C124.08 104.5 124.04 103.93 123.88 103.39C123.71 102.85 123.42 102.36 123.03 101.97L109.97 88.63C109.53 88.17 109.22 87.6 109.08 86.97C108.93 86.34 108.96 85.68 109.15 85.07C109.34 84.45 109.69 83.91 110.16 83.49C110.63 83.07 111.21 82.8 111.82 82.7L129.9 79.96C130.44 79.88 130.95 79.66 131.38 79.33C131.82 79 132.17 78.56 132.41 78.05L140.5 60.91C140.78 60.33 141.21 59.85 141.74 59.52C142.27 59.18 142.87 59.01 143.49 59.01C144.11 59.01 144.71 59.19 145.24 59.53C145.76 59.87 146.19 60.35 146.47 60.93L146.48 60.92Z" fill="#D7BA6B"/>
<path d="M143.14 168.34C171.936 168.34 195.28 163.339 195.28 157.17C195.28 151.001 171.936 146 143.14 146C114.344 146 91 151.001 91 157.17C91 163.339 114.344 168.34 143.14 168.34Z" fill="black"/>
<path fill-rule="evenodd" clip-rule="evenodd" d="M40.5595 217.93C37.4595 221.92 35.6095 226.28 33.4495 230.77C33.0295 231.65 33.3995 232.7 34.2795 233.12C35.1595 233.54 36.2095 233.17 36.6295 232.29C38.6695 228.03 40.3995 223.88 43.3395 220.08C43.9395 219.31 43.7995 218.2 43.0195 217.61C42.2495 217.01 41.1395 217.15 40.5495 217.92L40.5595 217.93Z" fill="black"/>
<path fill-rule="evenodd" clip-rule="evenodd" d="M35.0297 205.06C24.4797 208.56 13.4898 214.22 4.58975 220.91C3.80975 221.49 3.65975 222.6 4.24975 223.37C4.83975 224.14 5.93975 224.3 6.71975 223.72C15.3198 217.25 25.9498 211.78 36.1498 208.4C37.0698 208.09 37.5698 207.1 37.2598 206.18C36.9498 205.26 35.9497 204.76 35.0297 205.07V205.06Z" fill="black"/>
<path fill-rule="evenodd" clip-rule="evenodd" d="M36.4499 196.74C30.0799 192.56 22.1499 191.34 14.6899 191.29C13.7199 191.29 12.9199 192.07 12.9199 193.04C12.9199 194.01 13.6999 194.8 14.6699 194.81C21.4599 194.85 28.7099 195.87 34.5099 199.68C35.3199 200.22 36.4199 199.99 36.9499 199.18C37.4799 198.37 37.2599 197.28 36.4499 196.74Z" fill="black"/>
<path d="M248 36C251.314 36 254 33.3137 254 30C254 26.6863 251.314 24 248 24C244.686 24 242 26.6863 242 30C242 33.3137 244.686 36 248 36Z" fill="#D7BA6B"/>
</g>
</g>
<defs>
<clipPath id="clip0_2493_1981">
<rect width="264" height="260" fill="white"/>
</clipPath>
</defs>
</svg>
