<svg width="30" height="30" viewBox="0 0 30 30" fill="none" xmlns="http://www.w3.org/2000/svg">
<g id="phone 1" clip-path="url(#clip0_110_7878)">
<path id="Vector" d="M15.0001 -5.43791e-06C12.0334 -2.08283e-05 9.13324 0.879705 6.66649 2.52793C4.19974 4.17615 2.27714 6.51883 1.14182 9.25973C0.0064972 12.0006 -0.290553 15.0166 0.288232 17.9264C0.867017 20.8361 2.29564 23.5088 4.39344 25.6066C6.56616 27.7778 9.35257 29.2303 12.3767 29.7681C15.4009 30.3059 18.5172 29.9031 21.3052 28.6142C21.5308 28.5096 21.7056 28.3196 21.7911 28.0861C21.8766 27.8527 21.8659 27.5948 21.7612 27.3692C21.6566 27.1437 21.4667 26.9689 21.2332 26.8834C20.9997 26.7979 20.7418 26.8086 20.5163 26.9132C18.7884 27.7161 16.9054 28.1297 15.0001 28.125C7.76294 28.125 1.87508 22.2371 1.87508 15C1.87508 7.76285 7.76294 1.87499 15.0001 1.87499C22.2372 1.87499 28.1251 7.76285 28.1251 15C28.1361 17.9559 27.1386 20.8271 25.2972 23.1394C25.2511 23.1977 25.1931 23.2456 25.127 23.2799C25.061 23.3143 24.9885 23.3342 24.9142 23.3385C24.8399 23.3428 24.7656 23.3314 24.6961 23.3049C24.6265 23.2784 24.5634 23.2375 24.5108 23.1849L23.2435 21.9176L23.7014 21.4597C24.0154 21.1452 24.1918 20.7189 24.1918 20.2744C24.1918 19.8299 24.0154 19.4036 23.7014 19.0891L20.458 15.8457C20.1434 15.5318 19.7171 15.3555 19.2727 15.3555C18.8283 15.3555 18.402 15.5318 18.0874 15.8457L16.6629 17.2701C15.2818 16.2257 13.7742 14.7182 12.7299 13.3372L14.1544 11.9127C14.4683 11.5981 14.6446 11.1718 14.6446 10.7274C14.6446 10.2829 14.4683 9.85666 14.1544 9.54204L10.911 6.29882C10.5964 5.98492 10.1701 5.80862 9.72568 5.80862C9.28125 5.80862 8.85497 5.98492 8.54036 6.29882L6.73503 8.10421C6.37077 8.45891 6.10013 8.89838 5.94734 9.3833C5.79454 9.86822 5.76435 10.3835 5.85946 10.8829C6.82667 16.3586 13.6415 23.1734 19.1172 24.1406C19.3091 24.1748 19.5036 24.1921 19.6985 24.1924C20.1082 24.1926 20.5137 24.1106 20.8911 23.9513C21.2686 23.7919 21.6102 23.5585 21.8958 23.2649L21.9175 23.2433L23.1847 24.5105C23.4243 24.7502 23.712 24.9364 24.0287 25.057C24.3454 25.1776 24.6841 25.2298 25.0225 25.2102C25.3608 25.1906 25.6912 25.0996 25.9919 24.9433C26.2926 24.7869 26.5568 24.5687 26.7671 24.3029C29.047 21.4187 30.1884 17.7977 29.9745 14.1274C29.7606 10.4571 28.2063 6.99318 25.6067 4.39335C24.2171 2.99612 22.5641 1.88838 20.7435 1.13426C18.9228 0.380138 16.9707 -0.0053882 15.0001 -5.43791e-06ZM19.4434 22.2944C17.2312 21.9036 14.4935 20.2533 12.1201 17.8799C9.7468 15.5065 8.09651 12.7689 7.70569 10.5567C7.66424 10.3541 7.6751 10.1444 7.73724 9.94722C7.79938 9.75006 7.91075 9.572 8.06083 9.42984L9.72571 7.7649L12.6881 10.7273L11.1041 12.3113C10.8727 12.5417 10.7307 12.8468 10.7034 13.1722C10.6761 13.4977 10.7654 13.8222 10.9553 14.0879C12.2068 15.8476 14.1525 17.7933 15.9123 19.0449C16.178 19.2348 16.5025 19.324 16.828 19.2968C17.1534 19.2695 17.4585 19.1274 17.6889 18.896L19.2728 17.3121L22.2352 20.2745L20.5702 21.9393C20.4281 22.0893 20.25 22.2007 20.0528 22.2628C19.8557 22.325 19.6459 22.3358 19.4434 22.2944Z" fill="black"/>
</g>
<defs>
<clipPath id="clip0_110_7878">
<rect width="30" height="30" fill="white"/>
</clipPath>
</defs>
</svg>
