<svg width="240" height="240" viewBox="0 0 240 240" fill="none" xmlns="http://www.w3.org/2000/svg">
<path d="M185.698 131.362C185.698 133.433 184.019 135.112 181.948 135.112H133.926C131.855 135.112 130.176 133.433 130.176 131.362C130.176 129.291 131.855 127.612 133.926 127.612H181.948C184.019 127.612 185.698 129.291 185.698 131.362ZM167.93 112.576C167.93 110.505 166.251 108.826 164.18 108.826H60.2959C58.225 108.826 56.5459 110.505 56.5459 112.576C56.5459 114.647 58.225 116.326 60.2959 116.326H164.18C166.251 116.326 167.93 114.647 167.93 112.576ZM60.2959 88.146H181.948C184.019 88.146 185.698 86.4669 185.698 84.396C185.698 82.325 184.019 80.646 181.948 80.646H60.2959C58.225 80.646 56.5459 82.325 56.5459 84.396C56.5459 86.4669 58.2245 88.146 60.2959 88.146ZM60.2959 102.236H162.388C164.459 102.236 166.138 100.557 166.138 98.4861C166.138 96.4152 164.459 94.7361 162.388 94.7361H60.2959C58.225 94.7361 56.5459 96.4152 56.5459 98.4861C56.5459 100.557 58.2245 102.236 60.2959 102.236ZM169.352 145.452C169.352 143.381 167.673 141.702 165.602 141.702H133.926C131.855 141.702 130.176 143.381 130.176 145.452C130.176 147.523 131.855 149.202 133.926 149.202H165.602C167.673 149.202 169.352 147.523 169.352 145.452ZM111.337 69.3599H111.34L181.951 69.3027C184.022 69.3013 185.7 67.6208 185.698 65.5499C185.696 63.4794 184.018 61.8027 181.948 61.8027C181.947 61.8027 181.946 61.8027 181.945 61.8027L111.334 61.8599C109.263 61.8613 107.586 63.5418 107.587 65.6127C107.589 67.6827 109.267 69.3599 111.337 69.3599ZM112.37 55.2697H154.018C156.089 55.2697 157.768 53.5907 157.768 51.5197C157.768 49.4488 156.089 47.7697 154.018 47.7697H112.37C110.299 47.7697 108.62 49.4488 108.62 51.5197C108.62 53.5907 110.298 55.2697 112.37 55.2697ZM112.37 41.18H154.018C156.089 41.18 157.768 39.501 157.768 37.43C157.768 35.3591 156.089 33.68 154.018 33.68H112.37C110.299 33.68 108.62 35.3591 108.62 37.43C108.62 39.501 110.298 41.18 112.37 41.18ZM50.4105 204.821C37.8241 204.821 27.5847 194.581 27.5847 181.995C27.5847 169.409 37.8245 159.169 50.4105 159.169C62.9969 159.169 73.2367 169.409 73.2367 181.995C73.2367 194.581 62.9969 204.821 50.4105 204.821ZM65.7367 181.995C65.7367 173.544 58.8616 166.669 50.4105 166.669C41.9594 166.669 35.0847 173.544 35.0847 181.995C35.0847 190.446 41.9598 197.321 50.4105 197.321C58.8611 197.321 65.7367 190.446 65.7367 181.995ZM230.527 191.279C230.527 213.118 212.76 230.885 190.921 230.885C178.512 230.885 167.423 225.145 160.156 216.185H82.5747L84.3025 220.197C84.8552 221.48 84.6489 222.963 83.7672 224.047C82.8859 225.131 81.4745 225.634 80.1062 225.354L71.5853 223.609L66.9991 230.999C66.3119 232.106 65.1039 232.772 63.8134 232.772C63.7206 232.772 63.6278 232.768 63.5341 232.761C62.1409 232.657 60.9212 231.788 60.3686 230.505L54.4094 216.67C54.3681 216.658 54.3245 216.644 54.2842 216.632C52.2245 215.997 51.0902 215.646 50.4105 215.646C50.0055 215.646 49.4327 215.773 48.6044 216.008L40.1889 234.084C39.5992 235.35 38.3547 236.184 36.9592 236.247C36.902 236.249 36.8453 236.251 36.7886 236.251C35.4573 236.251 34.2203 235.544 33.5467 234.385L29.1766 226.865L20.6088 228.362C19.2316 228.603 17.837 228.058 16.9872 226.949C16.1373 225.841 15.9742 224.352 16.5639 223.085L24.6231 205.774C24.37 205.667 24.1089 205.556 23.8328 205.438C19.4847 203.575 16.9398 199.168 17.5014 194.471C17.59 193.728 17.673 193.067 17.7475 192.474C18.0156 190.335 18.1633 189.157 18.0456 188.488C17.9275 187.82 17.3861 186.763 16.4027 184.845C16.1298 184.313 15.8261 183.721 15.4886 183.053C13.3544 178.831 14.2384 173.819 17.6875 170.582C18.2331 170.07 18.7211 169.618 19.1598 169.211C20.74 167.745 21.6105 166.938 21.9498 166.349C22.2897 165.761 22.5536 164.604 23.0331 162.502C23.1663 161.919 23.3144 161.27 23.485 160.542C24.5641 155.936 28.4627 152.665 33.1853 152.402C33.932 152.361 34.5972 152.327 35.1944 152.297C37.3473 152.19 38.5333 152.131 39.1713 151.899C39.5266 151.769 39.9836 151.484 40.6089 151.037V56.2588C37.6539 55.6916 34.2672 55.0489 30.4023 54.3425C28.6211 54.0168 27.3269 52.4647 27.3269 50.6535V27.2249L22.5095 25.9452V51.4396L26.1714 53.5536C27.3316 54.2235 28.0464 55.4614 28.0464 56.8011V70.9532C28.0464 72.3744 27.243 73.6733 25.9713 74.3085C25.4411 74.5729 24.8678 74.7032 24.2969 74.7032C23.4981 74.7032 22.705 74.4486 22.0427 73.9504L18.7595 71.4815L15.4764 73.9504C14.3406 74.8049 12.8195 74.9436 11.5478 74.3085C10.2766 73.6738 9.47266 72.3749 9.47266 70.9532V56.8011C9.47266 55.4614 10.1875 54.2235 11.3477 53.5536L15.0095 51.4391V23.953L14.8825 23.9193C13.2391 23.4829 12.0953 21.9955 12.0953 20.2949C12.0953 18.5943 13.2391 17.1069 14.8825 16.6705L63.0508 3.87551C63.6817 3.70816 64.3455 3.70816 64.9759 3.87551L86.9022 9.69973H171.349C173.453 9.69973 175.351 10.4858 176.838 11.9732L199.362 34.4975C200.849 35.9839 201.635 37.8819 201.635 39.9857V153.157C218.283 157.844 230.527 173.153 230.527 191.279ZM20.5459 58.9668L18.7591 57.935L16.9722 58.9668V63.493C17.5286 63.1911 18.1441 63.0402 18.7591 63.0402C19.3741 63.0402 19.9895 63.1911 20.5459 63.493V58.9668ZM176.761 22.5027V34.5739H188.832L176.761 22.5027ZM30.4516 20.2949L64.0136 29.21L97.5752 20.2949L64.0136 11.3797L30.4516 20.2949ZM34.8264 47.5316C39.1014 48.3266 42.7295 49.0279 45.7572 49.6129C64.0136 53.1421 64.0141 53.1421 82.2695 49.6129C85.2967 49.0279 88.9258 48.3261 93.2003 47.5316V29.2171L64.9764 36.7143C64.6609 36.7982 64.3375 36.8399 64.0136 36.8399C63.6897 36.8399 63.3662 36.7982 63.0508 36.7143L34.8264 29.2171V47.5316ZM39.6316 217.51C36.8617 217.004 34.3502 215.39 32.7142 212.888C32.3045 212.263 31.9431 211.703 31.6188 211.2C31.3492 210.782 31.1102 210.412 30.8913 210.078L26.395 219.736L30.46 219.026C32.0064 218.756 33.5584 219.478 34.3478 220.836L36.4211 224.404L39.6316 217.51ZM56.4953 209.464C57.0541 209.637 57.677 209.829 58.3773 210.04C59.732 210.449 61.0553 209.968 61.8302 208.783C62.2305 208.171 62.5844 207.623 62.9017 207.132C66.1295 202.133 66.7398 201.621 72.2237 199.31C72.7628 199.083 73.3633 198.83 74.0355 198.542C75.3367 197.984 76.0408 196.765 75.8725 195.359C75.7853 194.633 75.7047 193.986 75.6316 193.406C74.8909 187.501 75.0292 186.717 77.7447 181.422C78.0119 180.901 78.3091 180.321 78.6391 179.668C79.278 178.405 79.0333 177.018 78.0011 176.05C77.4672 175.549 76.9895 175.106 76.5606 174.708C72.198 170.661 71.8 169.971 70.4767 164.169C70.3464 163.599 70.2016 162.964 70.0347 162.251C69.7117 160.873 68.6331 159.968 67.2198 159.889C66.4891 159.848 65.8389 159.816 65.2544 159.787C59.3102 159.491 58.5625 159.219 53.8188 155.625C53.3523 155.271 52.833 154.878 52.247 154.44C51.6803 154.016 51.0452 153.804 50.4095 153.804C49.7739 153.804 49.1388 154.016 48.5725 154.44C47.9866 154.878 47.4677 155.271 47.0008 155.625C42.2575 159.219 41.5094 159.491 35.5652 159.787C34.9806 159.816 34.33 159.848 33.5997 159.889C32.1864 159.967 31.1078 160.873 30.7848 162.251C30.618 162.964 30.4731 163.599 30.3428 164.169C29.0191 169.971 28.6211 170.661 24.2589 174.708C23.8295 175.106 23.3519 175.549 22.8184 176.05C21.7863 177.018 21.542 178.405 22.1805 179.668C22.5105 180.321 22.8077 180.901 23.0748 181.422C25.7898 186.718 25.9281 187.501 25.188 193.406C25.1153 193.986 25.0342 194.633 24.947 195.359C24.7792 196.765 25.4833 197.984 26.7841 198.542C27.4567 198.83 28.0567 199.083 28.5958 199.31C34.0802 201.621 34.69 202.133 37.9183 207.132C38.2356 207.624 38.5891 208.171 38.9898 208.783C39.7642 209.968 41.0866 210.449 42.4422 210.04C43.143 209.828 43.7655 209.637 44.3242 209.464C50.0134 207.71 50.8094 207.71 56.4953 209.464ZM74.5722 216.564L71.0748 208.445C70.6253 208.999 70.0539 209.881 69.2022 211.2C68.8778 211.703 68.5164 212.263 68.1067 212.889C66.7863 214.908 64.8939 216.346 62.7573 217.093L64.4139 220.94L66.5903 217.433C67.4186 216.099 68.9903 215.421 70.5287 215.737L74.5722 216.564ZM155.354 208.685C152.771 203.428 151.315 197.521 151.315 191.279C151.315 169.44 169.082 151.673 190.921 151.673C192.004 151.673 193.074 151.729 194.136 151.814V42.0739H175.017C171.843 42.0739 169.262 39.4921 169.262 36.3182V17.1997H114.297C115.298 17.8841 115.931 19.0302 115.931 20.2949C115.931 21.995 114.788 23.4829 113.144 23.9193L100.7 27.2249V50.6535C100.7 52.4643 99.4056 54.0168 97.6244 54.3425C92.0247 55.3663 87.4047 56.2593 83.6927 56.9774C73.9445 58.8618 68.9786 59.8039 64.0131 59.8039C59.733 59.8039 55.45 59.1036 48.108 57.7035V146.573C51.0461 145.908 54.1895 146.526 56.7419 148.436C57.3405 148.884 57.8716 149.286 58.3483 149.647C60.0662 150.949 61.0127 151.666 61.6506 151.898C62.2891 152.131 63.475 152.19 65.6275 152.297C66.2247 152.326 66.8898 152.36 67.6366 152.401C72.3597 152.664 76.2578 155.935 77.3369 160.541C77.5075 161.27 77.6556 161.919 77.7887 162.502C78.2678 164.603 78.5322 165.761 78.872 166.349C79.2114 166.937 80.0819 167.744 81.662 169.21C82.1008 169.617 82.5887 170.07 83.1344 170.582C86.5839 173.819 87.4675 178.831 85.3333 183.053C84.9958 183.72 84.692 184.313 84.4192 184.845C83.4358 186.763 82.8944 187.819 82.7763 188.488C82.6586 189.157 82.8058 190.335 83.0744 192.473C83.1489 193.067 83.2314 193.728 83.3205 194.47C83.8469 198.874 81.6437 203.022 77.7827 205.058L79.3445 208.685H155.354V208.685ZM223.027 191.279C223.027 173.576 208.624 159.173 190.921 159.173C173.217 159.173 158.815 173.576 158.815 191.279C158.815 208.982 173.217 223.385 190.921 223.385C208.624 223.385 223.027 208.982 223.027 191.279ZM217.337 180.44C217.337 183.136 216.292 185.666 214.393 187.564L192.702 209.255C190.784 211.173 188.381 212.186 185.817 212.186C185.314 212.186 184.805 212.147 184.293 212.069C181.801 211.686 179.313 210.36 177.287 208.335L167.447 198.496C163.519 194.568 163.519 188.175 167.447 184.247C171.376 180.319 177.768 180.319 181.697 184.247L185.455 188.005L200.144 173.315C204.073 169.386 210.465 169.386 214.393 173.315C216.292 175.213 217.337 177.743 217.337 180.44ZM209.837 180.44C209.837 179.747 209.572 179.1 209.09 178.618C208.609 178.137 207.962 177.871 207.269 177.871C206.576 177.871 205.929 178.136 205.448 178.618L188.106 195.96C187.403 196.663 186.449 197.058 185.455 197.058C184.46 197.058 183.506 196.663 182.803 195.96L176.394 189.551C175.892 189.049 175.232 188.798 174.573 188.798C173.913 188.798 173.253 189.049 172.751 189.551C171.764 190.538 171.764 192.207 172.751 193.194L182.59 203.033C183.482 203.925 184.517 204.517 185.43 204.657C186.198 204.774 186.788 204.564 187.399 203.953L209.09 182.262C209.572 181.779 209.837 181.132 209.837 180.44Z" fill="black"/>
</svg>
