<svg width="36" height="36" viewBox="0 0 36 36" fill="none" xmlns="http://www.w3.org/2000/svg">
<g id="chat 1">
<g id="Group">
<g id="Group_2">
<path id="Vector" d="M22.2891 2.18124H3.16406C1.41321 2.18124 0 3.59446 0 5.34531V18.0016C0 19.7523 1.41321 21.1656 3.16406 21.1656H4.21875V24.3297C4.21875 25.0917 5.00773 25.6435 5.77969 25.2578C5.80078 25.2367 5.84304 25.2367 5.86413 25.2155C11.666 21.3248 10.3658 22.1923 11.6649 21.3343C11.8336 21.2288 12.0234 21.1656 12.2344 21.1656H22.2891C24.0399 21.1656 25.4531 19.7523 25.4531 18.0016V5.34531C25.4531 3.59446 24.0399 2.18124 22.2891 2.18124ZM13.8516 14.8375H5.27344C3.88315 14.8375 3.87745 12.7281 5.27344 12.7281H13.8516C15.2419 12.7281 15.2475 14.8375 13.8516 14.8375ZM20.1797 10.6187H5.27344C3.88315 10.6187 3.87745 8.50937 5.27344 8.50937H20.1797C21.57 8.50937 21.5757 10.6187 20.1797 10.6187Z" fill="#A19061"/>
</g>
</g>
<g id="Group_3">
<g id="Group_4">
<path id="Vector_2" d="M32.8359 10.6187H27.5625V18.0016C27.5625 20.9125 25.2 23.275 22.2891 23.275H12.5508L10.5469 24.6039V26.4391C10.5469 28.1898 11.9601 29.6031 13.7109 29.6031H24.082L30.1359 33.6531C30.9622 34.1118 31.7812 33.5539 31.7812 32.7672V29.6031H32.8359C34.5868 29.6031 36 28.1898 36 26.4391V13.7828C36 12.032 34.5868 10.6187 32.8359 10.6187Z" fill="#A19061"/>
</g>
</g>
</g>
</svg>
