<svg width="21" height="22" viewBox="0 0 21 22" fill="none" xmlns="http://www.w3.org/2000/svg">
<path d="M6.1579 4.5C5.73739 4.5 5.38867 4.16 5.38867 3.75V0.75C5.38867 0.34 5.73739 0 6.1579 0C6.57842 0 6.92713 0.34 6.92713 0.75V3.75C6.92713 4.16 6.57842 4.5 6.1579 4.5Z" fill="#929292"/>
<path d="M14.3637 4.5C13.9432 4.5 13.5945 4.16 13.5945 3.75V0.75C13.5945 0.34 13.9432 0 14.3637 0C14.7842 0 15.1329 0.34 15.1329 0.75V3.75C15.1329 4.16 14.7842 4.5 14.3637 4.5Z" fill="#929292"/>
<path d="M6.67139 13.2503C6.53806 13.2503 6.40473 13.2203 6.28165 13.1703C6.14832 13.1203 6.04575 13.0503 5.94319 12.9603C5.75857 12.7703 5.64575 12.5203 5.64575 12.2503C5.64575 12.1203 5.67652 11.9903 5.7278 11.8703C5.77909 11.7503 5.85088 11.6403 5.94319 11.5403C6.04575 11.4503 6.14832 11.3803 6.28165 11.3303C6.65088 11.1803 7.11242 11.2603 7.3996 11.5403C7.58421 11.7303 7.69703 11.9903 7.69703 12.2503C7.69703 12.3103 7.68678 12.3803 7.67652 12.4503C7.66626 12.5103 7.64575 12.5703 7.61498 12.6303C7.59447 12.6903 7.5637 12.7503 7.52267 12.8103C7.49191 12.8603 7.44062 12.9103 7.3996 12.9603C7.20473 13.1403 6.93806 13.2503 6.67139 13.2503Z" fill="#929292"/>
<path d="M10.2615 13.2499C10.1281 13.2499 9.99481 13.2199 9.87174 13.1699C9.7384 13.1199 9.63584 13.0499 9.53328 12.9599C9.34866 12.7699 9.23584 12.5199 9.23584 12.2499C9.23584 12.1199 9.26661 11.9899 9.31789 11.8699C9.36917 11.7499 9.44097 11.6399 9.53328 11.5399C9.63584 11.4499 9.7384 11.3799 9.87174 11.3299C10.241 11.1699 10.7025 11.2599 10.9897 11.5399C11.1743 11.7299 11.2871 11.9899 11.2871 12.2499C11.2871 12.3099 11.2769 12.3799 11.2666 12.4499C11.2564 12.5099 11.2358 12.5699 11.2051 12.6299C11.1846 12.6899 11.1538 12.7499 11.1128 12.8099C11.082 12.8599 11.0307 12.9099 10.9897 12.9599C10.7948 13.1399 10.5281 13.2499 10.2615 13.2499Z" fill="#929292"/>
<path d="M13.8511 13.2499C13.7177 13.2499 13.5844 13.2199 13.4613 13.1699C13.328 13.1199 13.2254 13.0499 13.1229 12.9599C13.0818 12.9099 13.0408 12.8599 12.9998 12.8099C12.9588 12.7499 12.928 12.6899 12.9075 12.6299C12.8767 12.5699 12.8562 12.5099 12.846 12.4499C12.8357 12.3799 12.8254 12.3099 12.8254 12.2499C12.8254 11.9899 12.9383 11.7299 13.1229 11.5399C13.2254 11.4499 13.328 11.3799 13.4613 11.3299C13.8408 11.1699 14.2921 11.2599 14.5793 11.5399C14.7639 11.7299 14.8767 11.9899 14.8767 12.2499C14.8767 12.3099 14.8665 12.3799 14.8562 12.4499C14.846 12.5099 14.8254 12.5699 14.7947 12.6299C14.7742 12.6899 14.7434 12.7499 14.7024 12.8099C14.6716 12.8599 14.6203 12.9099 14.5793 12.9599C14.3844 13.1399 14.1177 13.2499 13.8511 13.2499Z" fill="#929292"/>
<path d="M6.67139 16.7501C6.53806 16.7501 6.40473 16.7202 6.28165 16.6702C6.15857 16.6202 6.04575 16.5501 5.94319 16.4601C5.75857 16.2701 5.64575 16.0101 5.64575 15.7501C5.64575 15.6201 5.67652 15.4901 5.7278 15.3701C5.77909 15.2401 5.85088 15.1302 5.94319 15.0402C6.32267 14.6702 7.02011 14.6702 7.3996 15.0402C7.58421 15.2302 7.69703 15.4901 7.69703 15.7501C7.69703 16.0101 7.58421 16.2701 7.3996 16.4601C7.20473 16.6401 6.93806 16.7501 6.67139 16.7501Z" fill="#929292"/>
<path d="M10.2615 16.7501C9.99481 16.7501 9.72815 16.6401 9.53328 16.4601C9.34866 16.2701 9.23584 16.0101 9.23584 15.7501C9.23584 15.6201 9.26661 15.4901 9.31789 15.3701C9.36917 15.2401 9.44097 15.1302 9.53328 15.0402C9.91276 14.6702 10.6102 14.6702 10.9897 15.0402C11.082 15.1302 11.1538 15.2401 11.2051 15.3701C11.2564 15.4901 11.2871 15.6201 11.2871 15.7501C11.2871 16.0101 11.1743 16.2701 10.9897 16.4601C10.7948 16.6401 10.5281 16.7501 10.2615 16.7501Z" fill="#929292"/>
<path d="M13.8511 16.7499C13.5844 16.7499 13.3177 16.6399 13.1229 16.4599C13.0306 16.3699 12.9588 16.2599 12.9075 16.1299C12.8562 16.0099 12.8254 15.8799 12.8254 15.7499C12.8254 15.6199 12.8562 15.4899 12.9075 15.3699C12.9588 15.2399 13.0306 15.1299 13.1229 15.0399C13.3588 14.8099 13.7177 14.6999 14.046 14.7699C14.1177 14.7799 14.1793 14.7999 14.2408 14.8299C14.3024 14.8499 14.3639 14.8799 14.4254 14.9199C14.4767 14.9499 14.528 14.9999 14.5793 15.0399C14.7639 15.2299 14.8767 15.4899 14.8767 15.7499C14.8767 16.0099 14.7639 16.2699 14.5793 16.4599C14.3844 16.6399 14.1177 16.7499 13.8511 16.7499Z" fill="#929292"/>
<path d="M18.9788 8.58984H1.54291C1.1224 8.58984 0.773682 8.24984 0.773682 7.83984C0.773682 7.42984 1.1224 7.08984 1.54291 7.08984H18.9788C19.3993 7.08984 19.748 7.42984 19.748 7.83984C19.748 8.24984 19.3993 8.58984 18.9788 8.58984Z" fill="#929292"/>
<path d="M14.3638 21.5H6.15867C2.41508 21.5 0.26123 19.4 0.26123 15.75V7.25C0.26123 3.6 2.41508 1.5 6.15867 1.5H14.3638C18.1074 1.5 20.2612 3.6 20.2612 7.25V15.75C20.2612 19.4 18.1074 21.5 14.3638 21.5ZM6.15867 3C3.22533 3 1.79969 4.39 1.79969 7.25V15.75C1.79969 18.61 3.22533 20 6.15867 20H14.3638C17.2971 20 18.7228 18.61 18.7228 15.75V7.25C18.7228 4.39 17.2971 3 14.3638 3H6.15867Z" fill="#929292"/>
</svg>
