<svg width="195" height="169" viewBox="0 0 195 169" fill="none" xmlns="http://www.w3.org/2000/svg">
<g opacity="0.5">
<path fill-rule="evenodd" clip-rule="evenodd" d="M-60.3292 98.0477C-30.2591 117.703 -24.8961 63.4495 5.25213 77.5227C89.7443 116.964 70.2704 41.0432 117.268 65.0267C190.652 102.476 77.4353 254.374 50.9342 260.502C26.1811 266.225 8.45805 261.834 -15.2603 243.191C-38.9786 224.548 -55.8101 211.58 -79.0223 205.86C-101.89 200.224 -132.576 189.368 -145.65 147.265C-150.312 132.249 -161.207 69.9913 -139.402 58.6949C-122.082 49.7218 -79.5165 85.506 -60.3292 98.0477Z" fill="#EFDFB2"/>
<path fill-rule="evenodd" clip-rule="evenodd" d="M-47.878 117.438C-17.8079 137.093 -12.4449 82.8402 17.7033 96.9134C102.195 136.354 82.7216 60.4339 129.719 84.4173C203.103 121.866 89.8865 273.765 63.3854 279.892C38.6323 285.616 20.9092 281.225 -2.80909 262.582C-26.5274 243.939 -43.3589 230.971 -66.5711 225.25C-89.4389 219.614 -120.125 208.758 -133.199 166.655C-137.861 151.64 -148.756 89.3819 -126.951 78.0855C-109.631 69.1124 -67.0653 104.897 -47.878 117.438Z" stroke="#A19061"/>
</g>
</svg>
