<svg width="246" height="189" viewBox="0 0 246 189" fill="none" xmlns="http://www.w3.org/2000/svg">
<g opacity="0.5">
<path fill-rule="evenodd" clip-rule="evenodd" d="M315.076 105.577C341.375 82.8884 377.182 41.7643 384.772 21.2224C396.331 -10.058 381.417 -30.4178 350.523 -45.38C292.554 -73.4544 199.498 -49.1265 166.677 -20.8048C136.022 5.64883 127.112 24.9654 134.797 51.3816C142.483 77.7977 147.535 96.5321 135.819 121.83C124.277 146.752 130.083 161.26 147.6 166.526C166.546 172.221 192.69 171.243 224.026 159.935C255.994 148.397 288.784 128.259 315.076 105.577Z" fill="#EFDFB2"/>
<path fill-rule="evenodd" clip-rule="evenodd" d="M315.076 73.5922C341.375 50.904 377.182 9.77997 384.772 -10.762C396.331 -42.0424 381.417 -62.4022 350.523 -77.3644C292.554 -105.439 199.498 -81.1109 166.677 -52.7892C136.022 -26.3356 127.112 -7.01894 134.797 19.3972C142.483 45.8133 147.535 64.5477 135.819 89.8455C124.277 114.768 130.083 129.275 147.6 134.541C166.546 140.237 192.69 139.259 224.026 127.95C255.994 116.413 288.784 96.2746 315.076 73.5922Z" stroke="#A19061"/>
</g>
</svg>
