<svg width="851" height="180" viewBox="0 0 851 180" fill="none" xmlns="http://www.w3.org/2000/svg">
<rect x="0.5" y="0.5" width="850" height="179" rx="19.5" fill="white" stroke="#DDDDDD" stroke-dasharray="5 5"/>
<path d="M338.144 114H333.906V100.909H338.278C339.561 100.909 340.662 101.171 341.583 101.695C342.503 102.215 343.209 102.963 343.699 103.939C344.193 104.911 344.44 106.076 344.44 107.435C344.44 108.799 344.191 109.971 343.692 110.951C343.198 111.931 342.482 112.685 341.544 113.214C340.607 113.738 339.473 114 338.144 114ZM335.881 112.274H338.035C339.032 112.274 339.861 112.087 340.522 111.712C341.182 111.332 341.677 110.785 342.005 110.069C342.333 109.349 342.497 108.471 342.497 107.435C342.497 106.408 342.333 105.537 342.005 104.821C341.681 104.105 341.197 103.562 340.554 103.191C339.91 102.82 339.111 102.635 338.157 102.635H335.881V112.274ZM346.743 114V104.182H348.59V105.741H348.692C348.871 105.213 349.187 104.798 349.638 104.495C350.094 104.188 350.61 104.035 351.185 104.035C351.305 104.035 351.445 104.039 351.607 104.048C351.773 104.056 351.903 104.067 351.997 104.08V105.908C351.92 105.886 351.784 105.863 351.588 105.837C351.392 105.808 351.196 105.793 351 105.793C350.548 105.793 350.146 105.888 349.792 106.08C349.442 106.268 349.165 106.53 348.961 106.866C348.756 107.199 348.654 107.578 348.654 108.004V114H346.743ZM356.42 114.217C355.798 114.217 355.236 114.102 354.733 113.872C354.23 113.638 353.832 113.299 353.538 112.856C353.248 112.413 353.103 111.869 353.103 111.226C353.103 110.672 353.209 110.216 353.422 109.858C353.636 109.5 353.923 109.217 354.285 109.008C354.648 108.799 355.052 108.641 355.5 108.535C355.947 108.428 356.403 108.347 356.868 108.292C357.456 108.224 357.933 108.168 358.3 108.126C358.666 108.079 358.932 108.004 359.099 107.902C359.265 107.8 359.348 107.634 359.348 107.403V107.359C359.348 106.8 359.19 106.368 358.875 106.061C358.564 105.754 358.099 105.601 357.481 105.601C356.838 105.601 356.331 105.744 355.96 106.029C355.594 106.31 355.34 106.624 355.199 106.969L353.403 106.56C353.616 105.963 353.927 105.482 354.337 105.115C354.75 104.744 355.225 104.476 355.762 104.31C356.299 104.139 356.864 104.054 357.456 104.054C357.848 104.054 358.263 104.101 358.702 104.195C359.146 104.284 359.559 104.45 359.942 104.693C360.33 104.936 360.648 105.283 360.895 105.735C361.142 106.183 361.266 106.764 361.266 107.48V114H359.399V112.658H359.322C359.199 112.905 359.013 113.148 358.766 113.386C358.519 113.625 358.202 113.823 357.814 113.981C357.426 114.138 356.962 114.217 356.42 114.217ZM356.836 112.683C357.364 112.683 357.816 112.579 358.191 112.37C358.57 112.161 358.858 111.888 359.054 111.552C359.254 111.211 359.354 110.847 359.354 110.459V109.193C359.286 109.261 359.154 109.325 358.958 109.385C358.766 109.44 358.547 109.489 358.3 109.532C358.052 109.57 357.812 109.607 357.577 109.641C357.343 109.67 357.147 109.696 356.989 109.717C356.619 109.764 356.28 109.843 355.973 109.954C355.67 110.065 355.427 110.224 355.244 110.433C355.065 110.638 354.976 110.911 354.976 111.251C354.976 111.724 355.15 112.082 355.5 112.325C355.849 112.564 356.295 112.683 356.836 112.683ZM367.928 117.886C367.148 117.886 366.477 117.784 365.914 117.58C365.356 117.375 364.9 117.104 364.546 116.768C364.193 116.431 363.928 116.063 363.754 115.662L365.396 114.984C365.511 115.172 365.665 115.37 365.857 115.579C366.053 115.792 366.317 115.973 366.649 116.122C366.986 116.271 367.418 116.346 367.947 116.346C368.671 116.346 369.27 116.169 369.743 115.815C370.216 115.466 370.453 114.908 370.453 114.141V112.21H370.331C370.216 112.419 370.05 112.651 369.832 112.907C369.619 113.163 369.325 113.384 368.95 113.572C368.575 113.759 368.087 113.853 367.487 113.853C366.711 113.853 366.012 113.672 365.39 113.31C364.772 112.943 364.282 112.404 363.92 111.692C363.562 110.977 363.383 110.097 363.383 109.053C363.383 108.009 363.56 107.114 363.913 106.368C364.271 105.622 364.761 105.051 365.384 104.655C366.006 104.254 366.711 104.054 367.499 104.054C368.109 104.054 368.601 104.156 368.976 104.361C369.351 104.561 369.643 104.795 369.852 105.064C370.065 105.332 370.229 105.569 370.344 105.773H370.484V104.182H372.357V114.217C372.357 115.061 372.161 115.754 371.769 116.295C371.377 116.836 370.847 117.237 370.178 117.496C369.513 117.756 368.763 117.886 367.928 117.886ZM367.908 112.268C368.458 112.268 368.923 112.14 369.302 111.884C369.685 111.624 369.975 111.254 370.171 110.772C370.372 110.286 370.472 109.705 370.472 109.027C370.472 108.366 370.374 107.785 370.178 107.282C369.982 106.779 369.694 106.387 369.315 106.106C368.935 105.82 368.467 105.678 367.908 105.678C367.333 105.678 366.854 105.827 366.47 106.125C366.087 106.419 365.797 106.82 365.601 107.327C365.409 107.834 365.313 108.401 365.313 109.027C365.313 109.67 365.411 110.235 365.607 110.721C365.803 111.207 366.093 111.586 366.477 111.859C366.864 112.131 367.342 112.268 367.908 112.268ZM383.494 114.185C382.616 114.185 381.86 114.026 381.225 113.706C380.594 113.386 380.108 112.952 379.767 112.402C379.426 111.848 379.256 111.222 379.256 110.523C379.256 109.99 379.367 109.517 379.588 109.104C379.81 108.686 380.119 108.3 380.515 107.947C380.911 107.593 381.37 107.237 381.889 106.879L383.999 105.39C384.357 105.156 384.636 104.908 384.836 104.648C385.036 104.384 385.137 104.058 385.137 103.67C385.137 103.364 385.005 103.07 384.74 102.788C384.476 102.507 384.122 102.366 383.679 102.366C383.372 102.366 383.102 102.441 382.867 102.59C382.637 102.739 382.456 102.931 382.324 103.165C382.196 103.396 382.132 103.638 382.132 103.894C382.132 104.192 382.213 104.493 382.375 104.795C382.541 105.098 382.755 105.411 383.014 105.735C383.274 106.055 383.547 106.387 383.833 106.732L389.911 114H387.751L382.72 108.087C382.299 107.589 381.907 107.12 381.544 106.681C381.182 106.238 380.888 105.79 380.662 105.339C380.441 104.883 380.33 104.391 380.33 103.862C380.33 103.261 380.466 102.729 380.739 102.264C381.016 101.795 381.402 101.429 381.896 101.165C382.39 100.901 382.97 100.768 383.634 100.768C384.308 100.768 384.885 100.901 385.367 101.165C385.853 101.425 386.225 101.772 386.485 102.207C386.75 102.637 386.882 103.108 386.882 103.619C386.882 104.241 386.726 104.791 386.415 105.268C386.108 105.741 385.684 106.176 385.143 106.572L382.516 108.509C382.005 108.884 381.649 109.255 381.448 109.621C381.252 109.984 381.154 110.267 381.154 110.472C381.154 110.847 381.25 111.194 381.442 111.513C381.638 111.833 381.911 112.089 382.26 112.281C382.614 112.472 383.027 112.568 383.5 112.568C383.986 112.568 384.459 112.464 384.919 112.255C385.384 112.042 385.804 111.737 386.179 111.341C386.558 110.945 386.858 110.469 387.08 109.915C387.301 109.362 387.412 108.741 387.412 108.055H389.138C389.138 108.899 389.042 109.613 388.85 110.197C388.659 110.776 388.426 111.249 388.154 111.616C387.885 111.978 387.632 112.261 387.393 112.466C387.316 112.534 387.244 112.602 387.176 112.67C387.108 112.739 387.035 112.807 386.958 112.875C386.515 113.322 385.978 113.653 385.348 113.866C384.721 114.079 384.103 114.185 383.494 114.185ZM399.848 114.192C399.055 114.192 398.348 113.989 397.726 113.585C397.108 113.175 396.622 112.594 396.268 111.839C395.919 111.081 395.744 110.171 395.744 109.11C395.744 108.049 395.921 107.141 396.275 106.387C396.633 105.633 397.123 105.055 397.745 104.655C398.367 104.254 399.072 104.054 399.861 104.054C400.47 104.054 400.96 104.156 401.331 104.361C401.706 104.561 401.996 104.795 402.2 105.064C402.409 105.332 402.571 105.569 402.686 105.773H402.801V100.909H404.712V114H402.846V112.472H402.686C402.571 112.681 402.405 112.92 402.187 113.188C401.974 113.457 401.68 113.691 401.305 113.891C400.93 114.092 400.445 114.192 399.848 114.192ZM400.27 112.562C400.82 112.562 401.284 112.417 401.663 112.127C402.047 111.833 402.337 111.426 402.533 110.906C402.733 110.386 402.833 109.781 402.833 109.091C402.833 108.409 402.735 107.812 402.539 107.301C402.343 106.79 402.055 106.391 401.676 106.106C401.297 105.82 400.828 105.678 400.27 105.678C399.695 105.678 399.215 105.827 398.832 106.125C398.448 106.423 398.158 106.83 397.962 107.346C397.771 107.862 397.675 108.443 397.675 109.091C397.675 109.747 397.773 110.337 397.969 110.862C398.165 111.386 398.454 111.801 398.838 112.108C399.226 112.411 399.703 112.562 400.27 112.562ZM407.44 114V104.182H409.287V105.741H409.39C409.569 105.213 409.884 104.798 410.336 104.495C410.792 104.188 411.307 104.035 411.883 104.035C412.002 104.035 412.142 104.039 412.304 104.048C412.471 104.056 412.601 104.067 412.694 104.08V105.908C412.618 105.886 412.481 105.863 412.285 105.837C412.089 105.808 411.893 105.793 411.697 105.793C411.245 105.793 410.843 105.888 410.489 106.08C410.14 106.268 409.863 106.53 409.658 106.866C409.454 107.199 409.351 107.578 409.351 108.004V114H407.44ZM418.132 114.198C417.212 114.198 416.409 113.987 415.723 113.565C415.036 113.143 414.504 112.553 414.125 111.795C413.745 111.036 413.556 110.15 413.556 109.136C413.556 108.117 413.745 107.227 414.125 106.464C414.504 105.701 415.036 105.109 415.723 104.687C416.409 104.265 417.212 104.054 418.132 104.054C419.053 104.054 419.856 104.265 420.542 104.687C421.228 105.109 421.761 105.701 422.14 106.464C422.519 107.227 422.709 108.117 422.709 109.136C422.709 110.15 422.519 111.036 422.14 111.795C421.761 112.553 421.228 113.143 420.542 113.565C419.856 113.987 419.053 114.198 418.132 114.198ZM418.139 112.594C418.735 112.594 419.23 112.436 419.622 112.121C420.014 111.805 420.304 111.386 420.491 110.862C420.683 110.337 420.779 109.76 420.779 109.129C420.779 108.503 420.683 107.928 420.491 107.403C420.304 106.875 420.014 106.451 419.622 106.131C419.23 105.812 418.735 105.652 418.139 105.652C417.538 105.652 417.039 105.812 416.643 106.131C416.251 106.451 415.959 106.875 415.767 107.403C415.58 107.928 415.486 108.503 415.486 109.129C415.486 109.76 415.58 110.337 415.767 110.862C415.959 111.386 416.251 111.805 416.643 112.121C417.039 112.436 417.538 112.594 418.139 112.594ZM424.842 117.682V104.182H426.709V105.773H426.869C426.979 105.569 427.139 105.332 427.348 105.064C427.557 104.795 427.847 104.561 428.217 104.361C428.588 104.156 429.078 104.054 429.688 104.054C430.48 104.054 431.188 104.254 431.81 104.655C432.432 105.055 432.92 105.633 433.274 106.387C433.631 107.141 433.81 108.049 433.81 109.11C433.81 110.171 433.634 111.081 433.28 111.839C432.926 112.594 432.44 113.175 431.823 113.585C431.205 113.989 430.499 114.192 429.707 114.192C429.11 114.192 428.622 114.092 428.243 113.891C427.868 113.691 427.574 113.457 427.361 113.188C427.148 112.92 426.984 112.681 426.869 112.472H426.754V117.682H424.842ZM426.715 109.091C426.715 109.781 426.815 110.386 427.016 110.906C427.216 111.426 427.506 111.833 427.885 112.127C428.264 112.417 428.729 112.562 429.278 112.562C429.85 112.562 430.327 112.411 430.71 112.108C431.094 111.801 431.384 111.386 431.58 110.862C431.78 110.337 431.88 109.747 431.88 109.091C431.88 108.443 431.782 107.862 431.586 107.346C431.394 106.83 431.104 106.423 430.717 106.125C430.333 105.827 429.854 105.678 429.278 105.678C428.725 105.678 428.256 105.82 427.872 106.106C427.493 106.391 427.205 106.79 427.009 107.301C426.813 107.812 426.715 108.409 426.715 109.091ZM445.388 104.182V105.716H439.84V104.182H445.388ZM441.361 114V103.044C441.361 102.43 441.495 101.921 441.764 101.516C442.032 101.107 442.388 100.803 442.831 100.602C443.274 100.398 443.756 100.295 444.276 100.295C444.659 100.295 444.987 100.327 445.26 100.391C445.533 100.451 445.735 100.506 445.867 100.558L445.42 102.104C445.331 102.079 445.215 102.049 445.075 102.015C444.934 101.977 444.764 101.957 444.563 101.957C444.099 101.957 443.767 102.072 443.566 102.303C443.37 102.533 443.272 102.865 443.272 103.3V114H441.361ZM447.36 114V104.182H449.271V114H447.36ZM448.325 102.667C447.993 102.667 447.707 102.556 447.469 102.335C447.234 102.109 447.117 101.84 447.117 101.529C447.117 101.214 447.234 100.945 447.469 100.724C447.707 100.498 447.993 100.385 448.325 100.385C448.658 100.385 448.941 100.498 449.175 100.724C449.414 100.945 449.533 101.214 449.533 101.529C449.533 101.84 449.414 102.109 449.175 102.335C448.941 102.556 448.658 102.667 448.325 102.667ZM453.754 100.909V114H451.842V100.909H453.754ZM460.556 114.198C459.589 114.198 458.756 113.991 458.057 113.578C457.362 113.161 456.826 112.575 456.446 111.82C456.071 111.062 455.884 110.173 455.884 109.155C455.884 108.149 456.071 107.263 456.446 106.496C456.826 105.729 457.354 105.13 458.032 104.7C458.713 104.269 459.51 104.054 460.422 104.054C460.976 104.054 461.513 104.146 462.033 104.329C462.553 104.512 463.019 104.8 463.433 105.192C463.846 105.584 464.172 106.093 464.411 106.719C464.649 107.342 464.769 108.098 464.769 108.989V109.666H456.964V108.234H462.896C462.896 107.732 462.794 107.286 462.589 106.898C462.384 106.506 462.097 106.197 461.726 105.972C461.36 105.746 460.929 105.633 460.435 105.633C459.898 105.633 459.429 105.765 459.029 106.029C458.632 106.289 458.326 106.63 458.108 107.052C457.895 107.469 457.789 107.923 457.789 108.413V109.532C457.789 110.188 457.904 110.746 458.134 111.207C458.368 111.667 458.694 112.018 459.112 112.261C459.529 112.5 460.017 112.619 460.576 112.619C460.938 112.619 461.268 112.568 461.566 112.466C461.865 112.359 462.122 112.202 462.34 111.993C462.557 111.784 462.723 111.526 462.838 111.219L464.647 111.545C464.502 112.078 464.242 112.545 463.867 112.945C463.497 113.342 463.03 113.651 462.468 113.872C461.909 114.089 461.272 114.198 460.556 114.198ZM474.247 106.579L472.514 106.886C472.442 106.664 472.327 106.453 472.169 106.253C472.016 106.053 471.807 105.888 471.543 105.761C471.278 105.633 470.948 105.569 470.552 105.569C470.011 105.569 469.559 105.69 469.197 105.933C468.835 106.172 468.653 106.481 468.653 106.86C468.653 107.188 468.775 107.452 469.018 107.653C469.261 107.853 469.653 108.017 470.194 108.145L471.754 108.503C472.657 108.712 473.33 109.033 473.774 109.468C474.217 109.903 474.438 110.467 474.438 111.162C474.438 111.75 474.268 112.274 473.927 112.734C473.59 113.19 473.119 113.548 472.514 113.808C471.913 114.068 471.217 114.198 470.424 114.198C469.325 114.198 468.428 113.964 467.733 113.495C467.038 113.022 466.612 112.351 466.455 111.482L468.302 111.2C468.417 111.682 468.653 112.046 469.011 112.293C469.369 112.536 469.836 112.658 470.411 112.658C471.038 112.658 471.538 112.528 471.913 112.268C472.288 112.004 472.476 111.682 472.476 111.303C472.476 110.996 472.361 110.738 472.131 110.529C471.905 110.32 471.558 110.163 471.089 110.056L469.427 109.692C468.511 109.483 467.833 109.151 467.394 108.695C466.96 108.239 466.742 107.661 466.742 106.962C466.742 106.383 466.904 105.876 467.228 105.441C467.552 105.006 467.999 104.668 468.57 104.425C469.141 104.178 469.796 104.054 470.533 104.054C471.594 104.054 472.429 104.284 473.038 104.744C473.648 105.2 474.051 105.812 474.247 106.579ZM483.215 108.17V114H481.303V100.909H483.189V105.78H483.31C483.541 105.251 483.892 104.832 484.365 104.521C484.838 104.21 485.456 104.054 486.219 104.054C486.892 104.054 487.48 104.192 487.983 104.469C488.49 104.746 488.882 105.16 489.159 105.71C489.44 106.255 489.581 106.937 489.581 107.755V114H487.67V107.985C487.67 107.265 487.484 106.707 487.114 106.31C486.743 105.91 486.227 105.71 485.567 105.71C485.115 105.71 484.71 105.805 484.352 105.997C483.999 106.189 483.72 106.47 483.515 106.841C483.315 107.207 483.215 107.651 483.215 108.17ZM496.363 114.198C495.396 114.198 494.563 113.991 493.864 113.578C493.169 113.161 492.632 112.575 492.253 111.82C491.878 111.062 491.69 110.173 491.69 109.155C491.69 108.149 491.878 107.263 492.253 106.496C492.632 105.729 493.161 105.13 493.838 104.7C494.52 104.269 495.317 104.054 496.229 104.054C496.783 104.054 497.32 104.146 497.84 104.329C498.359 104.512 498.826 104.8 499.239 105.192C499.653 105.584 499.979 106.093 500.217 106.719C500.456 107.342 500.575 108.098 500.575 108.989V109.666H492.771V108.234H498.703C498.703 107.732 498.6 107.286 498.396 106.898C498.191 106.506 497.903 106.197 497.533 105.972C497.166 105.746 496.736 105.633 496.242 105.633C495.705 105.633 495.236 105.765 494.835 106.029C494.439 106.289 494.132 106.63 493.915 107.052C493.702 107.469 493.595 107.923 493.595 108.413V109.532C493.595 110.188 493.71 110.746 493.94 111.207C494.175 111.667 494.501 112.018 494.918 112.261C495.336 112.5 495.824 112.619 496.382 112.619C496.744 112.619 497.075 112.568 497.373 112.466C497.671 112.359 497.929 112.202 498.146 111.993C498.364 111.784 498.53 111.526 498.645 111.219L500.454 111.545C500.309 112.078 500.049 112.545 499.674 112.945C499.303 113.342 498.837 113.651 498.274 113.872C497.716 114.089 497.079 114.198 496.363 114.198ZM502.696 114V104.182H504.543V105.741H504.646C504.824 105.213 505.14 104.798 505.592 104.495C506.047 104.188 506.563 104.035 507.138 104.035C507.258 104.035 507.398 104.039 507.56 104.048C507.726 104.056 507.856 104.067 507.95 104.08V105.908C507.873 105.886 507.737 105.863 507.541 105.837C507.345 105.808 507.149 105.793 506.953 105.793C506.501 105.793 506.099 105.888 505.745 106.08C505.396 106.268 505.119 106.53 504.914 106.866C504.709 107.199 504.607 107.578 504.607 108.004V114H502.696ZM513.484 114.198C512.517 114.198 511.684 113.991 510.985 113.578C510.29 113.161 509.753 112.575 509.374 111.82C508.999 111.062 508.812 110.173 508.812 109.155C508.812 108.149 508.999 107.263 509.374 106.496C509.753 105.729 510.282 105.13 510.959 104.7C511.641 104.269 512.438 104.054 513.35 104.054C513.904 104.054 514.441 104.146 514.961 104.329C515.481 104.512 515.947 104.8 516.361 105.192C516.774 105.584 517.1 106.093 517.339 106.719C517.577 107.342 517.696 108.098 517.696 108.989V109.666H509.892V108.234H515.824C515.824 107.732 515.721 107.286 515.517 106.898C515.312 106.506 515.025 106.197 514.654 105.972C514.287 105.746 513.857 105.633 513.363 105.633C512.826 105.633 512.357 105.765 511.956 106.029C511.56 106.289 511.253 106.63 511.036 107.052C510.823 107.469 510.716 107.923 510.716 108.413V109.532C510.716 110.188 510.831 110.746 511.062 111.207C511.296 111.667 511.622 112.018 512.04 112.261C512.457 112.5 512.945 112.619 513.503 112.619C513.866 112.619 514.196 112.568 514.494 112.466C514.792 112.359 515.05 112.202 515.267 111.993C515.485 111.784 515.651 111.526 515.766 111.219L517.575 111.545C517.43 112.078 517.17 112.545 516.795 112.945C516.424 113.342 515.958 113.651 515.395 113.872C514.837 114.089 514.2 114.198 513.484 114.198Z" fill="black"/>
<path d="M421.005 50.9167C418.472 50.9167 416.422 48.8667 416.422 46.3333C416.422 43.8 418.472 41.75 421.005 41.75C423.539 41.75 425.589 43.8 425.589 46.3333C425.589 48.8667 423.539 50.9167 421.005 50.9167ZM421.005 44.25C419.855 44.25 418.922 45.1833 418.922 46.3333C418.922 47.4833 419.855 48.4167 421.005 48.4167C422.155 48.4167 423.089 47.4833 423.089 46.3333C423.089 45.1833 422.155 44.25 421.005 44.25Z" fill="#8F8F8F"/>
<path d="M431.003 70.9168H421.003C411.953 70.9168 408.086 67.0502 408.086 58.0002V48.0002C408.086 38.9502 411.953 35.0835 421.003 35.0835H427.669C428.353 35.0835 428.919 35.6502 428.919 36.3335C428.919 37.0168 428.353 37.5835 427.669 37.5835H421.003C413.319 37.5835 410.586 40.3168 410.586 48.0002V58.0002C410.586 65.6835 413.319 68.4168 421.003 68.4168H431.003C438.686 68.4168 441.419 65.6835 441.419 58.0002V49.6668C441.419 48.9835 441.986 48.4168 442.669 48.4168C443.353 48.4168 443.919 48.9835 443.919 49.6668V58.0002C443.919 67.0502 440.053 70.9168 431.003 70.9168Z" fill="#8F8F8F"/>
<path d="M436 47.5834C435.317 47.5834 434.75 47.0167 434.75 46.3334V36.3334C434.75 35.8334 435.05 35.3667 435.517 35.1834C435.983 35.0001 436.517 35.1001 436.883 35.4501L440.217 38.7834C440.7 39.2667 440.7 40.0667 440.217 40.5501C439.733 41.0334 438.933 41.0334 438.45 40.5501L437.25 39.3501V46.3334C437.25 47.0167 436.683 47.5834 436 47.5834Z" fill="#8F8F8F"/>
<path d="M432.668 40.9166C432.351 40.9166 432.034 40.7999 431.784 40.5499C431.301 40.0666 431.301 39.2666 431.784 38.7832L435.118 35.4499C435.601 34.9666 436.401 34.9666 436.884 35.4499C437.368 35.9332 437.368 36.7332 436.884 37.2166L433.551 40.5499C433.301 40.7999 432.984 40.9166 432.668 40.9166Z" fill="#8F8F8F"/>
<path d="M410.453 65.8336C410.053 65.8336 409.653 65.6336 409.419 65.2836C409.036 64.7169 409.186 63.9336 409.753 63.5503L417.969 58.0336C419.769 56.8336 422.253 56.9669 423.886 58.3503L424.436 58.8336C425.269 59.5503 426.686 59.5503 427.503 58.8336L434.436 52.8836C436.203 51.3669 438.986 51.3669 440.769 52.8836L443.486 55.2169C444.003 55.6669 444.069 56.4503 443.619 56.9836C443.169 57.5003 442.369 57.5669 441.853 57.1169L439.136 54.7836C438.303 54.0669 436.903 54.0669 436.069 54.7836L429.136 60.7336C427.369 62.2503 424.586 62.2503 422.803 60.7336L422.253 60.2503C421.486 59.6003 420.219 59.5336 419.369 60.1169L411.169 65.6336C410.936 65.7669 410.686 65.8336 410.453 65.8336Z" fill="#8F8F8F"/>
<path d="M384.349 141V130.091H388.716C389.519 130.091 390.188 130.21 390.725 130.448C391.261 130.686 391.664 131.016 391.934 131.439C392.204 131.858 392.339 132.341 392.339 132.887C392.339 133.314 392.253 133.688 392.083 134.011C391.912 134.331 391.678 134.594 391.38 134.8C391.085 135.002 390.748 135.146 390.368 135.231V135.338C390.783 135.355 391.172 135.473 391.534 135.689C391.9 135.906 392.197 136.21 392.424 136.6C392.651 136.987 392.765 137.449 392.765 137.985C392.765 138.564 392.621 139.081 392.333 139.535C392.049 139.986 391.628 140.343 391.071 140.606C390.513 140.869 389.826 141 389.009 141H384.349ZM386.655 139.114H388.535C389.178 139.114 389.647 138.992 389.942 138.747C390.236 138.498 390.384 138.168 390.384 137.756C390.384 137.454 390.311 137.188 390.165 136.957C390.02 136.726 389.812 136.545 389.542 136.414C389.276 136.282 388.958 136.217 388.589 136.217H386.655V139.114ZM386.655 134.656H388.365C388.681 134.656 388.961 134.601 389.206 134.491C389.455 134.377 389.65 134.217 389.792 134.011C389.938 133.805 390.011 133.559 390.011 133.271C390.011 132.877 389.871 132.559 389.59 132.317C389.313 132.076 388.919 131.955 388.407 131.955H386.655V134.656ZM394.223 141V132.818H396.423V134.246H396.508C396.657 133.738 396.908 133.354 397.259 133.095C397.611 132.832 398.016 132.701 398.474 132.701C398.587 132.701 398.71 132.708 398.841 132.722C398.973 132.737 399.088 132.756 399.187 132.781V134.794C399.081 134.762 398.934 134.734 398.745 134.709C398.557 134.684 398.385 134.672 398.229 134.672C397.895 134.672 397.597 134.745 397.334 134.89C397.074 135.032 396.869 135.231 396.716 135.487C396.567 135.743 396.492 136.037 396.492 136.371V141H394.223ZM403.676 141.16C402.849 141.16 402.134 140.984 401.53 140.632C400.93 140.277 400.466 139.784 400.14 139.152C399.813 138.516 399.65 137.779 399.65 136.941C399.65 136.096 399.813 135.357 400.14 134.725C400.466 134.089 400.93 133.596 401.53 133.244C402.134 132.889 402.849 132.712 403.676 132.712C404.504 132.712 405.218 132.889 405.818 133.244C406.422 133.596 406.887 134.089 407.213 134.725C407.54 135.357 407.703 136.096 407.703 136.941C407.703 137.779 407.54 138.516 407.213 139.152C406.887 139.784 406.422 140.277 405.818 140.632C405.218 140.984 404.504 141.16 403.676 141.16ZM403.687 139.402C404.064 139.402 404.378 139.295 404.63 139.082C404.882 138.866 405.072 138.571 405.2 138.198C405.331 137.825 405.397 137.401 405.397 136.925C405.397 136.449 405.331 136.025 405.2 135.652C405.072 135.279 404.882 134.984 404.63 134.768C404.378 134.551 404.064 134.443 403.687 134.443C403.307 134.443 402.988 134.551 402.728 134.768C402.473 134.984 402.279 135.279 402.148 135.652C402.02 136.025 401.956 136.449 401.956 136.925C401.956 137.401 402.02 137.825 402.148 138.198C402.279 138.571 402.473 138.866 402.728 139.082C402.988 139.295 403.307 139.402 403.687 139.402ZM410.588 141L408.361 132.818H410.657L411.925 138.315H411.999L413.32 132.818H415.574L416.916 138.283H416.985L418.232 132.818H420.522L418.301 141H415.899L414.492 135.854H414.391L412.985 141H410.588ZM428.54 135.151L426.463 135.279C426.427 135.102 426.351 134.942 426.234 134.8C426.117 134.654 425.962 134.539 425.77 134.453C425.582 134.365 425.357 134.32 425.094 134.32C424.742 134.32 424.446 134.395 424.204 134.544C423.963 134.69 423.842 134.885 423.842 135.13C423.842 135.325 423.92 135.49 424.076 135.625C424.233 135.76 424.501 135.869 424.881 135.95L426.362 136.249C427.157 136.412 427.75 136.675 428.141 137.037C428.531 137.399 428.727 137.875 428.727 138.464C428.727 139.001 428.569 139.471 428.253 139.876C427.94 140.281 427.51 140.597 426.964 140.824C426.42 141.048 425.793 141.16 425.083 141.16C424 141.16 423.137 140.934 422.494 140.483C421.855 140.029 421.481 139.411 421.37 138.63L423.602 138.512C423.67 138.843 423.833 139.095 424.092 139.269C424.352 139.439 424.684 139.525 425.089 139.525C425.486 139.525 425.806 139.448 426.047 139.295C426.292 139.139 426.417 138.939 426.42 138.694C426.417 138.488 426.33 138.319 426.159 138.188C425.989 138.053 425.726 137.95 425.371 137.879L423.954 137.596C423.155 137.436 422.56 137.159 422.169 136.765C421.782 136.371 421.589 135.869 421.589 135.258C421.589 134.732 421.731 134.279 422.015 133.9C422.303 133.52 422.706 133.227 423.224 133.021C423.746 132.815 424.357 132.712 425.057 132.712C426.09 132.712 426.903 132.93 427.496 133.367C428.093 133.804 428.441 134.398 428.54 135.151ZM433.884 141.16C433.043 141.16 432.318 140.989 431.711 140.648C431.107 140.304 430.642 139.817 430.315 139.189C429.989 138.557 429.825 137.809 429.825 136.946C429.825 136.105 429.989 135.366 430.315 134.73C430.642 134.095 431.102 133.599 431.695 133.244C432.292 132.889 432.991 132.712 433.794 132.712C434.333 132.712 434.836 132.799 435.301 132.973C435.77 133.143 436.178 133.401 436.526 133.745C436.878 134.089 437.151 134.523 437.347 135.045C437.542 135.563 437.64 136.17 437.64 136.866V137.49H430.731V136.083H435.504C435.504 135.757 435.433 135.467 435.29 135.215C435.148 134.963 434.951 134.766 434.699 134.624C434.451 134.478 434.161 134.406 433.831 134.406C433.487 134.406 433.181 134.485 432.915 134.645C432.652 134.801 432.446 135.013 432.297 135.279C432.148 135.542 432.071 135.835 432.068 136.158V137.495C432.068 137.9 432.142 138.25 432.292 138.544C432.444 138.839 432.659 139.066 432.936 139.226C433.213 139.386 433.542 139.466 433.922 139.466C434.174 139.466 434.404 139.43 434.614 139.359C434.824 139.288 435.003 139.182 435.152 139.04C435.301 138.898 435.415 138.724 435.493 138.518L437.592 138.656C437.485 139.161 437.267 139.601 436.936 139.977C436.61 140.35 436.187 140.641 435.669 140.851C435.154 141.057 434.559 141.16 433.884 141.16ZM442.635 141V130.091H449.858V131.993H444.941V134.592H449.378V136.494H444.941V141H442.635ZM451.366 141V132.818H453.636V141H451.366ZM452.506 131.763C452.169 131.763 451.88 131.652 451.638 131.428C451.4 131.201 451.281 130.929 451.281 130.613C451.281 130.3 451.4 130.032 451.638 129.809C451.88 129.581 452.169 129.468 452.506 129.468C452.844 129.468 453.131 129.581 453.369 129.809C453.611 130.032 453.732 130.3 453.732 130.613C453.732 130.929 453.611 131.201 453.369 131.428C453.131 131.652 452.844 131.763 452.506 131.763ZM457.723 130.091V141H455.453V130.091H457.723ZM463.269 141.16C462.427 141.16 461.703 140.989 461.096 140.648C460.492 140.304 460.027 139.817 459.7 139.189C459.373 138.557 459.21 137.809 459.21 136.946C459.21 136.105 459.373 135.366 459.7 134.73C460.027 134.095 460.487 133.599 461.08 133.244C461.676 132.889 462.376 132.712 463.178 132.712C463.718 132.712 464.221 132.799 464.686 132.973C465.155 133.143 465.563 133.401 465.911 133.745C466.263 134.089 466.536 134.523 466.731 135.045C466.927 135.563 467.024 136.17 467.024 136.866V137.49H460.116V136.083H464.888C464.888 135.757 464.817 135.467 464.675 135.215C464.533 134.963 464.336 134.766 464.084 134.624C463.835 134.478 463.546 134.406 463.216 134.406C462.871 134.406 462.566 134.485 462.3 134.645C462.037 134.801 461.831 135.013 461.682 135.279C461.532 135.542 461.456 135.835 461.453 136.158V137.495C461.453 137.9 461.527 138.25 461.676 138.544C461.829 138.839 462.044 139.066 462.321 139.226C462.598 139.386 462.926 139.466 463.306 139.466C463.558 139.466 463.789 139.43 463.999 139.359C464.208 139.288 464.388 139.182 464.537 139.04C464.686 138.898 464.8 138.724 464.878 138.518L466.976 138.656C466.87 139.161 466.651 139.601 466.321 139.977C465.994 140.35 465.572 140.641 465.053 140.851C464.539 141.057 463.944 141.16 463.269 141.16Z" fill="#A19061"/>
<path d="M383.4 143.983H467.6V145.006H383.4V143.983Z" fill="#A19061"/>
</svg>
