<svg width="16" height="16" viewBox="0 0 16 16" fill="none" xmlns="http://www.w3.org/2000/svg">
<path id="Vector" d="M5.54902 -0.0098114H1.47059C1.05229 -0.0098114 0.702614 0.120908 0.421569 0.382346C0.140523 0.643784 0 0.977118 0 1.38235V5.46078C0 5.86601 0.143791 6.21241 0.431373 6.49999C0.718954 6.78757 1.06536 6.93137 1.47059 6.93137H5.54902C5.96732 6.93137 6.31699 6.78757 6.59804 6.49999C6.87909 6.21241 7.01961 5.86601 7.01961 5.46078V1.38235C7.01961 0.977118 6.87909 0.643784 6.59804 0.382346C6.31699 0.120908 5.96732 -0.0098114 5.54902 -0.0098114ZM5.70588 5.46078C5.70588 5.49999 5.68954 5.53594 5.65686 5.56862C5.62418 5.6013 5.58824 5.61764 5.54902 5.61764H1.47059C1.43137 5.65686 1.39216 5.65359 1.35294 5.60784C1.31373 5.56208 1.29412 5.51306 1.29412 5.46078V1.38235C1.29412 1.33006 1.31373 1.28757 1.35294 1.2549C1.39216 1.22222 1.43137 1.20588 1.47059 1.20588H5.54902C5.58824 1.20588 5.62418 1.22222 5.65686 1.2549C5.68954 1.28757 5.70588 1.33006 5.70588 1.38235V5.46078ZM14.5294 -0.0098114H10.451C10.0458 -0.0098114 9.69935 0.130713 9.41177 0.411757C9.12418 0.692803 8.98039 1.04248 8.98039 1.46078V5.53921C8.98039 5.94444 9.12418 6.29084 9.41177 6.57842C9.69935 6.86601 10.0458 7.0098 10.451 7.0098H14.5294C14.9477 7.0098 15.2974 6.86601 15.5784 6.57842C15.8595 6.29084 16 5.94444 16 5.53921V1.38235C16 0.977118 15.8595 0.643784 15.5784 0.382346C15.2974 0.120908 14.9477 -0.0098114 14.5294 -0.0098114ZM14.7059 5.46078C14.7059 5.49999 14.6895 5.53594 14.6569 5.56862C14.6242 5.6013 14.5817 5.61764 14.5294 5.61764H10.451C10.4118 5.61764 10.3758 5.6013 10.3431 5.56862C10.3105 5.53594 10.2941 5.49999 10.2941 5.46078V1.38235C10.2941 1.33006 10.3105 1.28757 10.3431 1.2549C10.3758 1.22222 10.4118 1.20588 10.451 1.20588H14.5294C14.5817 1.20588 14.6242 1.22222 14.6569 1.2549C14.6895 1.28757 14.7059 1.33006 14.7059 1.38235V5.46078ZM14.5294 8.97058H10.451C10.0458 8.97058 9.69935 9.1111 9.41177 9.39215C9.12418 9.6732 8.98039 10.0229 8.98039 10.4412V14.5196C8.98039 14.9379 9.12418 15.2908 9.41177 15.5784C9.69935 15.866 10.0458 16.0098 10.451 16.0098H14.5294C14.9346 16.0098 15.281 15.866 15.5686 15.5784C15.8562 15.2908 16 14.9379 16 14.5196V10.4412C16 9.99672 15.8595 9.64052 15.5784 9.37254C15.2974 9.10457 14.9477 8.97058 14.5294 8.97058ZM14.7059 14.4412C14.7059 14.4804 14.6895 14.5196 14.6569 14.5588C14.6242 14.598 14.5817 14.6176 14.5294 14.6176H10.451C10.4118 14.6176 10.3758 14.598 10.3431 14.5588C10.3105 14.5196 10.2941 14.4804 10.2941 14.4412V10.3627C10.2941 10.3235 10.3105 10.2876 10.3431 10.2549C10.3758 10.2222 10.4118 10.2059 10.451 10.2059H14.5294C14.5817 10.2059 14.6242 10.2222 14.6569 10.2549C14.6895 10.2876 14.7059 10.3235 14.7059 10.3627V14.4412ZM5.54902 8.97058H1.47059C1.06536 8.97058 0.718954 9.1111 0.431373 9.39215C0.143791 9.6732 0 10.0229 0 10.4412V14.5196C0 14.9379 0.143791 15.2908 0.431373 15.5784C0.718954 15.866 1.06536 16.0098 1.47059 16.0098H5.54902C5.95425 16.0098 6.30065 15.866 6.58824 15.5784C6.87582 15.2908 7.01961 14.9379 7.01961 14.5196V10.4412C7.01961 9.99672 6.87909 9.64052 6.59804 9.37254C6.31699 9.10457 5.96732 8.97058 5.54902 8.97058ZM5.70588 14.4412C5.70588 14.4804 5.68954 14.5196 5.65686 14.5588C5.62418 14.598 5.58824 14.6176 5.54902 14.6176H1.47059C1.43137 14.6176 1.39216 14.598 1.35294 14.5588C1.31373 14.5196 1.29412 14.4804 1.29412 14.4412V10.3627C1.29412 10.3235 1.31373 10.2876 1.35294 10.2549C1.39216 10.2222 1.43137 10.2059 1.47059 10.2059H5.54902C5.58824 10.2059 5.62418 10.2222 5.65686 10.2549C5.68954 10.2876 5.70588 10.3235 5.70588 10.3627V14.4412Z" fill="#111827"/>
</svg>
