<svg width="77" height="90" viewBox="0 0 77 90" fill="none" xmlns="http://www.w3.org/2000/svg">
<g id="Group 1171275960">
<g id="Group 1171275916">
<g id="Vector" filter="url(#filter0_d_461_1053)">
<path d="M38.1527 11C25.3862 11 15 21.3862 15 34.1525C15 38.5609 16.2013 43.2412 18.5704 48.0631C20.4489 51.8866 23.0636 55.8105 26.3419 59.7257C31.9073 66.3727 37.3843 70.6377 37.6147 70.8161C37.773 70.9386 37.9629 70.9999 38.1527 70.9999C38.3424 70.9999 38.5324 70.9386 38.6907 70.8161C38.9212 70.6378 44.3981 66.3727 49.9634 59.7257C53.2416 55.8104 55.8564 51.8864 57.735 48.0631C60.104 43.2412 61.3053 38.5609 61.3053 34.1525C61.3053 21.3862 50.9191 11 38.1527 11Z" fill="#005BE4"/>
</g>
<circle id="Ellipse 3248" opacity="0.9" cx="38.1528" cy="33" r="19" fill="white"/>
</g>
<g id="Group">
<g id="Group_2">
<g id="Group_3">
<g id="Group_4">
<path id="Vector_2" d="M25.464 19.0925C25.5188 19.0925 25.5815 19.1082 25.6677 19.1395C25.2054 18.4423 24.7432 17.2827 24.7432 17.2827C26.553 17.3846 27.3913 18.8262 27.3913 18.8262C29.8906 19.7115 31.8101 21.6937 33.3457 24.3966L35.5473 25.6972L38.0779 27.0056C40.0444 27.3033 43.3585 27.1936 44.2673 26.9038C45.3799 26.559 48.741 26.7627 50.3236 27.9458C51.9062 29.1288 51.5928 27.1701 53.9197 28.4315C56.2466 29.6851 55.3613 33.8923 54.5073 35.7413C53.6612 37.5903 54.5073 39.3688 54.5073 39.3688C54.5073 39.3688 52.3684 38.3346 52.4781 35.4906C52.5878 32.6466 52.8542 30.9621 51.867 30.2727L51.8278 30.21C51.9532 30.923 51.7887 31.7143 51.3734 32.7485C50.5586 34.7933 49.971 35.6003 50.1199 36.2741C50.2687 36.94 50.8172 39.2199 50.8172 39.7762C50.8172 40.3325 49.7046 45.096 49.7751 45.6522C49.8457 46.2085 49.736 46.6943 49.3286 46.6943C48.9212 46.6943 47.5031 46.6943 47.5031 46.6943H46.6099C46.6099 46.6943 46.7588 46.326 47.7303 44.6102C48.6939 42.9023 48.1612 39.9956 47.5266 38.9927C46.8998 37.9899 45.0116 34.9578 44.996 34.9265C44.7296 34.9657 44.424 35.044 44.0871 35.1772C42.4575 35.8275 40.0209 36.9792 35.132 36.2741L34.9518 36.2192C34.9362 36.3054 34.9205 36.3838 34.897 36.4699C34.2702 39.2905 35.3906 43.106 35.2574 44.1793C35.1242 45.2527 35.3357 46.6708 34.991 46.6864V46.6943H34.7011C34.4191 46.6943 34.0117 46.6943 33.6434 46.6943H32.7816C32.3194 46.6943 31.9276 46.6864 31.9276 46.6864C31.9276 46.6864 32.6328 45.997 32.8521 45.6993C33.0715 45.4015 33.2595 42.0718 32.7425 40.6615C32.2254 39.2513 30.9875 36.94 31.058 34.9187C29.8828 33.7278 30.251 32.2705 30.0708 31.7613C29.8514 31.1345 28.5509 27.8674 28.1043 26.4572C27.6656 25.0704 27.125 24.7884 27.1015 24.7805C26.9213 24.9216 26.7411 25.0469 26.553 25.1566C25.3621 25.8774 25.3621 27.413 24.6805 27.6245C23.9989 27.8361 23.7482 27.7969 23.0196 27.2406C22.2988 26.6844 22.2518 26.2613 22.761 24.6474C23.2938 23.0491 25.464 19.0925 25.464 19.0925Z" fill="#BF8256"/>
</g>
</g>
</g>
<g id="Group_5">
<g id="Group_6">
<path id="Vector_3" d="M50.5977 27.8364C50.5977 27.8364 54.8832 28.1106 55.4082 30.2652C55.9331 32.4197 54.9224 35.2794 54.4367 35.914C53.9509 36.5486 54.515 39.3613 54.515 39.3613C54.515 39.3613 53.0107 38.9852 52.6582 36.4938C52.3056 34.0024 52.7444 31.5422 51.9844 30.4846C51.2244 29.4425 50.5977 27.8364 50.5977 27.8364Z" fill="#6B676E"/>
</g>
</g>
<g id="Group_7">
<g id="Group_8">
<path id="Vector_4" d="M26.9761 18.184C26.9761 18.184 29.6164 17.9646 30.5095 18.7089C31.4027 19.4532 35.1947 25.7523 35.1947 25.7523L34.1762 25.1569C34.1762 25.1569 30.3372 20.0251 29.0836 19.5237C27.8301 19.0223 27.4775 18.8969 27.4775 18.8969L26.9761 18.184Z" fill="#6B676E"/>
</g>
</g>
<g id="Group_9">
<g id="Group_10">
<path id="Vector_5" d="M28.0101 22.0308C28.0101 22.0308 29.0835 22.8847 29.2167 24.7964C29.3499 26.7081 29.4439 29.983 29.4439 29.983L28.018 25.6347L27.2423 24.9531C27.2267 24.9531 28.4175 23.4018 28.0101 22.0308Z" fill="#915E3A"/>
</g>
</g>
<g id="Group_11">
<g id="Group_12">
<path id="Vector_6" d="M35.1318 33.9706C35.1318 33.9706 37.3099 34.2997 39.1667 33.9706C41.0235 33.6416 44.8234 33.0931 46.1082 34.1195C47.401 35.138 47.8632 37.8096 47.8632 37.8096C47.8632 37.8096 45.9829 34.5817 44.0869 35.185C42.1909 35.7883 40.1147 36.7755 37.5292 36.5012C34.9438 36.227 34.9829 36.0468 34.9829 36.0468C34.9829 36.0468 35.3903 34.8089 35.1318 33.9706Z" fill="#915E3A"/>
</g>
</g>
<g id="Group_13">
<g id="Group_14">
<path id="Vector_7" d="M30.9092 35.1929C30.9092 35.1929 32.4291 36.039 32.484 36.3132C32.5466 36.5875 33.4163 39.3139 33.7218 40.7085C34.0274 42.1109 34.1136 45.6601 33.7218 45.8951C33.3301 46.1301 32.3899 46.8588 32.1784 46.8588C31.9669 46.8588 32.86 45.8324 32.8992 45.5974C32.9384 45.3623 33.1969 40.8104 32.3664 39.643C31.6927 38.695 31.2226 37.4179 31.1599 36.9243C31.105 36.4386 30.9092 35.1929 30.9092 35.1929Z" fill="#915E3A"/>
</g>
</g>
<g id="Group_15">
<g id="Group_16">
<path id="Vector_8" d="M45.1445 35.1773C45.1445 35.1773 48.0355 39.6274 47.9337 39.9643C47.8318 40.3012 48.2549 43.0825 48.2549 43.0825C48.2549 43.0825 46.2884 46.5925 46.6096 46.7022C46.923 46.8197 47.9102 46.71 47.9102 46.71C47.9102 46.71 47.8553 45.8952 48.2863 45.4721C48.7172 45.049 49.2499 41.4137 49.1794 41.1552C49.1089 40.8966 47.1659 36.1723 47.1659 36.1723C47.1659 36.1723 46.2884 34.9657 45.8653 34.9344C45.4423 34.8952 45.1445 35.1773 45.1445 35.1773Z" fill="#915E3A"/>
</g>
</g>
<g id="Group_17">
<g id="Group_18">
<path id="Vector_9" d="M23.121 26.7786C23.0975 26.7786 23.074 26.7786 23.0505 26.7708C22.8938 26.7316 22.7998 26.5749 22.839 26.4182L22.9643 25.8855C23.0035 25.7288 23.1602 25.6347 23.3169 25.6739C23.4736 25.7131 23.5676 25.8698 23.5284 26.0265L23.4031 26.5592C23.3717 26.6846 23.2542 26.7786 23.121 26.7786Z" fill="#3F0F33"/>
</g>
</g>
<g id="Group_19">
<g id="Group_20">
<g id="Group_21">
<path id="Vector_10" d="M24.0927 28.0478C23.701 28.0478 23.372 27.8755 22.8627 27.4916C21.9774 26.8178 21.993 26.1988 22.5101 24.5771C23.0194 22.9553 25.1191 19.1163 25.2053 18.9517C25.2836 18.8107 25.456 18.7559 25.597 18.8342C25.738 18.9126 25.7929 19.0849 25.7145 19.2259C25.691 19.2729 23.5522 23.1825 23.0586 24.7573C22.5336 26.4182 22.6747 26.6219 23.2153 27.0372C23.8812 27.5464 24.0379 27.5543 24.6098 27.3741C24.7979 27.3192 24.9389 26.998 25.1113 26.6298C25.3698 26.0735 25.691 25.3762 26.4197 24.9375C26.8427 24.6789 27.8456 23.9816 27.9709 23.1041C28.0336 22.6811 27.8769 22.2658 27.5009 21.8506C27.3912 21.7331 27.399 21.545 27.5165 21.4432C27.634 21.3335 27.8221 21.3413 27.9239 21.4588C28.4175 21.9994 28.6291 22.5792 28.5429 23.1825C28.3862 24.2715 27.3285 25.055 26.7174 25.431C26.1376 25.7836 25.8712 26.3634 25.6362 26.8726C25.4168 27.3427 25.2131 27.7893 24.7822 27.9303C24.5158 28.0087 24.2964 28.0478 24.0927 28.0478Z" fill="#3F0F33"/>
</g>
</g>
<g id="Group_22">
<g id="Group_23">
<path id="Vector_11" d="M25.3544 22.6106C25.614 22.6106 25.8244 22.4001 25.8244 22.1405C25.8244 21.8809 25.614 21.6704 25.3544 21.6704C25.0947 21.6704 24.8843 21.8809 24.8843 22.1405C24.8843 22.4001 25.0947 22.6106 25.3544 22.6106Z" fill="#3F0F33"/>
</g>
</g>
<g id="Group_24">
<g id="Group_25">
<path id="Vector_12" d="M49.3286 46.9922H47.5031C47.4012 46.9922 47.3151 46.9452 47.2602 46.859C47.2054 46.7806 47.1975 46.6709 47.2367 46.5848C47.2837 46.4829 47.6833 45.5819 48.0985 45.245C48.3727 44.916 48.9525 41.7272 48.882 41.1945C48.8272 40.7557 47.1035 36.7835 46.5394 35.483C46.4219 35.2087 46.32 34.9815 46.2574 34.8405C45.8656 33.9239 44.8236 33.775 44.048 33.9317C43.8913 33.963 43.7346 33.8612 43.7032 33.7045C43.6719 33.5478 43.7738 33.3911 43.9305 33.3597C44.9176 33.1639 46.2574 33.3676 46.7823 34.6055C46.845 34.7543 46.939 34.9737 47.0565 35.2479C48.4433 38.4602 49.3834 40.6852 49.4383 41.1161C49.5088 41.6411 48.9525 45.2842 48.4354 45.6994C48.2866 45.8248 48.0907 46.1225 47.9418 46.4124H49.2972C49.3442 46.4124 49.3678 46.3967 49.3834 46.3811C49.4461 46.3027 49.5088 46.0833 49.4539 45.6994C49.4069 45.3625 49.6498 44.1403 50.0494 42.166C50.2531 41.1475 50.4881 39.9958 50.4881 39.7842C50.4881 39.3533 50.0886 37.6297 49.9005 36.7992C49.8613 36.6112 49.8222 36.4545 49.7987 36.3448C49.6811 35.7963 49.9319 35.2323 50.3628 34.2842C50.5586 33.8533 50.8015 33.3127 51.0679 32.6468C51.8514 30.6803 51.7025 29.7323 50.3863 28.4239C49.0387 27.0763 45.3877 26.8569 44.3144 27.1938C43.1548 27.5542 37.6783 27.6952 36.5423 26.8491C36.1662 26.567 35.6883 26.3398 35.1869 26.0891C34.8422 25.9168 34.4739 25.7444 34.1135 25.5329C34.09 25.5172 34.0587 25.4937 34.043 25.4702C33.4084 24.7651 32.8287 24.0443 32.2802 23.347C30.6976 21.3648 29.3265 19.6568 27.2895 19.0927C27.219 19.0692 27.1563 19.0222 27.1171 18.9595C27.0858 18.9125 26.4825 17.9018 25.1898 17.6276C25.4483 18.2152 25.8558 19.0379 26.1535 19.2964C26.271 19.3983 26.2867 19.5863 26.177 19.7038C26.0751 19.8213 25.8871 19.837 25.7696 19.7273C25.2211 19.2494 24.5474 17.5806 24.4768 17.3926C24.4377 17.2986 24.4533 17.1967 24.5082 17.1184C24.563 17.04 24.657 16.993 24.7589 17.0008C26.4277 17.0949 27.3287 18.2309 27.5716 18.5835C29.7339 19.2181 31.2069 21.0592 32.7581 23.0022C33.2987 23.676 33.855 24.3812 34.4739 25.0628C34.8108 25.2508 35.1477 25.4153 35.4768 25.5799C36.0096 25.8384 36.511 26.0813 36.9262 26.3947C37.7802 27.0293 42.9354 27.0371 44.1812 26.6454C45.5209 26.2223 49.3442 26.5279 50.8328 28.0165C52.3214 29.5051 52.5173 30.6803 51.6398 32.8662C51.3734 33.5399 51.1227 34.0884 50.9269 34.5271C50.5508 35.3576 50.3236 35.859 50.4019 36.2194C50.4254 36.3291 50.4646 36.4858 50.5038 36.6738C50.7937 37.9431 51.1071 39.3298 51.1071 39.7921C51.1071 40.0506 50.9347 40.9124 50.6526 42.2913C50.4019 43.5135 50.0259 45.3625 50.065 45.6289C50.1121 45.9815 50.1121 46.4672 49.8535 46.765C49.7125 46.9138 49.5323 46.9922 49.3286 46.9922Z" fill="#3F0F33"/>
</g>
</g>
<g id="Group_26">
<g id="Group_27">
<path id="Vector_13" d="M47.5031 46.992H46.6099C46.5159 46.992 46.4219 46.945 46.367 46.8667C46.3122 46.7883 46.3043 46.6865 46.3357 46.5925C46.3435 46.5768 46.508 46.1851 47.4717 44.4771C48.3805 42.8631 47.8556 40.074 47.2758 39.1573C46.6491 38.1623 44.7609 35.1224 44.7452 35.0911C44.659 34.9579 44.7061 34.7777 44.8392 34.6915C44.9724 34.6053 45.1526 34.6523 45.2388 34.7855C45.2545 34.8169 47.1427 37.8567 47.7694 38.8518C48.4276 39.9016 49.0073 42.9415 47.9731 44.767C47.5031 45.6053 47.2288 46.1145 47.0721 46.4201H47.5031C47.6597 46.4201 47.7929 46.5533 47.7929 46.71C47.7929 46.8667 47.6676 46.992 47.5031 46.992Z" fill="#3F0F33"/>
</g>
</g>
<g id="Group_28">
<g id="Group_29">
<path id="Vector_14" d="M38.0308 36.7915C37.1611 36.7915 36.1818 36.7289 35.0849 36.5643C34.9282 36.5408 34.8185 36.392 34.842 36.2353C34.8655 36.0786 35.0144 35.9689 35.1711 35.9924C39.6996 36.6427 42.097 35.679 43.6874 35.0366L43.9773 34.919C45.7245 34.2217 46.8292 34.8877 46.8762 34.919C47.0094 35.0052 47.0564 35.1854 46.9702 35.3186C46.884 35.4518 46.7116 35.4988 46.5706 35.4126C46.5314 35.3891 45.6461 34.8799 44.1889 35.4596L43.899 35.5772C42.6454 36.0864 40.8904 36.7915 38.0308 36.7915Z" fill="#3F0F33"/>
</g>
</g>
<g id="Group_30">
<g id="Group_31">
<path id="Vector_15" d="M34.2543 46.9998C33.6197 46.9998 32.8362 46.992 32.7814 46.992C32.6638 46.992 32.562 46.9215 32.515 46.8118C32.468 46.7021 32.4993 46.5768 32.5777 46.4984C32.7657 46.3104 33.3063 45.7776 33.4787 45.5426C33.651 45.19 33.8077 42.0875 33.3298 40.7791L33.3141 40.7399C32.797 39.3296 31.8255 36.6972 31.9039 34.6445C31.9117 34.4878 32.0449 34.3624 32.2016 34.3624C32.3583 34.3703 32.4836 34.5035 32.4836 34.6601C32.4131 36.6032 33.3533 39.1651 33.8626 40.5362L33.8782 40.5754C34.3875 41.9543 34.2935 45.4329 33.9487 45.8873C33.8469 46.0205 33.6589 46.2242 33.4787 46.4122C33.9644 46.4122 34.5834 46.4201 34.8732 46.4122C34.9124 46.232 34.9124 45.809 34.9124 45.4799C34.9124 45.0647 34.9124 44.5867 34.9673 44.1558C35.0064 43.8189 34.9046 43.106 34.7792 42.2833C34.5285 40.6067 34.1916 38.3111 34.6147 36.4151C35.2023 33.7748 34.8732 32.8895 34.8654 32.8817C34.8106 32.7328 34.8732 32.5683 35.0221 32.5056C35.171 32.4429 35.3355 32.5056 35.3982 32.6545C35.4452 32.7563 35.8134 33.7121 35.1788 36.5405C34.7792 38.3268 35.1083 40.5597 35.3512 42.1893C35.4843 43.0903 35.594 43.8111 35.5392 44.2185C35.4922 44.6102 35.4922 45.0647 35.4843 45.4721C35.4843 46.3339 35.4843 46.9607 34.9908 46.9763C34.8732 46.9998 34.5834 46.9998 34.2543 46.9998Z" fill="#3F0F33"/>
</g>
</g>
<g id="Group_32">
<g id="Group_33">
<path id="Vector_16" d="M32.7814 47.0002C32.3191 47.0002 31.9274 46.9924 31.9274 46.9924C31.8099 46.9924 31.708 46.9219 31.661 46.8122C31.614 46.7025 31.6453 46.5771 31.7237 46.4988C31.9117 46.3108 32.4523 45.778 32.6247 45.543C32.7892 45.1904 32.9537 42.0878 32.4758 40.7794C32.3661 40.4739 32.2094 40.1135 32.0527 39.7374C31.4573 38.3272 30.713 36.5644 30.7757 34.9269C30.7835 34.7702 30.9167 34.637 31.0734 34.6449C31.2301 34.6527 31.3555 34.7859 31.3555 34.9426C31.3006 36.4468 32.0136 38.147 32.5855 39.5024C32.75 39.8863 32.8989 40.2545 33.0164 40.5679C33.5257 41.9468 33.4317 45.4254 33.0869 45.8799C32.9851 46.013 32.797 46.2167 32.6168 46.4048H32.7814C32.9381 46.4048 33.0713 46.538 33.0713 46.6947C33.0713 46.867 32.9381 47.0002 32.7814 47.0002Z" fill="#3F0F33"/>
</g>
</g>
<g id="Group_34">
<g id="Group_35">
<path id="Vector_17" d="M32.241 36.0393C32.2018 36.0393 32.1548 36.0314 32.1156 36.0079C29.9533 34.9738 29.8906 33.2893 29.8592 32.3883C29.8514 32.1689 29.8436 31.9652 29.8122 31.8712C29.7417 31.6832 29.5772 31.2366 29.3578 30.6725C28.8799 29.4268 28.1591 27.5464 27.8457 26.5671C27.4618 25.337 26.9917 25.0628 26.9839 25.0628C26.8507 24.9845 26.788 24.8121 26.8664 24.6711C26.9369 24.5301 27.1014 24.4752 27.2424 24.5379C27.313 24.5692 27.9319 24.9061 28.3941 26.3869C28.6997 27.3506 29.4127 29.2231 29.8906 30.461C30.1099 31.0329 30.2823 31.4795 30.3528 31.6753C30.4155 31.8555 30.4233 32.0827 30.439 32.3648C30.4703 33.2501 30.5252 34.5977 32.3663 35.483C32.5074 35.5535 32.57 35.7259 32.4995 35.8669C32.4525 35.9766 32.3428 36.0393 32.241 36.0393Z" fill="#3F0F33"/>
</g>
</g>
<g id="Group_36">
<g id="Group_37">
<path id="Vector_18" d="M54.5073 39.6588C54.4681 39.6588 54.4211 39.6509 54.3819 39.6274C54.2879 39.5804 52.0707 38.4757 52.1882 35.475C52.2039 35.052 52.2274 34.6524 52.243 34.2763C52.3449 32.2315 52.4076 31.0014 51.7024 30.5078C51.5692 30.4138 51.5379 30.2336 51.6319 30.1004C51.7259 29.9672 51.9061 29.9359 52.0393 30.0299C53.003 30.7115 52.9403 32.0669 52.8228 34.3077C52.8071 34.6837 52.7836 35.0755 52.7679 35.4985C52.7053 37.089 53.4026 38.0762 53.9588 38.6089C53.7943 37.8725 53.716 36.7678 54.2409 35.6239C55.0949 33.7592 55.8392 29.8027 53.7786 28.6902C51.6476 27.5385 50.5194 28.1731 50.4724 28.2044C50.3314 28.2828 50.159 28.2436 50.0728 28.1026C49.9945 27.9694 50.0336 27.7892 50.1668 27.703C50.2217 27.6638 51.6006 26.8568 54.0528 28.1809C56.6226 29.5677 55.6433 33.9551 54.7736 35.8668C53.9902 37.5669 54.7658 39.2279 54.7736 39.2435C54.8285 39.3532 54.805 39.4864 54.7188 39.5726C54.6561 39.6353 54.5856 39.6588 54.5073 39.6588Z" fill="#3F0F33"/>
</g>
</g>
<g id="Group_38">
<g id="Group_39">
<path id="Vector_19" d="M35.4297 26.1597C35.3278 26.1597 35.226 26.1048 35.179 26.0108C33.6434 23.2687 30.9874 19.0693 29.961 18.701C28.5351 18.1996 26.7958 18.3798 26.7801 18.3798C26.6156 18.3955 26.4746 18.278 26.4589 18.1213C26.4433 17.9646 26.5608 17.8157 26.7175 17.8C26.7958 17.7922 28.6056 17.6042 30.1569 18.1526C31.7239 18.701 35.2887 25.008 35.6882 25.7209C35.7666 25.862 35.7196 26.0343 35.5785 26.1127C35.5237 26.144 35.4767 26.1597 35.4297 26.1597Z" fill="#3F0F33"/>
</g>
</g>
</g>
</g>
</g>
<defs>
<filter id="filter0_d_461_1053" x="0" y="0" width="76.3052" height="90" filterUnits="userSpaceOnUse" color-interpolation-filters="sRGB">
<feFlood flood-opacity="0" result="BackgroundImageFix"/>
<feColorMatrix in="SourceAlpha" type="matrix" values="0 0 0 0 0 0 0 0 0 0 0 0 0 0 0 0 0 0 127 0" result="hardAlpha"/>
<feOffset dy="4"/>
<feGaussianBlur stdDeviation="7.5"/>
<feComposite in2="hardAlpha" operator="out"/>
<feColorMatrix type="matrix" values="0 0 0 0 0 0 0 0 0 0 0 0 0 0 0 0 0 0 0.25 0"/>
<feBlend mode="normal" in2="BackgroundImageFix" result="effect1_dropShadow_461_1053"/>
<feBlend mode="normal" in="SourceGraphic" in2="effect1_dropShadow_461_1053" result="shape"/>
</filter>
</defs>
</svg>
