<svg width="230" height="230" viewBox="0 0 230 230" fill="none" xmlns="http://www.w3.org/2000/svg">
<path d="M154.531 201.25H25.1562C24.2031 201.25 23.289 200.871 22.6151 200.197C21.9411 199.523 21.5625 198.609 21.5625 197.656V32.3438C21.5625 31.3906 21.9411 30.4765 22.6151 29.8026C23.289 29.1286 24.2031 28.75 25.1562 28.75H154.531C155.484 28.75 156.398 29.1286 157.072 29.8026C157.746 30.4765 158.125 31.3906 158.125 32.3438V61.0938C158.125 62.0469 157.746 62.961 157.072 63.6349C156.398 64.3089 155.484 64.6875 154.531 64.6875C153.578 64.6875 152.664 64.3089 151.99 63.6349C151.316 62.961 150.938 62.0469 150.938 61.0938V35.9375H28.75V194.062H150.938V186.875C150.938 185.922 151.316 185.008 151.99 184.334C152.664 183.66 153.578 183.281 154.531 183.281C155.484 183.281 156.398 183.66 157.072 184.334C157.746 185.008 158.125 185.922 158.125 186.875V197.656C158.125 198.609 157.746 199.523 157.072 200.197C156.398 200.871 155.484 201.25 154.531 201.25Z" fill="black"/>
<path d="M154.531 35.9375H25.1562C24.2031 35.9375 23.289 35.5589 22.6151 34.8849C21.9411 34.211 21.5625 33.2969 21.5625 32.3438V17.9688C21.5625 15.1094 22.6984 12.3671 24.7203 10.3453C26.7421 8.32338 29.4844 7.1875 32.3438 7.1875H147.344C150.203 7.1875 152.945 8.32338 154.967 10.3453C156.989 12.3671 158.125 15.1094 158.125 17.9688V32.3438C158.125 33.2969 157.746 34.211 157.072 34.8849C156.398 35.5589 155.484 35.9375 154.531 35.9375ZM28.75 28.75H150.938V17.9688C150.938 17.0156 150.559 16.1015 149.885 15.4276C149.211 14.7536 148.297 14.375 147.344 14.375H32.3438C31.3906 14.375 30.4765 14.7536 29.8026 15.4276C29.1286 16.1015 28.75 17.0156 28.75 17.9688V28.75Z" fill="black"/>
<path d="M97.0312 25.1562H82.6562C81.7031 25.1562 80.789 24.7776 80.1151 24.1037C79.4411 23.4297 79.0625 22.5156 79.0625 21.5625C79.0625 20.6094 79.4411 19.6953 80.1151 19.0213C80.789 18.3474 81.7031 17.9688 82.6562 17.9688H97.0312C97.9844 17.9688 98.8985 18.3474 99.5724 19.0213C100.246 19.6953 100.625 20.6094 100.625 21.5625C100.625 22.5156 100.246 23.4297 99.5724 24.1037C98.8985 24.7776 97.9844 25.1562 97.0312 25.1562Z" fill="black"/>
<path d="M147.344 222.812H32.3438C29.4844 222.812 26.7421 221.677 24.7203 219.655C22.6984 217.633 21.5625 214.891 21.5625 212.031V197.656C21.5625 196.703 21.9411 195.789 22.6151 195.115C23.289 194.441 24.2031 194.062 25.1562 194.062H154.531C155.484 194.062 156.398 194.441 157.072 195.115C157.746 195.789 158.125 196.703 158.125 197.656V212.031C158.125 214.891 156.989 217.633 154.967 219.655C152.945 221.677 150.203 222.812 147.344 222.812ZM28.75 201.25V212.031C28.75 212.984 29.1286 213.898 29.8026 214.572C30.4765 215.246 31.3906 215.625 32.3438 215.625H147.344C148.297 215.625 149.211 215.246 149.885 214.572C150.559 213.898 150.938 212.984 150.938 212.031V201.25H28.75Z" fill="black"/>
<path d="M97.0312 212.031H82.6562C81.7031 212.031 80.789 211.653 80.1151 210.979C79.4411 210.305 79.0625 209.391 79.0625 208.438C79.0625 207.484 79.4411 206.57 80.1151 205.896C80.789 205.222 81.7031 204.844 82.6562 204.844H97.0312C97.9844 204.844 98.8985 205.222 99.5724 205.896C100.246 206.57 100.625 207.484 100.625 208.438C100.625 209.391 100.246 210.305 99.5724 210.979C98.8985 211.653 97.9844 212.031 97.0312 212.031Z" fill="black"/>
<path d="M133.942 116.057C131.265 116.055 128.685 115.058 126.703 113.26C124.721 111.461 123.479 108.989 123.218 106.325L121.813 92.022C121.675 90.6128 121.816 89.1902 122.228 87.8355C122.64 86.4808 123.315 85.2205 124.214 84.1265C125.113 83.0326 126.218 82.1265 127.468 81.4599C128.717 80.7934 130.085 80.3794 131.495 80.2417L149.373 78.4844L152.881 114.253L134.998 116.007C134.647 116.041 134.295 116.058 133.942 116.057ZM142.926 86.3403L132.195 87.3933C131.725 87.4383 131.268 87.5757 130.851 87.7975C130.433 88.0194 130.064 88.3214 129.763 88.6863C129.463 89.0512 129.237 89.4717 129.1 89.9239C128.962 90.376 128.915 90.8509 128.961 91.3212L130.363 105.628C130.463 106.574 130.931 107.443 131.666 108.048C132.4 108.652 133.343 108.945 134.29 108.862L145.025 107.813L142.926 86.3403Z" fill="black"/>
<path d="M192.924 128.218C191.815 128.217 190.713 128.045 189.657 127.708L145.612 113.735L142.342 80.4067L182.836 58.147C184.4 57.2874 186.152 56.8293 187.937 56.8139C189.721 56.7984 191.481 57.2261 193.06 58.0586C194.638 58.891 195.985 60.1021 196.98 61.5834C197.975 63.0646 198.586 64.7697 198.76 66.5456L203.644 116.377C203.792 117.874 203.625 119.385 203.154 120.814C202.682 122.243 201.917 123.557 200.907 124.672C199.898 125.788 198.666 126.679 197.291 127.29C195.916 127.901 194.428 128.217 192.924 128.218ZM191.846 120.858C192.413 121.04 193.017 121.077 193.603 120.968C194.188 120.858 194.737 120.605 195.201 120.23C195.664 119.855 196.027 119.371 196.257 118.822C196.487 118.272 196.576 117.674 196.518 117.081L191.63 67.2428C191.572 66.6511 191.367 66.0832 191.036 65.5899C190.704 65.0966 190.255 64.6934 189.729 64.4163C189.203 64.1392 188.616 63.997 188.021 64.0023C187.427 64.0076 186.843 64.1604 186.322 64.4468L149.961 84.4209L152.3 108.316L191.846 120.858Z" fill="black"/>
<path d="M195.453 106.468L192.646 77.8546L196.24 77.4952C198.119 77.3112 200.016 77.499 201.822 78.0479C203.628 78.5969 205.308 79.4962 206.767 80.6945C208.226 81.8929 209.434 83.3668 210.323 85.0321C211.212 86.6975 211.764 88.5216 211.949 90.4004C212.133 92.2792 211.945 94.1758 211.396 95.982C210.847 97.7882 209.948 99.4686 208.749 100.927C207.551 102.386 206.077 103.594 204.412 104.483C202.746 105.372 200.922 105.925 199.043 106.109L195.453 106.468ZM200.596 85.2649L201.807 97.649C202.832 96.9146 203.645 95.9235 204.166 94.7754C204.686 93.6272 204.896 92.3624 204.773 91.1077C204.65 89.853 204.2 88.6527 203.467 87.6272C202.733 86.6016 201.743 85.787 200.596 85.2649Z" fill="black"/>
<path d="M145.379 111.31L152.532 110.605L154.105 126.581L146.952 127.286L145.379 111.31Z" fill="black"/>
<path d="M160.289 116.024L167.442 115.32L168.435 125.405L161.282 126.11L160.289 116.024Z" fill="black"/>
<path d="M82.6563 129.375C75.5485 129.375 68.6004 127.267 62.6905 123.318C56.7806 119.37 52.1744 113.757 49.4543 107.19C46.7343 100.623 46.0226 93.3977 47.4093 86.4265C48.796 79.4553 52.2187 73.0518 57.2446 68.0259C62.2706 62.9999 68.674 59.5772 75.6452 58.1905C82.6164 56.8039 89.8422 57.5156 96.409 60.2356C102.976 62.9556 108.588 67.5618 112.537 73.4717C116.486 79.3816 118.594 86.3298 118.594 93.4375C118.583 102.966 114.794 112.1 108.056 118.838C101.319 125.575 92.1843 129.365 82.6563 129.375ZM82.6563 64.6875C76.9701 64.6875 71.4115 66.3737 66.6836 69.5328C61.9557 72.6919 58.2708 77.182 56.0947 82.4354C53.9187 87.6887 53.3494 93.4694 54.4587 99.0464C55.568 104.623 58.3062 109.746 62.3269 113.767C66.3477 117.788 71.4705 120.526 77.0474 121.635C82.6244 122.744 88.405 122.175 93.6584 119.999C98.9118 117.823 103.402 114.138 106.561 109.41C109.72 104.682 111.406 99.1237 111.406 93.4375C111.398 85.8152 108.366 78.5075 102.976 73.1177C97.5863 67.7278 90.2786 64.6961 82.6563 64.6875Z" fill="black"/>
<path d="M129.375 201.25H46.7188C45.7656 201.25 44.8515 200.871 44.1776 200.197C43.5036 199.523 43.125 198.609 43.125 197.656V154.531C43.1336 147.862 45.7867 141.468 50.5025 136.753C55.2184 132.037 61.612 129.384 68.2813 129.375H86.25C93.662 129.387 100.966 131.156 107.561 134.537C114.157 137.919 119.857 142.816 124.193 148.828C124.48 149.21 124.688 149.646 124.804 150.11C124.921 150.573 124.944 151.056 124.872 151.528C124.8 152.001 124.634 152.454 124.384 152.862C124.135 153.27 123.806 153.624 123.418 153.903C123.03 154.182 122.59 154.381 122.124 154.488C121.659 154.595 121.176 154.608 120.705 154.527C120.234 154.445 119.784 154.27 119.381 154.012C118.979 153.755 118.631 153.419 118.36 153.025C114.69 147.939 109.866 143.795 104.285 140.933C98.703 138.071 92.5225 136.574 86.25 136.562H68.2813C63.5174 136.568 58.9503 138.463 55.5817 141.832C52.2132 145.2 50.3182 149.767 50.3125 154.531V194.062H125.781V176.094C125.781 174.983 125.735 173.884 125.648 172.798C125.607 172.327 125.66 171.853 125.803 171.402C125.946 170.951 126.176 170.533 126.481 170.171C126.786 169.81 127.159 169.512 127.579 169.295C127.999 169.078 128.458 168.946 128.929 168.906C129.401 168.859 129.877 168.907 130.33 169.048C130.782 169.188 131.202 169.418 131.564 169.724C131.926 170.031 132.222 170.406 132.436 170.83C132.649 171.253 132.776 171.714 132.807 172.187C132.915 173.467 132.969 174.768 132.969 176.079V197.642C132.971 198.115 132.879 198.584 132.699 199.022C132.52 199.459 132.255 199.857 131.921 200.192C131.587 200.528 131.191 200.794 130.754 200.975C130.317 201.157 129.848 201.25 129.375 201.25Z" fill="black"/>
<path d="M147.344 176.094H86.25C82.4375 176.094 78.7812 174.579 76.0853 171.883C73.3895 169.188 71.875 165.531 71.875 161.719C71.875 157.906 73.3895 154.25 76.0853 151.554C78.7812 148.858 82.4375 147.344 86.25 147.344H140.156C141.109 147.344 142.023 146.965 142.697 146.291C143.371 145.617 143.75 144.703 143.75 143.75V132.969C143.75 130.109 144.886 127.367 146.908 125.345C148.93 123.323 151.672 122.188 154.531 122.188H161.719C164.578 122.188 167.32 123.323 169.342 125.345C171.364 127.367 172.5 130.109 172.5 132.969V150.938C172.491 157.607 169.838 164 165.122 168.716C160.407 173.432 154.013 176.085 147.344 176.094ZM86.25 154.531C84.3438 154.531 82.5156 155.288 81.1677 156.636C79.8198 157.984 79.0625 159.813 79.0625 161.719C79.0625 163.625 79.8198 165.453 81.1677 166.801C82.5156 168.149 84.3438 168.906 86.25 168.906H147.344C152.108 168.901 156.675 167.006 160.043 163.637C163.412 160.268 165.307 155.701 165.312 150.938V132.969C165.312 132.016 164.934 131.102 164.26 130.428C163.586 129.754 162.672 129.375 161.719 129.375H154.531C153.578 129.375 152.664 129.754 151.99 130.428C151.316 131.102 150.938 132.016 150.938 132.969V143.75C150.938 146.609 149.802 149.352 147.78 151.373C145.758 153.395 143.016 154.531 140.156 154.531H86.25Z" fill="black"/>
</svg>
