<svg width="200" height="201" viewBox="0 0 200 201" fill="none" xmlns="http://www.w3.org/2000/svg">
<path d="M10 187.667H47.7C50.7183 187.671 53.6682 188.567 56.18 190.24L66.7867 197.31C70.392 199.713 74.6272 200.997 78.96 201H129.46C132.95 201.063 136.332 199.787 138.912 197.436C141.491 195.084 143.073 191.835 143.333 188.354C143.466 185.728 142.822 183.121 141.48 180.86C144.599 180.473 147.487 179.014 149.649 176.732C151.812 174.451 153.114 171.489 153.333 168.354C153.482 165.439 152.671 162.556 151.023 160.147C153.064 159.458 154.906 158.28 156.387 156.716C157.869 155.152 158.945 153.25 159.523 151.174C160.101 149.099 160.163 146.914 159.702 144.81C159.242 142.705 158.275 140.745 156.883 139.1C157.897 138.485 158.826 137.74 159.647 136.884C160.907 135.567 161.884 134.006 162.518 132.297C163.152 130.588 163.43 128.767 163.333 126.947C163.07 123.47 161.485 120.225 158.905 117.879C156.324 115.534 152.943 114.265 149.457 114.334H120V84.3336H192.423C193.849 84.333 195.245 83.93 196.452 83.1709C197.658 82.4118 198.626 81.3275 199.243 80.0428C199.861 78.758 200.103 77.325 199.942 75.9087C199.781 74.4924 199.223 73.1503 198.333 72.0369L179.29 48.2302C179.162 48.0702 179.093 47.8716 179.093 47.6669C179.093 47.4622 179.162 47.2636 179.29 47.1036L198.333 23.2969C199.225 22.1839 199.783 20.8416 199.945 19.4248C200.107 18.008 199.865 16.5744 199.247 15.2891C198.629 14.0039 197.661 12.9194 196.454 12.1605C195.247 11.4017 193.849 10.9995 192.423 11.0002H119.837C119.432 8.07315 117.929 5.40961 115.633 3.54979C113.336 1.68997 110.419 0.773087 107.471 0.985096C104.524 1.1971 101.768 2.52213 99.7612 4.69145C97.7547 6.86078 96.6484 9.712 96.6667 12.6669V94.3336H85.3767C82.1735 94.3252 79.0004 94.9523 76.0412 96.1784C73.0819 97.4046 70.3953 99.2055 68.1367 101.477L55.9733 113.644C54.6965 114.926 53.1778 115.942 51.5052 116.632C49.8326 117.323 48.0395 117.675 46.23 117.667H10C7.34784 117.667 4.8043 118.72 2.92893 120.596C1.05357 122.471 0 125.015 0 127.667L0 177.667C0 180.319 1.05357 182.863 2.92893 184.738C4.8043 186.613 7.34784 187.667 10 187.667ZM193.237 18.1769C193.316 18.3286 193.347 18.5005 193.328 18.6704C193.308 18.8403 193.238 19.0005 193.127 19.1302L174.083 42.9369C173.003 44.2765 172.413 45.9458 172.413 47.6669C172.413 49.3881 173.003 51.0573 174.083 52.3969L193.127 76.2036C193.233 76.336 193.3 76.4957 193.319 76.6644C193.338 76.8331 193.309 77.0038 193.236 77.1568C193.162 77.3098 193.047 77.4389 192.903 77.5292C192.759 77.6194 192.593 77.6672 192.423 77.6669H120V17.6669H192.423C192.594 17.661 192.763 17.7064 192.908 17.7973C193.053 17.8882 193.168 18.0204 193.237 18.1769ZM108.333 7.6669C109.659 7.6669 110.931 8.19369 111.869 9.13137C112.807 10.069 113.333 11.3408 113.333 12.6669V114.334H103.333V12.6669C103.333 11.3408 103.86 10.069 104.798 9.13137C105.735 8.19369 107.007 7.6669 108.333 7.6669ZM6.66667 127.667C6.66667 126.783 7.01786 125.935 7.64298 125.31C8.2681 124.685 9.11595 124.334 10 124.334H46.23C48.9152 124.343 51.5756 123.819 54.0571 122.793C56.5386 121.768 58.7919 120.26 60.6867 118.357L72.85 106.19C74.4912 104.54 76.4434 103.232 78.5936 102.341C80.7438 101.45 83.0493 100.994 85.3767 101H96.6667V114.334H90C89.116 114.334 88.2681 114.685 87.643 115.31C87.0179 115.935 86.6667 116.783 86.6667 117.667C86.6667 118.551 87.0179 119.399 87.643 120.024C88.2681 120.649 89.116 121 90 121H149.457C151.228 120.954 152.951 121.575 154.286 122.739C155.622 123.903 156.471 125.526 156.667 127.287C156.717 128.202 156.578 129.118 156.261 129.978C155.943 130.838 155.453 131.624 154.82 132.287C154.198 132.939 153.45 133.456 152.621 133.808C151.793 134.16 150.9 134.339 150 134.334H146.667C145.783 134.334 144.935 134.685 144.31 135.31C143.685 135.935 143.333 136.783 143.333 137.667C143.333 138.551 143.685 139.399 144.31 140.024C144.935 140.649 145.783 141 146.667 141C147.568 140.996 148.46 141.175 149.289 141.528C150.118 141.882 150.866 142.401 151.487 143.054C152.113 143.71 152.6 144.487 152.917 145.338C153.234 146.188 153.376 147.094 153.333 148C153.148 149.77 152.302 151.405 150.964 152.579C149.627 153.753 147.896 154.379 146.117 154.334H140C139.116 154.334 138.268 154.685 137.643 155.31C137.018 155.935 136.667 156.783 136.667 157.667C136.667 158.551 137.018 159.399 137.643 160.024C138.268 160.649 139.116 161 140 161C140.902 160.996 141.795 161.176 142.624 161.53C143.454 161.883 144.202 162.403 144.823 163.057C145.449 163.713 145.935 164.49 146.252 165.34C146.569 166.189 146.71 167.094 146.667 168C146.48 169.768 145.636 171.401 144.3 172.575C142.965 173.748 141.237 174.376 139.46 174.334H130C129.116 174.334 128.268 174.685 127.643 175.31C127.018 175.935 126.667 176.783 126.667 177.667C126.667 178.551 127.018 179.399 127.643 180.024C128.268 180.649 129.116 181 130 181C130.902 180.996 131.795 181.176 132.624 181.53C133.454 181.883 134.202 182.403 134.823 183.057C135.449 183.713 135.935 184.49 136.252 185.34C136.569 186.189 136.71 187.094 136.667 188C136.481 189.768 135.637 191.402 134.301 192.576C132.966 193.749 131.237 194.377 129.46 194.334H78.96C75.9417 194.329 72.9918 193.434 70.48 191.76L59.8733 184.69C56.268 182.287 52.0328 181.003 47.7 181H10C9.11595 181 8.2681 180.649 7.64298 180.024C7.01786 179.399 6.66667 178.551 6.66667 177.667V127.667Z" fill="black"/>
</svg>
