<svg width="20" height="20" viewBox="0 0 20 20" fill="none" xmlns="http://www.w3.org/2000/svg">
<g id="link 1" clip-path="url(#clip0_698_2107)">
<path id="Vector" d="M4.8522 19.9999C3.57455 20 2.36799 19.4937 1.43709 18.5628C0.462365 17.5881 -0.0467742 16.3109 0.0033819 14.9666C0.0552177 13.5782 0.682443 12.2445 1.81728 11.1096L3.86056 9.05804C4.16501 8.7523 4.65966 8.75128 4.9654 9.05578C5.27111 9.36023 5.27216 9.85492 4.96767 10.1606L2.9233 12.2134C1.26662 13.8701 1.11029 16.0263 2.54201 17.458C3.97376 18.8898 6.12997 18.7335 7.78544 17.0778L10.5935 14.2698C11.4446 13.4187 11.914 12.4468 11.9509 11.4594C11.9846 10.5543 11.6376 9.69023 10.9737 9.02632C10.7513 8.8039 10.5051 8.61515 10.2421 8.46535C9.86719 8.25179 9.73637 7.77472 9.94992 7.39984C10.1635 7.02492 10.6406 6.89414 11.0154 7.10766C11.3997 7.32656 11.7574 7.60039 12.0786 7.92152C13.0533 8.89625 13.5625 10.1734 13.5123 11.5177C13.4605 12.9061 12.8332 14.2399 11.6984 15.3747L8.89032 18.1827C7.75544 19.3176 6.42177 19.9448 5.03337 19.9967C4.9729 19.9988 4.9124 19.9999 4.8522 19.9999ZM10.0502 12.6001C10.2637 12.2252 10.1329 11.7481 9.75797 11.5346C9.49496 11.3848 9.24879 11.196 9.02637 10.9737C7.59466 9.54191 7.75098 7.3857 9.40653 5.73016L12.2146 2.92212C13.8702 1.26661 16.0264 1.11024 17.458 2.54196C18.8897 3.97368 18.7334 6.12988 17.0767 7.78656L15.0324 9.83933C14.7279 10.145 14.7289 10.6397 15.0346 10.9442C15.3403 11.2487 15.835 11.2476 16.1395 10.9419L18.1828 8.89027C19.3176 7.75543 19.9448 6.42172 19.9967 5.03336C20.0468 3.68903 19.5377 2.41184 18.563 1.43712C17.5882 0.462356 16.3104 -0.0467057 14.9667 0.00337228C13.5783 0.0552081 12.2446 0.682433 11.1098 1.81727L8.30168 4.62532C7.16684 5.76016 6.53966 7.09387 6.48778 8.48222C6.43763 9.82656 6.94677 11.1037 7.92149 12.0785C8.24262 12.3996 8.60032 12.6734 8.98465 12.8923C9.10668 12.9618 9.2395 12.9949 9.37059 12.9949C9.64219 12.9948 9.9061 12.853 10.0502 12.6001Z" fill="#016EEB"/>
</g>
<defs>
<clipPath id="clip0_698_2107">
<rect width="20" height="20" fill="white"/>
</clipPath>
</defs>
</svg>
