<svg width="20" height="20" viewBox="0 0 20 20" fill="none" xmlns="http://www.w3.org/2000/svg">
<g id="location 1">
<g id="Group">
<g id="Group_2">
<path id="Vector" d="M15.9638 2.47759C14.3662 0.879886 12.2419 0 9.98246 0C7.72299 0 5.59869 0.879886 4.00103 2.47759C2.40332 4.07533 1.52344 6.19956 1.52344 8.45898C1.52344 13.0298 5.84525 16.8316 8.1671 18.874C8.48975 19.1578 8.76839 19.4029 8.99038 19.6103C9.26851 19.8701 9.6255 20 9.98242 20C10.3394 20 10.6963 19.8701 10.9745 19.6103C11.1965 19.4029 11.4751 19.1578 11.7978 18.874C14.1196 16.8315 18.4414 13.0298 18.4414 8.45898C18.4414 6.19956 17.5615 4.07533 15.9638 2.47759ZM11.0239 17.9944C10.6942 18.2844 10.4095 18.5349 10.1747 18.7542C10.0669 18.8548 9.89796 18.8549 9.79007 18.7542C9.55534 18.5348 9.27058 18.2844 8.94085 17.9943C6.75803 16.0742 2.69493 12.5 2.69493 8.45902C2.69493 4.44072 5.96404 1.17161 9.98238 1.17161C14.0007 1.17161 17.2698 4.44072 17.2698 8.45902C17.2698 12.5 13.2068 16.0742 11.0239 17.9944Z" fill="#737373"/>
</g>
</g>
<g id="Group_3">
<g id="Group_4">
<path id="Vector_2" d="M9.98295 4.41162C7.93105 4.41162 6.26172 6.08385 6.26172 8.13936C6.26172 10.1949 7.93105 11.8671 9.98295 11.8671C12.0349 11.8671 13.7042 10.1949 13.7042 8.13936C13.7042 6.08385 12.0349 4.41162 9.98295 4.41162ZM9.98295 10.6955C8.57593 10.6955 7.43123 9.54878 7.43123 8.13932C7.43123 6.72987 8.57593 5.58315 9.98295 5.58315C11.39 5.58315 12.5346 6.72987 12.5346 8.13932C12.5346 9.54878 11.39 10.6955 9.98295 10.6955Z" fill="#737373"/>
</g>
</g>
</g>
</svg>
