<svg width="70" height="70" viewBox="0 0 70 70" fill="none" xmlns="http://www.w3.org/2000/svg">
<g id="pdf 1" clip-path="url(#clip0_110_7940)">
<path id="Vector" d="M21.7887 45.5178H57.6254C57.8794 45.5178 58.123 45.6187 58.3026 45.7983C58.4822 45.9779 58.5831 46.2215 58.5831 46.4755C58.5831 46.7295 58.4822 46.9731 58.3026 47.1527C58.123 47.3323 57.8794 47.4332 57.6254 47.4332H21.7887C21.6629 47.4332 21.5384 47.4084 21.4222 47.3603C21.306 47.3122 21.2004 47.2416 21.1115 47.1527C21.0225 47.0638 20.952 46.9582 20.9039 46.842C20.8557 46.7258 20.831 46.6013 20.831 46.4755C20.831 46.3497 20.8557 46.2252 20.9039 46.109C20.952 45.9928 21.0225 45.8872 21.1115 45.7983C21.2004 45.7094 21.306 45.6388 21.4222 45.5907C21.5384 45.5425 21.6629 45.5178 21.7887 45.5178ZM57.6254 52.6955H21.7887C21.5347 52.6955 21.2911 52.7964 21.1115 52.976C20.9319 53.1556 20.831 53.3992 20.831 53.6532C20.831 53.9072 20.9319 54.1508 21.1115 54.3304C21.2911 54.51 21.5347 54.6109 21.7887 54.6109H57.6254C57.8794 54.6109 58.123 54.51 58.3026 54.3304C58.4822 54.1508 58.5831 53.9072 58.5831 53.6532C58.5831 53.3992 58.4822 53.1556 58.3026 52.976C58.123 52.7964 57.8794 52.6955 57.6254 52.6955ZM15.5023 25.8228H12.5837V28.5355H15.5019C15.8617 28.5355 16.2067 28.3926 16.461 28.1383C16.7154 27.8839 16.8583 27.5389 16.8583 27.1791C16.8583 26.8194 16.7154 26.4744 16.461 26.22C16.2067 25.9657 15.8617 25.8228 15.5019 25.8228H15.5023ZM57.6254 59.8732H21.7887C21.663 59.8732 21.5385 59.898 21.4224 59.9461C21.3063 59.9942 21.2008 60.0647 21.1119 60.1535C21.0231 60.2424 20.9526 60.3479 20.9045 60.464C20.8564 60.5801 20.8316 60.7046 20.8316 60.8303C20.8316 60.956 20.8564 61.0804 20.9045 61.1965C20.9526 61.3126 21.0231 61.4181 21.1119 61.507C21.2008 61.5959 21.3063 61.6664 21.4224 61.7145C21.5385 61.7626 21.663 61.7873 21.7887 61.7873H57.6254C57.8792 61.7873 58.1226 61.6865 58.3021 61.507C58.4816 61.3275 58.5824 61.0841 58.5824 60.8303C58.5824 60.5765 58.4816 60.333 58.3021 60.1535C58.1226 59.9741 57.8792 59.8732 57.6254 59.8732ZM25.9698 31.0276V27.959C25.9686 27.3923 25.7428 26.8492 25.3417 26.4489C24.9407 26.0486 24.3972 25.8236 23.8306 25.8234H21.6912V33.1676H23.8306C24.3978 33.1669 24.9417 32.9412 25.3428 32.54C25.7438 32.1388 25.9693 31.5949 25.9698 31.0276ZM65.7369 20.5516V64.1279C65.7346 65.6853 65.1146 67.1781 64.013 68.279C62.9114 69.3798 61.4181 69.9987 59.8607 70H19.552C17.9947 69.9987 16.5016 69.3797 15.4002 68.2788C14.2989 67.178 13.6792 65.6852 13.6771 64.1279V39.3955H6.30527C5.76378 39.3947 5.24468 39.1793 4.86179 38.7964C4.4789 38.4135 4.26345 37.8944 4.2627 37.3529V21.6371C4.2632 21.0955 4.47856 20.5763 4.86151 20.1933C5.24446 19.8104 5.7637 19.595 6.30527 19.5945H13.6771V5.8748C13.6788 4.31723 14.2983 2.82394 15.3997 1.72257C16.5011 0.621198 17.9944 0.00170086 19.552 0L45.1853 0C45.4391 0.000519195 45.6823 0.101255 45.8621 0.280273L65.4566 19.8748C65.6357 20.0546 65.7364 20.2978 65.7369 20.5516ZM15.5019 30.45C15.9315 30.45 16.3568 30.3654 16.7537 30.201C17.1505 30.0366 17.5111 29.7957 17.8149 29.4919C18.1186 29.1882 18.3596 28.8276 18.5239 28.4308C18.6883 28.0339 18.7729 27.6086 18.7729 27.179C18.7729 26.7495 18.6883 26.3241 18.5239 25.9272C18.3596 25.5304 18.1186 25.1698 17.8149 24.8661C17.5111 24.5623 17.1505 24.3214 16.7537 24.157C16.3568 23.9926 15.9315 23.908 15.5019 23.908H11.6264C11.3725 23.908 11.1291 24.0088 10.9496 24.1883C10.7702 24.3678 10.6693 24.6112 10.6693 24.865V34.1238C10.6693 34.2495 10.6941 34.3739 10.7422 34.49C10.7903 34.6061 10.8608 34.7116 10.9496 34.8005C11.0385 34.8894 11.144 34.9599 11.2601 35.008C11.3762 35.056 11.5007 35.0808 11.6264 35.0808C11.752 35.0808 11.8765 35.056 11.9926 35.008C12.1087 34.9599 12.2142 34.8894 12.3031 34.8005C12.392 34.7116 12.4625 34.6061 12.5105 34.49C12.5586 34.3739 12.5834 34.2495 12.5834 34.1238V30.4501L15.5019 30.45ZM63.8228 21.51H47.917C46.9387 21.5087 46.0008 21.1196 45.3091 20.4278C44.6173 19.7361 44.2282 18.7982 44.2269 17.8199V1.91406H19.552C18.5019 1.91544 17.4953 2.33317 16.7528 3.07566C16.0103 3.81814 15.5926 4.82477 15.5912 5.8748V19.5945H41.3559C41.8974 19.595 42.4167 19.8104 42.7996 20.1933C43.1826 20.5763 43.3979 21.0955 43.3984 21.6371V37.3529C43.3977 37.8944 43.1822 38.4135 42.7993 38.7964C42.4164 39.1793 41.8973 39.3947 41.3559 39.3955H15.5912V64.1279C15.593 65.1776 16.011 66.1837 16.7534 66.9256C17.4959 67.6676 18.5023 68.0849 19.552 68.0859H59.8607C60.9106 68.0852 61.9174 67.6681 62.6601 66.9261C63.4029 66.1841 63.821 65.1778 63.8228 64.1279V21.51ZM20.7339 35.082H23.8306C24.9053 35.0808 25.9357 34.6533 26.6956 33.8933C27.4556 33.1333 27.883 32.1029 27.8843 31.0282V27.959C27.8826 26.8847 27.4549 25.855 26.6949 25.0957C25.935 24.3364 24.9048 23.9096 23.8306 23.9088H20.7339C20.4801 23.9088 20.2366 24.0097 20.0572 24.1891C19.8777 24.3686 19.7769 24.612 19.7769 24.8659V34.1246C19.7768 34.2503 19.8015 34.3748 19.8496 34.491C19.8977 34.6071 19.9681 34.7127 20.057 34.8016C20.1459 34.8905 20.2514 34.961 20.3675 35.0091C20.4837 35.0573 20.6082 35.082 20.7339 35.082ZM30.8025 28.5355V25.8228H36.0345C36.2883 25.8228 36.5317 25.7219 36.7112 25.5424C36.8907 25.363 36.9915 25.1195 36.9915 24.8657C36.9915 24.6119 36.8907 24.3685 36.7112 24.189C36.5317 24.0095 36.2883 23.9087 36.0345 23.9087H29.8455C29.5917 23.9087 29.3483 24.0095 29.1688 24.189C28.9893 24.3685 28.8885 24.6119 28.8885 24.8657V34.1245C28.8885 34.3783 28.9893 34.6217 29.1688 34.8012C29.3483 34.9807 29.5917 35.0815 29.8455 35.0815C30.0993 35.0815 30.3427 34.9807 30.5222 34.8012C30.7017 34.6217 30.8025 34.3783 30.8025 34.1245V30.4501H35.116C35.3698 30.4501 35.6133 30.3493 35.7927 30.1698C35.9722 29.9904 36.073 29.7469 36.073 29.4931C36.073 29.2393 35.9722 28.9959 35.7927 28.8164C35.6133 28.6369 35.3698 28.5361 35.116 28.5361L30.8025 28.5355Z" fill="#F94852"/>
</g>
<defs>
<clipPath id="clip0_110_7940">
<rect width="70" height="70" fill="white"/>
</clipPath>
</defs>
</svg>
