<svg width="30" height="30" viewBox="0 0 30 30" fill="none" xmlns="http://www.w3.org/2000/svg">
<path d="M26.7047 9.27183H25.4531V4.90308C25.4531 4.64058 25.2422 4.43433 24.9844 4.43433H22.7016V2.18433C22.7016 1.92183 22.4906 1.71558 22.2328 1.71558H7.76719C7.50937 1.71558 7.29844 1.92183 7.29844 2.18433V4.43433H5.02031C4.7625 4.43433 4.55156 4.64058 4.55156 4.90308V9.27183H3.29531C1.99688 9.27183 0.9375 10.3312 0.9375 11.6296V19.1109C0.9375 20.4093 1.99688 21.4687 3.29531 21.4687H6.87187L6.15469 27.764C6.14062 27.8953 6.18281 28.0312 6.27187 28.1296C6.36094 28.2281 6.4875 28.2843 6.61875 28.2843H23.3813C23.5172 28.2843 23.6438 28.2281 23.7328 28.1296C23.8219 28.0312 23.8641 27.8953 23.8453 27.764L23.1281 21.4687H26.7047C28.0031 21.4687 29.0625 20.4093 29.0625 19.1109V11.6296C29.0625 10.3312 28.0031 9.27183 26.7047 9.27183ZM9.21094 12.5578C9.21094 12.8156 9 13.0265 8.74219 13.0265H7.58438C7.32656 13.0265 7.11563 12.8156 7.11563 12.5578C7.11563 12.3 7.32656 12.089 7.58438 12.089H8.74219C9 12.089 9.21094 12.2953 9.21094 12.5578ZM4.17187 12.089H5.32969C5.5875 12.089 5.79844 12.2953 5.79844 12.5578C5.79844 12.8203 5.5875 13.0265 5.32969 13.0265H4.17187C3.91406 13.0265 3.70312 12.8156 3.70312 12.5578C3.70312 12.3 3.91406 12.089 4.17187 12.089ZM8.23594 2.65308H21.7641V9.27183H8.23594V2.65308ZM7.14375 27.3468L8.14219 18.5906H21.8625L22.8562 27.3468H7.14375ZM23.025 20.5312L22.7437 18.0656C22.7203 17.8312 22.5187 17.6531 22.2797 17.6531H7.725C7.48594 17.6531 7.28437 17.8312 7.25625 18.0656L6.975 20.5312H5.99062V15.839H24.0094V20.5312H23.025Z" fill="#A19061"/>
<path d="M10.8047 20.8031H19.2C19.4578 20.8031 19.6687 20.5922 19.6687 20.3344C19.6687 20.0765 19.4578 19.8656 19.2 19.8656H10.8047C10.5469 19.8656 10.3359 20.0765 10.3359 20.3344C10.3359 20.5922 10.5469 20.8031 10.8047 20.8031Z" fill="#A19061"/>
<path d="M10.3174 23.4375H19.683C19.9408 23.4375 20.1518 23.2266 20.1518 22.9688C20.1518 22.7109 19.9408 22.5 19.683 22.5H10.3174C10.0596 22.5 9.84863 22.7109 9.84863 22.9688C9.84863 23.2266 10.0596 23.4375 10.3174 23.4375Z" fill="#A19061"/>
<path d="M20.1607 25.1344H9.83887C9.58105 25.1344 9.37012 25.3453 9.37012 25.6031C9.37012 25.861 9.58105 26.0719 9.83887 26.0719H20.1607C20.4186 26.0719 20.6295 25.861 20.6295 25.6031C20.6295 25.3453 20.4186 25.1344 20.1607 25.1344Z" fill="#A19061"/>
</svg>
