<svg width="220" height="220" viewBox="0 0 220 220" fill="none" xmlns="http://www.w3.org/2000/svg">
<path d="M176.125 69.0293C176.619 69.7898 177.444 70.2023 178.286 70.2023C178.767 70.2023 179.257 70.0691 179.691 69.7855L196.139 59.0777C196.711 58.7039 197.115 58.1195 197.257 57.4492C197.398 56.7789 197.27 56.0828 196.896 55.5113L165.722 7.61835C164.944 6.42382 163.35 6.08866 162.155 6.8621L145.707 17.5699C145.136 17.9437 144.732 18.5281 144.59 19.1984C144.448 19.8687 144.577 20.5648 144.951 21.1363L148.732 26.9457C141.298 27.9168 138.514 27.2121 134.286 26.1422C131.901 25.5363 129.203 24.8531 125.168 24.2816C121.791 23.809 118.791 24.823 115.616 25.9016C114.731 26.2023 113.82 26.5117 112.892 26.791C111.358 27.2508 109.863 27.6762 108.419 28.0887C106.451 28.6516 104.41 29.2359 102.197 29.9191C95.6227 30.0738 88.4168 28.4152 83.6301 25.7211L86.6164 21.132C86.9902 20.5605 87.1191 19.8601 86.9773 19.1941C86.8355 18.5238 86.4359 17.9394 85.8602 17.5656L69.4117 6.8578C68.2172 6.08007 66.623 6.41952 65.8453 7.61405L34.6801 55.5113C33.9023 56.7059 34.2418 58.3 35.4363 59.0777L51.8848 69.7855C52.3059 70.0605 52.7957 70.2023 53.2898 70.2023C53.466 70.2023 53.6465 70.1851 53.8227 70.1465C54.493 70.0047 55.0773 69.6051 55.4512 69.0293L58.6352 64.1394C60.2594 66.6316 62.3047 69.2398 65.1965 71.775L63.9246 73.4809C61.0027 77.4039 61.8191 82.9726 65.7422 85.8945C67.0699 86.8828 68.6125 87.4629 70.2238 87.6047C70.0434 88.5629 70.0133 89.5512 70.1594 90.5437C70.5031 92.8941 71.7363 94.9652 73.6312 96.3746C75.1738 97.5219 77.0043 98.1234 78.8992 98.1234C79.3332 98.1234 79.7715 98.0934 80.2098 98.0289C80.4547 97.9945 80.6996 97.943 80.9402 97.8871C81.3828 100.096 82.5816 101.965 84.3477 103.164C85.8773 104.285 87.6906 104.874 89.5641 104.874C89.998 104.874 90.4363 104.844 90.8789 104.779C91.8371 104.637 92.748 104.341 93.5902 103.92C94.1746 105.402 95.1586 106.752 96.5293 107.77C98.1148 108.952 99.9754 109.523 101.814 109.523C103.8 109.523 105.763 108.857 107.357 107.585V121.331H46.9391C45.5168 121.331 44.3609 122.487 44.3609 123.909V150.012C37.3613 151.237 32.0203 157.356 32.0203 164.704C32.0203 169.598 34.3879 173.946 38.0359 176.666C29.15 179.459 22.6875 187.773 22.6875 197.57V207.204C22.6875 210.706 25.5363 213.555 29.0383 213.555H64.8355C68.3375 213.555 71.1863 210.706 71.1863 207.204V197.57C71.1863 187.773 64.7238 179.459 55.8379 176.666C59.4859 173.946 61.8535 169.593 61.8535 164.704C61.8535 157.356 56.5168 151.241 49.5129 150.012V126.487H107.357V150.012C100.358 151.237 95.0168 157.356 95.0168 164.704C95.0168 169.598 97.3844 173.946 101.032 176.666C92.1465 179.459 85.684 187.773 85.684 197.57V207.204C85.684 210.706 88.5328 213.555 92.0348 213.555H127.832C131.334 213.555 134.183 210.706 134.183 207.204V197.57C134.183 187.773 127.72 179.459 118.834 176.666C122.482 173.946 124.85 169.593 124.85 164.704C124.85 157.356 119.513 151.241 112.509 150.012V126.487H170.35V150.012C163.35 151.237 158.009 157.356 158.009 164.704C158.009 169.598 160.377 173.946 164.025 176.666C155.139 179.459 148.676 187.773 148.676 197.57V207.204C148.676 210.706 151.525 213.555 155.027 213.555H190.824C194.326 213.555 197.175 210.706 197.175 207.204V197.57C197.175 187.773 190.713 179.459 181.827 176.666C185.475 173.946 187.842 169.593 187.842 164.704C187.842 157.356 182.505 151.241 175.502 150.012V123.909C175.502 122.487 174.346 121.331 172.923 121.331H112.514V105.132L117.614 108.556C119.174 109.605 120.97 110.146 122.809 110.146C123.428 110.146 124.051 110.086 124.674 109.961C127.145 109.467 129.267 108.045 130.651 105.952C131.6 104.521 132.095 102.919 132.193 101.312C133.01 101.539 133.852 101.664 134.703 101.664C135.321 101.664 135.945 101.604 136.563 101.479C139.034 100.985 141.157 99.5629 142.545 97.466C143.494 96.0309 143.993 94.4281 144.087 92.8211C144.899 93.0488 145.737 93.1691 146.584 93.1691C147.202 93.1691 147.825 93.109 148.444 92.9844C150.915 92.4902 153.038 91.068 154.425 88.9754C155.818 86.8742 156.247 84.4121 155.839 82.1047C156.093 82.0746 156.35 82.0402 156.604 81.9887C159.075 81.4945 161.197 80.0723 162.581 77.9797C164.252 75.4574 164.54 72.4152 163.642 69.7383C166.392 68.2043 169.387 66.232 172.7 63.7785L176.125 69.0293ZM66.0301 197.57V207.204C66.0301 207.861 65.493 208.398 64.8355 208.398H29.0383C28.3809 208.398 27.8438 207.861 27.8438 207.204V197.57C27.8438 188.332 35.359 180.817 44.5973 180.817H49.2766C58.5148 180.817 66.0301 188.332 66.0301 197.57ZM56.6973 164.699C56.6973 170.083 52.3188 174.462 46.9348 174.462C41.5508 174.462 37.1723 170.083 37.1723 164.699C37.1723 159.315 41.5508 154.937 46.9348 154.937C52.3188 154.941 56.6973 159.32 56.6973 164.699ZM129.031 197.57V207.204C129.031 207.861 128.494 208.398 127.836 208.398H92.0391C91.3816 208.398 90.8445 207.861 90.8445 207.204V197.57C90.8445 188.332 98.3598 180.817 107.598 180.817H112.277C121.516 180.817 129.031 188.332 129.031 197.57ZM119.698 164.699C119.698 170.083 115.32 174.462 109.936 174.462C104.552 174.462 100.173 170.083 100.173 164.699C100.173 159.315 104.552 154.937 109.936 154.937C115.32 154.937 119.698 159.32 119.698 164.699ZM192.027 197.57V207.204C192.027 207.861 191.49 208.398 190.833 208.398H155.036C154.378 208.398 153.841 207.861 153.841 207.204V197.57C153.841 188.332 161.356 180.817 170.595 180.817H175.274C184.512 180.817 192.027 188.332 192.027 197.57ZM182.695 164.699C182.695 170.083 178.316 174.462 172.932 174.462C167.548 174.462 163.17 170.083 163.17 164.699C163.17 159.315 167.548 154.937 172.932 154.937C178.316 154.937 182.695 159.32 182.695 164.699ZM162.809 12.5898L191.168 56.1644L179.038 64.0578L150.679 20.4832L162.809 12.5898ZM52.5336 64.0578L40.4078 56.1644L68.7672 12.5898L80.8973 20.4832L52.5336 64.0578ZM68.0582 76.5617L74.4906 67.9164C75.7152 66.2707 78.0441 65.9312 79.6898 67.1558C81.3055 68.359 81.6535 70.7351 80.4547 72.3508L74.018 81.0004C73.4293 81.791 72.5613 82.3066 71.5773 82.4484C70.5891 82.5945 69.6137 82.3496 68.823 81.7609C67.2031 80.5578 66.8551 78.1773 68.0582 76.5617ZM79.4664 92.9285C78.4781 93.0746 77.5027 92.8297 76.7121 92.241C75.9215 91.6523 75.4059 90.7844 75.2641 89.8004C75.118 88.8121 75.3629 87.8367 75.9516 87.0461L86.7969 72.4668C87.5273 71.4871 88.6488 70.9715 89.7832 70.9715C90.5523 70.9715 91.3301 71.2121 91.9961 71.7062C93.6375 72.9309 93.9812 75.2641 92.7566 76.9055L81.907 91.4805C81.3184 92.2668 80.4504 92.7824 79.4664 92.9285ZM90.1312 99.6746C89.143 99.8207 88.1676 99.5758 87.377 98.9871C87.3426 98.9613 87.3039 98.9355 87.2695 98.9098C86.3586 98.2996 86.0621 97.3027 85.9719 96.7613C85.7871 95.6957 86.0277 94.5871 86.6164 93.7922L95.4164 81.9715C96.0051 81.1809 96.873 80.6652 97.857 80.5234C98.8453 80.3773 99.8207 80.6223 100.611 81.2109C101.398 81.7953 101.909 82.6633 102.055 83.6559C102.201 84.6484 101.961 85.6238 101.376 86.4101L92.5805 98.2266C91.9875 99.0172 91.1195 99.5328 90.1312 99.6746ZM99.6059 103.636C97.9902 102.433 97.6422 100.057 98.841 98.4414L102.932 92.9457C103.52 92.1551 104.388 91.6437 105.372 91.4977C106.361 91.3516 107.336 91.5965 108.127 92.1851C108.161 92.2109 108.2 92.2367 108.234 92.2625C109.145 92.8727 109.441 93.8695 109.532 94.4109C109.716 95.4809 109.476 96.5894 108.887 97.3844L104.801 102.876C103.58 104.517 101.252 104.857 99.6059 103.636ZM158.288 75.1265C157.665 76.0676 156.711 76.7078 155.598 76.9269C154.486 77.1504 153.355 76.9269 152.423 76.2996L151.826 75.8957L129.912 61.1918C128.73 60.3969 127.127 60.7148 126.332 61.8965C125.538 63.0781 125.855 64.6809 127.037 65.4758L148.955 80.184C150.911 81.4988 151.443 84.1629 150.141 86.1266C149.518 87.0676 148.56 87.7078 147.447 87.9312C146.334 88.1547 145.209 87.9312 144.272 87.3039L125.039 74.3832C123.857 73.5883 122.255 73.9019 121.46 75.0836C120.665 76.2652 120.979 77.868 122.164 78.6629L137.027 88.6445C137.04 88.6531 137.053 88.6617 137.066 88.6703C139.021 89.9851 139.554 92.6492 138.252 94.6129C137.629 95.5539 136.671 96.1941 135.558 96.4176C134.445 96.641 133.319 96.4176 132.387 95.7902L117.764 85.9633C116.583 85.1684 114.98 85.482 114.185 86.6637C113.39 87.8453 113.704 89.448 114.886 90.243L125.121 97.118C125.138 97.1309 125.151 97.1437 125.168 97.1523C127.123 98.4672 127.656 101.131 126.354 103.095C125.731 104.036 124.777 104.676 123.664 104.895C122.551 105.119 121.425 104.895 120.489 104.268L113.571 99.623C114.606 97.827 114.993 95.6527 114.623 93.5215C114.224 91.2012 112.995 89.2461 111.16 88C109.918 87.0891 108.487 86.5391 106.992 86.3586C107.271 85.2457 107.332 84.0726 107.16 82.8953C106.816 80.5406 105.583 78.4695 103.696 77.0644C102.21 75.9558 100.448 75.3629 98.6219 75.3242C98.8324 72.4023 97.6035 69.4332 95.0812 67.5598C92.2711 65.4672 88.6188 65.3039 85.6969 66.8164C85.1082 65.3512 84.1328 64.0191 82.775 63.0094C78.852 60.0875 73.2832 60.9039 70.3613 64.8269L68.2902 67.6113C65.2695 64.8957 63.3445 62.0812 61.7461 59.357L80.8199 30.048C84.7773 32.3469 89.6629 33.7992 94.3637 34.5211C93.7664 35.1656 93.2121 35.866 92.7008 36.6308L85.2457 47.7297C84.4508 48.9113 84.7645 50.5141 85.9504 51.309L88.0559 52.7226C94.875 57.3031 102.601 55.6531 109.807 48.082L111.577 46.2215C111.83 45.9551 112.097 45.8605 112.466 45.9164C116.119 46.4492 119.238 46.5051 122.706 46.0926L157.102 69.1754C159.057 70.4945 159.59 73.1629 158.288 75.1265ZM160.72 65.4586C160.484 65.2609 160.235 65.0762 159.973 64.9L124.768 41.2758C124.24 40.9234 123.6 40.773 122.968 40.8633C119.561 41.3445 116.733 41.3316 113.201 40.8203C111.19 40.5281 109.235 41.2027 107.834 42.6723L106.064 44.5328C100.65 50.2176 95.5668 51.5453 90.9562 48.4687L96.9762 39.5098C98.4543 37.3098 100.319 35.9133 102.85 35.1141C105.355 34.3234 107.632 33.6746 109.837 33.043C111.298 32.6262 112.81 32.1922 114.374 31.7238C115.393 31.4187 116.351 31.0922 117.279 30.7785C119.969 29.8633 122.289 29.0726 124.45 29.382C128.206 29.9105 130.762 30.5637 133.023 31.1351C137.938 32.3855 141.565 33.3008 151.834 31.7023L169.886 59.443C166.478 61.9867 163.453 63.9676 160.72 65.4586Z" fill="black"/>
</svg>
