<svg width="153" height="153" viewBox="0 0 153 153" fill="none" xmlns="http://www.w3.org/2000/svg">
<path d="M122.878 58.8096L86.5406 21.0377C85.1063 19.6034 83.1938 19.1252 81.2812 20.0815C79.3687 21.0377 78.4125 22.4721 78.4125 24.3846V39.6846C50.6812 41.119 28.6875 64.069 28.6875 91.8002C28.6875 107.578 35.8594 122.4 48.2906 132.441C48.7688 132.919 49.725 133.397 50.6813 133.397C51.6375 133.397 52.1156 132.919 53.0719 132.441C54.5063 131.485 54.5063 129.572 54.0281 127.66C51.6375 123.356 50.2031 118.575 50.2031 113.316C50.2031 97.5377 63.1125 84.6284 78.8906 84.6284V99.4502C78.8906 101.363 80.325 103.275 81.7594 103.753C83.6719 104.71 85.5844 104.231 87.0188 102.797L123.356 65.0252C124.791 63.5909 124.791 60.7221 122.878 58.8096Z" fill="#A19061"/>
</svg>
