<svg width="102" height="254" viewBox="0 0 102 254" fill="none" xmlns="http://www.w3.org/2000/svg">
<g clip-path="url(#clip0_1167_1812)">
<g opacity="0.5">
<path fill-rule="evenodd" clip-rule="evenodd" d="M186.328 187.619C212.627 164.931 248.434 123.807 256.024 103.265C267.583 71.9845 252.669 51.6247 221.775 36.6625C163.806 8.58806 70.7501 32.916 37.9295 61.2377C7.27364 87.6913 -1.63623 107.008 6.04933 133.424C13.7349 159.84 18.7869 178.575 7.07098 203.872C-4.47113 228.795 1.33451 243.302 18.8517 248.568C37.7978 254.264 63.9422 253.286 95.2778 241.977C127.246 230.44 160.036 210.301 186.328 187.619Z" fill="#EFDFB2"/>
<path fill-rule="evenodd" clip-rule="evenodd" d="M186.328 155.635C212.627 132.947 248.434 91.8225 256.024 71.2805C267.583 40.0001 252.669 19.6403 221.775 4.67813C163.806 -23.3963 70.7501 0.931581 37.9295 29.2533C7.27364 55.7069 -1.63623 75.0235 6.04933 101.44C13.7349 127.856 18.7869 146.59 7.07098 171.888C-4.47113 196.811 1.33451 211.318 18.8517 216.584C37.7978 222.279 63.9422 221.301 95.2778 209.993C127.246 198.456 160.036 178.317 186.328 155.635Z" stroke="#A19061"/>
</g>
</g>
<defs>
<clipPath id="clip0_1167_1812">
<rect width="102" height="254" fill="white"/>
</clipPath>
</defs>
</svg>
