<svg width="28" height="28" viewBox="0 0 28 28" fill="none" xmlns="http://www.w3.org/2000/svg">
<path d="M22.2031 18.1562C20.5821 18.1562 19.1537 18.9536 18.2565 20.1663L10.4995 16.1943C10.6282 15.7553 10.7188 15.3004 10.7188 14.8203C10.7188 14.1692 10.5853 13.5502 10.3546 12.9808L18.4727 8.09572C19.3762 9.156 20.7041 9.84375 22.2031 9.84375C24.9172 9.84375 27.125 7.63596 27.125 4.92188C27.125 2.20779 24.9172 0 22.2031 0C19.489 0 17.2812 2.20779 17.2812 4.92188C17.2812 5.54734 17.41 6.14064 17.6237 6.69145L9.48145 11.5909C8.57877 10.5621 7.26999 9.89844 5.79688 9.89844C3.08279 9.89844 0.875 12.1062 0.875 14.8203C0.875 17.5344 3.08279 19.7422 5.79688 19.7422C7.44461 19.7422 8.89716 18.9214 9.79098 17.6747L17.5225 21.6338C17.3801 22.0935 17.2812 22.5723 17.2812 23.0781C17.2812 25.7922 19.489 28 22.2031 28C24.9172 28 27.125 25.7922 27.125 23.0781C27.125 20.364 24.9172 18.1562 22.2031 18.1562Z" fill="#A19061"/>
</svg>
