<svg width="70" height="12" viewBox="0 0 70 12" fill="none" xmlns="http://www.w3.org/2000/svg">
<g id="Group 1171275923">
<path id="Vector" d="M11.7684 4.71599L9.16189 7.25679L9.77743 10.8454C9.80421 11.0023 9.73977 11.1609 9.61088 11.2546C9.53807 11.3078 9.45146 11.3345 9.36484 11.3345C9.2983 11.3345 9.23135 11.3186 9.17026 11.2864L5.94739 9.59214L2.72494 11.286C2.58434 11.3605 2.4132 11.3484 2.28432 11.2542C2.15543 11.1605 2.09099 11.0019 2.11777 10.845L2.73331 7.25637L0.126391 4.71599C0.0125733 4.60468 -0.0288529 4.43814 0.0205237 4.28708C0.0699003 4.13602 0.200874 4.02513 0.358628 4.00212L3.96103 3.47906L5.57204 0.214349C5.71306 -0.0714496 6.18172 -0.0714496 6.32274 0.214349L7.93375 3.47906L11.5362 4.00212C11.6939 4.02513 11.8249 4.1356 11.8743 4.28708C11.9236 4.43856 11.8822 4.60426 11.7684 4.71599Z" fill="#FFA910"/>
<path id="Vector_2" d="M26.8817 4.71599L24.2752 7.25679L24.8907 10.8454C24.9175 11.0023 24.853 11.1609 24.7242 11.2546C24.6514 11.3078 24.5647 11.3345 24.4781 11.3345C24.4116 11.3345 24.3446 11.3186 24.2835 11.2864L21.0607 9.59214L17.8382 11.286C17.6976 11.3605 17.5265 11.3484 17.3976 11.2542C17.2687 11.1605 17.2043 11.0019 17.2311 10.845L17.8466 7.25637L15.2397 4.71599C15.1259 4.60468 15.0844 4.43814 15.1338 4.28708C15.1832 4.13602 15.3142 4.02513 15.4719 4.00212L19.0743 3.47906L20.6853 0.214349C20.8263 -0.0714496 21.295 -0.0714496 21.436 0.214349L23.047 3.47906L26.6494 4.00212C26.8072 4.02513 26.9382 4.1356 26.9875 4.28708C27.0369 4.43856 26.9955 4.60426 26.8817 4.71599Z" fill="#FFA910"/>
<g id="star">
<path id="Vector_3" d="M41.0496 4.71599L38.4431 7.25679L39.0587 10.8454C39.0855 11.0023 39.021 11.1609 38.8921 11.2546C38.8193 11.3078 38.7327 11.3345 38.6461 11.3345C38.5796 11.3345 38.5126 11.3186 38.4515 11.2864L35.2286 9.59214L32.0062 11.286C31.8656 11.3605 31.6944 11.3484 31.5656 11.2542C31.4367 11.1605 31.3722 11.0019 31.399 10.845L32.0146 7.25637L29.4076 4.71599C29.2938 4.60468 29.2524 4.43814 29.3018 4.28708C29.3512 4.13602 29.4821 4.02513 29.6399 4.00212L33.2423 3.47906L34.8533 0.214349C34.9943 -0.0714496 35.463 -0.0714496 35.604 0.214349L37.215 3.47906L40.8174 4.00212C40.9752 4.02513 41.1061 4.1356 41.1555 4.28708C41.2049 4.43856 41.1635 4.60426 41.0496 4.71599Z" fill="#FFA910"/>
</g>
<g id="star_2">
<path id="Vector_4" d="M55.2176 4.71599L52.6111 7.25679L53.2266 10.8454C53.2534 11.0023 53.189 11.1609 53.0601 11.2546C52.9873 11.3078 52.9007 11.3345 52.8141 11.3345C52.7475 11.3345 52.6806 11.3186 52.6195 11.2864L49.3966 9.59214L46.1742 11.286C46.0336 11.3605 45.8624 11.3484 45.7335 11.2542C45.6047 11.1605 45.5402 11.0019 45.567 10.845L46.1825 7.25637L43.5756 4.71599C43.4618 4.60468 43.4204 4.43814 43.4697 4.28708C43.5191 4.13602 43.6501 4.02513 43.8078 4.00212L47.4102 3.47906L49.0213 0.214349C49.1623 -0.0714496 49.6309 -0.0714496 49.772 0.214349L51.383 3.47906L54.9854 4.00212C55.1431 4.02513 55.2741 4.1356 55.3235 4.28708C55.3729 4.43856 55.3314 4.60426 55.2176 4.71599Z" fill="#FFA910"/>
</g>
<g id="star_3">
<path id="Vector_5" d="M69.3856 4.71599L66.7791 7.25679L67.3946 10.8454C67.4214 11.0023 67.357 11.1609 67.2281 11.2546C67.1553 11.3078 67.0686 11.3345 66.982 11.3345C66.9155 11.3345 66.8485 11.3186 66.7874 11.2864L63.5646 9.59214L60.3421 11.286C60.2015 11.3605 60.0304 11.3484 59.9015 11.2542C59.7726 11.1605 59.7082 11.0019 59.735 10.845L60.3505 7.25637L57.7436 4.71599C57.6298 4.60468 57.5883 4.43814 57.6377 4.28708C57.6871 4.13602 57.8181 4.02513 57.9758 4.00212L61.5782 3.47906L63.1892 0.214349C63.3302 -0.0714496 63.7989 -0.0714496 63.9399 0.214349L65.5509 3.47906L69.1533 4.00212C69.3111 4.02513 69.4421 4.1356 69.4914 4.28708C69.5408 4.43856 69.4994 4.60426 69.3856 4.71599Z" fill="#FFA910"/>
</g>
</g>
</svg>
