<svg width="42" height="12" viewBox="0 0 42 12" fill="none" xmlns="http://www.w3.org/2000/svg">
<g id="Group 1171275921">
<path id="Vector" d="M11.7684 4.71599L9.16189 7.25679L9.77743 10.8454C9.80421 11.0023 9.73977 11.1609 9.61088 11.2546C9.53807 11.3078 9.45146 11.3345 9.36484 11.3345C9.2983 11.3345 9.23135 11.3186 9.17026 11.2864L5.94739 9.59214L2.72494 11.286C2.58434 11.3605 2.4132 11.3484 2.28432 11.2542C2.15543 11.1605 2.09099 11.0019 2.11777 10.845L2.73331 7.25637L0.126391 4.71599C0.0125733 4.60468 -0.0288529 4.43814 0.0205237 4.28708C0.0699003 4.13602 0.200874 4.02513 0.358628 4.00212L3.96103 3.47906L5.57204 0.214349C5.71306 -0.0714496 6.18172 -0.0714496 6.32274 0.214349L7.93375 3.47906L11.5362 4.00212C11.6939 4.02513 11.8249 4.1356 11.8743 4.28708C11.9236 4.43856 11.8822 4.60426 11.7684 4.71599Z" fill="#FFA910"/>
<path id="Vector_2" d="M26.8817 4.71599L24.2752 7.25679L24.8907 10.8454C24.9175 11.0023 24.853 11.1609 24.7242 11.2546C24.6514 11.3078 24.5647 11.3345 24.4781 11.3345C24.4116 11.3345 24.3446 11.3186 24.2835 11.2864L21.0607 9.59214L17.8382 11.286C17.6976 11.3605 17.5265 11.3484 17.3976 11.2542C17.2687 11.1605 17.2043 11.0019 17.2311 10.845L17.8466 7.25637L15.2397 4.71599C15.1259 4.60468 15.0844 4.43814 15.1338 4.28708C15.1832 4.13602 15.3142 4.02513 15.4719 4.00212L19.0743 3.47906L20.6853 0.214349C20.8263 -0.0714496 21.295 -0.0714496 21.436 0.214349L23.047 3.47906L26.6494 4.00212C26.8072 4.02513 26.9382 4.1356 26.9875 4.28708C27.0369 4.43856 26.9955 4.60426 26.8817 4.71599Z" fill="#FFA910"/>
<g id="star">
<path id="Vector_3" d="M41.0496 4.71599L38.4431 7.25679L39.0587 10.8454C39.0855 11.0023 39.021 11.1609 38.8921 11.2546C38.8193 11.3078 38.7327 11.3345 38.6461 11.3345C38.5796 11.3345 38.5126 11.3186 38.4515 11.2864L35.2286 9.59214L32.0062 11.286C31.8656 11.3605 31.6944 11.3484 31.5656 11.2542C31.4367 11.1605 31.3722 11.0019 31.399 10.845L32.0146 7.25637L29.4076 4.71599C29.2938 4.60468 29.2524 4.43814 29.3018 4.28708C29.3512 4.13602 29.4821 4.02513 29.6399 4.00212L33.2423 3.47906L34.8533 0.214349C34.9943 -0.0714496 35.463 -0.0714496 35.604 0.214349L37.215 3.47906L40.8174 4.00212C40.9752 4.02513 41.1061 4.1356 41.1555 4.28708C41.2049 4.43856 41.1635 4.60426 41.0496 4.71599Z" fill="#FFA910"/>
</g>
</g>
</svg>
