<svg width="12" height="12" viewBox="0 0 12 12" fill="none" xmlns="http://www.w3.org/2000/svg">
<g id="Group 1171275919">
<path id="Vector" d="M11.7684 4.71599L9.16189 7.25679L9.77743 10.8454C9.80421 11.0023 9.73977 11.1609 9.61088 11.2546C9.53807 11.3078 9.45146 11.3345 9.36484 11.3345C9.2983 11.3345 9.23135 11.3186 9.17026 11.2864L5.94739 9.59214L2.72494 11.286C2.58434 11.3605 2.4132 11.3484 2.28432 11.2542C2.15543 11.1605 2.09099 11.0019 2.11777 10.845L2.73331 7.25637L0.126391 4.71599C0.0125733 4.60468 -0.0288529 4.43814 0.0205237 4.28708C0.0699003 4.13602 0.200874 4.02513 0.358628 4.00212L3.96103 3.47906L5.57204 0.214349C5.71306 -0.0714496 6.18172 -0.0714496 6.32274 0.214349L7.93375 3.47906L11.5362 4.00212C11.6939 4.02513 11.8249 4.1356 11.8743 4.28708C11.9236 4.43856 11.8822 4.60426 11.7684 4.71599Z" fill="#FFA910"/>
</g>
</svg>
