<svg width="10" height="8" viewBox="0 0 10 8" fill="none" xmlns="http://www.w3.org/2000/svg">
<path d="M9.38958 0.266972C9.31157 0.188972 9.21408 0.149971 9.09708 0.149971C8.98007 0.149971 8.87824 0.188972 8.79158 0.266972L3.16258 5.89597L0.731575 3.46497C0.644909 3.3783 0.543075 3.33497 0.426075 3.33497C0.309075 3.33497 0.211575 3.3783 0.133575 3.46497C0.0555751 3.55164 0.0144085 3.6513 0.0100751 3.76397C0.00574182 3.87664 0.0469085 3.97631 0.133575 4.06297L2.83758 6.76697C2.86358 6.79297 2.90258 6.81681 2.95458 6.83847C3.00658 6.86014 3.05858 6.87097 3.11058 6.87097C3.16258 6.87097 3.21458 6.86014 3.26658 6.83847C3.31858 6.81681 3.35758 6.79297 3.38358 6.76697L9.33757 0.812972C9.44158 0.726305 9.49791 0.635305 9.50658 0.539971C9.51524 0.444638 9.47624 0.353638 9.38958 0.266972Z" fill="white"/>
</svg>
