<svg width="75" height="76" viewBox="0 0 75 76" fill="none" xmlns="http://www.w3.org/2000/svg">
<g id="chart 1">
<g id="_x39__x2C__Graph_x2C__Chart_x2C__Up_x2C__Banking">
<g id="Group">
<path id="Vector" d="M27.0946 45.3907C27.2687 45.5649 27.5187 45.6403 27.7598 45.5902C28.0009 45.5407 28.201 45.3734 28.2926 45.1449L33.8167 31.3346L41.8545 36.6933C42.0293 36.8099 42.246 36.8457 42.4488 36.7918C42.652 36.7379 42.8222 36.5994 42.916 36.4113L53.9795 14.2842L56.2543 18.8334C56.3596 19.044 56.5595 19.1911 56.7919 19.2289C57.0242 19.2667 57.2607 19.1901 57.427 19.0238L72.0754 4.37537C72.3615 4.08928 72.3615 3.62551 72.0754 3.33958C71.7897 3.05364 71.3256 3.05364 71.0398 3.33958L57.11 17.2695L54.6347 12.3191C54.5105 12.0709 54.2571 11.9142 53.9795 11.9142C53.7022 11.9142 53.4485 12.0709 53.3246 12.3191L41.9766 35.0145L33.878 29.6154C33.6943 29.493 33.4654 29.4596 33.2546 29.5253C33.0438 29.5907 32.8736 29.7478 32.7917 29.9527L27.3448 43.5697L22.2708 38.4957C22.1002 38.3252 21.8568 38.2491 21.6193 38.2935C21.382 38.3376 21.1816 38.4957 21.0838 38.7163L10.0342 63.5779V62.4511H7.83691C7.43232 62.4511 7.10449 62.1233 7.10449 61.7187C7.10449 61.3141 7.43232 60.9863 7.83691 60.9863H10.0342V56.5918H7.83691C7.43232 56.5918 7.10449 56.2639 7.10449 55.8593C7.10449 55.4548 7.43232 55.1269 7.83691 55.1269H10.0342V50.7324H7.83691C7.43232 50.7324 7.10449 50.4046 7.10449 50C7.10449 49.5954 7.43232 49.2675 7.83691 49.2675H10.0342V44.873H7.83691C7.43232 44.873 7.10449 44.5452 7.10449 44.1406C7.10449 43.736 7.43232 43.4082 7.83691 43.4082H10.0342V39.0136H7.83691C7.43232 39.0136 7.10449 38.6858 7.10449 38.2812C7.10449 37.8768 7.43232 37.5488 7.83691 37.5488H10.0342V33.1543H7.83691C7.43232 33.1543 7.10449 32.8263 7.10449 32.4218C7.10449 32.0174 7.43232 31.6894 7.83691 31.6894H10.0342V27.2949H7.83691C7.43232 27.2949 7.10449 26.9669 7.10449 26.5625C7.10449 26.158 7.43232 25.83 7.83691 25.83H10.0342V21.4355H7.83691C7.43232 21.4355 7.10449 21.1075 7.10449 20.7031C7.10449 20.2987 7.43232 19.9707 7.83691 19.9707H10.0342V15.5761H7.83691C7.43232 15.5761 7.10449 15.2482 7.10449 14.8437C7.10449 14.4393 7.43232 14.1113 7.83691 14.1113H10.0342V9.71677H7.83691C7.43232 9.71677 7.10449 9.38879 7.10449 8.98435C7.10449 8.57991 7.43232 8.25193 7.83691 8.25193H10.0342V3.8574H2.70996V72.705H71.5576V65.3808H67.1631V67.5781C67.1631 67.9827 66.8353 68.3105 66.4307 68.3105C66.0261 68.3105 65.6982 67.9827 65.6982 67.5781V65.3808H61.3037V67.5781C61.3037 67.9827 60.9759 68.3105 60.5713 68.3105C60.1667 68.3105 59.8389 67.9827 59.8389 67.5781V65.3808H55.4443V67.5781C55.4443 67.9827 55.1165 68.3105 54.7119 68.3105C54.3073 68.3105 53.9795 67.9827 53.9795 67.5781V65.3808H49.585V67.5781C49.585 67.9827 49.2571 68.3105 48.8525 68.3105C48.448 68.3105 48.1201 67.9827 48.1201 67.5781V65.3808H43.7256V67.5781C43.7256 67.9827 43.3978 68.3105 42.9932 68.3105C42.5886 68.3105 42.2607 67.9827 42.2607 67.5781V65.3808H37.8662V67.5781C37.8662 67.9827 37.5384 68.3105 37.1338 68.3105C36.7292 68.3105 36.4014 67.9827 36.4014 67.5781V65.3808H32.0068V67.5781C32.0068 67.9827 31.6789 68.3105 31.2744 68.3105C30.8698 68.3105 30.542 67.9827 30.542 67.5781V65.3808H26.1475V67.5781C26.1475 67.9827 25.8195 68.3105 25.415 68.3105C25.0105 68.3105 24.6826 67.9827 24.6826 67.5781V65.3808H20.2881V67.5781C20.2881 67.9827 19.9601 68.3105 19.5557 68.3105C19.1511 68.3105 18.8232 67.9827 18.8232 67.5781V65.3808H14.4287V67.5781C14.4287 67.9827 14.1007 68.3105 13.6963 68.3105C13.2917 68.3105 12.9639 67.9827 12.9639 67.5781V65.3808H10.8356L21.9894 40.2856L27.0946 45.3907Z" fill="black"/>
</g>
</g>
</g>
</svg>
